<svg shape-rendering="crispEdges" width="176" height="100" viewBox="0 0 176 100" fill="none" xmlns="http://www.w3.org/2000/svg">
    <g clip-path="url(#clip0_919_12836)">
        <path d="M143.033 33.1874L141.159 36.0696L144.041 37.9441L145.916 35.062L143.033 33.1874Z" fill="#262626"/>
        <path d="M141.148 36.0873L139.273 38.9695L142.156 40.844L144.03 37.9619L141.148 36.0873Z" fill="#262626"/>
        <path d="M140.027 38.9089L138.136 41.7969L141.024 43.6878L142.915 40.7998L140.027 38.9089Z" fill="#606060"/>
        <path d="M137.401 41.8537L135.526 44.7358L138.408 46.6104L140.283 43.7283L137.401 41.8537Z" fill="#606060"/>
        <path d="M136.265 44.7209L134.374 47.6089L137.262 49.4998L139.153 46.6118L136.265 44.7209Z" fill="#262626"/>
        <path d="M133.657 47.6254L131.783 50.5076L134.665 52.3821L136.539 49.5L133.657 47.6254Z" fill="#262626"/>
        <path d="M131.768 50.5061L129.893 53.3882L132.775 55.2627L134.65 52.3806L131.768 50.5061Z" fill="#606060"/>
        <path d="M129.896 53.3918L128.021 56.2739L130.903 58.1485L132.778 55.2663L129.896 53.3918Z" fill="#606060"/>
        <path d="M128.012 56.2841L126.138 59.1663L129.02 61.0408L130.895 58.1587L128.012 56.2841Z" fill="#262626"/>
        <path d="M126.141 59.1699L124.266 62.052L127.148 63.9265L129.023 61.0444L126.141 59.1699Z" fill="#262626"/>
        <path d="M124.278 62.0509L122.404 64.9333L125.287 66.8074L127.161 63.9249L124.278 62.0509Z" fill="#606060"/>
        <path d="M123.101 65.0365L121.21 67.9246L124.098 69.8155L125.989 66.9275L123.101 65.0365Z" fill="#606060"/>
        <path d="M121.211 67.9394L119.32 70.8274L122.208 72.7184L124.099 69.8303L121.211 67.9394Z" fill="#262626"/>
        <path d="M127.603 19.0429L129.483 16.1661L126.593 14.2856L124.712 17.1765L122.832 20.0533L125.723 21.9337L127.603 19.0429Z" fill="#515151"/>
        <path d="M139.138 26.5507L141.019 23.6739L138.128 21.7935L136.262 24.6843L134.381 27.5611L137.258 29.4415L139.138 26.5507Z" fill="#515151"/>
        <path d="M126.733 26.691L124.853 29.5818L127.743 31.4623L129.61 28.5714L131.49 25.6806L128.613 23.8142L126.733 26.691Z" fill="#515151"/>
        <path d="M164.244 51.0945L162.363 53.9853L160.483 56.8621L163.373 58.7425L165.254 55.8517L167.12 52.9749L164.244 51.0945Z" fill="#515151"/>
        <path d="M128.754 36.2194L126.874 39.1103L129.764 40.9767L131.631 38.0999L133.511 35.2091L130.62 33.3286L128.754 36.2194Z" fill="#515151"/>
        <path d="M153.705 48.3441L155.585 45.4674L152.694 43.5869L150.828 46.4777L148.948 49.3545L151.838 51.235L153.705 48.3441Z" fill="#515151"/>
        <path d="M120.095 30.5922L121.976 27.7014L119.085 25.835L117.205 28.7117L115.338 31.6026L118.215 33.483L120.095 30.5922Z" fill="#515151"/>
        <path d="M152.849 55.992L150.968 58.8828L153.845 60.7633L155.725 57.8725L157.606 54.9816L154.715 53.1152L152.849 55.992Z" fill="#515151"/>
        <path d="M119.225 38.2402L117.345 41.117L120.236 42.9974L122.116 40.1206L123.983 37.2298L121.106 35.3494L119.225 38.2402Z" fill="#515151"/>
        <path d="M142.31 53.2557L144.19 50.3649L146.057 47.4881L143.18 45.6077L141.299 48.4845L139.419 51.3753L142.31 53.2557Z" fill="#515151"/>
        <path d="M143.32 58.0129L141.44 60.9037L144.331 62.7701L146.197 59.8933L148.077 57.0025L145.201 55.1221L143.32 58.0129Z" fill="#515151"/>
        <path d="M154.855 65.5207L152.989 68.4115L155.866 70.2779L157.746 67.4011L159.627 64.5103L156.736 62.6299L154.855 65.5207Z" fill="#515151"/>
        <path d="M123.113 44.8779L121.246 47.7547L119.366 50.6455L122.257 52.526L124.123 49.6352L126.003 46.7584L123.113 44.8779Z" fill="#515151"/>
        <path d="M112.588 42.1273L114.468 39.2506L111.577 37.3701L109.697 40.2609L107.816 43.1377L110.707 45.0182L112.588 42.1273Z" fill="#515151"/>
        <path d="M145.327 67.5415L143.46 70.4182L146.337 72.2987L148.218 69.4219L150.098 66.5311L147.207 64.6506L145.327 67.5415Z" fill="#515151"/>
        <path d="M134.802 64.7909L136.683 61.9141L138.549 59.0233L135.672 57.1428L133.792 60.0336L131.911 62.9104L134.802 64.7909Z" fill="#515151"/>
        <path d="M114.608 51.6559L116.475 48.7651L113.598 46.8987L111.718 49.7755L109.837 52.6663L112.728 54.5467L114.608 51.6559Z" fill="#515151"/>
        <path d="M147.348 77.0557L145.481 79.9466L148.358 81.827L150.239 78.9362L152.119 76.0594L149.228 74.179L147.348 77.0557Z" fill="#515151"/>
        <path d="M138.689 71.4286L140.57 68.5518L137.693 66.6714L135.813 69.5482L133.932 72.439L136.823 74.3194L138.689 71.4286Z" fill="#515151"/>
        <path d="M113.738 59.3039L111.858 62.1947L114.749 64.0611L116.615 61.1843L118.496 58.2935L115.619 56.4131L113.738 59.3039Z" fill="#515151"/>
        <path d="M102.189 51.7963L100.323 54.6872L103.2 56.5536L105.08 53.6768L106.96 50.786L104.07 48.9055L102.189 51.7963Z" fill="#515151"/>
        <path d="M129.175 73.4494L131.055 70.5585L128.164 68.6921L126.284 71.5689L124.404 74.4598L127.294 76.3402L129.175 73.4494Z" fill="#515151"/>
        <path d="M140.71 80.9569L142.591 78.0661L139.7 76.1997L137.833 79.0765L135.953 81.9673L138.844 83.8478L140.71 80.9569Z" fill="#515151"/>
        <path d="M128.305 81.0974L126.424 83.9882L129.315 85.8546L131.182 82.9778L133.062 80.087L130.185 78.2065L128.305 81.0974Z" fill="#515151"/>
        <path d="M139.84 88.6052L137.974 91.482L140.85 93.3624L142.731 90.4856L144.611 87.5948L141.72 85.7144L139.84 88.6052Z" fill="#515151"/>
        <path d="M143.91 25.5402L141.019 23.6738L139.138 26.5506L137.258 29.4414L140.149 31.3219L142.029 28.4311L143.91 25.5402Z" fill="#353535"/>
        <path d="M130.48 20.9235L132.36 18.0467L129.484 16.1663L127.603 19.043L125.723 21.9339L128.613 23.8143L130.48 20.9235Z" fill="#353535"/>
        <path d="M129.61 28.5715L127.743 31.4623L130.62 33.3287L132.501 30.4519L134.381 27.5611L131.49 25.6807L129.61 28.5715Z" fill="#353535"/>
        <path d="M141.159 36.0792L143.04 33.1884L140.149 31.322L138.268 34.1988L136.402 37.0896L139.279 38.9701L141.159 36.0792Z" fill="#353535"/>
        <path d="M170.011 54.8415L167.12 52.9751L165.254 55.8519L163.374 58.7427L166.264 60.6231L168.131 57.7323L170.011 54.8415Z" fill="#353535"/>
        <path d="M136.402 37.0894L133.511 35.209L131.631 38.0998L129.764 40.9766L132.641 42.857L134.521 39.9662L136.402 37.0894Z" fill="#353535"/>
        <path d="M140.289 43.7271L143.18 45.6075L145.046 42.7167L146.927 39.8399L144.05 37.9595L142.169 40.8363L140.289 43.7271Z" fill="#353535"/>
        <path d="M156.596 50.2245L158.476 47.3337L155.585 45.4673L153.705 48.3441L151.838 51.2349L154.715 53.1153L156.596 50.2245Z" fill="#353535"/>
        <path d="M122.986 32.4727L124.853 29.5819L121.976 27.7014L120.096 30.5922L118.215 33.4831L121.106 35.3495L122.986 32.4727Z" fill="#353535"/>
        <path d="M144.19 50.3648L142.31 53.2556L145.201 55.1221L147.067 52.2453L148.947 49.3544L146.057 47.488L144.19 50.3648Z" fill="#353535"/>
        <path d="M155.725 57.8725L153.845 60.7633L156.736 62.6297L158.616 59.753L160.483 56.8621L157.606 54.9817L155.725 57.8725Z" fill="#353535"/>
        <path d="M164.384 63.4998L162.503 66.3907L165.394 68.2711L167.275 65.3803L169.141 62.4894L166.264 60.623L164.384 63.4998Z" fill="#353535"/>
        <path d="M122.116 40.1208L120.236 42.9976L123.113 44.878L124.993 41.9872L126.874 39.1104L123.983 37.23L122.116 40.1208Z" fill="#353535"/>
        <path d="M133.652 47.6284L135.532 44.7376L132.641 42.8572L130.775 45.748L128.894 48.6248L131.771 50.5052L133.652 47.6284Z" fill="#353535"/>
        <path d="M139.419 51.3753L136.542 49.4949L134.662 52.3857L132.781 55.2625L135.672 57.1429L137.553 54.2661L139.419 51.3753Z" fill="#353535"/>
        <path d="M146.197 59.8933L144.331 62.7701L147.207 64.6505L149.088 61.7737L150.968 58.8829L148.077 57.0024L146.197 59.8933Z" fill="#353535"/>
        <path d="M157.746 67.4011L155.866 70.2779L158.757 72.1583L160.637 69.2675L162.503 66.3907L159.627 64.5103L157.746 67.4011Z" fill="#353535"/>
        <path d="M128.894 48.6247L126.003 46.7583L124.123 49.6351L122.257 52.5259L125.133 54.4064L127.014 51.5155L128.894 48.6247Z" fill="#353535"/>
        <path d="M115.465 44.008L117.345 41.1171L114.468 39.2507L112.588 42.1275L110.707 45.0183L113.598 46.8988L115.465 44.008Z" fill="#353535"/>
        <path d="M148.218 69.4218L146.337 72.2986L149.228 74.1791L151.109 71.2882L152.989 68.4114L150.098 66.531L148.218 69.4218Z" fill="#353535"/>
        <path d="M139.559 63.7804L141.44 60.9036L138.549 59.0232L136.683 61.914L134.802 64.7908L137.693 66.6712L139.559 63.7804Z" fill="#353535"/>
        <path d="M154.996 77.9258L157.887 79.8063L159.767 76.9154L161.634 74.0386L158.757 72.1582L156.876 75.049L154.996 77.9258Z" fill="#353535"/>
        <path d="M117.485 53.5364L119.366 50.6456L116.475 48.7651L114.608 51.656L112.728 54.5468L115.619 56.4132L117.485 53.5364Z" fill="#353535"/>
        <path d="M126.144 59.1637L128.024 56.2729L125.133 54.4065L123.253 57.2833L121.386 60.1741L124.263 62.0545L126.144 59.1637Z" fill="#353535"/>
        <path d="M150.239 78.9364L148.358 81.8272L151.249 83.7076L153.115 80.8168L154.996 77.926L152.119 76.0596L150.239 78.9364Z" fill="#353535"/>
        <path d="M141.58 73.309L143.461 70.4182L140.57 68.5518L138.689 71.4286L136.823 74.3194L139.7 76.1998L141.58 73.309Z" fill="#353535"/>
        <path d="M130.045 65.8012L131.911 62.9104L129.035 61.0439L127.154 63.9207L125.274 66.8116L128.165 68.692L130.045 65.8012Z" fill="#353535"/>
        <path d="M121.386 60.1739L118.496 58.2935L116.615 61.1843L114.749 64.0611L117.626 65.9415L119.506 63.0647L121.386 60.1739Z" fill="#353535"/>
        <path d="M105.08 53.6767L103.199 56.5535L106.09 58.4339L107.971 55.5572L109.837 52.6663L106.96 50.7859L105.08 53.6767Z" fill="#353535"/>
        <path d="M132.052 75.3299L133.932 72.439L131.055 70.5586L129.175 73.4494L127.294 76.3402L130.185 78.2066L132.052 75.3299Z" fill="#353535"/>
        <path d="M143.601 82.8374L145.481 79.9466L142.591 78.0662L140.71 80.957L138.844 83.8478L141.721 85.7142L143.601 82.8374Z" fill="#353535"/>
        <path d="M147.488 89.4751L150.379 91.3415L152.259 88.4647L154.126 85.5739L151.249 83.7075L149.368 86.5843L147.488 89.4751Z" fill="#353535"/>
        <path d="M119.646 75.4702L117.766 78.347L120.657 80.2274L122.537 77.3506L124.404 74.4598L121.527 72.5793L119.646 75.4702Z" fill="#353535"/>
        <path d="M131.182 82.9777L129.315 85.8545L132.192 87.735L134.072 84.8582L135.953 81.9674L133.062 80.0869L131.182 82.9777Z" fill="#353535"/>
        <path d="M142.731 90.4856L140.85 93.3623L143.741 95.2428L145.622 92.352L147.488 89.4752L144.611 87.5947L142.731 90.4856Z" fill="#353535"/>
        <path d="M134.381 27.5611L136.262 24.6843L138.128 21.7935L135.251 19.913L132.36 18.0466L130.48 20.9234L128.614 23.8142L131.49 25.6806L134.381 27.5611Z" fill="#EDEDED"/>
        <path d="M144.92 30.3115L146.786 27.4207L143.91 25.5403L142.029 28.4311L140.149 31.3219L143.04 33.1883L144.92 30.3115Z" fill="#EDEDED"/>
        <path d="M128.613 23.8141L125.723 21.9337L122.832 20.0532L120.965 22.944L119.085 25.8349L121.976 27.7013L124.853 29.5817L126.733 26.6909L128.613 23.8141Z" fill="#EDEDED"/>
        <path d="M130.62 33.3286L133.511 35.2091L136.402 37.0895L138.268 34.1987L140.149 31.3219L137.258 29.4415L134.381 27.561L132.501 30.4519L130.62 33.3286Z" fill="#EDEDED"/>
        <path d="M170.011 54.8413L168.131 57.7321L166.264 60.623L169.141 62.4894L171.022 59.6126L172.902 56.7217L170.011 54.8413Z" fill="#EDEDED"/>
        <path d="M148.948 49.3545L150.828 46.4778L152.694 43.5869L149.818 41.7065L146.927 39.8401L145.046 42.7169L143.18 45.6077L146.057 47.4881L148.948 49.3545Z" fill="#EDEDED"/>
        <path d="M160.483 56.8622L162.363 53.9854L164.244 51.0946L161.353 49.2142L158.476 47.3337L156.596 50.2246L154.715 53.1154L157.606 54.9818L160.483 56.8622Z" fill="#EDEDED"/>
        <path d="M126.873 39.1103L128.754 36.2195L130.62 33.3286L127.743 31.4622L124.853 29.5818L122.986 32.4726L121.106 35.3494L123.982 37.2298L126.873 39.1103Z" fill="#EDEDED"/>
        <path d="M132.641 42.8572L135.532 44.7376L137.412 41.8468L139.279 38.97L136.402 37.0896L134.522 39.9664L132.641 42.8572Z" fill="#EDEDED"/>
        <path d="M143.18 45.6077L140.289 43.7273L138.409 46.6181L136.542 49.4949L139.419 51.3753L141.299 48.4845L143.18 45.6077Z" fill="#EDEDED"/>
        <path d="M160.483 56.8623L158.616 59.7531L156.736 62.6299L159.627 64.5104L162.503 66.3908L164.384 63.5L166.264 60.6232L163.373 58.7427L160.483 56.8623Z" fill="#EDEDED"/>
        <path d="M121.106 35.3494L118.215 33.483L115.338 31.6025L113.458 34.4793L111.577 37.3701L114.468 39.2506L117.345 41.117L119.225 38.2402L121.106 35.3494Z" fill="#EDEDED"/>
        <path d="M126.873 39.1104L124.993 41.9871L123.113 44.878L126.003 46.7584L128.894 48.6248L130.775 45.748L132.641 42.8572L129.764 40.9768L126.873 39.1104Z" fill="#EDEDED"/>
        <path d="M145.201 55.1221L148.077 57.0025L150.968 58.883L152.849 55.9922L154.715 53.1154L151.838 51.2349L148.948 49.3545L147.067 52.2453L145.201 55.1221Z" fill="#EDEDED"/>
        <path d="M150.968 58.8831L149.088 61.7739L147.208 64.6507L150.098 66.5311L152.989 68.4115L154.856 65.5207L156.736 62.6299L153.845 60.7635L150.968 58.8831Z" fill="#EDEDED"/>
        <path d="M141.44 60.9037L143.32 58.0129L145.201 55.1221L142.31 53.2557L139.419 51.3752L137.553 54.2661L135.672 57.1429L138.549 59.0233L141.44 60.9037Z" fill="#EDEDED"/>
        <path d="M158.757 72.1582L161.633 74.0387L163.514 71.1479L165.394 68.2711L162.503 66.3906L160.637 69.2674L158.757 72.1582Z" fill="#EDEDED"/>
        <path d="M119.366 50.6454L121.246 47.7546L123.113 44.8778L120.236 42.9974L117.345 41.1169L115.465 44.0078L113.598 46.8986L116.475 48.765L119.366 50.6454Z" fill="#EDEDED"/>
        <path d="M125.133 54.4064L128.024 56.2728L129.905 53.396L131.771 50.5052L128.894 48.6248L127.014 51.5156L125.133 54.4064Z" fill="#EDEDED"/>
        <path d="M135.672 57.1429L132.781 55.2625L130.901 58.1533L129.034 61.0441L131.911 62.9105L133.792 60.0337L135.672 57.1429Z" fill="#EDEDED"/>
        <path d="M152.989 68.4114L151.109 71.2882L149.228 74.179L152.119 76.0594L154.996 77.9258L156.876 75.049L158.757 72.1582L155.866 70.2778L152.989 68.4114Z" fill="#EDEDED"/>
        <path d="M113.598 46.8986L110.707 45.0181L107.816 43.1377L105.95 46.0285L104.07 48.9053L106.96 50.7857L109.837 52.6662L111.718 49.7754L113.598 46.8986Z" fill="#EDEDED"/>
        <path d="M125.133 54.4064L122.257 52.5259L119.366 50.6455L117.485 53.5363L115.619 56.4131L118.496 58.2936L121.387 60.174L123.253 57.2832L125.133 54.4064Z" fill="#EDEDED"/>
        <path d="M143.46 70.4183L145.327 67.5415L147.207 64.6506L144.331 62.7702L141.44 60.9038L139.559 63.7806L137.693 66.6714L140.57 68.5519L143.46 70.4183Z" fill="#EDEDED"/>
        <path d="M143.461 70.4182L141.58 73.309L139.7 76.1999L142.591 78.0663L145.481 79.9467L147.348 77.0559L149.228 74.1791L146.337 72.2987L143.461 70.4182Z" fill="#EDEDED"/>
        <path d="M151.249 83.7074L154.126 85.5738L156.006 82.697L157.887 79.8062L154.996 77.9258L153.115 80.8166L151.249 83.7074Z" fill="#EDEDED"/>
        <path d="M133.932 72.4389L135.813 69.5481L137.693 66.6713L134.802 64.7908L131.911 62.9104L130.045 65.8012L128.165 68.692L131.055 70.5584L133.932 72.4389Z" fill="#EDEDED"/>
        <path d="M124.263 62.0545L121.386 60.1741L119.506 63.0649L117.625 65.9417L120.516 67.8221L122.397 64.9313L124.263 62.0545Z" fill="#EDEDED"/>
        <path d="M109.837 52.6663L107.971 55.5571L106.09 58.4339L108.981 60.3143L111.858 62.1947L113.738 59.3039L115.619 56.4131L112.728 54.5467L109.837 52.6663Z" fill="#EDEDED"/>
        <path d="M128.165 68.6922L125.274 66.8118L123.407 69.7026L121.527 72.5794L124.404 74.4598L126.284 71.569L128.165 68.6922Z" fill="#EDEDED"/>
        <path d="M139.7 76.1998L136.823 74.3194L133.932 72.439L132.052 75.3298L130.185 78.2066L133.062 80.087L135.953 81.9675L137.833 79.0766L139.7 76.1998Z" fill="#EDEDED"/>
        <path d="M145.481 79.9468L143.601 82.8376L141.72 85.7144L144.611 87.5948L147.488 89.4753L149.369 86.5844L151.249 83.7077L148.358 81.8272L145.481 79.9468Z" fill="#EDEDED"/>
        <path d="M124.404 74.4597L122.537 77.3505L120.657 80.2273L123.548 82.1078L126.424 83.9882L128.305 81.0974L130.185 78.2066L127.294 76.3402L124.404 74.4597Z" fill="#EDEDED"/>
        <path d="M135.953 81.9675L134.072 84.8584L132.192 87.7351L135.083 89.6156L137.974 91.482L139.84 88.6052L141.72 85.7144L138.844 83.848L135.953 81.9675Z" fill="#EDEDED"/>
        <path d="M143.741 95.2427L146.618 97.1231L148.498 94.2323L150.379 91.3415L147.488 89.4751L145.622 92.3519L143.741 95.2427Z" fill="#EDEDED"/>
        <path d="M121.695 2.89087L119.815 5.76766L117.934 8.65848L116.054 11.5353L114.187 14.4261L112.307 17.3169L110.427 20.1937L108.546 23.0845L106.68 25.9753L104.799 28.8521L102.919 31.743L101.038 34.6197L99.172 37.5106L97.2915 40.4014L95.4111 43.2782L93.5447 46.169L96.4215 48.0494L98.3019 45.1586L100.182 42.2678L102.049 39.391L103.929 36.5002L105.81 33.6094L107.676 30.7326L109.556 27.8418L111.437 24.965L113.317 22.0741L115.184 19.1974L117.064 16.3065L118.945 13.4157L120.825 10.5389L122.691 7.6481L124.572 4.75727L121.695 2.89087Z" fill="#C1D1E0"/>
        <path d="M91.6473 49.0461L89.7727 51.9282L92.6548 53.8028L94.5294 50.9206L91.6473 49.0461Z" fill="#C1D1E0"/>
        <path d="M86.0371 57.7042L84.1566 60.595L82.2762 63.4858L80.3958 66.3626L78.5294 69.2534L76.6489 72.1302L79.5257 74.0107L81.4062 71.1339L83.2866 68.2431L85.167 65.3522L87.0334 62.4754L88.9139 59.5846L90.7943 56.7078L87.9035 54.8274L86.0371 57.7042Z" fill="#C1D1E0"/>
        <path d="M124.572 4.75732L122.692 7.64815L120.825 10.539L118.945 13.4158L117.064 16.3066L115.184 19.1974L113.318 22.0742L111.437 24.965L109.557 27.8418L107.676 30.7326L105.81 33.6094L103.929 36.5002L102.049 39.3911L100.183 42.2678L98.3021 45.1587L96.4217 48.0495L93.5449 46.1691L91.6644 49.0458L94.5412 50.9263L92.6748 53.8171L89.784 51.9367L87.9036 54.8275L90.7944 56.7079L88.914 59.5847L87.0335 62.4755L85.1671 65.3523L83.2867 68.2431L81.4062 71.134L79.5258 74.0108L76.649 72.1303L74.7686 75.0211L72.8881 77.912L71.0217 80.7888L73.8985 82.6692L76.7893 84.5496L78.6698 81.6588L80.5362 78.768L82.4166 75.8912L84.2971 73.0004L86.1775 70.1236L88.0439 67.2328L89.9243 64.3419L91.8048 61.4652L93.6712 58.5743L95.5516 55.6975L97.4321 52.8067L99.3125 49.9159L101.179 47.0391L103.059 44.1483L104.94 41.2715L106.82 38.3807L108.687 35.4899L110.567 32.6131L112.447 29.7222L114.328 26.8314L116.194 23.9546L118.075 21.0638L119.955 18.187L121.822 15.2962L123.702 12.4054L125.582 9.52858L127.463 6.63776L124.572 4.75732Z" fill="#86919E"/>
        <path d="M127.463 6.63767L129.343 3.74684L126.453 1.88044L123.562 0L121.695 2.89082L124.572 4.75723L127.463 6.63767Z" fill="#231F20"/>
        <path d="M143.04 33.1883L145.916 35.0687L147.797 32.1779L149.677 29.3011L146.786 27.4207L144.92 30.3115L143.04 33.1883Z" fill="#231F20"/>
        <path d="M146.927 39.8401L149.818 41.7065L152.694 43.587L155.585 45.4674L158.476 47.3338L161.353 49.2142L164.244 51.0947L167.12 52.9751L170.011 54.8415L172.902 56.7219L174.783 53.8452L171.892 51.9647L169.001 50.0843L166.124 48.2038L163.233 46.3374L160.343 44.457L157.466 42.5766L154.575 40.6961L151.698 38.8297L148.807 36.9493L145.916 35.0688L144.05 37.9597L146.927 39.8401Z" fill="#231F20"/>
        <path d="M172.902 56.7219L171.022 59.6127L169.141 62.4895L167.275 65.3804L165.394 68.2712L163.514 71.148L161.633 74.0388L159.767 76.9156L157.887 79.8064L156.006 82.6972L154.126 85.574L152.259 88.4648L150.379 91.3416L148.498 94.2325L146.618 97.1233L149.509 99.0037L151.389 96.1129L153.27 93.2221L155.136 90.3453L157.016 87.4545L158.897 84.5636L160.763 81.6868L162.644 78.796L164.524 75.9192L166.405 73.0284L168.285 70.1376L170.151 67.2608L172.032 64.37L173.912 61.4792L175.779 58.6024L172.902 56.7219Z" fill="#231F20"/>
        <path d="M117.626 65.9417L114.749 64.0612L111.858 62.1948L108.981 60.3144L106.09 58.4339L103.2 56.5535L100.323 54.6871L102.189 51.7963L104.07 48.9054L105.95 46.0287L107.817 43.1378L109.697 40.261L111.577 37.3702L113.458 34.4794L115.338 31.6026L117.205 28.7118L119.085 25.835L120.966 22.9442L122.832 20.0534L124.712 17.1766L126.593 14.2857L129.484 16.1662L132.36 18.0466L135.251 19.913L138.128 21.7935L141.019 23.6739L143.91 25.5403L146.786 27.4207L148.667 24.544L145.776 22.6635L142.899 20.7831L140.008 18.9026L137.132 17.0362L134.241 15.1558L131.35 13.2754L128.473 11.409L130.34 8.51813L127.463 6.6377L125.582 9.52852L123.702 12.4053L121.822 15.2961L119.955 18.1869L118.075 21.0637L116.194 23.9546L114.328 26.8314L112.447 29.7222L110.567 32.613L108.687 35.4898L106.82 38.3806L104.94 41.2714L103.059 44.1482L101.179 47.039L99.3125 49.9158L97.432 52.8067L95.5516 55.6975L93.6711 58.5743L91.8047 61.4651L89.9243 64.3419L88.0439 67.2327L86.1775 70.1235L84.297 73.0003L82.4166 75.8911L80.5361 78.7679L78.6697 81.6587L76.7893 84.5496L79.6661 86.416L81.5465 83.5392L83.427 80.6484L85.3074 77.7716L87.1878 74.8807L89.0542 71.9899L90.9347 69.1131L92.8151 66.2223L94.6815 63.3315L96.562 60.4547L98.4424 57.5639L101.319 59.4443L104.21 61.3248L107.101 63.1912L109.978 65.0716L112.868 66.952L115.759 68.8325L118.636 70.6989L120.516 67.8221L117.626 65.9417Z" fill="#231F20"/>
        <path d="M121.527 72.5792L118.636 70.6987L116.756 73.5895L114.889 76.4804L117.766 78.3468L119.646 75.47L121.527 72.5792Z" fill="#231F20"/>
        <path d="M140.85 93.3624L137.974 91.4819L135.083 89.6155L132.192 87.7351L129.315 85.8546L126.424 83.9882L123.547 82.1078L120.657 80.2274L117.766 78.3469L115.899 81.2377L118.776 83.1182L121.667 84.9846L124.544 86.865L127.435 88.7455L130.325 90.6259L133.202 92.4923L136.093 94.3727L138.97 96.2532L141.861 98.1336L144.752 100L146.618 97.1232L143.741 95.2428L140.85 93.3624Z" fill="#231F20"/>
        <path d="M74.7685 75.0212L76.649 72.1303L78.5294 69.2535L80.3958 66.3627L82.2762 63.4859L84.1567 60.5951L86.0371 57.7043L87.9035 54.8275L89.784 51.9367L91.6644 49.0459L93.5448 46.1691L95.4112 43.2783L97.2917 40.4015L99.1721 37.5106L101.039 34.6198L102.919 31.743L104.799 28.8522L106.68 25.9754L108.546 23.0846L110.427 20.1938L112.307 17.317L114.188 14.4262L116.054 11.5353L117.934 8.65855L119.815 5.76773L121.695 2.89094L118.804 1.0105L116.924 3.88729L115.044 6.77811L113.177 9.66893L111.297 12.5457L109.416 15.4365L107.55 18.3274L105.669 21.2042L103.789 24.095L101.909 26.9718L100.042 29.8626L98.1617 32.7534L96.2813 35.6302L94.4009 38.521L92.5345 41.3978L90.654 44.2886L88.7736 47.1795L86.8931 50.0562L85.0267 52.9471L83.1463 55.8379L81.2659 58.7147L79.3995 61.6055L77.519 64.4823L75.6386 67.3731L73.7581 70.2639L71.8917 73.1407L70.0113 76.0315L68.1309 78.9083L71.0217 80.7888L72.8881 77.912L74.7685 75.0212Z" fill="#231F20"/>
        <path d="M71.0216 80.7886L69.1411 83.6794L72.0319 85.5598L74.9087 87.4262L76.7892 84.5495L73.8983 82.669L71.0216 80.7886Z" fill="#231F20"/>
        <path d="M36.5008 38.9668L33.6187 40.8413L35.4932 43.7234L38.3753 41.8489L36.5008 38.9668Z" fill="#606060"/>
        <path d="M38.3707 41.8481L35.4885 43.7227L37.3631 46.6048L40.2452 44.7303L38.3707 41.8481Z" fill="#606060"/>
        <path d="M43.9918 50.5149L41.1096 52.3894L42.9842 55.2715L45.8663 53.397L43.9918 50.5149Z" fill="#606060"/>
        <path d="M45.8814 53.4006L42.9993 55.2751L44.8738 58.1573L47.7559 56.2827L45.8814 53.4006Z" fill="#606060"/>
        <path d="M51.5123 62.0527L48.6299 63.9268L50.5039 66.8092L53.3864 64.9352L51.5123 62.0527Z" fill="#606060"/>
        <path d="M53.7908 64.7924L50.9028 66.6833L52.7938 69.5714L55.6818 67.6804L53.7908 64.7924Z" fill="#606060"/>
        <path d="M32.7534 33.1882L29.8625 35.0687L31.743 37.9595L33.6094 40.8363L36.5002 38.9699L34.6198 36.0791L32.7534 33.1882Z" fill="#262626"/>
        <path d="M40.2609 44.7375L37.3701 46.618L39.2506 49.4948L41.117 52.3856L44.0078 50.5052L42.1273 47.6284L40.2609 44.7375Z" fill="#262626"/>
        <path d="M47.7547 56.2727L44.8779 58.1531L46.7584 61.044L48.6248 63.9208L51.5156 62.0544L49.6352 59.1635L47.7547 56.2727Z" fill="#262626"/>
        <path d="M55.2737 67.8127L52.3916 69.6873L54.2661 72.5694L57.1483 70.6948L55.2737 67.8127Z" fill="#262626"/>
        <path d="M50.0562 21.9337L52.947 20.0533L51.0666 17.1765L49.1861 14.2856L46.3093 16.1661L48.1898 19.0429L50.0562 21.9337Z" fill="#515151"/>
        <path d="M38.5209 29.4415L41.3977 27.5611L39.5313 24.6843L37.6508 21.7935L34.76 23.6739L36.6404 26.5507L38.5209 29.4415Z" fill="#515151"/>
        <path d="M48.0495 31.4623L50.9262 29.5818L49.0458 26.691L47.1794 23.8142L44.2886 25.6806L46.169 28.5714L48.0495 31.4623Z" fill="#515151"/>
        <path d="M11.5352 51.0945L8.65845 52.9749L10.5389 55.8517L12.4053 58.7425L15.2961 56.8621L13.4157 53.9853L11.5352 51.0945Z" fill="#515151"/>
        <path d="M23.9545 51.235L26.8313 49.3545L24.9649 46.4777L23.0844 43.5869L20.1936 45.4674L22.074 48.3441L23.9545 51.235Z" fill="#515151"/>
        <path d="M57.5637 33.483L60.4546 31.6026L58.5741 28.7117L56.6937 25.835L53.8169 27.7014L55.6973 30.5922L57.5637 33.483Z" fill="#515151"/>
        <path d="M46.0287 40.9767L48.9055 39.1103L47.0391 36.2194L45.1586 33.3286L42.2678 35.2091L44.1483 38.0999L46.0287 40.9767Z" fill="#515151"/>
        <path d="M54.687 35.3494L51.7961 37.2298L53.6766 40.1206L55.557 42.9974L58.4338 41.117L56.5534 38.2402L54.687 35.3494Z" fill="#515151"/>
        <path d="M33.483 53.2557L36.3598 51.3753L34.4794 48.4845L32.613 45.6077L29.7222 47.4881L31.6026 50.3649L33.483 53.2557Z" fill="#515151"/>
        <path d="M21.9339 60.7633L24.8247 58.8828L22.9442 55.992L21.0638 53.1152L18.187 54.9816L20.0534 57.8725L21.9339 60.7633Z" fill="#515151"/>
        <path d="M19.043 62.6299L16.1663 64.5103L18.0467 67.4011L19.9131 70.2779L22.8039 68.4115L20.9235 65.5207L19.043 62.6299Z" fill="#515151"/>
        <path d="M64.2015 37.3701L61.3247 39.2506L63.1911 42.1273L65.0715 45.0182L67.9624 43.1377L66.0819 40.2609L64.2015 37.3701Z" fill="#515151"/>
        <path d="M52.6662 44.8779L49.7754 46.7584L51.6558 49.6352L53.5363 52.526L56.4131 50.6455L54.5466 47.7547L52.6662 44.8779Z" fill="#515151"/>
        <path d="M31.4623 62.7701L34.3391 60.9037L32.4727 58.0129L30.5922 55.1221L27.7014 57.0025L29.5819 59.8933L31.4623 62.7701Z" fill="#515151"/>
        <path d="M37.23 59.0233L39.1104 61.9141L40.9768 64.7909L43.8676 62.9104L41.9872 60.0336L40.1208 57.1428L37.23 59.0233Z" fill="#515151"/>
        <path d="M28.5715 64.6506L25.6807 66.5311L27.5611 69.4219L29.4415 72.2987L32.3324 70.4182L30.4519 67.5415L28.5715 64.6506Z" fill="#515151"/>
        <path d="M62.1948 46.8987L59.304 48.7651L61.1844 51.6559L63.0648 54.5467L65.9416 52.6663L64.0612 49.7755L62.1948 46.8987Z" fill="#515151"/>
        <path d="M38.0998 66.6714L35.209 68.5518L37.0894 71.4286L38.9699 74.3194L41.8466 72.439L39.9662 69.5482L38.0998 66.6714Z" fill="#515151"/>
        <path d="M26.5506 74.179L23.6738 76.0594L25.5402 78.9362L27.4207 81.827L30.3115 79.9466L28.4311 77.0557L26.5506 74.179Z" fill="#515151"/>
        <path d="M60.174 56.4131L57.2832 58.2935L59.1636 61.1843L61.0441 64.0611L63.9209 62.1947L62.0545 59.3039L60.174 56.4131Z" fill="#515151"/>
        <path d="M73.5897 51.7963L71.7093 48.9055L68.8325 50.786L70.6989 53.6768L72.5794 56.5536L75.4702 54.6872L73.5897 51.7963Z" fill="#515151"/>
        <path d="M47.6284 68.6921L44.7375 70.5585L46.618 73.4494L48.4844 76.3402L51.3752 74.4598L49.4948 71.5689L47.6284 68.6921Z" fill="#515151"/>
        <path d="M36.0791 76.1997L33.1882 78.0661L35.0687 80.9569L36.9491 83.8478L39.8399 81.9673L37.9595 79.0765L36.0791 76.1997Z" fill="#515151"/>
        <path d="M45.6076 78.2065L42.7168 80.087L44.5972 82.9778L46.4777 85.8546L49.3545 83.9882L47.474 81.0974L45.6076 78.2065Z" fill="#515151"/>
        <path d="M34.0584 85.7144L31.1816 87.5948L33.048 90.4856L34.9285 93.3624L37.8193 91.482L35.9389 88.6052L34.0584 85.7144Z" fill="#515151"/>
        <path d="M47.1793 23.8143L50.0561 21.9339L48.1897 19.043L46.3093 16.1663L43.4185 18.0467L45.2989 20.9235L47.1793 23.8143Z" fill="#353535"/>
        <path d="M36.6405 26.5506L34.7601 23.6738L31.8833 25.5402L33.7497 28.4311L35.6301 31.3219L38.521 29.4414L36.6405 26.5506Z" fill="#353535"/>
        <path d="M35.6302 31.322L32.7534 33.1884L34.6198 36.0792L36.5003 38.9701L39.3911 37.0896L37.5106 34.1988L35.6302 31.322Z" fill="#353535"/>
        <path d="M45.1586 33.3287L48.0494 31.4623L46.169 28.5715L44.2885 25.6807L41.3977 27.5611L43.2781 30.4519L45.1586 33.3287Z" fill="#353535"/>
        <path d="M32.6129 45.6075L35.4897 43.7271L33.6093 40.8363L31.7429 37.9595L28.8521 39.8399L30.7325 42.7167L32.6129 45.6075Z" fill="#353535"/>
        <path d="M21.0637 53.1153L23.9546 51.2349L22.0741 48.3441L20.1937 45.4673L17.3169 47.3337L19.1833 50.2245L21.0637 53.1153Z" fill="#353535"/>
        <path d="M10.5388 55.8519L8.6584 52.9751L5.76758 54.8415L7.64802 57.7323L9.52845 60.6231L12.4052 58.7427L10.5388 55.8519Z" fill="#353535"/>
        <path d="M54.6871 35.3495L57.5639 33.4831L55.6975 30.5922L53.8171 27.7014L50.9263 29.5819L52.8067 32.4727L54.6871 35.3495Z" fill="#353535"/>
        <path d="M44.1481 38.0998L42.2677 35.209L39.3909 37.0894L41.2713 39.9662L43.1377 42.857L46.0285 40.9766L44.1481 38.0998Z" fill="#353535"/>
        <path d="M9.52852 60.623L6.6377 62.4894L8.51813 65.3803L10.3986 68.2711L13.2754 66.3907L11.409 63.4998L9.52852 60.623Z" fill="#353535"/>
        <path d="M51.7963 37.23L48.9055 39.1104L50.786 41.9872L52.6664 44.878L55.5572 42.9976L53.6768 40.1208L51.7963 37.23Z" fill="#353535"/>
        <path d="M43.1378 42.8572L40.261 44.7376L42.1274 47.6284L44.0078 50.5052L46.8986 48.6248L45.0182 45.748L43.1378 42.8572Z" fill="#353535"/>
        <path d="M30.5922 55.1221L33.483 53.2556L31.6026 50.3648L29.7221 47.488L26.8313 49.3544L28.7117 52.2453L30.5922 55.1221Z" fill="#353535"/>
        <path d="M19.043 62.6297L21.9338 60.7633L20.0534 57.8725L18.187 54.9817L15.2961 56.8621L17.1766 59.753L19.043 62.6297Z" fill="#353535"/>
        <path d="M61.3247 39.2507L58.4338 41.1171L60.3143 44.008L62.1947 46.8988L65.0715 45.0183L63.1911 42.1275L61.3247 39.2507Z" fill="#353535"/>
        <path d="M40.1207 57.1429L42.9975 55.2625L41.1171 52.3857L39.2507 49.4949L36.3599 51.3753L38.2403 54.2661L40.1207 57.1429Z" fill="#353535"/>
        <path d="M28.5715 64.6505L31.4624 62.7701L29.5819 59.8933L27.7015 57.0024L24.8247 58.8829L26.6911 61.7737L28.5715 64.6505Z" fill="#353535"/>
        <path d="M18.0467 67.4011L16.1662 64.5103L13.2754 66.3907L15.1558 69.2675L17.0363 72.1583L19.9131 70.2779L18.0467 67.4011Z" fill="#353535"/>
        <path d="M51.6559 49.6351L49.7755 46.7583L46.8987 48.6247L48.7651 51.5155L50.6455 54.4064L53.5364 52.5259L51.6559 49.6351Z" fill="#353535"/>
        <path d="M36.2195 63.7804L38.1 66.6712L40.9768 64.7908L39.1104 61.914L37.2299 59.0232L34.3391 60.9036L36.2195 63.7804Z" fill="#353535"/>
        <path d="M25.6805 66.531L22.8037 68.4114L24.6841 71.2882L26.5506 74.1791L29.4414 72.2986L27.5609 69.4218L25.6805 66.531Z" fill="#353535"/>
        <path d="M17.0361 72.1582L14.1453 74.0386L16.0257 76.9154L17.9061 79.8063L20.7829 77.9258L18.9025 75.049L17.0361 72.1582Z" fill="#353535"/>
        <path d="M59.3039 48.7651L56.4131 50.6456L58.2935 53.5364L60.174 56.4132L63.0648 54.5468L61.1843 51.656L59.3039 48.7651Z" fill="#353535"/>
        <path d="M50.6455 54.4065L47.7546 56.2729L49.6351 59.1637L51.5155 62.0545L54.4063 60.1741L52.5259 57.2833L50.6455 54.4065Z" fill="#353535"/>
        <path d="M46.7583 61.0439L43.8674 62.9104L45.7479 65.8012L47.6283 68.692L50.5051 66.8116L48.6247 63.9207L46.7583 61.0439Z" fill="#353535"/>
        <path d="M35.2091 68.5518L32.3323 70.4182L34.1987 73.309L36.0791 76.1998L38.9699 74.3194L37.0895 71.4286L35.2091 68.5518Z" fill="#353535"/>
        <path d="M25.5402 78.9364L23.6738 76.0596L20.783 77.926L22.6634 80.8168L24.5438 83.7076L27.4206 81.8272L25.5402 78.9364Z" fill="#353535"/>
        <path d="M57.2833 58.2935L54.4065 60.1739L56.2729 63.0647L58.1533 65.9415L61.0442 64.0611L59.1637 61.1843L57.2833 58.2935Z" fill="#353535"/>
        <path d="M70.6989 53.6767L68.8325 50.7859L65.9417 52.6663L67.8221 55.5572L69.6885 58.4339L72.5793 56.5535L70.6989 53.6767Z" fill="#353535"/>
        <path d="M44.7375 70.5586L41.8467 72.439L43.7271 75.3299L45.6076 78.2066L48.4843 76.3402L46.6179 73.4494L44.7375 70.5586Z" fill="#353535"/>
        <path d="M33.1883 78.0662L30.3115 79.9466L32.1779 82.8374L34.0584 85.7142L36.9492 83.8478L35.0687 80.957L33.1883 78.0662Z" fill="#353535"/>
        <path d="M24.5439 83.7075L21.6531 85.5739L23.5335 88.4647L25.3999 91.3415L28.2907 89.4751L26.4103 86.5843L24.5439 83.7075Z" fill="#353535"/>
        <path d="M54.2661 72.5793L51.3752 74.4598L53.2557 77.3506L55.1221 80.2274L58.0129 78.347L56.1325 75.4702L54.2661 72.5793Z" fill="#353535"/>
        <path d="M42.7169 80.0869L39.8401 81.9674L41.7065 84.8582L43.5869 87.735L46.4778 85.8545L44.5973 82.9777L42.7169 80.0869Z" fill="#353535"/>
        <path d="M31.1816 87.5947L28.2908 89.4752L30.1712 92.352L32.0516 95.2428L34.9284 93.3623L33.048 90.4856L31.1816 87.5947Z" fill="#353535"/>
        <path d="M31.8833 25.5403L28.9924 27.4207L30.8729 30.3115L32.7533 33.1883L35.6301 31.3219L33.7497 28.4311L31.8833 25.5403Z" fill="#EDEDED"/>
        <path d="M47.1794 23.8142L45.2989 20.9234L43.4185 18.0466L40.5417 19.913L37.6509 21.7935L39.5313 24.6843L41.3977 27.5611L44.2885 25.6806L47.1794 23.8142Z" fill="#EDEDED"/>
        <path d="M50.9263 29.5817L53.8171 27.7013L56.6939 25.8349L54.8275 22.944L52.9471 20.0532L50.0562 21.9337L47.1794 23.8141L49.0459 26.6909L50.9263 29.5817Z" fill="#EDEDED"/>
        <path d="M45.1586 33.3286L43.2782 30.4519L41.3977 27.561L38.521 29.4415L35.6301 31.3219L37.5106 34.1987L39.391 37.0895L42.2678 35.2091L45.1586 33.3286Z" fill="#EDEDED"/>
        <path d="M5.76766 54.8413L2.89087 56.7217L4.75727 59.6126L6.63771 62.4894L9.52853 60.623L7.6481 57.7321L5.76766 54.8413Z" fill="#EDEDED"/>
        <path d="M45.1587 33.3286L47.0391 36.2195L48.9055 39.1103L51.7964 37.2298L54.6872 35.3494L52.8067 32.4726L50.9263 29.5818L48.0495 31.4622L45.1587 33.3286Z" fill="#EDEDED"/>
        <path d="M39.3911 37.0896L36.5002 38.97L38.3807 41.8468L40.2611 44.7376L43.1379 42.8572L41.2715 39.9664L39.3911 37.0896Z" fill="#EDEDED"/>
        <path d="M32.613 45.6077L30.7325 42.7169L28.8521 39.8401L25.9613 41.7065L23.0845 43.5869L24.9649 46.4778L26.8313 49.3545L29.7221 47.4881L32.613 45.6077Z" fill="#EDEDED"/>
        <path d="M21.0636 53.1154L19.1832 50.2246L17.3168 47.3337L14.426 49.2142L11.5352 51.0946L13.4156 53.9854L15.296 56.8622L18.1869 54.9818L21.0636 53.1154Z" fill="#EDEDED"/>
        <path d="M36.3599 51.3753L39.2507 49.4949L37.3703 46.6181L35.4898 43.7273L32.613 45.6077L34.4794 48.4845L36.3599 51.3753Z" fill="#EDEDED"/>
        <path d="M24.8246 58.883L27.7014 57.0025L30.5922 55.1221L28.7118 52.2453L26.8313 49.3545L23.9545 51.2349L21.0637 53.1154L22.9442 55.9922L24.8246 58.883Z" fill="#EDEDED"/>
        <path d="M19.043 62.6299L17.1766 59.7531L15.2962 56.8623L12.4054 58.7427L9.52856 60.6232L11.409 63.5L13.2754 66.3908L16.1662 64.5104L19.043 62.6299Z" fill="#EDEDED"/>
        <path d="M58.4339 41.117L61.3247 39.2506L64.2015 37.3701L62.3351 34.4793L60.4546 31.6025L57.5638 33.483L54.687 35.3494L56.5534 38.2402L58.4339 41.117Z" fill="#EDEDED"/>
        <path d="M52.6662 44.878L50.7857 41.9871L48.9053 39.1104L46.0285 40.9768L43.1377 42.8572L45.0181 45.748L46.8986 48.6248L49.7754 46.7584L52.6662 44.878Z" fill="#EDEDED"/>
        <path d="M30.5923 55.1221L32.4727 58.0129L34.3391 60.9037L37.23 59.0233L40.1208 57.1429L38.2403 54.2661L36.3599 51.3752L33.4831 53.2557L30.5923 55.1221Z" fill="#EDEDED"/>
        <path d="M13.2752 66.3906L10.3984 68.2711L12.2648 71.1479L14.1453 74.0387L17.0361 72.1582L15.1557 69.2674L13.2752 66.3906Z" fill="#EDEDED"/>
        <path d="M52.6663 44.8778L54.5467 47.7546L56.4131 50.6454L59.3039 48.765L62.1947 46.8986L60.3143 44.0078L58.4339 41.1169L55.5571 42.9974L52.6663 44.8778Z" fill="#EDEDED"/>
        <path d="M46.8986 48.6248L44.0078 50.5052L45.8883 53.396L47.7547 56.2728L50.6455 54.4064L48.765 51.5156L46.8986 48.6248Z" fill="#EDEDED"/>
        <path d="M28.5715 64.6507L26.691 61.7739L24.8246 58.8831L21.9338 60.7635L19.043 62.6299L20.9234 65.5207L22.8038 68.4115L25.6806 66.5311L28.5715 64.6507Z" fill="#EDEDED"/>
        <path d="M28.5715 64.6506L30.452 67.5415L32.3324 70.4183L35.2092 68.5519L38.1 66.6714L36.2196 63.7806L34.3391 60.9038L31.4624 62.7702L28.5715 64.6506Z" fill="#EDEDED"/>
        <path d="M56.4131 50.6455L53.5363 52.5259L50.6455 54.4064L52.5259 57.2832L54.4064 60.174L57.2832 58.2936L60.174 56.4131L58.2936 53.5363L56.4131 50.6455Z" fill="#EDEDED"/>
        <path d="M43.8674 62.9105L46.7583 61.0441L44.8778 58.1533L42.9974 55.2625L40.1206 57.1429L41.987 60.0337L43.8674 62.9105Z" fill="#EDEDED"/>
        <path d="M26.5506 74.179L24.6842 71.2882L22.8037 68.4114L19.9129 70.2778L17.0361 72.1582L18.9025 75.049L20.783 77.9258L23.6738 76.0594L26.5506 74.179Z" fill="#EDEDED"/>
        <path d="M65.9417 52.6662L68.8325 50.7857L71.7093 48.9053L69.8429 46.0285L67.9624 43.1377L65.0716 45.0181L62.1948 46.8986L64.0612 49.7754L65.9417 52.6662Z" fill="#EDEDED"/>
        <path d="M38.0999 66.6713L39.9663 69.5481L41.8467 72.4389L44.7375 70.5584L47.6283 68.692L45.7479 65.8012L43.8675 62.9104L40.9766 64.7908L38.0999 66.6713Z" fill="#EDEDED"/>
        <path d="M32.3324 70.4182L29.4416 72.2987L26.5508 74.1791L28.4312 77.0559L30.3117 79.9467L33.1884 78.0663L36.0793 76.1999L34.1988 73.309L32.3324 70.4182Z" fill="#EDEDED"/>
        <path d="M20.783 77.9258L17.9062 79.8062L19.7727 82.697L21.6531 85.5738L24.5439 83.7074L22.6635 80.8166L20.783 77.9258Z" fill="#EDEDED"/>
        <path d="M53.3961 64.9313L55.2625 67.8221L58.1533 65.9417L56.2729 63.0649L54.4064 60.1741L51.5156 62.0545L53.3961 64.9313Z" fill="#EDEDED"/>
        <path d="M65.9417 52.6663L63.0649 54.5467L60.1741 56.4131L62.0545 59.3039L63.9209 62.1947L66.8117 60.3143L69.6885 58.4339L67.8221 55.5571L65.9417 52.6663Z" fill="#EDEDED"/>
        <path d="M41.8467 72.439L38.9699 74.3194L36.0791 76.1998L37.9595 79.0766L39.84 81.9675L42.7168 80.087L45.6076 78.2066L43.7272 75.3298L41.8467 72.439Z" fill="#EDEDED"/>
        <path d="M30.3116 79.9468L27.4207 81.8272L24.5439 83.7077L26.4103 86.5844L28.2908 89.4753L31.1816 87.5948L34.0584 85.7144L32.178 82.8376L30.3116 79.9468Z" fill="#EDEDED"/>
        <path d="M51.3753 74.4598L54.2661 72.5794L52.3856 69.7026L50.5052 66.8118L47.6284 68.6922L49.4948 71.569L51.3753 74.4598Z" fill="#EDEDED"/>
        <path d="M51.3753 74.4597L48.4845 76.3402L45.6077 78.2066L47.4741 81.0974L49.3545 83.9882L52.2453 82.1078L55.1221 80.2273L53.2557 77.3505L51.3753 74.4597Z" fill="#EDEDED"/>
        <path d="M34.0583 85.7144L35.9388 88.6052L37.8192 91.482L40.696 89.6156L43.5868 87.7351L41.7064 84.8584L39.84 81.9675L36.9492 83.848L34.0583 85.7144Z" fill="#EDEDED"/>
        <path d="M27.2803 94.2323L29.1608 97.1231L32.0516 95.2427L30.1712 92.3519L28.2907 89.4751L25.3999 91.3415L27.2803 94.2323Z" fill="#EDEDED"/>
        <path d="M80.3676 43.2782L78.4872 40.4014L76.6208 37.5106L74.7403 34.6197L72.8599 31.743L70.9935 28.8521L69.113 25.9753L67.2326 23.0845L65.3522 20.1937L63.4858 17.3169L61.6053 14.4261L59.7249 11.5353L57.8445 8.65848L55.978 5.76766L54.0976 2.89087L51.2068 4.75727L53.0872 7.6481L54.9677 10.5389L56.8341 13.4157L58.7145 16.3065L60.5949 19.1974L62.4754 22.0741L64.3418 24.965L66.2222 27.8418L68.1027 30.7326L69.9831 33.6094L71.8495 36.5002L73.7299 39.391L75.6104 42.2678L77.4908 45.1586L79.3572 48.0494L82.248 46.169L80.3676 43.2782Z" fill="#C1D1E0"/>
        <path d="M84.1197 49.0534L81.2375 50.928L83.1121 53.8101L85.9942 51.9356L84.1197 49.0534Z" fill="#C1D1E0"/>
        <path d="M97.2636 69.2534L95.3832 66.3626L93.5027 63.4858L91.6363 60.595L89.7559 57.7042L87.8754 54.8274L84.9846 56.7078L86.8651 59.5846L88.7455 62.4754L90.6259 65.3522L92.4923 68.2431L94.3728 71.1339L96.2532 74.0107L99.13 72.1302L97.2636 69.2534Z" fill="#C1D1E0"/>
        <path d="M102.891 77.912L101.01 75.0211L99.13 72.1303L96.2532 74.0108L94.3727 71.134L92.4923 68.2431L90.6259 65.3523L88.7455 62.4755L86.865 59.5847L84.9846 56.7079L87.8754 54.8275L85.995 51.9367L83.1182 53.8171L81.2377 50.9263L84.1286 49.0458L82.2481 46.1691L79.3573 48.0495L77.4909 45.1587L75.6105 42.2678L73.73 39.3911L71.8496 36.5002L69.9832 33.6094L68.1027 30.7326L66.2223 27.8418L64.3419 24.965L62.4755 22.0742L60.595 19.1974L58.7146 16.3066L56.8342 13.4158L54.9677 10.539L53.0873 7.64815L51.2069 4.75732L48.3301 6.63776L50.1965 9.52858L52.0769 12.4054L53.9574 15.2962L55.8378 18.187L57.7042 21.0638L59.5846 23.9546L61.4651 26.8314L63.3315 29.7222L65.2119 32.6131L67.0924 35.4899L68.9728 38.3807L70.8392 41.2715L72.7196 44.1483L74.6001 47.0391L76.4805 49.9159L78.3469 52.8067L80.2274 55.6975L82.1078 58.5743L83.9882 61.4652L85.8546 64.3419L87.7351 67.2328L89.6155 70.1236L91.4819 73.0004L93.3624 75.8912L95.2428 78.768L97.1232 81.6588L98.9896 84.5496L101.88 82.6692L104.771 80.7888L102.891 77.912Z" fill="#86919E"/>
        <path d="M54.0978 2.89082L52.2173 0L49.3405 1.88044L46.4497 3.74684L48.3301 6.63767L51.2069 4.75723L54.0978 2.89082Z" fill="#231F20"/>
        <path d="M57.8445 8.65855L59.7249 11.5353L61.6054 14.4262L63.4858 17.317L65.3522 20.1938L67.2327 23.0846L69.1131 25.9754L70.9935 28.8522L72.8599 31.743L74.7404 34.6198L76.6208 37.5106L78.4872 40.4015L80.3677 43.2783L82.2481 46.1691L84.1285 49.0459L85.9949 51.9367L87.8754 54.8275L89.7558 57.7043L91.6362 60.5951L93.5026 63.4859L95.3831 66.3627L97.2635 69.2535L99.1299 72.1303L101.01 75.0212L102.891 77.912L104.771 80.7888L107.648 78.9083L105.782 76.0315L103.901 73.1407L102.021 70.2639L100.14 67.3731L98.2739 64.4823L96.3935 61.6055L94.513 58.7147L92.6326 55.8379L90.7662 52.9471L88.8858 50.0562L87.0053 47.1795L85.1249 44.2886L83.2585 41.3978L81.378 38.521L79.4976 35.6302L77.6312 32.7534L75.7508 29.8626L73.8703 26.9718L71.9899 24.095L70.1235 21.2042L68.243 18.3274L66.3626 15.4365L64.4822 12.5457L62.6158 9.66893L60.7353 6.77811L58.8549 3.88729L56.9744 1.0105L54.0977 2.89094L55.9781 5.76773L57.8445 8.65855Z" fill="#231F20"/>
        <path d="M30.8729 30.3115L28.9925 27.4207L26.1157 29.3011L27.9821 32.1779L29.8626 35.0687L32.7534 33.1883L30.8729 30.3115Z" fill="#231F20"/>
        <path d="M8.65855 52.9751L11.5353 51.0947L14.4262 49.2142L17.317 47.3338L20.1938 45.4674L23.0846 43.587L25.9614 41.7065L28.8522 39.8401L31.743 37.9597L29.8626 35.0688L26.9718 36.9493L24.095 38.8297L21.2042 40.6961L18.3133 42.5766L15.4365 44.457L12.5457 46.3374L9.66893 48.2038L6.77811 50.0843L3.88729 51.9647L1.0105 53.8452L2.89094 56.7219L5.76773 54.8415L8.65855 52.9751Z" fill="#231F20"/>
        <path d="M56.1325 75.47L58.013 78.3468L60.9038 76.4804L59.0233 73.5895L57.1429 70.6987L54.2661 72.5792L56.1325 75.47Z" fill="#231F20"/>
        <path d="M25.3999 91.3416L23.5335 88.4648L21.6531 85.574L19.7727 82.6972L17.9063 79.8064L16.0258 76.9156L14.1454 74.0388L12.2649 71.148L10.3985 68.2712L8.5181 65.3804L6.63767 62.4895L4.75723 59.6127L2.89082 56.7219L0 58.6024L1.88044 61.4792L3.74684 64.37L5.62728 67.2608L7.50772 70.1376L9.38816 73.0284L11.2546 75.9192L13.135 78.796L15.0154 81.6868L16.8959 84.5636L18.7623 87.4545L20.6427 90.3453L22.5232 93.2221L24.4036 96.1129L26.27 99.0037L29.1608 97.1233L27.2804 94.2325L25.3999 91.3416Z" fill="#231F20"/>
        <path d="M52.2454 82.1078L49.3545 83.9882L46.4778 85.8546L43.5869 87.7351L40.6961 89.6155L37.8193 91.4819L34.9285 93.3624L32.0517 95.2428L29.1609 97.1232L31.0413 100L33.9181 98.1336L36.8089 96.2532L39.6857 94.3727L42.5765 92.4923L45.4674 90.6259L48.3442 88.7455L51.235 86.865L54.1118 84.9846L57.0026 83.1182L59.8934 81.2377L58.013 78.3469L55.1222 80.2274L52.2454 82.1078Z" fill="#231F20"/>
        <path d="M95.2429 78.7679L93.3624 75.8911L91.482 73.0003L89.6156 70.1235L87.7351 67.2327L85.8547 64.3419L83.9883 61.4651L82.1078 58.5743L80.2274 55.6975L78.347 52.8067L76.4806 49.9158L74.6001 47.039L72.7197 44.1482L70.8393 41.2714L68.9729 38.3806L67.0924 35.4898L65.212 32.613L63.3315 29.7222L61.4651 26.8314L59.5847 23.9546L57.7043 21.0637L55.8379 18.1869L53.9574 15.2961L52.077 12.4053L50.1965 9.52852L48.3301 6.6377L45.4393 8.51813L47.3198 11.409L44.4289 13.2754L41.5521 15.1558L38.6613 17.0362L35.7705 18.9026L32.8937 20.7831L30.0029 22.6635L27.1121 24.544L28.9925 27.4207L31.8833 25.5403L34.7601 23.6739L37.6509 21.7935L40.5418 19.913L43.4185 18.0466L46.3094 16.1662L49.1862 14.2857L51.0666 17.1766L52.947 20.0534L54.8275 22.9442L56.6939 25.835L58.5743 28.7118L60.4548 31.6026L62.3352 34.4794L64.2016 37.3702L66.082 40.261L67.9625 43.1378L69.8429 46.0287L71.7093 48.9054L73.5897 51.7963L75.4702 54.6871L72.5794 56.5535L69.6885 58.4339L66.8118 60.3144L63.9209 62.1948L61.0441 64.0612L58.1533 65.9417L55.2625 67.8221L57.1429 70.6989L60.0338 68.8325L62.9105 66.952L65.8014 65.0716L68.6922 63.1912L71.569 61.3248L74.4598 59.4443L77.3506 57.5639L79.217 60.4547L81.0975 63.3315L82.9779 66.2223L84.8583 69.1131L86.7247 71.9899L88.6052 74.8807L90.4856 77.7716L92.352 80.6484L94.2325 83.5392L96.1129 86.416L98.9897 84.5496L97.1233 81.6587L95.2429 78.7679Z" fill="#231F20"/>
        <path d="M101.88 82.669L98.9895 84.5495L100.87 87.4262L103.761 85.5598L106.638 83.6794L104.771 80.7886L101.88 82.669Z" fill="#231F20"/>
    </g>
    <defs>
        <clipPath id="clip0_919_12836">
            <rect width="175.779" height="100" fill="white"/>
        </clipPath>
    </defs>
</svg>