<svg shape-rendering="crispEdges" width="222" height="25" viewBox="0 0 222 25" fill="none" xmlns="http://www.w3.org/2000/svg">
    <path d="M21.6201 1.19496L24.0301 1.18497L21.0501 4.44496H18.5801L21.6201 1.19496Z" fill="white"/>
    <path d="M24.0301 1.18497H26.4301L23.5301 4.43497L21.05 4.44496L24.0301 1.18497Z" fill="white"/>
    <path d="M26.43 1.18499L28.84 1.17499L26.01 4.43499H23.53L26.43 1.18499Z" fill="#42474A"/>
    <path d="M28.84 1.17499H31.24L28.49 4.42499L26.01 4.43499L28.84 1.17499Z" fill="#42474A"/>
    <path d="M31.24 1.17498L33.65 1.16498L30.97 4.42498H28.49L31.24 1.17498Z" fill="white"/>
    <path d="M33.65 1.16498H36.05L33.45 4.41498L30.97 4.42498L33.65 1.16498Z" fill="white"/>
    <path d="M36.05 1.16497L38.46 1.15497L35.93 4.41497H33.45L36.05 1.16497Z" fill="#42474A"/>
    <path d="M38.4599 1.15497H40.8699L38.4099 4.40497L35.9299 4.41497L38.4599 1.15497Z" fill="#42474A"/>
    <path d="M40.8699 1.15498L43.2799 1.14499L40.8999 4.40498H38.4099L40.8699 1.15498Z" fill="white"/>
    <path d="M43.2799 1.14499H45.6899L43.3799 4.40498H40.8999L43.2799 1.14499Z" fill="white"/>
    <path d="M45.6901 1.14498L48.1001 1.13498L45.8601 4.39498L43.3801 4.40498L45.6901 1.14498Z" fill="#42474A"/>
    <path d="M48.1001 1.13498H50.5101L48.3501 4.39498H45.8601L48.1001 1.13498Z" fill="#42474A"/>
    <path d="M50.5101 1.13497L52.9201 1.12497L50.8301 4.38497L48.3501 4.39497L50.5101 1.13497Z" fill="white"/>
    <path d="M52.9201 1.12497H55.3301L53.3201 4.38497H50.8301L52.9201 1.12497Z" fill="white"/>
    <path d="M55.3301 1.12498L57.7401 1.11499L55.8001 4.37498L53.3201 4.38499L55.3301 1.12498Z" fill="#42474A"/>
    <path d="M57.7401 1.11499H60.1501L58.29 4.37498H55.8L57.7401 1.11499Z" fill="#42474A"/>
    <path d="M60.1501 1.11498L62.57 1.10498L60.7801 4.36498L58.29 4.37498L60.1501 1.11498Z" fill="white"/>
    <path d="M62.57 1.10498H64.98L63.27 4.36498H60.78L62.57 1.10498Z" fill="white"/>
    <path d="M64.98 1.10497L67.39 1.09497L65.75 4.35497L63.27 4.36497L64.98 1.10497Z" fill="#42474A"/>
    <path d="M67.39 1.09497H69.81L68.24 4.35497H65.75L67.39 1.09497Z" fill="#42474A"/>
    <path d="M69.81 1.09499L72.22 1.08499L70.73 4.355H68.24L69.81 1.09499Z" fill="white"/>
    <path d="M72.22 1.08499H74.64L73.22 4.34499L70.73 4.355L72.22 1.08499Z" fill="white"/>
    <path d="M74.64 1.08498L77.06 1.07498L75.71 4.34498H73.22L74.64 1.08498Z" fill="#42474A"/>
    <path d="M77.06 1.07498H79.47L78.21 4.33498L75.71 4.34498L77.06 1.07498Z" fill="#42474A"/>
    <path d="M79.47 1.07497L81.89 1.06497L80.7 4.33497H78.21L79.47 1.07497Z" fill="white"/>
    <path d="M81.89 1.06497H84.31L83.19 4.32497L80.7 4.33497L81.89 1.06497Z" fill="white"/>
    <path d="M84.3099 1.06496L86.7299 1.05496L85.6799 4.32497H83.1899L84.3099 1.06496Z" fill="#42474A"/>
    <path d="M86.7299 1.05496H89.1499L88.1799 4.31496L85.6799 4.32497L86.7299 1.05496Z" fill="#42474A"/>
    <path d="M89.1499 1.05496H91.5699L90.6699 4.31496H88.1799L89.1499 1.05496Z" fill="white"/>
    <path d="M91.5699 1.05498L93.9899 1.04498L93.1699 4.30498L90.6699 4.31498L91.5699 1.05498Z" fill="white"/>
    <path d="M93.9899 1.04498H96.4099L95.6599 4.30498H93.1699L93.9899 1.04498Z" fill="#42474A"/>
    <path d="M96.4099 1.04498L98.8299 1.03497L98.1599 4.30497H95.6599L96.4099 1.04498Z" fill="#42474A"/>
    <path d="M98.8299 1.03497H101.26L100.66 4.29498L98.1599 4.30497L98.8299 1.03497Z" fill="white"/>
    <path d="M101.26 1.035L103.68 1.02499L103.16 4.295H100.66L101.26 1.035Z" fill="white"/>
    <path d="M103.68 1.02499H106.1L105.65 4.285L103.16 4.295L103.68 1.02499Z" fill="#42474A"/>
    <path d="M106.1 1.02499L108.53 1.01498L108.15 4.28499H105.65L106.1 1.02499Z" fill="#42474A"/>
    <path d="M108.53 1.01498H110.95L110.66 4.27499L108.15 4.28499L108.53 1.01498Z" fill="white"/>
    <path d="M110.95 1.01497L113.38 1.00497L113.15 4.27497H110.66L110.95 1.01497Z" fill="white"/>
    <path d="M113.38 1.00497H115.8L115.65 4.26497L113.15 4.27497L113.38 1.00497Z" fill="#42474A"/>
    <path d="M115.8 1.00497L118.23 0.994965L118.16 4.26496H115.65L115.8 1.00497Z" fill="#42474A"/>
    <path d="M118.23 0.994965H120.66V4.25497L118.16 4.26496L118.23 0.994965Z" fill="white"/>
    <path d="M120.66 0.994987L123.08 0.984985L123.16 4.25499H120.66V0.994987Z" fill="white"/>
    <path d="M123.08 0.984985H125.51L125.67 4.24499L123.16 4.25499L123.08 0.984985Z" fill="#42474A"/>
    <path d="M125.51 0.984978L127.94 0.974976L128.17 4.24498H125.67L125.51 0.984978Z" fill="#42474A"/>
    <path d="M127.94 0.974976H130.37L130.68 4.24498H128.17L127.94 0.974976Z" fill="white"/>
    <path d="M130.37 0.974991L132.8 0.964996L133.18 4.23499L130.68 4.245L130.37 0.974991Z" fill="white"/>
    <path d="M132.8 0.964996H135.23L135.69 4.23499H133.18L132.8 0.964996Z" fill="#42474A"/>
    <path d="M135.23 0.964989L137.66 0.954987L138.19 4.22498L135.69 4.23499L135.23 0.964989Z" fill="#42474A"/>
    <path d="M137.66 0.954987H140.1L140.7 4.22498H138.19L137.66 0.954987Z" fill="white"/>
    <path d="M140.1 0.954979L142.53 0.944977L143.21 4.21498L140.7 4.22498L140.1 0.954979Z" fill="white"/>
    <path d="M142.53 0.944977H144.96L145.72 4.21498H143.21L142.53 0.944977Z" fill="#42474A"/>
    <path d="M144.96 0.944962L147.39 0.934967L148.23 4.20496L145.72 4.21497L144.96 0.944962Z" fill="#42474A"/>
    <path d="M147.39 0.934967H149.83L150.74 4.20496H148.23L147.39 0.934967Z" fill="white"/>
    <path d="M149.83 0.93499L152.26 0.924988L153.25 4.19498L150.74 4.20499L149.83 0.93499Z" fill="white"/>
    <path d="M152.26 0.924988H154.7L155.76 4.19498H153.25L152.26 0.924988Z" fill="#42474A"/>
    <path d="M154.7 0.92498L157.14 0.914978L158.27 4.18498L155.76 4.19498L154.7 0.92498Z" fill="#42474A"/>
    <path d="M157.14 0.914978H159.57L160.78 4.18498H158.27L157.14 0.914978Z" fill="white"/>
    <path d="M159.57 0.91497L162.01 0.904968L163.3 4.18497H160.78L159.57 0.91497Z" fill="white"/>
    <path d="M162.01 0.904968H164.45L165.81 4.17497L163.3 4.18497L162.01 0.904968Z" fill="#42474A"/>
    <path d="M164.45 0.904984L166.89 0.894989L168.32 4.17499H165.81L164.45 0.904984Z" fill="#42474A"/>
    <path d="M166.89 0.894989H169.32L170.84 4.16499L168.32 4.17499L166.89 0.894989Z" fill="white"/>
    <path d="M169.32 0.894981L171.76 0.884979L173.35 4.16498H170.84L169.32 0.894981Z" fill="white"/>
    <path d="M171.76 0.884979H174.2L175.87 4.15498L173.35 4.16498L171.76 0.884979Z" fill="#42474A"/>
    <path d="M174.2 0.884972L176.64 0.874969L178.39 4.15497H175.87L174.2 0.884972Z" fill="#42474A"/>
    <path d="M176.64 0.874969H179.09L180.9 4.14497L178.39 4.15497L176.64 0.874969Z" fill="white"/>
    <path d="M179.09 0.874985L181.53 0.86499L183.42 4.14499H180.9L179.09 0.874985Z" fill="white"/>
    <path d="M181.53 0.86499H183.97L185.94 4.13499L183.42 4.14499L181.53 0.86499Z" fill="#42474A"/>
    <path d="M183.97 0.86499H186.41L188.46 4.13499H185.94L183.97 0.86499Z" fill="#42474A"/>
    <path d="M186.41 0.864983L188.86 0.85498L190.98 4.12498L188.46 4.13498L186.41 0.864983Z" fill="white"/>
    <path d="M188.86 0.85498H191.3L193.5 4.12498H190.98L188.86 0.85498Z" fill="white"/>
    <path d="M191.3 0.854973L193.75 0.844971L196.02 4.12497H193.5L191.3 0.854973Z" fill="#42474A"/>
    <path d="M193.75 0.844971H196.19L198.54 4.11497L196.02 4.12497L193.75 0.844971Z" fill="#42474A"/>
    <path d="M196.19 0.844994L198.64 0.834991L201.07 4.115H198.54L196.19 0.844994Z" fill="white"/>
    <path d="M198.64 0.834991H201.09L203.59 4.105L201.07 4.115L198.64 0.834991Z" fill="white"/>
    <path d="M201.09 0.834976L203.53 0.824982L206.11 4.10498H203.59L201.09 0.834976Z" fill="#42474A"/>
    <path d="M18.5801 4.44498H21.0501L17.8901 7.90498H15.3401L18.5801 4.44498Z" fill="white"/>
    <path d="M21.0499 4.44496L23.5299 4.43497L20.4499 7.90496H17.8899L21.0499 4.44496Z" fill="white"/>
    <path d="M23.53 4.43497H26.0099L23 7.89497L20.45 7.90496L23.53 4.43497Z" fill="#42474A"/>
    <path d="M26.01 4.43499L28.49 4.42499L25.56 7.89499H23L26.01 4.43499Z" fill="#42474A"/>
    <path d="M28.4901 4.42499H30.9701L28.1201 7.88499L25.5601 7.89499L28.4901 4.42499Z" fill="white"/>
    <path d="M30.9699 4.42498L33.4499 4.41498L30.6799 7.88498H28.1199L30.9699 4.42498Z" fill="white"/>
    <path d="M33.4499 4.41498H35.9299L33.2399 7.88498H30.6799L33.4499 4.41498Z" fill="#42474A"/>
    <path d="M35.93 4.41497L38.41 4.40497L35.8 7.87497L33.24 7.88497L35.93 4.41497Z" fill="#42474A"/>
    <path d="M38.4101 4.40497H40.9001L38.36 7.87497H35.8L38.4101 4.40497Z" fill="white"/>
    <path d="M40.9001 4.40497H43.3801L40.9201 7.86497L38.3601 7.87497L40.9001 4.40497Z" fill="white"/>
    <path d="M43.3799 4.40498L45.8599 4.39499L43.4799 7.86499H40.9199L43.3799 4.40498Z" fill="#42474A"/>
    <path d="M45.86 4.39499H48.35L46.05 7.85499L43.48 7.86499L45.86 4.39499Z" fill="#42474A"/>
    <path d="M48.3501 4.39498L50.83 4.38498L48.61 7.85498H46.05L48.3501 4.39498Z" fill="white"/>
    <path d="M50.8301 4.38498H53.3201L51.1801 7.85498H48.6101L50.8301 4.38498Z" fill="white"/>
    <path d="M53.3199 4.38497L55.7999 4.37497L53.7399 7.84497L51.1799 7.85497L53.3199 4.38497Z" fill="#42474A"/>
    <path d="M55.8 4.37497H58.29L56.31 7.84497H53.74L55.8 4.37497Z" fill="#42474A"/>
    <path d="M58.29 4.37498L60.7801 4.36499L58.8701 7.83498L56.3101 7.84499L58.29 4.37498Z" fill="white"/>
    <path d="M60.7799 4.36499H63.2699L61.4399 7.83498H58.8699L60.7799 4.36499Z" fill="white"/>
    <path d="M63.2699 4.36498L65.7499 4.35498L64.0099 7.82498L61.4399 7.83498L63.2699 4.36498Z" fill="#42474A"/>
    <path d="M65.75 4.35498H68.24L66.57 7.82498H64.01L65.75 4.35498Z" fill="#42474A"/>
    <path d="M68.2401 4.35498H70.7301L69.1401 7.82498H66.5701L68.2401 4.35498Z" fill="white"/>
    <path d="M70.7299 4.35497L73.2199 4.34497L71.7099 7.81497L69.1399 7.82497L70.7299 4.35497Z" fill="white"/>
    <path d="M73.22 4.34497H75.71L74.2899 7.81497H71.71L73.22 4.34497Z" fill="#42474A"/>
    <path d="M75.7101 4.34499L78.2101 4.33499L76.86 7.80499L74.29 7.81499L75.7101 4.34499Z" fill="#42474A"/>
    <path d="M78.2101 4.33499H80.7001L79.4301 7.80499H76.8601L78.2101 4.33499Z" fill="white"/>
    <path d="M80.6999 4.33498L83.1899 4.32498L81.9999 7.79498L79.4299 7.80498L80.6999 4.33498Z" fill="white"/>
    <path d="M83.19 4.32498H85.68L84.57 7.79498H82L83.19 4.32498Z" fill="#42474A"/>
    <path d="M85.6801 4.32497L88.1801 4.31497L87.1501 7.79498H84.5701L85.6801 4.32497Z" fill="#42474A"/>
    <path d="M88.1799 4.31497H90.6699L89.7199 7.78497L87.1499 7.79498L88.1799 4.31497Z" fill="white"/>
    <path d="M90.67 4.31496L93.17 4.30496L92.2899 7.78497H89.72L90.67 4.31496Z" fill="white"/>
    <path d="M93.17 4.30496H95.6601L94.8701 7.77496L92.29 7.78497L93.17 4.30496Z" fill="#42474A"/>
    <path d="M95.6599 4.30496H98.1599L97.4499 7.77496H94.8699L95.6599 4.30496Z" fill="#42474A"/>
    <path d="M98.16 4.30498L100.66 4.29498L100.02 7.76498L97.45 7.77498L98.16 4.30498Z" fill="white"/>
    <path d="M100.66 4.29498H103.16L102.6 7.76498H100.02L100.66 4.29498Z" fill="white"/>
    <path d="M103.16 4.29498L105.65 4.28497L105.18 7.76497H102.6L103.16 4.29498Z" fill="#42474A"/>
    <path d="M105.65 4.28497H108.15L107.76 7.75497L105.18 7.76497L105.65 4.28497Z" fill="#42474A"/>
    <path d="M108.15 4.285L110.66 4.27499L110.34 7.755H107.76L108.15 4.285Z" fill="white"/>
    <path d="M110.66 4.27499H113.15L112.92 7.745L110.34 7.755L110.66 4.27499Z" fill="white"/>
    <path d="M113.15 4.27499L115.65 4.26498L115.5 7.74499H112.92L113.15 4.27499Z" fill="#42474A"/>
    <path d="M115.65 4.26498H118.16L118.08 7.73499L115.5 7.74499L115.65 4.26498Z" fill="#42474A"/>
    <path d="M118.16 4.26497L120.66 4.25497V7.73497H118.08L118.16 4.26497Z" fill="white"/>
    <path d="M120.66 4.25497H123.16L123.25 7.73497H120.66V4.25497Z" fill="white"/>
    <path d="M123.16 4.25497L125.67 4.24496L125.83 7.72496L123.25 7.73496L123.16 4.25497Z" fill="#42474A"/>
    <path d="M125.67 4.24496H128.17L128.42 7.72496H125.83L125.67 4.24496Z" fill="#42474A"/>
    <path d="M128.17 4.24496H130.68L131 7.71497L128.42 7.72496L128.17 4.24496Z" fill="white"/>
    <path d="M130.68 4.24499L133.18 4.23499L133.58 7.71499H131L130.68 4.24499Z" fill="white"/>
    <path d="M133.18 4.23499H135.69L136.17 7.70499L133.58 7.71499L133.18 4.23499Z" fill="#42474A"/>
    <path d="M135.69 4.23498L138.19 4.22498L138.76 7.70498H136.17L135.69 4.23498Z" fill="#42474A"/>
    <path d="M138.19 4.22498H140.7L141.35 7.69498L138.76 7.70498L138.19 4.22498Z" fill="white"/>
    <path d="M140.7 4.22499L143.21 4.215L143.93 7.69499H141.35L140.7 4.22499Z" fill="white"/>
    <path d="M143.21 4.215H145.72L146.52 7.69499H143.93L143.21 4.215Z" fill="#42474A"/>
    <path d="M145.72 4.21499L148.23 4.20499L149.11 7.68499L146.52 7.69498L145.72 4.21499Z" fill="#42474A"/>
    <path d="M148.23 4.20499H150.74L151.7 7.68499H149.11L148.23 4.20499Z" fill="white"/>
    <path d="M150.74 4.20498L153.25 4.19498L154.29 7.67498L151.7 7.68498L150.74 4.20498Z" fill="white"/>
    <path d="M153.25 4.19498H155.76L156.88 7.67498H154.29L153.25 4.19498Z" fill="#42474A"/>
    <path d="M155.76 4.19496L158.27 4.18497L159.48 7.66496L156.88 7.67496L155.76 4.19496Z" fill="#42474A"/>
    <path d="M158.27 4.18497H160.78L162.07 7.66496H159.48L158.27 4.18497Z" fill="white"/>
    <path d="M160.78 4.18497H163.3L164.67 7.66496H162.07L160.78 4.18497Z" fill="white"/>
    <path d="M163.3 4.18499L165.81 4.17499L167.26 7.65498L164.67 7.66499L163.3 4.18499Z" fill="#42474A"/>
    <path d="M165.81 4.17499H168.32L169.85 7.65498H167.26L165.81 4.17499Z" fill="#42474A"/>
    <path d="M168.32 4.17498L170.84 4.16498L172.45 7.64498L169.85 7.65498L168.32 4.17498Z" fill="white"/>
    <path d="M170.84 4.16498H173.35L175.04 7.64498H172.45L170.84 4.16498Z" fill="white"/>
    <path d="M173.35 4.16497L175.87 4.15497L177.64 7.63497L175.04 7.64497L173.35 4.16497Z" fill="#42474A"/>
    <path d="M175.87 4.15497H178.39L180.24 7.63497H177.64L175.87 4.15497Z" fill="#42474A"/>
    <path d="M178.39 4.15498L180.9 4.14499L182.84 7.63499H180.24L178.39 4.15498Z" fill="white"/>
    <path d="M180.9 4.14499H183.42L185.44 7.62498L182.84 7.63499L180.9 4.14499Z" fill="white"/>
    <path d="M183.42 4.14498L185.94 4.13498L188.04 7.62498H185.44L183.42 4.14498Z" fill="#42474A"/>
    <path d="M185.94 4.13498H188.46L190.64 7.61498L188.04 7.62498L185.94 4.13498Z" fill="#42474A"/>
    <path d="M188.46 4.13497L190.98 4.12497L193.24 7.61497H190.64L188.46 4.13497Z" fill="white"/>
    <path d="M190.98 4.12497H193.5L195.84 7.60497L193.24 7.61497L190.98 4.12497Z" fill="white"/>
    <path d="M193.5 4.12497H196.02L198.44 7.60497H195.84L193.5 4.12497Z" fill="#42474A"/>
    <path d="M196.02 4.12498L198.54 4.11499L201.05 7.60499H198.44L196.02 4.12498Z" fill="#42474A"/>
    <path d="M198.54 4.11499H201.07L203.65 7.59499L201.05 7.60499L198.54 4.11499Z" fill="white"/>
    <path d="M201.07 4.11498L203.59 4.10498L206.26 7.59498H203.65L201.07 4.11498Z" fill="white"/>
    <path d="M203.59 4.10498H206.11L208.86 7.58498L206.26 7.59498L203.59 4.10498Z" fill="#42474A"/>
    <path d="M15.3401 7.90497H17.8901L14.5201 11.595L11.8801 11.605L15.3401 7.90497Z" fill="#42474A"/>
    <path d="M17.89 7.90497H20.45L17.16 11.595H14.52L17.89 7.90497Z" fill="#42474A"/>
    <path d="M20.4499 7.90498L22.9999 7.89499L19.7999 11.595H17.1599L20.4499 7.90498Z" fill="white"/>
    <path d="M23.0001 7.89499H25.5601L22.4401 11.585L19.8 11.595L23.0001 7.89499Z" fill="white"/>
    <path d="M25.5599 7.89498L28.1199 7.88498L25.0799 11.585H22.4399L25.5599 7.89498Z" fill="#42474A"/>
    <path d="M28.1201 7.88498H30.6801L27.7201 11.585H25.0801L28.1201 7.88498Z" fill="#42474A"/>
    <path d="M30.68 7.88498H33.24L30.37 11.575L27.72 11.585L30.68 7.88498Z" fill="white"/>
    <path d="M33.2399 7.88497L35.7999 7.87497L33.0099 11.575H30.3699L33.2399 7.88497Z" fill="white"/>
    <path d="M35.8 7.87497H38.36L35.66 11.565L33.01 11.575L35.8 7.87497Z" fill="#42474A"/>
    <path d="M38.3599 7.87498L40.9199 7.86499L38.2999 11.565H35.6599L38.3599 7.87498Z" fill="#42474A"/>
    <path d="M40.92 7.86499H43.48L40.95 11.565H38.3L40.92 7.86499Z" fill="white"/>
    <path d="M43.4799 7.86498L46.05 7.85498L43.6 11.555L40.95 11.565L43.4799 7.86498Z" fill="white"/>
    <path d="M46.0501 7.85498H48.6101L46.2401 11.555H43.6001L46.0501 7.85498Z" fill="#42474A"/>
    <path d="M48.61 7.85498H51.18L48.89 11.545L46.24 11.555L48.61 7.85498Z" fill="#42474A"/>
    <path d="M51.1799 7.85497L53.7399 7.84497L51.5399 11.545H48.8899L51.1799 7.85497Z" fill="white"/>
    <path d="M53.7401 7.84497H56.3101L54.1901 11.545H51.54L53.7401 7.84497Z" fill="white"/>
    <path d="M56.3099 7.84499L58.8699 7.83499L56.8399 11.535L54.1899 11.545L56.3099 7.84499Z" fill="#42474A"/>
    <path d="M58.8701 7.83499H61.4401L59.4901 11.535H56.8401L58.8701 7.83499Z" fill="#42474A"/>
    <path d="M61.44 7.83498L64.01 7.82498L62.15 11.525L59.49 11.535L61.44 7.83498Z" fill="white"/>
    <path d="M64.0099 7.82498H66.5699L64.7999 11.525H62.1499L64.0099 7.82498Z" fill="white"/>
    <path d="M66.57 7.82498H69.14L67.45 11.525H64.8L66.57 7.82498Z" fill="#42474A"/>
    <path d="M69.14 7.82497L71.71 7.81497L70.1 11.515L67.45 11.525L69.14 7.82497Z" fill="#42474A"/>
    <path d="M71.7101 7.81497H74.2901L72.7601 11.515H70.1001L71.7101 7.81497Z" fill="white"/>
    <path d="M74.29 7.81496L76.86 7.80496L75.42 11.505L72.76 11.515L74.29 7.81496Z" fill="white"/>
    <path d="M76.8599 7.80496H79.4299L78.0699 11.505H75.4199L76.8599 7.80496Z" fill="#42474A"/>
    <path d="M79.4301 7.80498L82.0001 7.79498L80.7301 11.505H78.0701L79.4301 7.80498Z" fill="#42474A"/>
    <path d="M82 7.79498H84.57L83.39 11.495L80.73 11.505L82 7.79498Z" fill="white"/>
    <path d="M84.5699 7.79498H87.1499L86.0499 11.495H83.3899L84.5699 7.79498Z" fill="white"/>
    <path d="M87.1501 7.79498L89.7201 7.78497L88.7 11.485L86.05 11.495L87.1501 7.79498Z" fill="#42474A"/>
    <path d="M89.72 7.78497H92.2899L91.36 11.485H88.7L89.72 7.78497Z" fill="#42474A"/>
    <path d="M92.2901 7.785L94.8701 7.77499L94.0201 11.485H91.3601L92.2901 7.785Z" fill="white"/>
    <path d="M94.87 7.77499H97.45L96.69 11.475L94.02 11.485L94.87 7.77499Z" fill="white"/>
    <path d="M97.4499 7.77499L100.02 7.76498L99.3499 11.475H96.6899L97.4499 7.77499Z" fill="#42474A"/>
    <path d="M100.02 7.76498H102.6L102.01 11.475H99.3501L100.02 7.76498Z" fill="#42474A"/>
    <path d="M102.6 7.76498H105.18L104.67 11.465L102.01 11.475L102.6 7.76498Z" fill="white"/>
    <path d="M105.18 7.76497L107.76 7.75497L107.34 11.465H104.67L105.18 7.76497Z" fill="white"/>
    <path d="M107.76 7.75497H110.34L110 11.455L107.34 11.465L107.76 7.75497Z" fill="#42474A"/>
    <path d="M110.34 7.75497L112.92 7.74496L112.67 11.455H110L110.34 7.75497Z" fill="#42474A"/>
    <path d="M112.92 7.74496H115.5L115.33 11.455H112.67L112.92 7.74496Z" fill="white"/>
    <path d="M115.5 7.74499L118.08 7.73499L118 11.445L115.33 11.455L115.5 7.74499Z" fill="white"/>
    <path d="M118.08 7.73499H120.66L120.67 11.445H118L118.08 7.73499Z" fill="#42474A"/>
    <path d="M120.66 7.73499H123.25L123.34 11.435L120.67 11.445L120.66 7.73499Z" fill="#42474A"/>
    <path d="M123.25 7.73498L125.83 7.72498L126 11.435H123.34L123.25 7.73498Z" fill="white"/>
    <path d="M125.83 7.72498H128.42L128.68 11.435H126L125.83 7.72498Z" fill="white"/>
    <path d="M128.42 7.72499L131 7.715L131.34 11.425L128.68 11.435L128.42 7.72499Z" fill="#42474A"/>
    <path d="M131 7.715H133.58L134.01 11.425H131.34L131 7.715Z" fill="#42474A"/>
    <path d="M133.58 7.71499L136.17 7.70499L136.69 11.415L134.01 11.425L133.58 7.71499Z" fill="white"/>
    <path d="M136.17 7.70499H138.76L139.36 11.415H136.69L136.17 7.70499Z" fill="white"/>
    <path d="M138.76 7.70498L141.35 7.69498L142.03 11.415H139.36L138.76 7.70498Z" fill="#42474A"/>
    <path d="M141.35 7.69498H143.93L144.71 11.405L142.03 11.415L141.35 7.69498Z" fill="#42474A"/>
    <path d="M143.93 7.69498H146.52L147.38 11.405H144.71L143.93 7.69498Z" fill="white"/>
    <path d="M146.52 7.69496L149.11 7.68497L150.06 11.395L147.38 11.405L146.52 7.69496Z" fill="white"/>
    <path d="M149.11 7.68497H151.7L152.73 11.395H150.06L149.11 7.68497Z" fill="#42474A"/>
    <path d="M151.7 7.68499L154.29 7.67499L155.41 11.395H152.73L151.7 7.68499Z" fill="#42474A"/>
    <path d="M154.29 7.67499H156.88L158.09 11.385L155.41 11.395L154.29 7.67499Z" fill="white"/>
    <path d="M156.88 7.67498L159.48 7.66498L160.77 11.385H158.09L156.88 7.67498Z" fill="white"/>
    <path d="M159.48 7.66498H162.07L163.44 11.375L160.77 11.385L159.48 7.66498Z" fill="#42474A"/>
    <path d="M162.07 7.66498H164.67L166.13 11.375H163.44L162.07 7.66498Z" fill="#42474A"/>
    <path d="M164.67 7.66497L167.26 7.65497L168.81 11.375H166.13L164.67 7.66497Z" fill="white"/>
    <path d="M167.26 7.65497H169.85L171.49 11.365L168.81 11.375L167.26 7.65497Z" fill="white"/>
    <path d="M169.85 7.65498L172.45 7.64499L174.17 11.365H171.49L169.85 7.65498Z" fill="#42474A"/>
    <path d="M172.45 7.64499H175.04L176.85 11.355L174.17 11.365L172.45 7.64499Z" fill="#42474A"/>
    <path d="M175.04 7.64498L177.64 7.63498L179.53 11.355H176.85L175.04 7.64498Z" fill="white"/>
    <path d="M177.64 7.63498H180.24L182.22 11.355H179.53L177.64 7.63498Z" fill="white"/>
    <path d="M180.24 7.63498H182.84L184.9 11.345L182.22 11.355L180.24 7.63498Z" fill="#42474A"/>
    <path d="M182.84 7.63497L185.44 7.62497L187.59 11.345H184.9L182.84 7.63497Z" fill="#42474A"/>
    <path d="M185.44 7.62497H188.04L190.28 11.335L187.59 11.345L185.44 7.62497Z" fill="white"/>
    <path d="M188.04 7.62498L190.64 7.61499L192.96 11.335H190.28L188.04 7.62498Z" fill="white"/>
    <path d="M190.64 7.61499H193.24L195.65 11.335H192.96L190.64 7.61499Z" fill="#42474A"/>
    <path d="M193.24 7.61498L195.84 7.60498L198.34 11.325L195.65 11.335L193.24 7.61498Z" fill="#42474A"/>
    <path d="M195.84 7.60498H198.44L201.03 11.325H198.34L195.84 7.60498Z" fill="white"/>
    <path d="M198.44 7.60498H201.05L203.72 11.315L201.03 11.325L198.44 7.60498Z" fill="white"/>
    <path d="M201.05 7.60497L203.65 7.59497L206.41 11.315H203.72L201.05 7.60497Z" fill="#42474A"/>
    <path d="M203.65 7.59497H206.26L209.1 11.315H206.41L203.65 7.59497Z" fill="#42474A"/>
    <path d="M206.26 7.59499L208.86 7.58499L211.79 11.305L209.1 11.315L206.26 7.59499Z" fill="white"/>
    <path d="M11.8799 11.605L14.5199 11.595L10.9099 15.545H8.18994L11.8799 11.605Z" fill="#42474A"/>
    <path d="M14.5199 11.595H17.1599L13.6399 15.545H10.9099L14.5199 11.595Z" fill="#42474A"/>
    <path d="M17.1599 11.595H19.7999L16.3699 15.535L13.6399 15.545L17.1599 11.595Z" fill="white"/>
    <path d="M19.7999 11.595L22.4399 11.585L19.1099 15.535H16.3699L19.7999 11.595Z" fill="white"/>
    <path d="M22.4401 11.585H25.0801L21.8401 15.535H19.1101L22.4401 11.585Z" fill="#42474A"/>
    <path d="M25.0801 11.585H27.7201L24.5701 15.525L21.8401 15.535L25.0801 11.585Z" fill="#42474A"/>
    <path d="M27.7201 11.585L30.3701 11.575L27.3001 15.525H24.5701L27.7201 11.585Z" fill="white"/>
    <path d="M30.3701 11.575H33.01L30.0301 15.525H27.3L30.3701 11.575Z" fill="white"/>
    <path d="M33.01 11.575L35.66 11.565L32.77 15.515L30.03 15.525L33.01 11.575Z" fill="#42474A"/>
    <path d="M35.66 11.565H38.3L35.5 15.515H32.77L35.66 11.565Z" fill="#42474A"/>
    <path d="M38.3 11.565H40.95L38.24 15.505L35.5 15.515L38.3 11.565Z" fill="white"/>
    <path d="M40.95 11.565L43.6 11.555L40.98 15.505H38.24L40.95 11.565Z" fill="white"/>
    <path d="M43.6 11.555H46.24L43.71 15.505H40.98L43.6 11.555Z" fill="#42474A"/>
    <path d="M46.24 11.555L48.89 11.545L46.45 15.495L43.71 15.505L46.24 11.555Z" fill="#42474A"/>
    <path d="M48.89 11.545H51.5399L49.19 15.495H46.45L48.89 11.545Z" fill="white"/>
    <path d="M51.5399 11.545H54.1899L51.9299 15.495H49.1899L51.5399 11.545Z" fill="white"/>
    <path d="M54.1899 11.545L56.8399 11.535L54.6699 15.485L51.9299 15.495L54.1899 11.545Z" fill="#42474A"/>
    <path d="M56.8399 11.535H59.4899L57.4099 15.485H54.6699L56.8399 11.535Z" fill="#42474A"/>
    <path d="M59.4899 11.535L62.1499 11.525L60.1599 15.485H57.4099L59.4899 11.535Z" fill="white"/>
    <path d="M62.1499 11.525H64.7999L62.8999 15.475L60.1599 15.485L62.1499 11.525Z" fill="white"/>
    <path d="M64.7999 11.525H67.4499L65.6399 15.475H62.8999L64.7999 11.525Z" fill="#42474A"/>
    <path d="M67.4499 11.525L70.0999 11.515L68.3899 15.475H65.6399L67.4499 11.525Z" fill="#42474A"/>
    <path d="M70.0999 11.515H72.7599L71.1299 15.465L68.3899 15.475L70.0999 11.515Z" fill="white"/>
    <path d="M72.7601 11.515L75.4201 11.505L73.8801 15.465H71.1301L72.7601 11.515Z" fill="white"/>
    <path d="M75.4201 11.505H78.0701L76.6201 15.465H73.8801L75.4201 11.505Z" fill="#42474A"/>
    <path d="M78.0699 11.505H80.7299L79.3699 15.455L76.6199 15.465L78.0699 11.505Z" fill="#42474A"/>
    <path d="M80.7299 11.505L83.3899 11.495L82.1199 15.455H79.3699L80.7299 11.505Z" fill="white"/>
    <path d="M83.3899 11.495H86.0499L84.8699 15.445L82.1199 15.455L83.3899 11.495Z" fill="white"/>
    <path d="M86.0499 11.495L88.6999 11.485L87.6199 15.445H84.8699L86.0499 11.495Z" fill="#42474A"/>
    <path d="M88.6999 11.485H91.3599L90.3699 15.445H87.6199L88.6999 11.485Z" fill="#42474A"/>
    <path d="M91.3599 11.485H94.0199L93.1199 15.435L90.3699 15.445L91.3599 11.485Z" fill="white"/>
    <path d="M94.0199 11.485L96.6899 11.475L95.8699 15.435H93.1199L94.0199 11.485Z" fill="white"/>
    <path d="M96.6899 11.475H99.3499L98.6199 15.435H95.8699L96.6899 11.475Z" fill="#42474A"/>
    <path d="M99.3499 11.475H102.01L101.38 15.425L98.6199 15.435L99.3499 11.475Z" fill="#42474A"/>
    <path d="M102.01 11.475L104.67 11.465L104.13 15.425H101.38L102.01 11.475Z" fill="white"/>
    <path d="M104.67 11.465H107.34L106.89 15.425H104.13L104.67 11.465Z" fill="white"/>
    <path d="M107.34 11.465L110 11.455L109.64 15.415L106.89 15.425L107.34 11.465Z" fill="#42474A"/>
    <path d="M110 11.455H112.67L112.4 15.415H109.64L110 11.455Z" fill="#42474A"/>
    <path d="M112.67 11.455H115.33L115.15 15.415H112.4L112.67 11.455Z" fill="white"/>
    <path d="M115.33 11.455L118 11.445L117.91 15.405L115.15 15.415L115.33 11.455Z" fill="white"/>
    <path d="M118 11.445H120.67V15.405H117.91L118 11.445Z" fill="#42474A"/>
    <path d="M120.67 11.445L123.34 11.435L123.43 15.405H120.67V11.445Z" fill="#42474A"/>
    <path d="M123.34 11.435H126L126.19 15.395L123.43 15.405L123.34 11.435Z" fill="white"/>
    <path d="M126 11.435H128.68L128.95 15.395H126.19L126 11.435Z" fill="white"/>
    <path d="M128.68 11.435L131.34 11.425L131.71 15.385L128.95 15.395L128.68 11.435Z" fill="#42474A"/>
    <path d="M131.34 11.425H134.01L134.48 15.385H131.71L131.34 11.425Z" fill="#42474A"/>
    <path d="M134.01 11.425L136.69 11.415L137.24 15.385H134.48L134.01 11.425Z" fill="white"/>
    <path d="M136.69 11.415H139.36L140 15.375L137.24 15.385L136.69 11.415Z" fill="white"/>
    <path d="M139.36 11.415H142.03L142.77 15.375H140L139.36 11.415Z" fill="#42474A"/>
    <path d="M142.03 11.415L144.71 11.405L145.53 15.375H142.77L142.03 11.415Z" fill="#42474A"/>
    <path d="M144.71 11.405H147.38L148.3 15.365L145.53 15.375L144.71 11.405Z" fill="white"/>
    <path d="M147.38 11.405L150.06 11.395L151.07 15.365H148.3L147.38 11.405Z" fill="white"/>
    <path d="M150.06 11.395H152.73L153.83 15.365H151.07L150.06 11.395Z" fill="#42474A"/>
    <path d="M152.73 11.395H155.41L156.6 15.355L153.83 15.365L152.73 11.395Z" fill="#42474A"/>
    <path d="M155.41 11.395L158.09 11.385L159.37 15.355H156.6L155.41 11.395Z" fill="white"/>
    <path d="M158.09 11.385H160.77L162.14 15.355H159.37L158.09 11.385Z" fill="white"/>
    <path d="M160.77 11.385L163.44 11.375L164.91 15.345L162.14 15.355L160.77 11.385Z" fill="#42474A"/>
    <path d="M163.44 11.375H166.13L167.69 15.345H164.91L163.44 11.375Z" fill="#42474A"/>
    <path d="M166.13 11.375H168.81L170.46 15.345H167.69L166.13 11.375Z" fill="white"/>
    <path d="M168.81 11.375L171.49 11.365L173.23 15.335L170.46 15.345L168.81 11.375Z" fill="white"/>
    <path d="M171.49 11.365H174.17L176.01 15.335H173.23L171.49 11.365Z" fill="#42474A"/>
    <path d="M174.17 11.365L176.85 11.355L178.78 15.325L176.01 15.335L174.17 11.365Z" fill="#42474A"/>
    <path d="M176.85 11.355H179.53L181.56 15.325H178.78L176.85 11.355Z" fill="white"/>
    <path d="M179.53 11.355H182.22L184.33 15.325H181.56L179.53 11.355Z" fill="white"/>
    <path d="M182.22 11.355L184.9 11.345L187.11 15.315L184.33 15.325L182.22 11.355Z" fill="#42474A"/>
    <path d="M184.9 11.345H187.59L189.89 15.315H187.11L184.9 11.345Z" fill="#42474A"/>
    <path d="M187.59 11.345L190.28 11.335L192.67 15.315H189.89L187.59 11.345Z" fill="white"/>
    <path d="M190.28 11.335H192.96L195.45 15.305L192.67 15.315L190.28 11.335Z" fill="white"/>
    <path d="M192.96 11.335H195.65L198.22 15.305H195.45L192.96 11.335Z" fill="#42474A"/>
    <path d="M195.65 11.335L198.34 11.325L201.01 15.305H198.22L195.65 11.335Z" fill="#42474A"/>
    <path d="M198.34 11.325H201.03L203.79 15.295L201.01 15.305L198.34 11.325Z" fill="white"/>
    <path d="M201.03 11.325L203.72 11.315L206.57 15.295H203.79L201.03 11.325Z" fill="white"/>
    <path d="M203.72 11.315H206.41L209.35 15.295H206.57L203.72 11.315Z" fill="#42474A"/>
    <path d="M206.41 11.315H209.1L212.14 15.285L209.35 15.295L206.41 11.315Z" fill="#42474A"/>
    <path d="M209.1 11.315L211.79 11.305L214.92 15.285H212.14L209.1 11.315Z" fill="white"/>
    <path d="M8.19 15.545H10.91L7.06 19.765H4.23999L8.19 15.545Z" fill="white"/>
    <path d="M10.9101 15.545H13.64L9.89005 19.765H7.06006L10.9101 15.545Z" fill="white"/>
    <path d="M13.6399 15.545L16.3699 15.535L12.7099 19.755L9.88989 19.765L13.6399 15.545Z" fill="#42474A"/>
    <path d="M16.37 15.535H19.11L15.5399 19.755H12.71L16.37 15.535Z" fill="#42474A"/>
    <path d="M19.11 15.535H21.8401L18.3701 19.755H15.54L19.11 15.535Z" fill="white"/>
    <path d="M21.8399 15.535L24.5699 15.525L21.1899 19.745L18.3699 19.755L21.8399 15.535Z" fill="white"/>
    <path d="M24.5699 15.525H27.2999L24.0199 19.745H21.1899L24.5699 15.525Z" fill="#42474A"/>
    <path d="M27.3 15.525H30.03L26.85 19.745H24.02L27.3 15.525Z" fill="#42474A"/>
    <path d="M30.0301 15.525L32.7701 15.515L29.6801 19.735L26.8501 19.745L30.0301 15.525Z" fill="white"/>
    <path d="M32.7699 15.515H35.4999L32.5099 19.735H29.6799L32.7699 15.515Z" fill="white"/>
    <path d="M35.5 15.515L38.24 15.505L35.34 19.735H32.51L35.5 15.515Z" fill="#42474A"/>
    <path d="M38.2401 15.505H40.9801L38.1801 19.735H35.3401L38.2401 15.505Z" fill="#42474A"/>
    <path d="M40.9799 15.505H43.7099L41.0099 19.725L38.1799 19.735L40.9799 15.505Z" fill="white"/>
    <path d="M43.71 15.505L46.45 15.495L43.85 19.725H41.01L43.71 15.505Z" fill="white"/>
    <path d="M46.4501 15.495H49.1901L46.6801 19.725H43.8501L46.4501 15.495Z" fill="#42474A"/>
    <path d="M49.1899 15.495H51.9299L49.5099 19.715L46.6799 19.725L49.1899 15.495Z" fill="#42474A"/>
    <path d="M51.93 15.495L54.67 15.485L52.35 19.715H49.51L51.93 15.495Z" fill="white"/>
    <path d="M54.6701 15.485H57.4101L55.1901 19.715H52.3501L54.6701 15.485Z" fill="white"/>
    <path d="M57.4099 15.485H60.1599L58.0299 19.705L55.1899 19.715L57.4099 15.485Z" fill="#42474A"/>
    <path d="M60.16 15.485L62.9 15.475L60.87 19.705H58.03L60.16 15.485Z" fill="#42474A"/>
    <path d="M62.8999 15.475H65.6399L63.7099 19.705H60.8699L62.8999 15.475Z" fill="white"/>
    <path d="M65.64 15.475H68.39L66.55 19.695L63.71 19.705L65.64 15.475Z" fill="white"/>
    <path d="M68.39 15.475L71.1301 15.465L69.39 19.695H66.55L68.39 15.475Z" fill="#42474A"/>
    <path d="M71.1299 15.465H73.8799L72.2299 19.695H69.3899L71.1299 15.465Z" fill="#42474A"/>
    <path d="M73.88 15.465H76.62L75.07 19.695H72.23L73.88 15.465Z" fill="white"/>
    <path d="M76.6201 15.465L79.3701 15.455L77.9201 19.685L75.0701 19.695L76.6201 15.465Z" fill="white"/>
    <path d="M79.3699 15.455H82.1199L80.7599 19.685H77.9199L79.3699 15.455Z" fill="#42474A"/>
    <path d="M82.12 15.455L84.87 15.445L83.61 19.685H80.76L82.12 15.455Z" fill="#42474A"/>
    <path d="M84.8701 15.445H87.6201L86.4601 19.675L83.6101 19.685L84.8701 15.445Z" fill="white"/>
    <path d="M87.62 15.445H90.37L89.3 19.675H86.46L87.62 15.445Z" fill="white"/>
    <path d="M90.3701 15.445L93.1201 15.435L92.1501 19.675H89.3L90.3701 15.445Z" fill="#42474A"/>
    <path d="M93.1199 15.435H95.8699L94.9999 19.665L92.1499 19.675L93.1199 15.435Z" fill="#42474A"/>
    <path d="M95.87 15.435H98.62L97.85 19.665H95L95.87 15.435Z" fill="white"/>
    <path d="M98.6201 15.435L101.38 15.425L100.7 19.665H97.8501L98.6201 15.435Z" fill="white"/>
    <path d="M101.38 15.425H104.13L103.55 19.665H100.7L101.38 15.425Z" fill="#42474A"/>
    <path d="M104.13 15.425H106.89L106.4 19.655L103.55 19.665L104.13 15.425Z" fill="#42474A"/>
    <path d="M106.89 15.425L109.64 15.415L109.26 19.655H106.4L106.89 15.425Z" fill="white"/>
    <path d="M109.64 15.415H112.4L112.11 19.655H109.26L109.64 15.415Z" fill="white"/>
    <path d="M112.4 15.415H115.15L114.96 19.645L112.11 19.655L112.4 15.415Z" fill="#42474A"/>
    <path d="M115.15 15.415L117.91 15.405L117.82 19.645H114.96L115.15 15.415Z" fill="#42474A"/>
    <path d="M117.91 15.405H120.67L120.68 19.645H117.82L117.91 15.405Z" fill="white"/>
    <path d="M120.67 15.405H123.43L123.53 19.635L120.68 19.645L120.67 15.405Z" fill="white"/>
    <path d="M123.43 15.405L126.19 15.395L126.39 19.635H123.53L123.43 15.405Z" fill="#42474A"/>
    <path d="M126.19 15.395H128.95L129.25 19.635H126.39L126.19 15.395Z" fill="#42474A"/>
    <path d="M128.95 15.395L131.71 15.385L132.11 19.625L129.25 19.635L128.95 15.395Z" fill="white"/>
    <path d="M131.71 15.385H134.48L134.97 19.625H132.11L131.71 15.385Z" fill="white"/>
    <path d="M134.48 15.385H137.24L137.83 19.625H134.97L134.48 15.385Z" fill="#42474A"/>
    <path d="M137.24 15.385L140 15.375L140.69 19.625H137.83L137.24 15.385Z" fill="#42474A"/>
    <path d="M140 15.375H142.77L143.56 19.615L140.69 19.625L140 15.375Z" fill="white"/>
    <path d="M142.77 15.375H145.53L146.42 19.615H143.56L142.77 15.375Z" fill="white"/>
    <path d="M145.53 15.375L148.3 15.365L149.28 19.615H146.42L145.53 15.375Z" fill="#42474A"/>
    <path d="M148.3 15.365H151.07L152.15 19.605L149.28 19.615L148.3 15.365Z" fill="#42474A"/>
    <path d="M151.07 15.365H153.83L155.01 19.605H152.15L151.07 15.365Z" fill="white"/>
    <path d="M153.83 15.365L156.6 15.355L157.88 19.605H155.01L153.83 15.365Z" fill="white"/>
    <path d="M156.6 15.355H159.37L160.75 19.595L157.88 19.605L156.6 15.355Z" fill="#42474A"/>
    <path d="M159.37 15.355H162.14L163.62 19.595H160.75L159.37 15.355Z" fill="#42474A"/>
    <path d="M162.14 15.355L164.91 15.345L166.49 19.595H163.62L162.14 15.355Z" fill="white"/>
    <path d="M164.91 15.345H167.69L169.36 19.585L166.49 19.595L164.91 15.345Z" fill="white"/>
    <path d="M167.69 15.345H170.46L172.23 19.585H169.36L167.69 15.345Z" fill="#42474A"/>
    <path d="M170.46 15.345L173.23 15.335L175.1 19.585H172.23L170.46 15.345Z" fill="#42474A"/>
    <path d="M173.23 15.335H176.01L177.97 19.585H175.1L173.23 15.335Z" fill="white"/>
    <path d="M176.01 15.335L178.78 15.325L180.84 19.575L177.97 19.585L176.01 15.335Z" fill="white"/>
    <path d="M178.78 15.325H181.56L183.72 19.575H180.84L178.78 15.325Z" fill="#42474A"/>
    <path d="M181.56 15.325H184.33L186.59 19.575H183.72L181.56 15.325Z" fill="#42474A"/>
    <path d="M184.33 15.325L187.11 15.315L189.47 19.565L186.59 19.575L184.33 15.325Z" fill="white"/>
    <path d="M187.11 15.315H189.89L192.35 19.565H189.47L187.11 15.315Z" fill="white"/>
    <path d="M189.89 15.315H192.67L195.22 19.565H192.35L189.89 15.315Z" fill="#42474A"/>
    <path d="M192.67 15.315L195.45 15.305L198.1 19.555L195.22 19.565L192.67 15.315Z" fill="#42474A"/>
    <path d="M195.45 15.305H198.22L200.98 19.555H198.1L195.45 15.305Z" fill="white"/>
    <path d="M198.22 15.305H201.01L203.86 19.555H200.98L198.22 15.305Z" fill="white"/>
    <path d="M201.01 15.305L203.79 15.295L206.74 19.545L203.86 19.555L201.01 15.305Z" fill="#42474A"/>
    <path d="M203.79 15.295H206.57L209.62 19.545H206.74L203.79 15.295Z" fill="#42474A"/>
    <path d="M206.57 15.295H209.35L212.51 19.545H209.62L206.57 15.295Z" fill="white"/>
    <path d="M209.35 15.295L212.14 15.285L215.39 19.545H212.51L209.35 15.295Z" fill="white"/>
    <path d="M212.14 15.285H214.92L218.27 19.535L215.39 19.545L212.14 15.285Z" fill="#42474A"/>
    <path d="M4.23999 19.765H7.06L2.92999 24.295H0L4.23999 19.765Z" fill="white"/>
    <path d="M7.05994 19.765H9.88992L5.84995 24.295H2.92993L7.05994 19.765Z" fill="white"/>
    <path d="M9.89008 19.765L12.7101 19.755L8.78009 24.285L5.8501 24.295L9.89008 19.765Z" fill="#42474A"/>
    <path d="M12.71 19.755H15.54L11.71 24.285H8.78003L12.71 19.755Z" fill="#42474A"/>
    <path d="M15.5399 19.755H18.37L14.64 24.285H11.71L15.5399 19.755Z" fill="white"/>
    <path d="M18.3699 19.755L21.1899 19.745L17.5699 24.285H14.6399L18.3699 19.755Z" fill="white"/>
    <path d="M21.1901 19.745H24.0201L20.5001 24.275L17.5701 24.285L21.1901 19.745Z" fill="#42474A"/>
    <path d="M24.02 19.745H26.85L23.43 24.275H20.5L24.02 19.745Z" fill="#42474A"/>
    <path d="M26.8499 19.745L29.6799 19.735L26.3699 24.275H23.4299L26.8499 19.745Z" fill="white"/>
    <path d="M29.6799 19.735H32.5099L29.2999 24.275H26.3699L29.6799 19.735Z" fill="white"/>
    <path d="M32.51 19.735H35.3401L32.23 24.265L29.3 24.275L32.51 19.735Z" fill="#42474A"/>
    <path d="M35.34 19.735H38.18L35.17 24.265H32.23L35.34 19.735Z" fill="#42474A"/>
    <path d="M38.1799 19.735L41.0099 19.725L38.1099 24.265H35.1699L38.1799 19.735Z" fill="white"/>
    <path d="M41.0101 19.725H43.8501L41.0401 24.265H38.1101L41.0101 19.725Z" fill="white"/>
    <path d="M43.8501 19.725H46.6801L43.98 24.255L41.04 24.265L43.8501 19.725Z" fill="#42474A"/>
    <path d="M46.68 19.725L49.51 19.715L46.92 24.255H43.98L46.68 19.725Z" fill="#42474A"/>
    <path d="M49.5099 19.715H52.3499L49.8599 24.255H46.9199L49.5099 19.715Z" fill="white"/>
    <path d="M52.3501 19.715H55.1901L52.8001 24.255H49.8601L52.3501 19.715Z" fill="white"/>
    <path d="M55.1901 19.715L58.0301 19.705L55.7401 24.245L52.8 24.255L55.1901 19.715Z" fill="#42474A"/>
    <path d="M58.03 19.705H60.87L58.69 24.245H55.74L58.03 19.705Z" fill="#42474A"/>
    <path d="M60.8699 19.705H63.7099L61.6299 24.245H58.6899L60.8699 19.705Z" fill="white"/>
    <path d="M63.7101 19.705L66.5501 19.695L64.5701 24.245H61.6301L63.7101 19.705Z" fill="white"/>
    <path d="M66.5501 19.695H69.3901L67.5201 24.235L64.5701 24.245L66.5501 19.695Z" fill="#42474A"/>
    <path d="M69.39 19.695H72.23L70.46 24.235H67.52L69.39 19.695Z" fill="#42474A"/>
    <path d="M72.2299 19.695H75.0699L73.41 24.235H70.46L72.2299 19.695Z" fill="white"/>
    <path d="M75.0699 19.695L77.9199 19.685L76.3599 24.235H73.4099L75.0699 19.695Z" fill="white"/>
    <path d="M77.9201 19.685H80.7601L79.3101 24.225L76.3601 24.235L77.9201 19.685Z" fill="#42474A"/>
    <path d="M80.76 19.685H83.61L82.26 24.225H79.3101L80.76 19.685Z" fill="#42474A"/>
    <path d="M83.61 19.685L86.46 19.675L85.21 24.225H82.26L83.61 19.685Z" fill="white"/>
    <path d="M86.46 19.675H89.3L88.16 24.225H85.21L86.46 19.675Z" fill="white"/>
    <path d="M89.2999 19.675H92.1499L91.1099 24.215L88.1599 24.225L89.2999 19.675Z" fill="#42474A"/>
    <path d="M92.1501 19.675L95.0001 19.665L94.0701 24.215H91.1101L92.1501 19.675Z" fill="#42474A"/>
    <path d="M95.0001 19.665H97.8501L97.0201 24.215H94.0701L95.0001 19.665Z" fill="white"/>
    <path d="M97.85 19.665H100.7L99.97 24.215H97.02L97.85 19.665Z" fill="white"/>
    <path d="M100.7 19.665H103.55L102.93 24.205L99.97 24.215L100.7 19.665Z" fill="#42474A"/>
    <path d="M103.55 19.665L106.4 19.655L105.88 24.205H102.93L103.55 19.665Z" fill="#42474A"/>
    <path d="M106.4 19.655H109.26L108.84 24.205H105.88L106.4 19.655Z" fill="white"/>
    <path d="M109.26 19.655H112.11L111.8 24.205H108.84L109.26 19.655Z" fill="white"/>
    <path d="M112.11 19.655L114.96 19.645L114.76 24.195L111.8 24.205L112.11 19.655Z" fill="#42474A"/>
    <path d="M114.96 19.645H117.82L117.72 24.195H114.76L114.96 19.645Z" fill="#42474A"/>
    <path d="M117.82 19.645H120.68V24.195H117.72L117.82 19.645Z" fill="white"/>
    <path d="M120.68 19.645L123.53 19.635L123.64 24.195H120.68V19.645Z" fill="white"/>
    <path d="M123.53 19.635H126.39L126.6 24.185L123.64 24.195L123.53 19.635Z" fill="#42474A"/>
    <path d="M126.39 19.635H129.25L129.57 24.185H126.6L126.39 19.635Z" fill="#42474A"/>
    <path d="M129.25 19.635L132.11 19.625L132.53 24.185H129.57L129.25 19.635Z" fill="white"/>
    <path d="M132.11 19.625H134.97L135.5 24.185H132.53L132.11 19.625Z" fill="white"/>
    <path d="M134.97 19.625H137.83L138.46 24.175L135.5 24.185L134.97 19.625Z" fill="#42474A"/>
    <path d="M137.83 19.625H140.69L141.43 24.175H138.46L137.83 19.625Z" fill="#42474A"/>
    <path d="M140.69 19.625L143.56 19.615L144.4 24.175H141.43L140.69 19.625Z" fill="white"/>
    <path d="M143.56 19.615H146.42L147.37 24.175H144.4L143.56 19.615Z" fill="white"/>
    <path d="M146.42 19.615H149.28L150.34 24.165L147.37 24.175L146.42 19.615Z" fill="#42474A"/>
    <path d="M149.28 19.615L152.15 19.605L153.31 24.165H150.34L149.28 19.615Z" fill="#42474A"/>
    <path d="M152.15 19.605H155.01L156.28 24.165H153.31L152.15 19.605Z" fill="white"/>
    <path d="M155.01 19.605H157.88L159.25 24.165H156.28L155.01 19.605Z" fill="white"/>
    <path d="M157.88 19.605L160.75 19.595L162.22 24.155L159.25 24.165L157.88 19.605Z" fill="#42474A"/>
    <path d="M160.75 19.595H163.62L165.2 24.155H162.22L160.75 19.595Z" fill="#42474A"/>
    <path d="M163.62 19.595H166.49L168.17 24.155H165.2L163.62 19.595Z" fill="white"/>
    <path d="M166.49 19.595L169.36 19.585L171.15 24.155H168.17L166.49 19.595Z" fill="white"/>
    <path d="M169.36 19.585H172.23L174.13 24.145L171.15 24.155L169.36 19.585Z" fill="#42474A"/>
    <path d="M172.23 19.585H175.1L177.11 24.145H174.13L172.23 19.585Z" fill="#42474A"/>
    <path d="M175.1 19.585H177.97L180.08 24.145H177.11L175.1 19.585Z" fill="white"/>
    <path d="M177.97 19.585L180.84 19.575L183.06 24.145H180.08L177.97 19.585Z" fill="white"/>
    <path d="M180.84 19.575H183.72L186.04 24.135L183.06 24.145L180.84 19.575Z" fill="#42474A"/>
    <path d="M183.72 19.575H186.59L189.02 24.135H186.04L183.72 19.575Z" fill="#42474A"/>
    <path d="M186.59 19.575L189.47 19.565L192.01 24.135H189.02L186.59 19.575Z" fill="white"/>
    <path d="M189.47 19.565H192.35L194.99 24.135H192.01L189.47 19.565Z" fill="white"/>
    <path d="M192.35 19.565H195.22L197.97 24.125L194.99 24.135L192.35 19.565Z" fill="#42474A"/>
    <path d="M195.22 19.565L198.1 19.555L200.96 24.125H197.97L195.22 19.565Z" fill="#42474A"/>
    <path d="M198.1 19.555H200.98L203.94 24.125H200.96L198.1 19.555Z" fill="white"/>
    <path d="M200.98 19.555H203.86L206.93 24.125H203.94L200.98 19.555Z" fill="white"/>
    <path d="M203.86 19.555L206.74 19.545L209.92 24.115L206.93 24.125L203.86 19.555Z" fill="#42474A"/>
    <path d="M206.74 19.545H209.62L212.91 24.115H209.92L206.74 19.545Z" fill="#42474A"/>
    <path d="M209.62 19.545H212.51L215.89 24.115H212.91L209.62 19.545Z" fill="white"/>
    <path d="M212.51 19.545H215.39L218.89 24.115H215.89L212.51 19.545Z" fill="white"/>
    <path d="M215.39 19.545L218.27 19.535L221.88 24.105L218.89 24.115L215.39 19.545Z" fill="#42474A"/>
</svg>