<svg shape-rendering="crispEdges" width="136" height="58" viewBox="0 0 136 58" fill="none" xmlns="http://www.w3.org/2000/svg">
    <path d="M25.1621 20.1333H22.6432V22.6522H25.1621V20.1333Z" fill="black"/>
    <path d="M25.1621 17.6144H22.6432V20.1333H25.1621V17.6144Z" fill="black"/>
    <path d="M25.1621 12.5856H22.6432V15.1045H25.1621V12.5856Z" fill="black"/>
    <path d="M25.1621 10.0666H22.6432V12.5856H25.1621V10.0666Z" fill="black"/>
    <path d="M25.1621 7.54767H22.6432V10.0666H25.1621V7.54767Z" fill="black"/>
    <path d="M27.6811 5.02878H25.1621V7.54768H27.6811V5.02878Z" fill="black"/>
    <path d="M30.2 5.02878H27.6811V7.54768H30.2V5.02878Z" fill="black"/>
    <path d="M32.719 5.02878H30.2V7.54768H32.719V5.02878Z" fill="black"/>
    <path d="M35.2289 5.02878H32.7099V7.54768H35.2289V5.02878Z" fill="black"/>
    <path d="M37.7477 5.02878H35.2289V7.54768H37.7477V5.02878Z" fill="black"/>
    <path d="M40.2666 7.54767H37.7477V10.0666H40.2666V7.54767Z" fill="black"/>
    <path d="M40.2666 10.0666H37.7477V12.5856H40.2666V10.0666Z" fill="black"/>
    <path d="M40.2666 12.5856H37.7477V15.1045H40.2666V12.5856Z" fill="black"/>
    <path d="M25.1621 15.0954H22.6432V17.6144H25.1621V15.0954Z" fill="black"/>
    <path d="M40.2666 15.0954H37.7477V17.6144H40.2666V15.0954Z" fill="#10CF1F"/>
    <path d="M40.2666 17.6144H37.7477V20.1333H40.2666V17.6144Z" fill="#10CF1F"/>
    <path d="M40.2666 20.1333H37.7477V22.6522H40.2666V20.1333Z" fill="#ECECEC"/>
    <path d="M37.7477 7.54767H35.2289V10.0666H37.7477V7.54767Z" fill="#777777"/>
    <path d="M37.7477 10.0666H35.2289V12.5856H37.7477V10.0666Z" fill="black"/>
    <path d="M37.7477 12.5856H35.2289V15.1045H37.7477V12.5856Z" fill="black"/>
    <path d="M37.7477 15.0954H35.2289V17.6144H37.7477V15.0954Z" fill="#10CF1F"/>
    <path d="M37.7477 17.6144H35.2289V20.1333H37.7477V17.6144Z" fill="black"/>
    <path d="M37.7477 20.1333H35.2289V22.6522H37.7477V20.1333Z" fill="#ECECEC"/>
    <path d="M37.7477 17.6144H35.2289V20.1333H37.7477V17.6144Z" fill="#10CF1F"/>
    <path d="M35.2289 7.54767H32.7099V10.0666H35.2289V7.54767Z" fill="#777777"/>
    <path d="M35.2289 10.0666H32.7099V12.5856H35.2289V10.0666Z" fill="black"/>
    <path d="M35.2289 12.5856H32.7099V15.1045H35.2289V12.5856Z" fill="black"/>
    <path d="M35.2289 15.0954H32.7099V17.6144H35.2289V15.0954Z" fill="#10CF1F"/>
    <path d="M35.2289 17.6144H32.7099V20.1333H35.2289V17.6144Z" fill="#10CF1F"/>
    <path d="M35.2289 20.1333H32.7099V22.6522H35.2289V20.1333Z" fill="#ECECEC"/>
    <path d="M32.719 7.54767H30.2V10.0666H32.719V7.54767Z" fill="#777777"/>
    <path d="M32.719 10.0666H30.2V12.5856H32.719V10.0666Z" fill="black"/>
    <path d="M32.719 12.5856H30.2V15.1045H32.719V12.5856Z" fill="black"/>
    <path d="M32.719 15.0954H30.2V17.6144H32.719V15.0954Z" fill="black"/>
    <path d="M32.719 17.6144H30.2V20.1333H32.719V17.6144Z" fill="#10CF1F"/>
    <path d="M32.719 20.1333H30.2V22.6522H32.719V20.1333Z" fill="#10CF1F"/>
    <path d="M30.2 7.54767H27.6811V10.0666H30.2V7.54767Z" fill="black"/>
    <path d="M30.2 10.0666H27.6811V12.5856H30.2V10.0666Z" fill="black"/>
    <path d="M30.2 12.5856H27.6811V15.1045H30.2V12.5856Z" fill="black"/>
    <path d="M30.2 15.0954H27.6811V17.6144H30.2V15.0954Z" fill="black"/>
    <path d="M30.2 17.6144H27.6811V20.1333H30.2V17.6144Z" fill="black"/>
    <path d="M30.2 20.1333H27.6811V22.6522H30.2V20.1333Z" fill="black"/>
    <path d="M27.6811 7.54767H25.1621V10.0666H27.6811V7.54767Z" fill="#777777"/>
    <path d="M27.6811 10.0666H25.1621V12.5856H27.6811V10.0666Z" fill="black"/>
    <path d="M27.6811 12.5856H25.1621V15.1045H27.6811V12.5856Z" fill="black"/>
    <path d="M27.6811 15.0954H25.1621V17.6144H27.6811V15.0954Z" fill="black"/>
    <path d="M27.6811 17.6144H25.1621V20.1333H27.6811V17.6144Z" fill="black"/>
    <path d="M27.6811 20.1333H25.1621V22.6522H27.6811V20.1333Z" fill="black"/>
    <path d="M27.6811 22.6522H25.1621V25.1711H27.6811V22.6522Z" fill="black"/>
    <path d="M22.6522 20.1333H20.1333V22.6522H22.6522V20.1333Z" fill="#776E5D"/>
    <path d="M22.6522 22.6522H20.1333V25.1711H22.6522V22.6522Z" fill="#776E5D"/>
    <path d="M22.6522 17.6144H20.1333V20.1333H22.6522V17.6144Z" fill="#776E5D"/>
    <path d="M22.6522 12.5856H20.1333V15.1045H22.6522V12.5856Z" fill="#776E5D"/>
    <path d="M22.6522 15.0954H20.1333V17.6144H22.6522V15.0954Z" fill="#776E5D"/>
    <path d="M25.1621 22.6522H22.6432V25.1711H25.1621V22.6522Z" fill="#776E5D"/>
    <path d="M25.1621 25.162H22.6432V27.681H25.1621V25.162Z" fill="#776E5D"/>
    <path d="M27.6811 30.1999H25.1621V32.7188H27.6811V30.1999Z" fill="#776E5D"/>
    <path d="M27.6811 27.681H25.1621V30.1999H27.6811V27.681Z" fill="#776E5D"/>
    <path d="M27.6811 25.162H25.1621V27.681H27.6811V25.162Z" fill="#776E5D"/>
    <path d="M25.1621 27.681H22.6432V30.1999H25.1621V27.681Z" fill="#776E5D"/>
    <path d="M22.6522 27.681H20.1333V30.1999H22.6522V27.681Z" fill="#776E5D"/>
    <path d="M20.1333 27.681H17.6144V30.1999H20.1333V27.681Z" fill="#776E5D"/>
    <path d="M17.6144 27.681H15.0955V30.1999H17.6144V27.681Z" fill="#776E5D"/>
    <path d="M15.0955 27.681H12.5766V30.1999H15.0955V27.681Z" fill="#776E5D"/>
    <path d="M12.5856 27.681H10.0667V30.1999H12.5856V27.681Z" fill="#776E5D"/>
    <path d="M10.0667 27.681H7.54779V30.1999H10.0667V27.681Z" fill="#776E5D"/>
    <path d="M7.54774 27.681H5.02884V30.1999H7.54774V27.681Z" fill="#776E5D"/>
    <path d="M5.02884 30.1999H2.50989V32.7188H5.02884V30.1999Z" fill="#776E5D"/>
    <path d="M2.5189 32.7188H0V35.2378H2.5189V32.7188Z" fill="#776E5D"/>
    <path d="M2.5189 35.2378H0V37.7567H2.5189V35.2378Z" fill="#776E5D"/>
    <path d="M2.5189 37.7476H0V40.2666H2.5189V37.7476Z" fill="#776E5D"/>
    <path d="M2.5189 40.2666H0V42.7855H2.5189V40.2666Z" fill="#776E5D"/>
    <path d="M2.5189 42.7855H0V45.3044H2.5189V42.7855Z" fill="#776E5D"/>
    <path d="M2.5189 45.3044H0V47.8233H2.5189V45.3044Z" fill="#776E5D"/>
    <path d="M2.5189 47.8143H0V50.3332H2.5189V47.8143Z" fill="#776E5D"/>
    <path d="M30.2 22.6522H27.6811V25.1711H30.2V22.6522Z" fill="black"/>
    <path d="M32.719 22.6522H30.2V25.1711H32.719V22.6522Z" fill="black"/>
    <path d="M35.2289 22.6522H32.7099V25.1711H35.2289V22.6522Z" fill="#ECECEC"/>
    <path d="M37.7477 22.6522H35.2289V25.1711H37.7477V22.6522Z" fill="#ECECEC"/>
    <path d="M40.2666 5.02878H37.7477V7.54768H40.2666V5.02878Z" fill="black"/>
    <path d="M42.7855 7.54767H40.2666V10.0666H42.7855V7.54767Z" fill="black"/>
    <path d="M42.7855 10.0666H40.2666V12.5856H42.7855V10.0666Z" fill="black"/>
    <path d="M42.7855 12.5856H40.2666V15.1045H42.7855V12.5856Z" fill="black"/>
    <path d="M42.7855 15.0954H40.2666V17.6144H42.7855V15.0954Z" fill="#10CF1F"/>
    <path d="M45.3044 15.0954H42.7855V17.6144H45.3044V15.0954Z" fill="#10CF1F"/>
    <path d="M42.7855 17.6144H40.2666V20.1333H42.7855V17.6144Z" fill="#10CF1F"/>
    <path d="M42.7855 20.1333H40.2666V22.6522H42.7855V20.1333Z" fill="#ECECEC"/>
    <path d="M40.2666 22.6522H37.7477V25.1711H40.2666V22.6522Z" fill="#ECECEC"/>
    <path d="M5.02884 47.8143H2.50989V50.3332H5.02884V47.8143Z" fill="black"/>
    <path d="M5.02884 45.3044H2.50989V47.8233H5.02884V45.3044Z" fill="black"/>
    <path d="M5.02884 40.2666H2.50989V42.7855H5.02884V40.2666Z" fill="black"/>
    <path d="M5.02884 35.2378H2.50989V37.7567H5.02884V35.2378Z" fill="black"/>
    <path d="M5.02884 32.7188H2.50989V35.2378H5.02884V32.7188Z" fill="black"/>
    <path d="M7.54774 30.1999H5.02884V32.7188H7.54774V30.1999Z" fill="black"/>
    <path d="M10.0667 30.1999H7.54779V32.7188H10.0667V30.1999Z" fill="black"/>
    <path d="M12.5856 30.1999H10.0667V32.7188H12.5856V30.1999Z" fill="black"/>
    <path d="M15.0955 30.1999H12.5766V32.7188H15.0955V30.1999Z" fill="black"/>
    <path d="M17.6144 30.1999H15.0955V32.7188H17.6144V30.1999Z" fill="black"/>
    <path d="M20.1333 30.1999H17.6144V32.7188H20.1333V30.1999Z" fill="black"/>
    <path d="M25.1621 32.7188H22.6432V35.2378H25.1621V32.7188Z" fill="black"/>
    <path d="M25.1621 35.2378H22.6432V37.7567H25.1621V35.2378Z" fill="black"/>
    <path d="M25.1621 40.2666H22.6432V42.7855H25.1621V40.2666Z" fill="black"/>
    <path d="M5.02884 42.7855H2.50989V45.3044H5.02884V42.7855Z" fill="black"/>
    <path d="M25.1621 42.7855H22.6432V45.3044H25.1621V42.7855Z" fill="black"/>
    <path d="M25.1621 45.3044H22.6432V47.8233H25.1621V45.3044Z" fill="black"/>
    <path d="M25.1621 47.8143H22.6432V50.3332H25.1621V47.8143Z" fill="black"/>
    <path d="M20.1333 32.7188H17.6144V35.2378H20.1333V32.7188Z" fill="#777777"/>
    <path d="M22.6522 32.7188H20.1333V35.2378H22.6522V32.7188Z" fill="#777777"/>
    <path d="M20.1333 35.2378H17.6144V37.7567H20.1333V35.2378Z" fill="black"/>
    <path d="M20.1333 40.2666H17.6144V42.7855H20.1333V40.2666Z" fill="black"/>
    <path d="M20.1333 42.7855H17.6144V45.3044H20.1333V42.7855Z" fill="black"/>
    <path d="M20.1333 45.3044H17.6144V47.8233H20.1333V45.3044Z" fill="black"/>
    <path d="M20.1333 47.8143H17.6144V50.3332H20.1333V47.8143Z" fill="black"/>
    <path d="M17.6144 32.7188H15.0955V35.2378H17.6144V32.7188Z" fill="#777777"/>
    <path d="M17.6144 35.2378H15.0955V37.7567H17.6144V35.2378Z" fill="black"/>
    <path d="M17.6144 40.2666H15.0955V42.7855H17.6144V40.2666Z" fill="black"/>
    <path d="M17.6144 42.7855H15.0955V45.3044H17.6144V42.7855Z" fill="black"/>
    <path d="M17.6144 45.3044H15.0955V47.8233H17.6144V45.3044Z" fill="black"/>
    <path d="M17.6144 47.8143H15.0955V50.3332H17.6144V47.8143Z" fill="black"/>
    <path d="M15.0955 32.7188H12.5766V35.2378H15.0955V32.7188Z" fill="#777777"/>
    <path d="M15.0955 35.2378H12.5766V37.7567H15.0955V35.2378Z" fill="black"/>
    <path d="M15.0955 40.2666H12.5766V42.7855H15.0955V40.2666Z" fill="black"/>
    <path d="M15.0955 42.7855H12.5766V45.3044H15.0955V42.7855Z" fill="black"/>
    <path d="M15.0955 45.3044H12.5766V47.8233H15.0955V45.3044Z" fill="black"/>
    <path d="M15.0955 47.8143H12.5766V50.3332H15.0955V47.8143Z" fill="black"/>
    <path d="M12.5856 32.7188H10.0667V35.2378H12.5856V32.7188Z" fill="#777777"/>
    <path d="M12.5856 35.2378H10.0667V37.7567H12.5856V35.2378Z" fill="black"/>
    <path d="M12.5856 40.2666H10.0667V42.7855H12.5856V40.2666Z" fill="black"/>
    <path d="M12.5856 42.7855H10.0667V45.3044H12.5856V42.7855Z" fill="black"/>
    <path d="M12.5856 45.3044H10.0667V47.8233H12.5856V45.3044Z" fill="black"/>
    <path d="M12.5856 47.8143H10.0667V50.3332H12.5856V47.8143Z" fill="black"/>
    <path d="M10.0667 32.7188H7.54779V35.2378H10.0667V32.7188Z" fill="black"/>
    <path d="M10.0667 35.2378H7.54779V37.7567H10.0667V35.2378Z" fill="black"/>
    <path d="M10.0667 40.2666H7.54779V42.7855H10.0667V40.2666Z" fill="black"/>
    <path d="M10.0667 42.7855H7.54779V45.3044H10.0667V42.7855Z" fill="black"/>
    <path d="M10.0667 45.3044H7.54779V47.8233H10.0667V45.3044Z" fill="black"/>
    <path d="M10.0667 47.8143H7.54779V50.3332H10.0667V47.8143Z" fill="black"/>
    <path d="M7.54774 32.7188H5.02884V35.2378H7.54774V32.7188Z" fill="#777777"/>
    <path d="M7.54774 35.2378H5.02884V37.7567H7.54774V35.2378Z" fill="black"/>
    <path d="M7.54774 40.2666H5.02884V42.7855H7.54774V40.2666Z" fill="black"/>
    <path d="M7.54774 42.7855H5.02884V45.3044H7.54774V42.7855Z" fill="black"/>
    <path d="M7.54774 45.3044H5.02884V47.8233H7.54774V45.3044Z" fill="black"/>
    <path d="M7.54774 47.8143H5.02884V50.3332H7.54774V47.8143Z" fill="black"/>
    <path d="M7.54774 50.3332H5.02884V52.8521H7.54774V50.3332Z" fill="black"/>
    <path d="M10.0667 50.3332H7.54779V52.8521H10.0667V50.3332Z" fill="black"/>
    <path d="M12.5856 50.3332H10.0667V52.8521H12.5856V50.3332Z" fill="black"/>
    <path d="M15.0955 50.3332H12.5766V52.8521H15.0955V50.3332Z" fill="black"/>
    <path d="M17.6144 50.3332H15.0955V52.8521H17.6144V50.3332Z" fill="black"/>
    <path d="M20.1333 50.3332H17.6144V52.8521H20.1333V50.3332Z" fill="black"/>
    <path d="M25.1621 30.1999H22.6432V32.7188H25.1621V30.1999Z" fill="black"/>
    <path d="M27.6811 32.7188H25.1621V35.2378H27.6811V32.7188Z" fill="black"/>
    <path d="M27.6811 35.2378H25.1621V37.7567H27.6811V35.2378Z" fill="black"/>
    <path d="M27.6811 40.2666H25.1621V42.7855H27.6811V40.2666Z" fill="black"/>
    <path d="M27.6811 42.7855H25.1621V45.3044H27.6811V42.7855Z" fill="black"/>
    <path d="M27.6811 45.3044H25.1621V47.8233H27.6811V45.3044Z" fill="black"/>
    <path d="M27.6811 47.8143H25.1621V50.3332H27.6811V47.8143Z" fill="black"/>
    <path d="M30.2 45.3044H27.6811V47.8233H30.2V45.3044Z" fill="black"/>
    <path d="M30.2 37.7476H27.6811V40.2666H30.2V37.7476Z" fill="#636363"/>
    <path d="M32.719 35.2378H30.2V37.7567H32.719V35.2378Z" fill="#636363"/>
    <path d="M32.719 32.7188H30.2V35.2378H32.719V32.7188Z" fill="#636363"/>
    <path d="M32.719 30.1999H30.2V32.7188H32.719V30.1999Z" fill="#636363"/>
    <path d="M32.719 27.681H30.2V30.1999H32.719V27.681Z" fill="#8D8D8D"/>
    <path d="M32.719 25.1711H30.2V27.6901H32.719V25.1711Z" fill="#8D8D8D"/>
    <path d="M30.2 35.2378H27.6811V37.7567H30.2V35.2378Z" fill="#636363"/>
    <path d="M30.2 32.7188H27.6811V35.2378H30.2V32.7188Z" fill="#636363"/>
    <path d="M30.2 27.681H27.6811V30.1999H30.2V27.681Z" fill="#ECECEC"/>
    <path d="M30.2 27.681H27.6811V30.1999H30.2V27.681Z" fill="#8D8D8D"/>
    <path d="M30.2 30.1999H27.6811V32.7188H30.2V30.1999Z" fill="#8D8D8D"/>
    <path d="M30.2 25.1711H27.6811V27.6901H30.2V25.1711Z" fill="#ECECEC"/>
    <path d="M30.2 22.6522H27.6811V25.1711H30.2V22.6522Z" fill="black"/>
    <path d="M32.719 22.6522H30.2V25.1711H32.719V22.6522Z" fill="#ECECEC"/>
    <path d="M35.2289 22.6522H32.7099V25.1711H35.2289V22.6522Z" fill="#ECECEC"/>
    <path d="M35.2289 25.1711H32.7099V27.6901H35.2289V25.1711Z" fill="#10CF1F"/>
    <path d="M37.7477 25.1711H35.2289V27.6901H37.7477V25.1711Z" fill="#10CF1F"/>
    <path d="M40.2666 25.1711H37.7477V27.6901H40.2666V25.1711Z" fill="#10CF1F"/>
    <path d="M42.7855 25.1711H40.2666V27.6901H42.7855V25.1711Z" fill="#10CF1F"/>
    <path d="M45.3044 25.1711H42.7855V27.6901H45.3044V25.1711Z" fill="#10CF1F"/>
    <path d="M47.8142 25.1711H45.2953V27.6901H47.8142V25.1711Z" fill="#10CF1F"/>
    <path d="M50.3333 25.1711H47.8143V27.6901H50.3333V25.1711Z" fill="#10CF1F"/>
    <path d="M52.8521 25.1711H50.3333V27.6901H52.8521V25.1711Z" fill="#10CF1F"/>
    <path d="M55.3712 25.1711H52.8522V27.6901H55.3712V25.1711Z" fill="#10CF1F"/>
    <path d="M57.881 25.1711H55.3621V27.6901H57.881V25.1711Z" fill="#10CF1F"/>
    <path d="M60.3999 25.1711H57.881V27.6901H60.3999V25.1711Z" fill="#10CF1F"/>
    <path d="M62.9189 25.1711H60.3999V27.6901H62.9189V25.1711Z" fill="#10CF1F"/>
    <path d="M65.4378 25.1711H62.9189V27.6901H65.4378V25.1711Z" fill="#10CF1F"/>
    <path d="M67.9476 25.1711H65.4286V27.6901H67.9476V25.1711Z" fill="#10CF1F"/>
    <path d="M35.2289 27.681H32.7099V30.1999H35.2289V27.681Z" fill="black"/>
    <path d="M35.2289 30.1999H32.7099V32.7188H35.2289V30.1999Z" fill="#2955FF"/>
    <path d="M35.2289 32.7188H32.7099V35.2378H35.2289V32.7188Z" fill="#48E9FF"/>
    <path d="M35.2289 35.2378H32.7099V37.7567H35.2289V35.2378Z" fill="#2955FF"/>
    <path d="M32.719 37.7476H30.2V40.2666H32.719V37.7476Z" fill="black"/>
    <path d="M37.7477 27.681H35.2289V30.1999H37.7477V27.681Z" fill="black"/>
    <path d="M40.2666 27.681H37.7477V30.1999H40.2666V27.681Z" fill="black"/>
    <path d="M42.7855 27.681H40.2666V30.1999H42.7855V27.681Z" fill="black"/>
    <path d="M45.3044 27.681H42.7855V30.1999H45.3044V27.681Z" fill="black"/>
    <path d="M47.8142 27.681H45.2953V30.1999H47.8142V27.681Z" fill="black"/>
    <path d="M50.3333 27.681H47.8143V30.1999H50.3333V27.681Z" fill="black"/>
    <path d="M52.8521 27.681H50.3333V30.1999H52.8521V27.681Z" fill="black"/>
    <path d="M55.3712 27.681H52.8522V30.1999H55.3712V27.681Z" fill="black"/>
    <path d="M57.881 27.681H55.3621V30.1999H57.881V27.681Z" fill="black"/>
    <path d="M60.3999 27.681H57.881V30.1999H60.3999V27.681Z" fill="black"/>
    <path d="M62.9189 27.681H60.3999V30.1999H62.9189V27.681Z" fill="black"/>
    <path d="M65.4378 27.681H62.9189V30.1999H65.4378V27.681Z" fill="black"/>
    <path d="M67.9476 27.681H65.4286V30.1999H67.9476V27.681Z" fill="black"/>
    <path d="M37.7477 22.6522H35.2289V25.1711H37.7477V22.6522Z" fill="#ECECEC"/>
    <path d="M40.2666 22.6522H37.7477V25.1711H40.2666V22.6522Z" fill="#ECECEC"/>
    <path d="M42.7855 22.6522H40.2666V25.1711H42.7855V22.6522Z" fill="#ECECEC"/>
    <path d="M45.3044 22.6522H42.7855V25.1711H45.3044V22.6522Z" fill="#ECECEC"/>
    <path d="M47.8142 22.6522H45.2953V25.1711H47.8142V22.6522Z" fill="#ECECEC"/>
    <path d="M50.3333 22.6522H47.8143V25.1711H50.3333V22.6522Z" fill="#ECECEC"/>
    <path d="M52.8521 22.6522H50.3333V25.1711H52.8521V22.6522Z" fill="#ECECEC"/>
    <path d="M55.3712 22.6522H52.8522V25.1711H55.3712V22.6522Z" fill="#ECECEC"/>
    <path d="M57.881 22.6522H55.3621V25.1711H57.881V22.6522Z" fill="#ECECEC"/>
    <path d="M60.3999 22.6522H57.881V25.1711H60.3999V22.6522Z" fill="#ECECEC"/>
    <path d="M62.9189 22.6522H60.3999V25.1711H62.9189V22.6522Z" fill="#ECECEC"/>
    <path d="M65.4378 22.6522H62.9189V25.1711H65.4378V22.6522Z" fill="#ECECEC"/>
    <path d="M67.9476 22.6522H65.4286V25.1711H67.9476V22.6522Z" fill="#ECECEC"/>
    <path d="M32.719 45.3044H30.2V47.8233H32.719V45.3044Z" fill="black"/>
    <path d="M30.2 47.8143H27.6811V50.3332H30.2V47.8143Z" fill="#514F4C"/>
    <path d="M32.719 47.8143H30.2V50.3332H32.719V47.8143Z" fill="#514F4C"/>
    <path d="M30.2 50.3332H27.6811V52.8521H30.2V50.3332Z" fill="#514F4C"/>
    <path d="M27.6811 50.3332H25.1621V52.8521H27.6811V50.3332Z" fill="#514F4C"/>
    <path d="M27.6811 52.8521H25.1621V55.3711H27.6811V52.8521Z" fill="#514F4C"/>
    <path d="M25.1621 52.8521H22.6432V55.3711H25.1621V52.8521Z" fill="#514F4C"/>
    <path d="M22.6432 52.8521H20.1242V55.3711H22.6432V52.8521Z" fill="#514F4C"/>
    <path d="M20.1242 52.8521H17.6053V55.3711H20.1242V52.8521Z" fill="#514F4C"/>
    <path d="M17.6053 52.8521H15.0864V55.3711H17.6053V52.8521Z" fill="#514F4C"/>
    <path d="M15.0865 52.8521H12.5676V55.3711H15.0865V52.8521Z" fill="#514F4C"/>
    <path d="M12.5676 52.8521H10.0486V55.3711H12.5676V52.8521Z" fill="#514F4C"/>
    <path d="M10.0486 52.8521H7.52966V55.3711H10.0486V52.8521Z" fill="#514F4C"/>
    <path d="M7.54774 52.8521H5.02884V55.3711H7.54774V52.8521Z" fill="#514F4C"/>
    <path d="M32.719 50.3332H30.2V52.8521H32.719V50.3332Z" fill="#514F4C"/>
    <path d="M35.2289 50.3332H32.7099V52.8521H35.2289V50.3332Z" fill="#514F4C"/>
    <path d="M37.7477 50.3332H35.2289V52.8521H37.7477V50.3332Z" fill="#514F4C"/>
    <path d="M40.2666 50.3332H37.7477V52.8521H40.2666V50.3332Z" fill="#514F4C"/>
    <path d="M42.7855 50.3332H40.2666V52.8521H42.7855V50.3332Z" fill="#514F4C"/>
    <path d="M45.2954 50.3332H42.7764V52.8521H45.2954V50.3332Z" fill="#514F4C"/>
    <path d="M32.719 52.8521H30.2V55.3711H32.719V52.8521Z" fill="#514F4C"/>
    <path d="M35.2289 52.8521H32.7099V55.3711H35.2289V52.8521Z" fill="#514F4C"/>
    <path d="M37.7477 52.8521H35.2289V55.3711H37.7477V52.8521Z" fill="#514F4C"/>
    <path d="M40.2666 52.8521H37.7477V55.3711H40.2666V52.8521Z" fill="#514F4C"/>
    <path d="M42.7855 52.8521H40.2666V55.3711H42.7855V52.8521Z" fill="#514F4C"/>
    <path d="M45.2954 52.8521H42.7764V55.3711H45.2954V52.8521Z" fill="#514F4C"/>
    <path d="M47.8142 52.8521H45.2953V55.3711H47.8142V52.8521Z" fill="#514F4C"/>
    <path d="M50.3333 52.8521H47.8143V55.3711H50.3333V52.8521Z" fill="#514F4C"/>
    <path d="M52.8521 52.8521H50.3333V55.3711H52.8521V52.8521Z" fill="#514F4C"/>
    <path d="M55.3712 52.8521H52.8522V55.3711H55.3712V52.8521Z" fill="#514F4C"/>
    <path d="M57.881 52.8521H55.3621V55.3711H57.881V52.8521Z" fill="#514F4C"/>
    <path d="M60.3999 52.8521H57.881V55.3711H60.3999V52.8521Z" fill="#514F4C"/>
    <path d="M62.9189 52.8521H60.3999V55.3711H62.9189V52.8521Z" fill="#514F4C"/>
    <path d="M65.4378 52.8521H62.9189V55.3711H65.4378V52.8521Z" fill="#514F4C"/>
    <path d="M67.9476 52.8521H65.4286V55.3711H67.9476V52.8521Z" fill="#514F4C"/>
    <path d="M70.4665 52.8521H67.9476V55.3711H70.4665V52.8521Z" fill="#514F4C"/>
    <path d="M72.9855 52.8521H70.4665V55.3711H72.9855V52.8521Z" fill="#514F4C"/>
    <path d="M75.5044 52.8521H72.9855V55.3711H75.5044V52.8521Z" fill="#514F4C"/>
    <path d="M78.0143 52.8521H75.4954V55.3711H78.0143V52.8521Z" fill="#514F4C"/>
    <path d="M80.5333 52.8521H78.0143V55.3711H80.5333V52.8521Z" fill="#514F4C"/>
    <path d="M83.0522 52.8521H80.5333V55.3711H83.0522V52.8521Z" fill="#514F4C"/>
    <path d="M85.5711 52.8521H83.0521V55.3711H85.5711V52.8521Z" fill="#514F4C"/>
    <path d="M88.0899 52.8521H85.571V55.3711H88.0899V52.8521Z" fill="#514F4C"/>
    <path d="M90.5998 52.8521H88.0808V55.3711H90.5998V52.8521Z" fill="#514F4C"/>
    <path d="M93.1187 52.8521H90.5998V55.3711H93.1187V52.8521Z" fill="#514F4C"/>
    <path d="M45.2954 55.3711H42.7764V57.89H45.2954V55.3711Z" fill="#514F4C"/>
    <path d="M47.8142 55.3711H45.2953V57.89H47.8142V55.3711Z" fill="#514F4C"/>
    <path d="M50.3333 55.3711H47.8143V57.89H50.3333V55.3711Z" fill="#514F4C"/>
    <path d="M52.8521 55.3711H50.3333V57.89H52.8521V55.3711Z" fill="#514F4C"/>
    <path d="M55.3712 55.3711H52.8522V57.89H55.3712V55.3711Z" fill="#514F4C"/>
    <path d="M57.881 55.3711H55.3621V57.89H57.881V55.3711Z" fill="#514F4C"/>
    <path d="M60.3999 55.3711H57.881V57.89H60.3999V55.3711Z" fill="#514F4C"/>
    <path d="M62.9189 55.3711H60.3999V57.89H62.9189V55.3711Z" fill="#514F4C"/>
    <path d="M65.4378 55.3711H62.9189V57.89H65.4378V55.3711Z" fill="#514F4C"/>
    <path d="M67.9476 55.3711H65.4286V57.89H67.9476V55.3711Z" fill="#514F4C"/>
    <path d="M70.4665 55.3711H67.9476V57.89H70.4665V55.3711Z" fill="#514F4C"/>
    <path d="M72.9855 55.3711H70.4665V57.89H72.9855V55.3711Z" fill="#514F4C"/>
    <path d="M75.5044 55.3711H72.9855V57.89H75.5044V55.3711Z" fill="#514F4C"/>
    <path d="M78.0143 55.3711H75.4954V57.89H78.0143V55.3711Z" fill="#514F4C"/>
    <path d="M80.5333 55.3711H78.0143V57.89H80.5333V55.3711Z" fill="#514F4C"/>
    <path d="M83.0522 55.3711H80.5333V57.89H83.0522V55.3711Z" fill="#514F4C"/>
    <path d="M85.5711 55.3711H83.0521V57.89H85.5711V55.3711Z" fill="#514F4C"/>
    <path d="M88.0899 55.3711H85.571V57.89H88.0899V55.3711Z" fill="#514F4C"/>
    <path d="M90.5998 55.3711H88.0808V57.89H90.5998V55.3711Z" fill="#514F4C"/>
    <path d="M93.1187 55.3711H90.5998V57.89H93.1187V55.3711Z" fill="#514F4C"/>
    <path d="M95.6377 52.8521H93.1188V55.3711H95.6377V52.8521Z" fill="#514F4C"/>
    <path d="M98.1566 52.8521H95.6377V55.3711H98.1566V52.8521Z" fill="#514F4C"/>
    <path d="M100.666 52.8521H98.1476V55.3711H100.666V52.8521Z" fill="#514F4C"/>
    <path d="M103.185 52.8521H100.667V55.3711H103.185V52.8521Z" fill="#514F4C"/>
    <path d="M105.704 52.8521H103.185V55.3711H105.704V52.8521Z" fill="#514F4C"/>
    <path d="M93.1187 50.3332H90.5998V52.8521H93.1187V50.3332Z" fill="#514F4C"/>
    <path d="M95.6377 50.3332H93.1188V52.8521H95.6377V50.3332Z" fill="#514F4C"/>
    <path d="M98.1566 50.3332H95.6377V52.8521H98.1566V50.3332Z" fill="#514F4C"/>
    <path d="M100.666 50.3332H98.1476V52.8521H100.666V50.3332Z" fill="#514F4C"/>
    <path d="M103.185 50.3332H100.667V52.8521H103.185V50.3332Z" fill="#514F4C"/>
    <path d="M105.704 50.3332H103.185V52.8521H105.704V50.3332Z" fill="#514F4C"/>
    <path d="M105.704 47.8143H103.185V50.3332H105.704V47.8143Z" fill="#514F4C"/>
    <path d="M108.223 50.3332H105.704V52.8521H108.223V50.3332Z" fill="#514F4C"/>
    <path d="M110.733 50.3332H108.214V52.8521H110.733V50.3332Z" fill="#514F4C"/>
    <path d="M110.733 52.8521H108.214V55.3711H110.733V52.8521Z" fill="#514F4C"/>
    <path d="M113.252 52.8521H110.733V55.3711H113.252V52.8521Z" fill="#514F4C"/>
    <path d="M115.771 52.8521H113.252V55.3711H115.771V52.8521Z" fill="#514F4C"/>
    <path d="M118.29 52.8521H115.771V55.3711H118.29V52.8521Z" fill="#514F4C"/>
    <path d="M120.8 52.8521H118.281V55.3711H120.8V52.8521Z" fill="#514F4C"/>
    <path d="M123.319 52.8521H120.8V55.3711H123.319V52.8521Z" fill="#514F4C"/>
    <path d="M125.838 52.8521H123.319V55.3711H125.838V52.8521Z" fill="#514F4C"/>
    <path d="M128.357 52.8521H125.838V55.3711H128.357V52.8521Z" fill="#514F4C"/>
    <path d="M130.876 52.8521H128.357V55.3711H130.876V52.8521Z" fill="#514F4C"/>
    <path d="M108.223 47.8143H105.704V50.3332H108.223V47.8143Z" fill="#514F4C"/>
    <path d="M35.2289 47.8143H32.7099V50.3332H35.2289V47.8143Z" fill="black"/>
    <path d="M37.7477 47.8143H35.2289V50.3332H37.7477V47.8143Z" fill="black"/>
    <path d="M40.2666 47.8143H37.7477V50.3332H40.2666V47.8143Z" fill="black"/>
    <path d="M40.2666 45.3044H37.7477V47.8233H40.2666V45.3044Z" fill="#636363"/>
    <path d="M37.7477 45.3044H35.2289V47.8233H37.7477V45.3044Z" fill="#636363"/>
    <path d="M35.2289 45.3044H32.7099V47.8233H35.2289V45.3044Z" fill="#424242"/>
    <path d="M35.2289 42.7855H32.7099V45.3044H35.2289V42.7855Z" fill="#424242"/>
    <path d="M32.719 42.7855H30.2V45.3044H32.719V42.7855Z" fill="#424242"/>
    <path d="M30.2 42.7855H27.6811V45.3044H30.2V42.7855Z" fill="black"/>
    <path d="M37.7477 42.7855H35.2289V45.3044H37.7477V42.7855Z" fill="#424242"/>
    <path d="M40.2666 42.7855H37.7477V45.3044H40.2666V42.7855Z" fill="#424242"/>
    <path d="M42.7855 42.7855H40.2666V45.3044H42.7855V42.7855Z" fill="#424242"/>
    <path d="M45.3044 40.2666H42.7855V42.7855H45.3044V40.2666Z" fill="black"/>
    <path d="M45.3044 42.7855H42.7855V45.3044H45.3044V42.7855Z" fill="#777777"/>
    <path d="M47.8142 45.3044H45.2953V47.8233H47.8142V45.3044Z" fill="#ECECEC"/>
    <path d="M52.8521 42.7855H50.3333V45.3044H52.8521V42.7855Z" fill="#777777"/>
    <path d="M55.3712 42.7855H52.8522V45.3044H55.3712V42.7855Z" fill="#ECECEC"/>
    <path d="M57.881 45.3044H55.3621V47.8233H57.881V45.3044Z" fill="#636363"/>
    <path d="M52.8521 40.2666H50.3333V42.7855H52.8521V40.2666Z" fill="#BDBDBD"/>
    <path d="M55.3712 40.2666H52.8522V42.7855H55.3712V40.2666Z" fill="#BDBDBD"/>
    <path d="M57.881 40.2666H55.3621V42.7855H57.881V40.2666Z" fill="#BDBDBD"/>
    <path d="M52.8521 42.7855H50.3333V45.3044H52.8521V42.7855Z" fill="#ECECEC"/>
    <path d="M50.3333 42.7855H47.8143V45.3044H50.3333V42.7855Z" fill="#ECECEC"/>
    <path d="M42.7855 45.3044H40.2666V47.8233H42.7855V45.3044Z" fill="#636363"/>
    <path d="M45.3044 45.3044H42.7855V47.8233H45.3044V45.3044Z" fill="#424242"/>
    <path d="M50.3333 45.3044H47.8143V47.8233H50.3333V45.3044Z" fill="black"/>
    <path d="M52.8521 45.3044H50.3333V47.8233H52.8521V45.3044Z" fill="black"/>
    <path d="M55.3712 45.3044H52.8522V47.8233H55.3712V45.3044Z" fill="#BDBDBD"/>
    <path d="M60.3999 40.2666H57.881V42.7855H60.3999V40.2666Z" fill="black"/>
    <path d="M57.881 42.7855H55.3621V45.3044H57.881V42.7855Z" fill="black"/>
    <path d="M52.8521 40.2666H50.3333V42.7855H52.8521V40.2666Z" fill="black"/>
    <path d="M57.881 42.7855H55.3621V45.3044H57.881V42.7855Z" fill="#424242"/>
    <path d="M55.3712 40.2666H52.8522V42.7855H55.3712V40.2666Z" fill="black"/>
    <path d="M57.881 40.2666H55.3621V42.7855H57.881V40.2666Z" fill="black"/>
    <path d="M42.7855 47.8143H40.2666V50.3332H42.7855V47.8143Z" fill="black"/>
    <path d="M45.3044 47.8143H42.7855V50.3332H45.3044V47.8143Z" fill="black"/>
    <path d="M47.8142 47.8143H45.2953V50.3332H47.8142V47.8143Z" fill="#636363"/>
    <path d="M50.3333 47.8143H47.8143V50.3332H50.3333V47.8143Z" fill="#636363"/>
    <path d="M52.8521 47.8143H50.3333V50.3332H52.8521V47.8143Z" fill="#636363"/>
    <path d="M55.3712 47.8143H52.8522V50.3332H55.3712V47.8143Z" fill="black"/>
    <path d="M37.7477 45.3044H35.2289V47.8233H37.7477V45.3044Z" fill="#ECECEC"/>
    <path d="M45.3044 42.7855H42.7855V45.3044H45.3044V42.7855Z" fill="#ECECEC"/>
    <path d="M42.7855 42.7855H40.2666V45.3044H42.7855V42.7855Z" fill="#ECECEC"/>
    <path d="M40.2666 42.7855H37.7477V45.3044H40.2666V42.7855Z" fill="#ECECEC"/>
    <path d="M40.2666 45.3044H37.7477V47.8233H40.2666V45.3044Z" fill="black"/>
    <path d="M42.7855 45.3044H40.2666V47.8233H42.7855V45.3044Z" fill="black"/>
    <path d="M45.3044 45.3044H42.7855V47.8233H45.3044V45.3044Z" fill="#BDBDBD"/>
    <path d="M37.7477 47.8143H35.2289V50.3332H37.7477V47.8143Z" fill="#636363"/>
    <path d="M40.2666 47.8143H37.7477V50.3332H40.2666V47.8143Z" fill="#636363"/>
    <path d="M42.7855 47.8143H40.2666V50.3332H42.7855V47.8143Z" fill="#636363"/>
    <path d="M45.3044 47.8143H42.7855V50.3332H45.3044V47.8143Z" fill="black"/>
    <path d="M57.881 47.8143H55.3621V50.3332H57.881V47.8143Z" fill="black"/>
    <path d="M60.3999 50.3332H57.881V52.8521H60.3999V50.3332Z" fill="black"/>
    <path d="M57.881 50.3332H55.3621V52.8521H57.881V50.3332Z" fill="black"/>
    <path d="M55.3712 50.3332H52.8522V52.8521H55.3712V50.3332Z" fill="black"/>
    <path d="M52.8521 50.3332H50.3333V52.8521H52.8521V50.3332Z" fill="black"/>
    <path d="M50.3333 50.3332H47.8143V52.8521H50.3333V50.3332Z" fill="black"/>
    <path d="M47.8142 50.3332H45.2953V52.8521H47.8142V50.3332Z" fill="black"/>
    <path d="M45.2954 50.3332H42.7764V52.8521H45.2954V50.3332Z" fill="black"/>
    <path d="M62.9189 50.3332H60.3999V52.8521H62.9189V50.3332Z" fill="black"/>
    <path d="M65.4378 50.3332H62.9189V52.8521H65.4378V50.3332Z" fill="black"/>
    <path d="M67.9476 50.3332H65.4286V52.8521H67.9476V50.3332Z" fill="black"/>
    <path d="M25.1621 50.3332H22.6432V52.8521H25.1621V50.3332Z" fill="black"/>
    <path d="M22.6522 35.2378H20.1333V37.7567H22.6522V35.2378Z" fill="black"/>
    <path d="M22.6522 40.2666H20.1333V42.7855H22.6522V40.2666Z" fill="black"/>
    <path d="M5.02884 37.7476H2.50989V40.2666H5.02884V37.7476Z" fill="black"/>
    <path d="M25.1621 37.7476H22.6432V40.2666H25.1621V37.7476Z" fill="black"/>
    <path d="M20.1333 37.7476H17.6144V40.2666H20.1333V37.7476Z" fill="black"/>
    <path d="M17.6144 37.7476H15.0955V40.2666H17.6144V37.7476Z" fill="black"/>
    <path d="M15.0955 37.7476H12.5766V40.2666H15.0955V37.7476Z" fill="black"/>
    <path d="M12.5856 37.7476H10.0667V40.2666H12.5856V37.7476Z" fill="black"/>
    <path d="M10.0667 37.7476H7.54779V40.2666H10.0667V37.7476Z" fill="black"/>
    <path d="M7.54774 37.7476H5.02884V40.2666H7.54774V37.7476Z" fill="black"/>
    <path d="M27.6811 37.7476H25.1621V40.2666H27.6811V37.7476Z" fill="black"/>
    <path d="M22.6522 37.7476H20.1333V40.2666H22.6522V37.7476Z" fill="black"/>
    <path d="M22.6522 42.7855H20.1333V45.3044H22.6522V42.7855Z" fill="black"/>
    <path d="M22.6522 45.3044H20.1333V47.8233H22.6522V45.3044Z" fill="black"/>
    <path d="M22.6522 47.8143H20.1333V50.3332H22.6522V47.8143Z" fill="black"/>
    <path d="M22.6522 30.1999H20.1333V32.7188H22.6522V30.1999Z" fill="black"/>
    <path d="M22.6522 50.3332H20.1333V52.8521H22.6522V50.3332Z" fill="black"/>
    <path d="M50.3333 12.5856H47.8143V15.1045H50.3333V12.5856Z" fill="#ECECEC"/>
    <path d="M47.8142 15.0954H45.2953V17.6144H47.8142V15.0954Z" fill="#ECECEC"/>
    <path d="M45.3044 17.6144H42.7855V20.1333H45.3044V17.6144Z" fill="#10CF1F"/>
    <path d="M37.7477 32.7188H35.2289V35.2378H37.7477V32.7188Z" fill="#2955FF"/>
    <path d="M40.2666 32.7188H37.7477V35.2378H40.2666V32.7188Z" fill="#2955FF"/>
    <path d="M37.7477 35.2378H35.2289V37.7567H37.7477V35.2378Z" fill="#48E9FF"/>
    <path d="M40.2666 35.2378H37.7477V37.7567H40.2666V35.2378Z" fill="#48E9FF"/>
    <path d="M42.7855 35.2378H40.2666V37.7567H42.7855V35.2378Z" fill="#48E9FF"/>
    <path d="M45.3044 35.2378H42.7855V37.7567H45.3044V35.2378Z" fill="#48E9FF"/>
    <path d="M42.7855 30.1999H40.2666V32.7188H42.7855V30.1999Z" fill="black"/>
    <path d="M40.2666 30.1999H37.7477V32.7188H40.2666V30.1999Z" fill="black"/>
    <path d="M37.7477 30.1999H35.2289V32.7188H37.7477V30.1999Z" fill="black"/>
    <path d="M45.3044 30.1999H42.7855V32.7188H45.3044V30.1999Z" fill="black"/>
    <path d="M42.7855 32.7188H40.2666V35.2378H42.7855V32.7188Z" fill="#2955FF"/>
    <path d="M45.3044 32.7188H42.7855V35.2378H45.3044V32.7188Z" fill="#2955FF"/>
    <path d="M47.8142 30.1999H45.2953V32.7188H47.8142V30.1999Z" fill="black"/>
    <path d="M47.8142 32.7188H45.2953V35.2378H47.8142V32.7188Z" fill="#2955FF"/>
    <path d="M50.3333 30.1999H47.8143V32.7188H50.3333V30.1999Z" fill="black"/>
    <path d="M50.3333 32.7188H47.8143V35.2378H50.3333V32.7188Z" fill="#2955FF"/>
    <path d="M52.8521 30.1999H50.3333V32.7188H52.8521V30.1999Z" fill="black"/>
    <path d="M52.8521 32.7188H50.3333V35.2378H52.8521V32.7188Z" fill="#2955FF"/>
    <path d="M50.3333 35.2378H47.8143V37.7567H50.3333V35.2378Z" fill="#48E9FF"/>
    <path d="M47.8142 35.2378H45.2953V37.7567H47.8142V35.2378Z" fill="#48E9FF"/>
    <path d="M47.8142 37.7476H45.2953V40.2666H47.8142V37.7476Z" fill="#2955FF"/>
    <path d="M45.3044 37.7476H42.7855V40.2666H45.3044V37.7476Z" fill="#2955FF"/>
    <path d="M55.3712 30.1999H52.8522V32.7188H55.3712V30.1999Z" fill="black"/>
    <path d="M55.3712 32.7188H52.8522V35.2378H55.3712V32.7188Z" fill="#2955FF"/>
    <path d="M57.881 30.1999H55.3621V32.7188H57.881V30.1999Z" fill="black"/>
    <path d="M57.881 32.7188H55.3621V35.2378H57.881V32.7188Z" fill="#2955FF"/>
    <path d="M60.3999 30.1999H57.881V32.7188H60.3999V30.1999Z" fill="black"/>
    <path d="M60.3999 32.7188H57.881V35.2378H60.3999V32.7188Z" fill="#2955FF"/>
    <path d="M62.9189 30.1999H60.3999V32.7188H62.9189V30.1999Z" fill="black"/>
    <path d="M62.9189 32.7188H60.3999V35.2378H62.9189V32.7188Z" fill="#2955FF"/>
    <path d="M65.4378 30.1999H62.9189V32.7188H65.4378V30.1999Z" fill="black"/>
    <path d="M65.4378 32.7188H62.9189V35.2378H65.4378V32.7188Z" fill="#2955FF"/>
    <path d="M67.9476 30.1999H65.4286V32.7188H67.9476V30.1999Z" fill="black"/>
    <path d="M67.9476 32.7188H65.4286V35.2378H67.9476V32.7188Z" fill="black"/>
    <path d="M65.4378 35.2378H62.9189V37.7567H65.4378V35.2378Z" fill="#48E9FF"/>
    <path d="M67.9476 35.2378H65.4286V37.7567H67.9476V35.2378Z" fill="black"/>
    <path d="M65.4378 37.7476H62.9189V40.2666H65.4378V37.7476Z" fill="#2955FF"/>
    <path d="M60.3999 35.2378H57.881V37.7567H60.3999V35.2378Z" fill="#48E9FF"/>
    <path d="M60.3999 37.7476H57.881V40.2666H60.3999V37.7476Z" fill="#2955FF"/>
    <path d="M57.881 35.2378H55.3621V37.7567H57.881V35.2378Z" fill="#48E9FF"/>
    <path d="M57.881 37.7476H55.3621V40.2666H57.881V37.7476Z" fill="#2955FF"/>
    <path d="M55.3712 35.2378H52.8522V37.7567H55.3712V35.2378Z" fill="#48E9FF"/>
    <path d="M55.3712 37.7476H52.8522V40.2666H55.3712V37.7476Z" fill="#2955FF"/>
    <path d="M52.8521 35.2378H50.3333V37.7567H52.8521V35.2378Z" fill="#48E9FF"/>
    <path d="M52.8521 37.7476H50.3333V40.2666H52.8521V37.7476Z" fill="#2955FF"/>
    <path d="M50.3333 37.7476H47.8143V40.2666H50.3333V37.7476Z" fill="#2955FF"/>
    <path d="M50.3333 40.2666H47.8143V42.7855H50.3333V40.2666Z" fill="black"/>
    <path d="M47.8142 40.2666H45.2953V42.7855H47.8142V40.2666Z" fill="black"/>
    <path d="M47.8142 42.7855H45.2953V45.3044H47.8142V42.7855Z" fill="#424242"/>
    <path d="M42.7855 37.7476H40.2666V40.2666H42.7855V37.7476Z" fill="#2955FF"/>
    <path d="M40.2666 37.7476H37.7477V40.2666H40.2666V37.7476Z" fill="#2955FF"/>
    <path d="M37.7477 37.7476H35.2289V40.2666H37.7477V37.7476Z" fill="#2955FF"/>
    <path d="M35.2289 37.7476H32.7099V40.2666H35.2289V37.7476Z" fill="black"/>
    <path d="M40.2666 40.2666H37.7477V42.7855H40.2666V40.2666Z" fill="black"/>
    <path d="M37.7477 40.2666H35.2289V42.7855H37.7477V40.2666Z" fill="black"/>
    <path d="M35.2289 40.2666H32.7099V42.7855H35.2289V40.2666Z" fill="#10CF1F"/>
    <path d="M42.7855 40.2666H40.2666V42.7855H42.7855V40.2666Z" fill="black"/>
    <path d="M67.9476 37.7476H65.4286V40.2666H67.9476V37.7476Z" fill="black"/>
    <path d="M65.4378 40.2666H62.9189V42.7855H65.4378V40.2666Z" fill="black"/>
    <path d="M60.3999 42.7855H57.881V45.3044H60.3999V42.7855Z" fill="#424242"/>
    <path d="M60.3999 45.3044H57.881V47.8233H60.3999V45.3044Z" fill="#636363"/>
    <path d="M60.3999 47.8143H57.881V50.3332H60.3999V47.8143Z" fill="#636363"/>
    <path d="M57.881 47.8143H55.3621V50.3332H57.881V47.8143Z" fill="#424242"/>
    <path d="M62.9189 45.3044H60.3999V47.8233H62.9189V45.3044Z" fill="black"/>
    <path d="M62.9189 47.8143H60.3999V50.3332H62.9189V47.8143Z" fill="#636363"/>
    <path d="M62.9189 42.7855H60.3999V45.3044H62.9189V42.7855Z" fill="#424242"/>
    <path d="M65.4378 45.3044H62.9189V47.8233H65.4378V45.3044Z" fill="black"/>
    <path d="M65.4378 47.8143H62.9189V50.3332H65.4378V47.8143Z" fill="#636363"/>
    <path d="M65.4378 42.7855H62.9189V45.3044H65.4378V42.7855Z" fill="#424242"/>
    <path d="M67.9476 45.3044H65.4286V47.8233H67.9476V45.3044Z" fill="black"/>
    <path d="M67.9476 47.8143H65.4286V50.3332H67.9476V47.8143Z" fill="#636363"/>
    <path d="M67.9476 42.7855H65.4286V45.3044H67.9476V42.7855Z" fill="#424242"/>
    <path d="M67.9476 40.2666H65.4286V42.7855H67.9476V40.2666Z" fill="black"/>
    <path d="M45.3044 20.1333H42.7855V22.6522H45.3044V20.1333Z" fill="#ECECEC"/>
    <path d="M50.3333 15.0954H47.8143V17.6144H50.3333V15.0954Z" fill="#ECECEC"/>
    <path d="M52.8521 15.0954H50.3333V17.6144H52.8521V15.0954Z" fill="#ECECEC"/>
    <path d="M55.3712 15.0954H52.8522V17.6144H55.3712V15.0954Z" fill="#ECECEC"/>
    <path d="M55.3712 17.6144H52.8522V20.1333H55.3712V17.6144Z" fill="#10CF1F"/>
    <path d="M57.881 20.1333H55.3621V22.6522H57.881V20.1333Z" fill="#ECECEC"/>
    <path d="M60.3999 20.1333H57.881V22.6522H60.3999V20.1333Z" fill="#ECECEC"/>
    <path d="M60.3999 17.6144H57.881V20.1333H60.3999V17.6144Z" fill="#10CF1F"/>
    <path d="M60.3999 15.0954H57.881V17.6144H60.3999V15.0954Z" fill="#BDBDBD"/>
    <path d="M60.3999 12.5856H57.881V15.1045H60.3999V12.5856Z" fill="#BDBDBD"/>
    <path d="M62.9189 20.1333H60.3999V22.6522H62.9189V20.1333Z" fill="#ECECEC"/>
    <path d="M62.9189 17.6144H60.3999V20.1333H62.9189V17.6144Z" fill="#10CF1F"/>
    <path d="M62.9189 15.0954H60.3999V17.6144H62.9189V15.0954Z" fill="#BDBDBD"/>
    <path d="M62.9189 12.5856H60.3999V15.1045H62.9189V12.5856Z" fill="#BDBDBD"/>
    <path d="M65.4378 10.0666H62.9189V12.5856H65.4378V10.0666Z" fill="#BDBDBD"/>
    <path d="M52.8521 17.6144H50.3333V20.1333H52.8521V17.6144Z" fill="#10CF1F"/>
    <path d="M50.3333 17.6144H47.8143V20.1333H50.3333V17.6144Z" fill="#10CF1F"/>
    <path d="M47.8142 17.6144H45.2953V20.1333H47.8142V17.6144Z" fill="#10CF1F"/>
    <path d="M47.8142 10.0666H45.2953V12.5856H47.8142V10.0666Z" fill="#10CF1F"/>
    <path d="M47.8142 12.5856H45.2953V15.1045H47.8142V12.5856Z" fill="#00A40C"/>
    <path d="M50.3333 10.0666H47.8143V12.5856H50.3333V10.0666Z" fill="#10CF1F"/>
    <path d="M52.8521 10.0666H50.3333V12.5856H52.8521V10.0666Z" fill="#10CF1F"/>
    <path d="M55.3712 10.0666H52.8522V12.5856H55.3712V10.0666Z" fill="#10CF1F"/>
    <path d="M57.881 10.0666H55.3621V12.5856H57.881V10.0666Z" fill="#10CF1F"/>
    <path d="M47.8142 7.54767H45.2953V10.0666H47.8142V7.54767Z" fill="#10CF1F"/>
    <path d="M45.3044 10.0666H42.7855V12.5856H45.3044V10.0666Z" fill="#00A40C"/>
    <path d="M45.3044 7.54767H42.7855V10.0666H45.3044V7.54767Z" fill="#00A40C"/>
    <path d="M37.7206 2.51889H35.2016V5.03784H37.7206V2.51889Z" fill="#10CF1F"/>
    <path d="M37.7206 0H35.2016V2.5189H37.7206V0Z" fill="#10CF1F"/>
    <path d="M42.7855 2.51889H40.2666V5.03784H42.7855V2.51889Z" fill="#10CF1F"/>
    <path d="M52.8521 20.1333H50.3333V22.6522H52.8521V20.1333Z" fill="#ECECEC"/>
    <path d="M50.3333 20.1333H47.8143V22.6522H50.3333V20.1333Z" fill="#ECECEC"/>
    <path d="M47.8142 20.1333H45.2953V22.6522H47.8142V20.1333Z" fill="#ECECEC"/>
    <path d="M35.2289 40.2666H32.7099V42.7855H35.2289V40.2666Z" fill="black"/>
    <path d="M32.719 40.2666H30.2V42.7855H32.719V40.2666Z" fill="black"/>
    <path d="M30.2 40.2666H27.6811V42.7855H30.2V40.2666Z" fill="black"/>
    <path d="M45.3044 20.1333H42.7855V22.6522H45.3044V20.1333Z" fill="#ECECEC"/>
    <path d="M52.8521 12.5856H50.3333V15.1045H52.8521V12.5856Z" fill="#ECECEC"/>
    <path d="M55.3712 12.5856H52.8522V15.1045H55.3712V12.5856Z" fill="#ECECEC"/>
    <path d="M57.881 12.5856H55.3621V15.1045H57.881V12.5856Z" fill="#ECECEC"/>
    <path d="M60.3999 10.0666H57.881V12.5856H60.3999V10.0666Z" fill="#ECECEC"/>
    <path d="M62.9189 10.0666H60.3999V12.5856H62.9189V10.0666Z" fill="#BDBDBD"/>
    <path d="M65.4378 7.54767H62.9189V10.0666H65.4378V7.54767Z" fill="#BDBDBD"/>
    <path d="M67.9476 7.54767H65.4286V10.0666H67.9476V7.54767Z" fill="#BDBDBD"/>
    <path d="M67.9476 10.0666H65.4286V12.5856H67.9476V10.0666Z" fill="#ECECEC"/>
    <path d="M65.4378 12.5856H62.9189V15.1045H65.4378V12.5856Z" fill="#ECECEC"/>
    <path d="M67.9476 12.5856H65.4286V15.1045H67.9476V12.5856Z" fill="#ECECEC"/>
    <path d="M65.4378 15.0954H62.9189V17.6144H65.4378V15.0954Z" fill="#ECECEC"/>
    <path d="M67.9476 15.0954H65.4286V17.6144H67.9476V15.0954Z" fill="#ECECEC"/>
    <path d="M65.4378 17.6144H62.9189V20.1333H65.4378V17.6144Z" fill="#10CF1F"/>
    <path d="M67.9476 17.6144H65.4286V20.1333H67.9476V17.6144Z" fill="#10CF1F"/>
    <path d="M65.4378 20.1333H62.9189V22.6522H65.4378V20.1333Z" fill="#ECECEC"/>
    <path d="M67.9476 20.1333H65.4286V22.6522H67.9476V20.1333Z" fill="#ECECEC"/>
    <path d="M52.8521 20.1333H50.3333V22.6522H52.8521V20.1333Z" fill="#ECECEC"/>
    <path d="M55.3712 20.1333H52.8522V22.6522H55.3712V20.1333Z" fill="#ECECEC"/>
    <path d="M57.881 17.6144H55.3621V20.1333H57.881V17.6144Z" fill="#10CF1F"/>
    <path d="M57.881 15.0954H55.3621V17.6144H57.881V15.0954Z" fill="#BDBDBD"/>
    <path d="M62.9189 30.1999H60.3999V32.7188H62.9189V30.1999Z" fill="black"/>
    <path d="M62.9189 32.7188H60.3999V35.2378H62.9189V32.7188Z" fill="#2955FF"/>
    <path d="M62.9189 35.2378H60.3999V37.7567H62.9189V35.2378Z" fill="#48E9FF"/>
    <path d="M62.9189 37.7476H60.3999V40.2666H62.9189V37.7476Z" fill="#2955FF"/>
    <path d="M62.9189 40.2666H60.3999V42.7855H62.9189V40.2666Z" fill="black"/>
    <path d="M113.252 20.1333H110.733V22.6522H113.252V20.1333Z" fill="black"/>
    <path d="M113.252 17.6144H110.733V20.1333H113.252V17.6144Z" fill="black"/>
    <path d="M113.252 12.5856H110.733V15.1045H113.252V12.5856Z" fill="black"/>
    <path d="M113.252 10.0666H110.733V12.5856H113.252V10.0666Z" fill="black"/>
    <path d="M113.252 7.54767H110.733V10.0666H113.252V7.54767Z" fill="black"/>
    <path d="M110.733 5.02878H108.214V7.54768H110.733V5.02878Z" fill="black"/>
    <path d="M108.223 5.02878H105.704V7.54768H108.223V5.02878Z" fill="black"/>
    <path d="M105.704 5.02878H103.185V7.54768H105.704V5.02878Z" fill="black"/>
    <path d="M103.185 5.02878H100.667V7.54768H103.185V5.02878Z" fill="black"/>
    <path d="M100.666 5.02878H98.1476V7.54768H100.666V5.02878Z" fill="black"/>
    <path d="M98.1566 7.54767H95.6377V10.0666H98.1566V7.54767Z" fill="black"/>
    <path d="M98.1566 10.0666H95.6377V12.5856H98.1566V10.0666Z" fill="black"/>
    <path d="M98.1566 12.5856H95.6377V15.1045H98.1566V12.5856Z" fill="black"/>
    <path d="M113.252 15.0954H110.733V17.6144H113.252V15.0954Z" fill="black"/>
    <path d="M98.1566 15.0954H95.6377V17.6144H98.1566V15.0954Z" fill="#10CF1F"/>
    <path d="M98.1566 17.6144H95.6377V20.1333H98.1566V17.6144Z" fill="#10CF1F"/>
    <path d="M98.1566 20.1333H95.6377V22.6522H98.1566V20.1333Z" fill="#ECECEC"/>
    <path d="M100.666 7.54767H98.1476V10.0666H100.666V7.54767Z" fill="#777777"/>
    <path d="M100.666 10.0666H98.1476V12.5856H100.666V10.0666Z" fill="black"/>
    <path d="M100.666 12.5856H98.1476V15.1045H100.666V12.5856Z" fill="black"/>
    <path d="M100.666 15.0954H98.1476V17.6144H100.666V15.0954Z" fill="#10CF1F"/>
    <path d="M100.666 17.6144H98.1476V20.1333H100.666V17.6144Z" fill="black"/>
    <path d="M100.666 20.1333H98.1476V22.6522H100.666V20.1333Z" fill="#ECECEC"/>
    <path d="M100.666 17.6144H98.1476V20.1333H100.666V17.6144Z" fill="#10CF1F"/>
    <path d="M103.185 7.54767H100.667V10.0666H103.185V7.54767Z" fill="#777777"/>
    <path d="M103.185 10.0666H100.667V12.5856H103.185V10.0666Z" fill="black"/>
    <path d="M103.185 12.5856H100.667V15.1045H103.185V12.5856Z" fill="black"/>
    <path d="M103.185 15.0954H100.667V17.6144H103.185V15.0954Z" fill="#10CF1F"/>
    <path d="M103.185 17.6144H100.667V20.1333H103.185V17.6144Z" fill="#10CF1F"/>
    <path d="M103.185 20.1333H100.667V22.6522H103.185V20.1333Z" fill="#ECECEC"/>
    <path d="M105.704 7.54767H103.185V10.0666H105.704V7.54767Z" fill="#777777"/>
    <path d="M105.704 10.0666H103.185V12.5856H105.704V10.0666Z" fill="black"/>
    <path d="M105.704 12.5856H103.185V15.1045H105.704V12.5856Z" fill="black"/>
    <path d="M105.704 15.0954H103.185V17.6144H105.704V15.0954Z" fill="black"/>
    <path d="M105.704 17.6144H103.185V20.1333H105.704V17.6144Z" fill="#10CF1F"/>
    <path d="M105.704 20.1333H103.185V22.6522H105.704V20.1333Z" fill="#10CF1F"/>
    <path d="M108.223 7.54767H105.704V10.0666H108.223V7.54767Z" fill="black"/>
    <path d="M108.223 10.0666H105.704V12.5856H108.223V10.0666Z" fill="black"/>
    <path d="M108.223 12.5856H105.704V15.1045H108.223V12.5856Z" fill="black"/>
    <path d="M108.223 15.0954H105.704V17.6144H108.223V15.0954Z" fill="black"/>
    <path d="M108.223 17.6144H105.704V20.1333H108.223V17.6144Z" fill="black"/>
    <path d="M108.223 20.1333H105.704V22.6522H108.223V20.1333Z" fill="black"/>
    <path d="M110.733 7.54767H108.214V10.0666H110.733V7.54767Z" fill="#777777"/>
    <path d="M110.733 10.0666H108.214V12.5856H110.733V10.0666Z" fill="black"/>
    <path d="M110.733 12.5856H108.214V15.1045H110.733V12.5856Z" fill="black"/>
    <path d="M110.733 15.0954H108.214V17.6144H110.733V15.0954Z" fill="black"/>
    <path d="M110.733 17.6144H108.214V20.1333H110.733V17.6144Z" fill="black"/>
    <path d="M110.733 20.1333H108.214V22.6522H110.733V20.1333Z" fill="black"/>
    <path d="M110.733 22.6522H108.214V25.1711H110.733V22.6522Z" fill="black"/>
    <path d="M115.771 20.1333H113.252V22.6522H115.771V20.1333Z" fill="#776E5D"/>
    <path d="M115.771 17.6144H113.252V20.1333H115.771V17.6144Z" fill="#776E5D"/>
    <path d="M115.771 12.5856H113.252V15.1045H115.771V12.5856Z" fill="#776E5D"/>
    <path d="M22.6522 10.0666H20.1333V12.5856H22.6522V10.0666Z" fill="#776E5D"/>
    <path d="M115.771 10.0666H113.252V12.5856H115.771V10.0666Z" fill="#776E5D"/>
    <path d="M22.6522 7.54767H20.1333V10.0666H22.6522V7.54767Z" fill="#776E5D"/>
    <path d="M115.771 7.54767H113.252V10.0666H115.771V7.54767Z" fill="#776E5D"/>
    <path d="M115.771 15.0954H113.252V17.6144H115.771V15.0954Z" fill="#776E5D"/>
    <path d="M113.252 22.6522H110.733V25.1711H113.252V22.6522Z" fill="#776E5D"/>
    <path d="M115.771 22.6522H113.252V25.1711H115.771V22.6522Z" fill="#776E5D"/>
    <path d="M113.252 25.162H110.733V27.681H113.252V25.162Z" fill="#776E5D"/>
    <path d="M110.733 30.1999H108.214V32.7188H110.733V30.1999Z" fill="#776E5D"/>
    <path d="M110.733 27.681H108.214V30.1999H110.733V27.681Z" fill="#776E5D"/>
    <path d="M110.733 25.162H108.214V27.681H110.733V25.162Z" fill="#776E5D"/>
    <path d="M113.252 27.681H110.733V30.1999H113.252V27.681Z" fill="#776E5D"/>
    <path d="M115.771 27.681H113.252V30.1999H115.771V27.681Z" fill="#776E5D"/>
    <path d="M118.29 27.681H115.771V30.1999H118.29V27.681Z" fill="#776E5D"/>
    <path d="M120.8 27.681H118.281V30.1999H120.8V27.681Z" fill="#776E5D"/>
    <path d="M123.319 27.681H120.8V30.1999H123.319V27.681Z" fill="#776E5D"/>
    <path d="M125.838 27.681H123.319V30.1999H125.838V27.681Z" fill="#776E5D"/>
    <path d="M128.357 27.681H125.838V30.1999H128.357V27.681Z" fill="#776E5D"/>
    <path d="M130.866 27.681H128.347V30.1999H130.866V27.681Z" fill="#776E5D"/>
    <path d="M133.385 30.1999H130.866V32.7188H133.385V30.1999Z" fill="#776E5D"/>
    <path d="M135.904 32.7188H133.385V35.2378H135.904V32.7188Z" fill="#776E5D"/>
    <path d="M135.904 35.2378H133.385V37.7567H135.904V35.2378Z" fill="#776E5D"/>
    <path d="M135.904 37.7476H133.385V40.2666H135.904V37.7476Z" fill="#776E5D"/>
    <path d="M135.904 40.2666H133.385V42.7855H135.904V40.2666Z" fill="#776E5D"/>
    <path d="M135.904 42.7855H133.385V45.3044H135.904V42.7855Z" fill="#776E5D"/>
    <path d="M135.904 45.3044H133.385V47.8233H135.904V45.3044Z" fill="#776E5D"/>
    <path d="M135.904 47.8143H133.385V50.3332H135.904V47.8143Z" fill="#776E5D"/>
    <path d="M108.223 22.6522H105.704V25.1711H108.223V22.6522Z" fill="black"/>
    <path d="M105.704 22.6522H103.185V25.1711H105.704V22.6522Z" fill="black"/>
    <path d="M103.185 22.6522H100.667V25.1711H103.185V22.6522Z" fill="#ECECEC"/>
    <path d="M100.666 22.6522H98.1476V25.1711H100.666V22.6522Z" fill="#ECECEC"/>
    <path d="M98.1566 5.02878H95.6377V7.54768H98.1566V5.02878Z" fill="black"/>
    <path d="M95.6377 7.54767H93.1188V10.0666H95.6377V7.54767Z" fill="black"/>
    <path d="M95.6377 10.0666H93.1188V12.5856H95.6377V10.0666Z" fill="black"/>
    <path d="M95.6377 12.5856H93.1188V15.1045H95.6377V12.5856Z" fill="black"/>
    <path d="M95.6377 15.0954H93.1188V17.6144H95.6377V15.0954Z" fill="#10CF1F"/>
    <path d="M93.1187 15.0954H90.5998V17.6144H93.1187V15.0954Z" fill="#10CF1F"/>
    <path d="M95.6377 17.6144H93.1188V20.1333H95.6377V17.6144Z" fill="#10CF1F"/>
    <path d="M95.6377 20.1333H93.1188V22.6522H95.6377V20.1333Z" fill="#ECECEC"/>
    <path d="M98.1566 22.6522H95.6377V25.1711H98.1566V22.6522Z" fill="#ECECEC"/>
    <path d="M133.385 47.8143H130.866V50.3332H133.385V47.8143Z" fill="black"/>
    <path d="M133.385 45.3044H130.866V47.8233H133.385V45.3044Z" fill="black"/>
    <path d="M133.385 40.2666H130.866V42.7855H133.385V40.2666Z" fill="black"/>
    <path d="M133.385 35.2378H130.866V37.7567H133.385V35.2378Z" fill="black"/>
    <path d="M133.385 32.7188H130.866V35.2378H133.385V32.7188Z" fill="black"/>
    <path d="M130.866 30.1999H128.347V32.7188H130.866V30.1999Z" fill="black"/>
    <path d="M128.357 30.1999H125.838V32.7188H128.357V30.1999Z" fill="black"/>
    <path d="M125.838 30.1999H123.319V32.7188H125.838V30.1999Z" fill="black"/>
    <path d="M123.319 30.1999H120.8V32.7188H123.319V30.1999Z" fill="black"/>
    <path d="M120.8 30.1999H118.281V32.7188H120.8V30.1999Z" fill="black"/>
    <path d="M118.29 30.1999H115.771V32.7188H118.29V30.1999Z" fill="black"/>
    <path d="M113.252 32.7188H110.733V35.2378H113.252V32.7188Z" fill="black"/>
    <path d="M113.252 35.2378H110.733V37.7567H113.252V35.2378Z" fill="black"/>
    <path d="M113.252 40.2666H110.733V42.7855H113.252V40.2666Z" fill="black"/>
    <path d="M133.385 42.7855H130.866V45.3044H133.385V42.7855Z" fill="black"/>
    <path d="M113.252 42.7855H110.733V45.3044H113.252V42.7855Z" fill="black"/>
    <path d="M113.252 45.3044H110.733V47.8233H113.252V45.3044Z" fill="black"/>
    <path d="M113.252 47.8143H110.733V50.3332H113.252V47.8143Z" fill="black"/>
    <path d="M118.29 32.7188H115.771V35.2378H118.29V32.7188Z" fill="#777777"/>
    <path d="M115.771 32.7188H113.252V35.2378H115.771V32.7188Z" fill="#777777"/>
    <path d="M118.29 35.2378H115.771V37.7567H118.29V35.2378Z" fill="black"/>
    <path d="M118.29 40.2666H115.771V42.7855H118.29V40.2666Z" fill="black"/>
    <path d="M118.29 42.7855H115.771V45.3044H118.29V42.7855Z" fill="black"/>
    <path d="M118.29 45.3044H115.771V47.8233H118.29V45.3044Z" fill="black"/>
    <path d="M118.29 47.8143H115.771V50.3332H118.29V47.8143Z" fill="black"/>
    <path d="M120.8 32.7188H118.281V35.2378H120.8V32.7188Z" fill="#777777"/>
    <path d="M120.8 35.2378H118.281V37.7567H120.8V35.2378Z" fill="black"/>
    <path d="M120.8 40.2666H118.281V42.7855H120.8V40.2666Z" fill="black"/>
    <path d="M120.8 42.7855H118.281V45.3044H120.8V42.7855Z" fill="black"/>
    <path d="M120.8 45.3044H118.281V47.8233H120.8V45.3044Z" fill="black"/>
    <path d="M120.8 47.8143H118.281V50.3332H120.8V47.8143Z" fill="black"/>
    <path d="M123.319 32.7188H120.8V35.2378H123.319V32.7188Z" fill="#777777"/>
    <path d="M123.319 35.2378H120.8V37.7567H123.319V35.2378Z" fill="black"/>
    <path d="M123.319 40.2666H120.8V42.7855H123.319V40.2666Z" fill="black"/>
    <path d="M123.319 42.7855H120.8V45.3044H123.319V42.7855Z" fill="black"/>
    <path d="M123.319 45.3044H120.8V47.8233H123.319V45.3044Z" fill="black"/>
    <path d="M123.319 47.8143H120.8V50.3332H123.319V47.8143Z" fill="black"/>
    <path d="M125.838 32.7188H123.319V35.2378H125.838V32.7188Z" fill="#777777"/>
    <path d="M125.838 35.2378H123.319V37.7567H125.838V35.2378Z" fill="black"/>
    <path d="M125.838 40.2666H123.319V42.7855H125.838V40.2666Z" fill="black"/>
    <path d="M125.838 42.7855H123.319V45.3044H125.838V42.7855Z" fill="black"/>
    <path d="M125.838 45.3044H123.319V47.8233H125.838V45.3044Z" fill="black"/>
    <path d="M125.838 47.8143H123.319V50.3332H125.838V47.8143Z" fill="black"/>
    <path d="M128.357 32.7188H125.838V35.2378H128.357V32.7188Z" fill="black"/>
    <path d="M128.357 35.2378H125.838V37.7567H128.357V35.2378Z" fill="black"/>
    <path d="M128.357 40.2666H125.838V42.7855H128.357V40.2666Z" fill="black"/>
    <path d="M128.357 42.7855H125.838V45.3044H128.357V42.7855Z" fill="black"/>
    <path d="M128.357 45.3044H125.838V47.8233H128.357V45.3044Z" fill="black"/>
    <path d="M128.357 47.8143H125.838V50.3332H128.357V47.8143Z" fill="black"/>
    <path d="M130.866 32.7188H128.347V35.2378H130.866V32.7188Z" fill="#777777"/>
    <path d="M130.866 35.2378H128.347V37.7567H130.866V35.2378Z" fill="black"/>
    <path d="M130.866 40.2666H128.347V42.7855H130.866V40.2666Z" fill="black"/>
    <path d="M130.866 42.7855H128.347V45.3044H130.866V42.7855Z" fill="black"/>
    <path d="M130.866 45.3044H128.347V47.8233H130.866V45.3044Z" fill="black"/>
    <path d="M130.866 47.8143H128.347V50.3332H130.866V47.8143Z" fill="black"/>
    <path d="M130.866 50.3332H128.347V52.8521H130.866V50.3332Z" fill="black"/>
    <path d="M128.357 50.3332H125.838V52.8521H128.357V50.3332Z" fill="black"/>
    <path d="M125.838 50.3332H123.319V52.8521H125.838V50.3332Z" fill="black"/>
    <path d="M123.319 50.3332H120.8V52.8521H123.319V50.3332Z" fill="black"/>
    <path d="M120.8 50.3332H118.281V52.8521H120.8V50.3332Z" fill="black"/>
    <path d="M118.29 50.3332H115.771V52.8521H118.29V50.3332Z" fill="black"/>
    <path d="M113.252 30.1999H110.733V32.7188H113.252V30.1999Z" fill="black"/>
    <path d="M110.733 32.7188H108.214V35.2378H110.733V32.7188Z" fill="black"/>
    <path d="M110.733 35.2378H108.214V37.7567H110.733V35.2378Z" fill="black"/>
    <path d="M110.733 40.2666H108.214V42.7855H110.733V40.2666Z" fill="black"/>
    <path d="M110.733 42.7855H108.214V45.3044H110.733V42.7855Z" fill="black"/>
    <path d="M110.733 45.3044H108.214V47.8233H110.733V45.3044Z" fill="black"/>
    <path d="M110.733 47.8143H108.214V50.3332H110.733V47.8143Z" fill="black"/>
    <path d="M108.223 45.3044H105.704V47.8233H108.223V45.3044Z" fill="black"/>
    <path d="M108.223 37.7476H105.704V40.2666H108.223V37.7476Z" fill="#636363"/>
    <path d="M105.704 35.2378H103.185V37.7567H105.704V35.2378Z" fill="#636363"/>
    <path d="M105.704 32.7188H103.185V35.2378H105.704V32.7188Z" fill="#636363"/>
    <path d="M105.704 30.1999H103.185V32.7188H105.704V30.1999Z" fill="#636363"/>
    <path d="M105.704 27.681H103.185V30.1999H105.704V27.681Z" fill="#8D8D8D"/>
    <path d="M105.704 25.1711H103.185V27.6901H105.704V25.1711Z" fill="#8D8D8D"/>
    <path d="M108.223 35.2378H105.704V37.7567H108.223V35.2378Z" fill="#636363"/>
    <path d="M108.223 32.7188H105.704V35.2378H108.223V32.7188Z" fill="#636363"/>
    <path d="M108.223 27.681H105.704V30.1999H108.223V27.681Z" fill="#ECECEC"/>
    <path d="M108.223 27.681H105.704V30.1999H108.223V27.681Z" fill="#8D8D8D"/>
    <path d="M108.223 30.1999H105.704V32.7188H108.223V30.1999Z" fill="#8D8D8D"/>
    <path d="M108.223 25.1711H105.704V27.6901H108.223V25.1711Z" fill="#ECECEC"/>
    <path d="M108.223 22.6522H105.704V25.1711H108.223V22.6522Z" fill="black"/>
    <path d="M105.704 22.6522H103.185V25.1711H105.704V22.6522Z" fill="#ECECEC"/>
    <path d="M103.185 22.6522H100.667V25.1711H103.185V22.6522Z" fill="#ECECEC"/>
    <path d="M103.185 25.1711H100.667V27.6901H103.185V25.1711Z" fill="#10CF1F"/>
    <path d="M100.666 25.1711H98.1476V27.6901H100.666V25.1711Z" fill="#10CF1F"/>
    <path d="M98.1566 25.1711H95.6377V27.6901H98.1566V25.1711Z" fill="#10CF1F"/>
    <path d="M95.6377 25.1711H93.1188V27.6901H95.6377V25.1711Z" fill="#10CF1F"/>
    <path d="M93.1187 25.1711H90.5998V27.6901H93.1187V25.1711Z" fill="#10CF1F"/>
    <path d="M90.5998 25.1711H88.0808V27.6901H90.5998V25.1711Z" fill="#10CF1F"/>
    <path d="M88.0809 25.1711H85.562V27.6901H88.0809V25.1711Z" fill="#10CF1F"/>
    <path d="M85.5711 25.1711H83.0521V27.6901H85.5711V25.1711Z" fill="#10CF1F"/>
    <path d="M83.0522 25.1711H80.5333V27.6901H83.0522V25.1711Z" fill="#10CF1F"/>
    <path d="M80.5333 25.1711H78.0143V27.6901H80.5333V25.1711Z" fill="#10CF1F"/>
    <path d="M78.0143 25.1711H75.4954V27.6901H78.0143V25.1711Z" fill="#10CF1F"/>
    <path d="M75.5044 25.1711H72.9855V27.6901H75.5044V25.1711Z" fill="#10CF1F"/>
    <path d="M72.9855 25.1711H70.4665V27.6901H72.9855V25.1711Z" fill="#10CF1F"/>
    <path d="M70.4665 25.1711H67.9476V27.6901H70.4665V25.1711Z" fill="#10CF1F"/>
    <path d="M103.185 27.681H100.667V30.1999H103.185V27.681Z" fill="black"/>
    <path d="M103.185 30.1999H100.667V32.7188H103.185V30.1999Z" fill="#2955FF"/>
    <path d="M103.185 32.7188H100.667V35.2378H103.185V32.7188Z" fill="#48E9FF"/>
    <path d="M103.185 35.2378H100.667V37.7567H103.185V35.2378Z" fill="#2955FF"/>
    <path d="M105.704 37.7476H103.185V40.2666H105.704V37.7476Z" fill="black"/>
    <path d="M100.666 27.681H98.1476V30.1999H100.666V27.681Z" fill="black"/>
    <path d="M98.1566 27.681H95.6377V30.1999H98.1566V27.681Z" fill="black"/>
    <path d="M95.6377 27.681H93.1188V30.1999H95.6377V27.681Z" fill="black"/>
    <path d="M93.1187 27.681H90.5998V30.1999H93.1187V27.681Z" fill="black"/>
    <path d="M90.5998 27.681H88.0808V30.1999H90.5998V27.681Z" fill="black"/>
    <path d="M88.0809 27.681H85.562V30.1999H88.0809V27.681Z" fill="black"/>
    <path d="M85.5711 27.681H83.0521V30.1999H85.5711V27.681Z" fill="black"/>
    <path d="M83.0522 27.681H80.5333V30.1999H83.0522V27.681Z" fill="black"/>
    <path d="M80.5333 27.681H78.0143V30.1999H80.5333V27.681Z" fill="black"/>
    <path d="M78.0143 27.681H75.4954V30.1999H78.0143V27.681Z" fill="black"/>
    <path d="M75.5044 27.681H72.9855V30.1999H75.5044V27.681Z" fill="black"/>
    <path d="M72.9855 27.681H70.4665V30.1999H72.9855V27.681Z" fill="black"/>
    <path d="M70.4665 27.681H67.9476V30.1999H70.4665V27.681Z" fill="black"/>
    <path d="M100.666 22.6522H98.1476V25.1711H100.666V22.6522Z" fill="#ECECEC"/>
    <path d="M98.1566 22.6522H95.6377V25.1711H98.1566V22.6522Z" fill="#ECECEC"/>
    <path d="M95.6377 22.6522H93.1188V25.1711H95.6377V22.6522Z" fill="#ECECEC"/>
    <path d="M93.1187 22.6522H90.5998V25.1711H93.1187V22.6522Z" fill="#ECECEC"/>
    <path d="M90.5998 22.6522H88.0808V25.1711H90.5998V22.6522Z" fill="#ECECEC"/>
    <path d="M88.0809 22.6522H85.562V25.1711H88.0809V22.6522Z" fill="#ECECEC"/>
    <path d="M85.5711 22.6522H83.0521V25.1711H85.5711V22.6522Z" fill="#ECECEC"/>
    <path d="M83.0522 22.6522H80.5333V25.1711H83.0522V22.6522Z" fill="#ECECEC"/>
    <path d="M80.5333 22.6522H78.0143V25.1711H80.5333V22.6522Z" fill="#ECECEC"/>
    <path d="M78.0143 22.6522H75.4954V25.1711H78.0143V22.6522Z" fill="#ECECEC"/>
    <path d="M75.5044 22.6522H72.9855V25.1711H75.5044V22.6522Z" fill="#ECECEC"/>
    <path d="M72.9855 22.6522H70.4665V25.1711H72.9855V22.6522Z" fill="#ECECEC"/>
    <path d="M70.4665 22.6522H67.9476V25.1711H70.4665V22.6522Z" fill="#ECECEC"/>
    <path d="M105.704 45.3044H103.185V47.8233H105.704V45.3044Z" fill="black"/>
    <path d="M103.185 47.8143H100.667V50.3332H103.185V47.8143Z" fill="black"/>
    <path d="M100.666 47.8143H98.1476V50.3332H100.666V47.8143Z" fill="black"/>
    <path d="M98.1566 47.8143H95.6377V50.3332H98.1566V47.8143Z" fill="black"/>
    <path d="M98.1566 45.3044H95.6377V47.8233H98.1566V45.3044Z" fill="#636363"/>
    <path d="M100.666 45.3044H98.1476V47.8233H100.666V45.3044Z" fill="#636363"/>
    <path d="M103.185 45.3044H100.667V47.8233H103.185V45.3044Z" fill="#424242"/>
    <path d="M103.185 42.7855H100.667V45.3044H103.185V42.7855Z" fill="#424242"/>
    <path d="M105.704 42.7855H103.185V45.3044H105.704V42.7855Z" fill="#424242"/>
    <path d="M108.223 42.7855H105.704V45.3044H108.223V42.7855Z" fill="black"/>
    <path d="M100.666 42.7855H98.1476V45.3044H100.666V42.7855Z" fill="#424242"/>
    <path d="M98.1566 42.7855H95.6377V45.3044H98.1566V42.7855Z" fill="#424242"/>
    <path d="M95.6377 42.7855H93.1188V45.3044H95.6377V42.7855Z" fill="#424242"/>
    <path d="M93.1187 40.2666H90.5998V42.7855H93.1187V40.2666Z" fill="black"/>
    <path d="M93.1187 42.7855H90.5998V45.3044H93.1187V42.7855Z" fill="#777777"/>
    <path d="M90.5998 45.3044H88.0808V47.8233H90.5998V45.3044Z" fill="#ECECEC"/>
    <path d="M85.5711 42.7855H83.0521V45.3044H85.5711V42.7855Z" fill="#777777"/>
    <path d="M83.0522 42.7855H80.5333V45.3044H83.0522V42.7855Z" fill="#ECECEC"/>
    <path d="M80.5333 45.3044H78.0143V47.8233H80.5333V45.3044Z" fill="#636363"/>
    <path d="M85.5711 40.2666H83.0521V42.7855H85.5711V40.2666Z" fill="#BDBDBD"/>
    <path d="M83.0522 40.2666H80.5333V42.7855H83.0522V40.2666Z" fill="#BDBDBD"/>
    <path d="M80.5333 40.2666H78.0143V42.7855H80.5333V40.2666Z" fill="#BDBDBD"/>
    <path d="M85.5711 42.7855H83.0521V45.3044H85.5711V42.7855Z" fill="#ECECEC"/>
    <path d="M88.0809 42.7855H85.562V45.3044H88.0809V42.7855Z" fill="#ECECEC"/>
    <path d="M95.6377 45.3044H93.1188V47.8233H95.6377V45.3044Z" fill="#636363"/>
    <path d="M93.1187 45.3044H90.5998V47.8233H93.1187V45.3044Z" fill="#424242"/>
    <path d="M88.0809 45.3044H85.562V47.8233H88.0809V45.3044Z" fill="black"/>
    <path d="M85.5711 45.3044H83.0521V47.8233H85.5711V45.3044Z" fill="black"/>
    <path d="M83.0522 45.3044H80.5333V47.8233H83.0522V45.3044Z" fill="#BDBDBD"/>
    <path d="M78.0143 40.2666H75.4954V42.7855H78.0143V40.2666Z" fill="black"/>
    <path d="M80.5333 42.7855H78.0143V45.3044H80.5333V42.7855Z" fill="black"/>
    <path d="M85.5711 40.2666H83.0521V42.7855H85.5711V40.2666Z" fill="black"/>
    <path d="M80.5333 42.7855H78.0143V45.3044H80.5333V42.7855Z" fill="#424242"/>
    <path d="M83.0522 40.2666H80.5333V42.7855H83.0522V40.2666Z" fill="black"/>
    <path d="M80.5333 40.2666H78.0143V42.7855H80.5333V40.2666Z" fill="black"/>
    <path d="M95.6377 47.8143H93.1188V50.3332H95.6377V47.8143Z" fill="black"/>
    <path d="M93.1187 47.8143H90.5998V50.3332H93.1187V47.8143Z" fill="black"/>
    <path d="M90.5998 47.8143H88.0808V50.3332H90.5998V47.8143Z" fill="#636363"/>
    <path d="M88.0809 47.8143H85.562V50.3332H88.0809V47.8143Z" fill="#636363"/>
    <path d="M85.5711 47.8143H83.0521V50.3332H85.5711V47.8143Z" fill="#636363"/>
    <path d="M100.666 45.3044H98.1476V47.8233H100.666V45.3044Z" fill="#ECECEC"/>
    <path d="M93.1187 42.7855H90.5998V45.3044H93.1187V42.7855Z" fill="#ECECEC"/>
    <path d="M95.6377 42.7855H93.1188V45.3044H95.6377V42.7855Z" fill="#ECECEC"/>
    <path d="M98.1566 42.7855H95.6377V45.3044H98.1566V42.7855Z" fill="#ECECEC"/>
    <path d="M98.1566 45.3044H95.6377V47.8233H98.1566V45.3044Z" fill="black"/>
    <path d="M95.6377 45.3044H93.1188V47.8233H95.6377V45.3044Z" fill="black"/>
    <path d="M93.1187 45.3044H90.5998V47.8233H93.1187V45.3044Z" fill="#BDBDBD"/>
    <path d="M100.666 47.8143H98.1476V50.3332H100.666V47.8143Z" fill="#636363"/>
    <path d="M98.1566 47.8143H95.6377V50.3332H98.1566V47.8143Z" fill="#636363"/>
    <path d="M95.6377 47.8143H93.1188V50.3332H95.6377V47.8143Z" fill="#636363"/>
    <path d="M83.0522 47.8143H80.5333V50.3332H83.0522V47.8143Z" fill="black"/>
    <path d="M80.5333 47.8143H78.0143V50.3332H80.5333V47.8143Z" fill="black"/>
    <path d="M78.0143 50.3332H75.4954V52.8521H78.0143V50.3332Z" fill="black"/>
    <path d="M80.5333 50.3332H78.0143V52.8521H80.5333V50.3332Z" fill="black"/>
    <path d="M83.0522 50.3332H80.5333V52.8521H83.0522V50.3332Z" fill="black"/>
    <path d="M85.5711 50.3332H83.0521V52.8521H85.5711V50.3332Z" fill="black"/>
    <path d="M88.0809 50.3332H85.562V52.8521H88.0809V50.3332Z" fill="black"/>
    <path d="M90.5998 50.3332H88.0808V52.8521H90.5998V50.3332Z" fill="black"/>
    <path d="M93.1187 50.3332H90.5998V52.8521H93.1187V50.3332Z" fill="black"/>
    <path d="M75.5044 50.3332H72.9855V52.8521H75.5044V50.3332Z" fill="black"/>
    <path d="M72.9855 50.3332H70.4665V52.8521H72.9855V50.3332Z" fill="black"/>
    <path d="M70.4665 50.3332H67.9476V52.8521H70.4665V50.3332Z" fill="black"/>
    <path d="M113.252 50.3332H110.733V52.8521H113.252V50.3332Z" fill="black"/>
    <path d="M115.771 35.2378H113.252V37.7567H115.771V35.2378Z" fill="black"/>
    <path d="M115.771 40.2666H113.252V42.7855H115.771V40.2666Z" fill="black"/>
    <path d="M133.385 37.7476H130.866V40.2666H133.385V37.7476Z" fill="black"/>
    <path d="M113.252 37.7476H110.733V40.2666H113.252V37.7476Z" fill="black"/>
    <path d="M118.29 37.7476H115.771V40.2666H118.29V37.7476Z" fill="black"/>
    <path d="M120.8 37.7476H118.281V40.2666H120.8V37.7476Z" fill="black"/>
    <path d="M123.319 37.7476H120.8V40.2666H123.319V37.7476Z" fill="black"/>
    <path d="M125.838 37.7476H123.319V40.2666H125.838V37.7476Z" fill="black"/>
    <path d="M128.357 37.7476H125.838V40.2666H128.357V37.7476Z" fill="black"/>
    <path d="M130.866 37.7476H128.347V40.2666H130.866V37.7476Z" fill="black"/>
    <path d="M110.733 37.7476H108.214V40.2666H110.733V37.7476Z" fill="black"/>
    <path d="M115.771 37.7476H113.252V40.2666H115.771V37.7476Z" fill="black"/>
    <path d="M115.771 42.7855H113.252V45.3044H115.771V42.7855Z" fill="black"/>
    <path d="M115.771 45.3044H113.252V47.8233H115.771V45.3044Z" fill="black"/>
    <path d="M115.771 47.8143H113.252V50.3332H115.771V47.8143Z" fill="black"/>
    <path d="M115.771 30.1999H113.252V32.7188H115.771V30.1999Z" fill="black"/>
    <path d="M115.771 50.3332H113.252V52.8521H115.771V50.3332Z" fill="black"/>
    <path d="M88.0809 12.5856H85.562V15.1045H88.0809V12.5856Z" fill="#ECECEC"/>
    <path d="M90.5998 15.0954H88.0808V17.6144H90.5998V15.0954Z" fill="#ECECEC"/>
    <path d="M93.1187 17.6144H90.5998V20.1333H93.1187V17.6144Z" fill="#10CF1F"/>
    <path d="M100.666 32.7188H98.1476V35.2378H100.666V32.7188Z" fill="#2955FF"/>
    <path d="M98.1566 32.7188H95.6377V35.2378H98.1566V32.7188Z" fill="#2955FF"/>
    <path d="M100.666 35.2378H98.1476V37.7567H100.666V35.2378Z" fill="#48E9FF"/>
    <path d="M98.1566 35.2378H95.6377V37.7567H98.1566V35.2378Z" fill="#48E9FF"/>
    <path d="M95.6377 35.2378H93.1188V37.7567H95.6377V35.2378Z" fill="#48E9FF"/>
    <path d="M93.1187 35.2378H90.5998V37.7567H93.1187V35.2378Z" fill="#48E9FF"/>
    <path d="M95.6377 30.1999H93.1188V32.7188H95.6377V30.1999Z" fill="black"/>
    <path d="M98.1566 30.1999H95.6377V32.7188H98.1566V30.1999Z" fill="black"/>
    <path d="M100.666 30.1999H98.1476V32.7188H100.666V30.1999Z" fill="black"/>
    <path d="M93.1187 30.1999H90.5998V32.7188H93.1187V30.1999Z" fill="black"/>
    <path d="M95.6377 32.7188H93.1188V35.2378H95.6377V32.7188Z" fill="#2955FF"/>
    <path d="M93.1187 32.7188H90.5998V35.2378H93.1187V32.7188Z" fill="#2955FF"/>
    <path d="M90.5998 30.1999H88.0808V32.7188H90.5998V30.1999Z" fill="black"/>
    <path d="M90.5998 32.7188H88.0808V35.2378H90.5998V32.7188Z" fill="#2955FF"/>
    <path d="M88.0809 30.1999H85.562V32.7188H88.0809V30.1999Z" fill="black"/>
    <path d="M88.0809 32.7188H85.562V35.2378H88.0809V32.7188Z" fill="#2955FF"/>
    <path d="M85.5711 30.1999H83.0521V32.7188H85.5711V30.1999Z" fill="black"/>
    <path d="M85.5711 32.7188H83.0521V35.2378H85.5711V32.7188Z" fill="#2955FF"/>
    <path d="M88.0809 35.2378H85.562V37.7567H88.0809V35.2378Z" fill="#48E9FF"/>
    <path d="M90.5998 35.2378H88.0808V37.7567H90.5998V35.2378Z" fill="#48E9FF"/>
    <path d="M90.5998 37.7476H88.0808V40.2666H90.5998V37.7476Z" fill="#2955FF"/>
    <path d="M93.1187 37.7476H90.5998V40.2666H93.1187V37.7476Z" fill="#2955FF"/>
    <path d="M83.0522 30.1999H80.5333V32.7188H83.0522V30.1999Z" fill="black"/>
    <path d="M83.0522 32.7188H80.5333V35.2378H83.0522V32.7188Z" fill="#2955FF"/>
    <path d="M80.5333 30.1999H78.0143V32.7188H80.5333V30.1999Z" fill="black"/>
    <path d="M80.5333 32.7188H78.0143V35.2378H80.5333V32.7188Z" fill="#2955FF"/>
    <path d="M78.0143 30.1999H75.4954V32.7188H78.0143V30.1999Z" fill="black"/>
    <path d="M78.0143 32.7188H75.4954V35.2378H78.0143V32.7188Z" fill="#2955FF"/>
    <path d="M75.5044 30.1999H72.9855V32.7188H75.5044V30.1999Z" fill="black"/>
    <path d="M75.5044 32.7188H72.9855V35.2378H75.5044V32.7188Z" fill="#2955FF"/>
    <path d="M72.9855 30.1999H70.4665V32.7188H72.9855V30.1999Z" fill="black"/>
    <path d="M72.9855 32.7188H70.4665V35.2378H72.9855V32.7188Z" fill="#2955FF"/>
    <path d="M70.4665 30.1999H67.9476V32.7188H70.4665V30.1999Z" fill="black"/>
    <path d="M70.4665 32.7188H67.9476V35.2378H70.4665V32.7188Z" fill="black"/>
    <path d="M72.9855 35.2378H70.4665V37.7567H72.9855V35.2378Z" fill="#48E9FF"/>
    <path d="M70.4665 35.2378H67.9476V37.7567H70.4665V35.2378Z" fill="black"/>
    <path d="M72.9855 37.7476H70.4665V40.2666H72.9855V37.7476Z" fill="#2955FF"/>
    <path d="M78.0143 35.2378H75.4954V37.7567H78.0143V35.2378Z" fill="#48E9FF"/>
    <path d="M78.0143 37.7476H75.4954V40.2666H78.0143V37.7476Z" fill="#2955FF"/>
    <path d="M80.5333 35.2378H78.0143V37.7567H80.5333V35.2378Z" fill="#48E9FF"/>
    <path d="M80.5333 37.7476H78.0143V40.2666H80.5333V37.7476Z" fill="#2955FF"/>
    <path d="M83.0522 35.2378H80.5333V37.7567H83.0522V35.2378Z" fill="#48E9FF"/>
    <path d="M83.0522 37.7476H80.5333V40.2666H83.0522V37.7476Z" fill="#2955FF"/>
    <path d="M85.5711 35.2378H83.0521V37.7567H85.5711V35.2378Z" fill="#48E9FF"/>
    <path d="M85.5711 37.7476H83.0521V40.2666H85.5711V37.7476Z" fill="#2955FF"/>
    <path d="M88.0809 37.7476H85.562V40.2666H88.0809V37.7476Z" fill="#2955FF"/>
    <path d="M88.0809 40.2666H85.562V42.7855H88.0809V40.2666Z" fill="black"/>
    <path d="M90.5998 40.2666H88.0808V42.7855H90.5998V40.2666Z" fill="black"/>
    <path d="M90.5998 42.7855H88.0808V45.3044H90.5998V42.7855Z" fill="#424242"/>
    <path d="M95.6377 37.7476H93.1188V40.2666H95.6377V37.7476Z" fill="#2955FF"/>
    <path d="M98.1566 37.7476H95.6377V40.2666H98.1566V37.7476Z" fill="#2955FF"/>
    <path d="M100.666 37.7476H98.1476V40.2666H100.666V37.7476Z" fill="#2955FF"/>
    <path d="M103.185 37.7476H100.667V40.2666H103.185V37.7476Z" fill="black"/>
    <path d="M98.1566 40.2666H95.6377V42.7855H98.1566V40.2666Z" fill="black"/>
    <path d="M100.666 40.2666H98.1476V42.7855H100.666V40.2666Z" fill="black"/>
    <path d="M103.185 40.2666H100.667V42.7855H103.185V40.2666Z" fill="#10CF1F"/>
    <path d="M95.6377 40.2666H93.1188V42.7855H95.6377V40.2666Z" fill="black"/>
    <path d="M70.4665 37.7476H67.9476V40.2666H70.4665V37.7476Z" fill="black"/>
    <path d="M72.9855 40.2666H70.4665V42.7855H72.9855V40.2666Z" fill="black"/>
    <path d="M78.0143 42.7855H75.4954V45.3044H78.0143V42.7855Z" fill="#424242"/>
    <path d="M78.0143 45.3044H75.4954V47.8233H78.0143V45.3044Z" fill="#636363"/>
    <path d="M78.0143 47.8143H75.4954V50.3332H78.0143V47.8143Z" fill="#636363"/>
    <path d="M80.5333 47.8143H78.0143V50.3332H80.5333V47.8143Z" fill="#424242"/>
    <path d="M75.5044 45.3044H72.9855V47.8233H75.5044V45.3044Z" fill="black"/>
    <path d="M75.5044 47.8143H72.9855V50.3332H75.5044V47.8143Z" fill="#636363"/>
    <path d="M75.5044 42.7855H72.9855V45.3044H75.5044V42.7855Z" fill="#424242"/>
    <path d="M72.9855 45.3044H70.4665V47.8233H72.9855V45.3044Z" fill="black"/>
    <path d="M72.9855 47.8143H70.4665V50.3332H72.9855V47.8143Z" fill="#636363"/>
    <path d="M72.9855 42.7855H70.4665V45.3044H72.9855V42.7855Z" fill="#424242"/>
    <path d="M70.4665 45.3044H67.9476V47.8233H70.4665V45.3044Z" fill="black"/>
    <path d="M70.4665 47.8143H67.9476V50.3332H70.4665V47.8143Z" fill="#636363"/>
    <path d="M70.4665 42.7855H67.9476V45.3044H70.4665V42.7855Z" fill="#424242"/>
    <path d="M70.4665 40.2666H67.9476V42.7855H70.4665V40.2666Z" fill="black"/>
    <path d="M93.1187 20.1333H90.5998V22.6522H93.1187V20.1333Z" fill="#ECECEC"/>
    <path d="M88.0809 15.0954H85.562V17.6144H88.0809V15.0954Z" fill="#ECECEC"/>
    <path d="M85.5711 15.0954H83.0521V17.6144H85.5711V15.0954Z" fill="#ECECEC"/>
    <path d="M83.0522 15.0954H80.5333V17.6144H83.0522V15.0954Z" fill="#ECECEC"/>
    <path d="M83.0522 17.6144H80.5333V20.1333H83.0522V17.6144Z" fill="#10CF1F"/>
    <path d="M80.5333 20.1333H78.0143V22.6522H80.5333V20.1333Z" fill="#ECECEC"/>
    <path d="M78.0143 20.1333H75.4954V22.6522H78.0143V20.1333Z" fill="#ECECEC"/>
    <path d="M78.0143 17.6144H75.4954V20.1333H78.0143V17.6144Z" fill="#10CF1F"/>
    <path d="M78.0143 15.0954H75.4954V17.6144H78.0143V15.0954Z" fill="#BDBDBD"/>
    <path d="M78.0143 12.5856H75.4954V15.1045H78.0143V12.5856Z" fill="#BDBDBD"/>
    <path d="M75.5044 20.1333H72.9855V22.6522H75.5044V20.1333Z" fill="#ECECEC"/>
    <path d="M75.5044 17.6144H72.9855V20.1333H75.5044V17.6144Z" fill="#10CF1F"/>
    <path d="M75.5044 15.0954H72.9855V17.6144H75.5044V15.0954Z" fill="#BDBDBD"/>
    <path d="M75.5044 12.5856H72.9855V15.1045H75.5044V12.5856Z" fill="#BDBDBD"/>
    <path d="M72.9855 10.0666H70.4665V12.5856H72.9855V10.0666Z" fill="#BDBDBD"/>
    <path d="M85.5711 17.6144H83.0521V20.1333H85.5711V17.6144Z" fill="#10CF1F"/>
    <path d="M88.0809 17.6144H85.562V20.1333H88.0809V17.6144Z" fill="#10CF1F"/>
    <path d="M90.5998 17.6144H88.0808V20.1333H90.5998V17.6144Z" fill="#10CF1F"/>
    <path d="M90.5998 10.0666H88.0808V12.5856H90.5998V10.0666Z" fill="#10CF1F"/>
    <path d="M90.5998 12.5856H88.0808V15.1045H90.5998V12.5856Z" fill="#00A40C"/>
    <path d="M88.0809 10.0666H85.562V12.5856H88.0809V10.0666Z" fill="#10CF1F"/>
    <path d="M85.5711 10.0666H83.0521V12.5856H85.5711V10.0666Z" fill="#10CF1F"/>
    <path d="M83.0522 10.0666H80.5333V12.5856H83.0522V10.0666Z" fill="#10CF1F"/>
    <path d="M80.5333 10.0666H78.0143V12.5856H80.5333V10.0666Z" fill="#10CF1F"/>
    <path d="M90.5998 7.54767H88.0808V10.0666H90.5998V7.54767Z" fill="#10CF1F"/>
    <path d="M93.1187 10.0666H90.5998V12.5856H93.1187V10.0666Z" fill="#00A40C"/>
    <path d="M93.1187 7.54767H90.5998V10.0666H93.1187V7.54767Z" fill="#00A40C"/>
    <path d="M100.666 2.51889H98.1476V5.03784H100.666V2.51889Z" fill="#10CF1F"/>
    <path d="M100.666 0H98.1476V2.5189H100.666V0Z" fill="#10CF1F"/>
    <path d="M95.6377 2.51889H93.1188V5.03784H95.6377V2.51889Z" fill="#00A40C"/>
    <path d="M98.1566 2.51889H95.6377V5.03784H98.1566V2.51889Z" fill="#00A40C"/>
    <path d="M93.1187 2.51889H90.5998V5.03784H93.1187V2.51889Z" fill="#00A40C"/>
    <path d="M90.5998 2.51889H88.0808V5.03784H90.5998V2.51889Z" fill="#10CF1F"/>
    <path d="M88.0899 2.51889H85.571V5.03784H88.0899V2.51889Z" fill="#10CF1F"/>
    <path d="M85.5711 2.51889H83.0521V5.03784H85.5711V2.51889Z" fill="#10CF1F"/>
    <path d="M83.0522 2.51889H80.5333V5.03784H83.0522V2.51889Z" fill="#10CF1F"/>
    <path d="M80.5333 2.51889H78.0143V5.03784H80.5333V2.51889Z" fill="#10CF1F"/>
    <path d="M78.0234 2.51889H75.5045V5.03784H78.0234V2.51889Z" fill="#10CF1F"/>
    <path d="M75.5044 2.51889H72.9855V5.03784H75.5044V2.51889Z" fill="#10CF1F"/>
    <path d="M72.9855 2.51889H70.4665V5.03784H72.9855V2.51889Z" fill="#10CF1F"/>
    <path d="M70.4665 2.51889H67.9476V5.03784H70.4665V2.51889Z" fill="#10CF1F"/>
    <path d="M67.9566 2.51889H65.4377V5.03784H67.9566V2.51889Z" fill="#10CF1F"/>
    <path d="M65.4378 2.51889H62.9189V5.03784H65.4378V2.51889Z" fill="#10CF1F"/>
    <path d="M62.9098 2.51889H60.3908V5.03784H62.9098V2.51889Z" fill="#10CF1F"/>
    <path d="M60.3909 2.51889H57.872V5.03784H60.3909V2.51889Z" fill="#10CF1F"/>
    <path d="M57.872 2.51889H55.353V5.03784H57.872V2.51889Z" fill="#10CF1F"/>
    <path d="M55.353 2.51889H52.8341V5.03784H55.353V2.51889Z" fill="#10CF1F"/>
    <path d="M52.8341 2.51889H50.3151V5.03784H52.8341V2.51889Z" fill="#10CF1F"/>
    <path d="M50.3151 2.51889H47.7962V5.03784H50.3151V2.51889Z" fill="#10CF1F"/>
    <path d="M47.7962 2.51889H45.2772V5.03784H47.7962V2.51889Z" fill="#10CF1F"/>
    <path d="M45.2773 2.51889H42.7584V5.03784H45.2773V2.51889Z" fill="#00A40C"/>
    <path d="M42.7493 2.51889H40.2303V5.03784H42.7493V2.51889Z" fill="#00A40C"/>
    <path d="M40.2304 2.51889H37.7115V5.03784H40.2304V2.51889Z" fill="#00A40C"/>
    <path d="M85.5711 20.1333H83.0521V22.6522H85.5711V20.1333Z" fill="#ECECEC"/>
    <path d="M88.0809 20.1333H85.562V22.6522H88.0809V20.1333Z" fill="#ECECEC"/>
    <path d="M90.5998 20.1333H88.0808V22.6522H90.5998V20.1333Z" fill="#ECECEC"/>
    <path d="M103.185 40.2666H100.667V42.7855H103.185V40.2666Z" fill="black"/>
    <path d="M105.704 40.2666H103.185V42.7855H105.704V40.2666Z" fill="black"/>
    <path d="M108.223 40.2666H105.704V42.7855H108.223V40.2666Z" fill="black"/>
    <path d="M93.1187 20.1333H90.5998V22.6522H93.1187V20.1333Z" fill="#ECECEC"/>
    <path d="M85.5711 12.5856H83.0521V15.1045H85.5711V12.5856Z" fill="#ECECEC"/>
    <path d="M83.0522 12.5856H80.5333V15.1045H83.0522V12.5856Z" fill="#ECECEC"/>
    <path d="M80.5333 12.5856H78.0143V15.1045H80.5333V12.5856Z" fill="#ECECEC"/>
    <path d="M78.0143 10.0666H75.4954V12.5856H78.0143V10.0666Z" fill="#ECECEC"/>
    <path d="M50.3333 7.54767H47.8143V10.0666H50.3333V7.54767Z" fill="#10CF1F"/>
    <path d="M52.8521 7.54767H50.3333V10.0666H52.8521V7.54767Z" fill="#10CF1F"/>
    <path d="M55.3712 7.54767H52.8522V10.0666H55.3712V7.54767Z" fill="#10CF1F"/>
    <path d="M57.881 7.54767H55.3621V10.0666H57.881V7.54767Z" fill="#10CF1F"/>
    <path d="M60.3999 7.54767H57.881V10.0666H60.3999V7.54767Z" fill="#10CF1F"/>
    <path d="M62.9189 7.54767H60.3999V10.0666H62.9189V7.54767Z" fill="#ECECEC"/>
    <path d="M88.0809 7.54767H85.562V10.0666H88.0809V7.54767Z" fill="#10CF1F"/>
    <path d="M85.5711 7.54767H83.0521V10.0666H85.5711V7.54767Z" fill="#10CF1F"/>
    <path d="M83.0522 7.54767H80.5333V10.0666H83.0522V7.54767Z" fill="#10CF1F"/>
    <path d="M80.5333 7.54767H78.0143V10.0666H80.5333V7.54767Z" fill="#10CF1F"/>
    <path d="M78.0143 7.54767H75.4954V10.0666H78.0143V7.54767Z" fill="#10CF1F"/>
    <path d="M75.5044 7.54767H72.9855V10.0666H75.5044V7.54767Z" fill="#ECECEC"/>
    <path d="M75.5044 10.0666H72.9855V12.5856H75.5044V10.0666Z" fill="#BDBDBD"/>
    <path d="M72.9855 7.54767H70.4665V10.0666H72.9855V7.54767Z" fill="#BDBDBD"/>
    <path d="M70.4665 7.54767H67.9476V10.0666H70.4665V7.54767Z" fill="#BDBDBD"/>
    <path d="M65.4378 5.02878H62.9189V7.54768H65.4378V5.02878Z" fill="#ECECEC"/>
    <path d="M67.9476 5.02878H65.4286V7.54768H67.9476V5.02878Z" fill="#ECECEC"/>
    <path d="M72.9855 5.02878H70.4665V7.54768H72.9855V5.02878Z" fill="#ECECEC"/>
    <path d="M70.4665 5.02878H67.9476V7.54768H70.4665V5.02878Z" fill="#ECECEC"/>
    <path d="M70.4665 10.0666H67.9476V12.5856H70.4665V10.0666Z" fill="#ECECEC"/>
    <path d="M72.9855 12.5856H70.4665V15.1045H72.9855V12.5856Z" fill="#ECECEC"/>
    <path d="M70.4665 12.5856H67.9476V15.1045H70.4665V12.5856Z" fill="#ECECEC"/>
    <path d="M72.9855 15.0954H70.4665V17.6144H72.9855V15.0954Z" fill="#ECECEC"/>
    <path d="M70.4665 15.0954H67.9476V17.6144H70.4665V15.0954Z" fill="#ECECEC"/>
    <path d="M72.9855 17.6144H70.4665V20.1333H72.9855V17.6144Z" fill="#10CF1F"/>
    <path d="M70.4665 17.6144H67.9476V20.1333H70.4665V17.6144Z" fill="#10CF1F"/>
    <path d="M72.9855 20.1333H70.4665V22.6522H72.9855V20.1333Z" fill="#ECECEC"/>
    <path d="M70.4665 20.1333H67.9476V22.6522H70.4665V20.1333Z" fill="#ECECEC"/>
    <path d="M85.5711 20.1333H83.0521V22.6522H85.5711V20.1333Z" fill="#ECECEC"/>
    <path d="M83.0522 20.1333H80.5333V22.6522H83.0522V20.1333Z" fill="#ECECEC"/>
    <path d="M80.5333 17.6144H78.0143V20.1333H80.5333V17.6144Z" fill="#10CF1F"/>
    <path d="M80.5333 15.0954H78.0143V17.6144H80.5333V15.0954Z" fill="#BDBDBD"/>
    <path d="M75.5044 30.1999H72.9855V32.7188H75.5044V30.1999Z" fill="black"/>
    <path d="M75.5044 32.7188H72.9855V35.2378H75.5044V32.7188Z" fill="#2955FF"/>
    <path d="M75.5044 35.2378H72.9855V37.7567H75.5044V35.2378Z" fill="#48E9FF"/>
    <path d="M75.5044 37.7476H72.9855V40.2666H75.5044V37.7476Z" fill="#2955FF"/>
    <path d="M75.5044 40.2666H72.9855V42.7855H75.5044V40.2666Z" fill="black"/>
</svg>