<svg shape-rendering="crispEdges" width="100%" viewBox="0 0 40 40" fill="none" xmlns="http://www.w3.org/2000/svg">
    <path d="M35.01 0H32.51V2.5H35.01V0Z" fill="#620E27"/>
    <path d="M32.51 0H30.01V2.5H32.51V0Z" fill="#620E27"/>
    <path d="M30.01 0H27.51V2.5H30.01V0Z" fill="#620E27"/>
    <path d="M27.51 0H25.01V2.5H27.51V0Z" fill="#620E27"/>
    <path d="M25.01 0H22.51V2.5H25.01V0Z" fill="#620E27"/>
    <path d="M22.51 0H20.01V2.5H22.51V0Z" fill="#620E27"/>
    <path d="M20.01 0H17.51V2.5H20.01V0Z" fill="#620E27"/>
    <path d="M17.51 0H15.01V2.5H17.51V0Z" fill="#620E27"/>
    <path d="M15 0H12.5V2.5H15V0Z" fill="#620E27"/>
    <path d="M12.5 0H10V2.5H12.5V0Z" fill="#620E27"/>
    <path d="M10 0H7.5V2.5H10V0Z" fill="#620E27"/>
    <path d="M7.5 0H5V2.5H7.5V0Z" fill="#620E27"/>
    <path d="M37.51 2.5H35.01V5H37.51V2.5Z" fill="#620E27"/>
    <path d="M35.01 2.5H32.51V5H35.01V2.5Z" fill="#AF3023"/>
    <path d="M32.51 2.5H30.01V5H32.51V2.5Z" fill="#AF3023"/>
    <path d="M30.01 2.5H27.51V5H30.01V2.5Z" fill="#AF3023"/>
    <path d="M27.51 2.5H25.01V5H27.51V2.5Z" fill="#AF3023"/>
    <path d="M25.01 2.5H22.51V5H25.01V2.5Z" fill="#AF3023"/>
    <path d="M22.51 2.5H20.01V5H22.51V2.5Z" fill="#AF3023"/>
    <path d="M20.01 2.5H17.51V5H20.01V2.5Z" fill="#AF3023"/>
    <path d="M17.51 2.5H15.01V5H17.51V2.5Z" fill="#AF3023"/>
    <path d="M15 2.5H12.5V5H15V2.5Z" fill="#AF3023"/>
    <path d="M12.5 2.5H10V5H12.5V2.5Z" fill="#AF3023"/>
    <path d="M10 2.5H7.5V5H10V2.5Z" fill="#AF3023"/>
    <path d="M7.5 2.5H5V5H7.5V2.5Z" fill="#AF3023"/>
    <path d="M5 2.5H2.5V5H5V2.5Z" fill="#620E27"/>
    <path d="M40.01 5H37.51V7.5H40.01V5Z" fill="#620E27"/>
    <path d="M37.51 5H35.01V7.5H37.51V5Z" fill="#AF3023"/>
    <path d="M35.01 5H32.51V7.5H35.01V5Z" fill="#AF3023"/>
    <path d="M32.51 5H30.01V7.5H32.51V5Z" fill="#FBEED1"/>
    <path d="M30.01 5H27.51V7.5H30.01V5Z" fill="#FBEED1"/>
    <path d="M27.51 5H25.01V7.5H27.51V5Z" fill="#FBEED1"/>
    <path d="M25.01 5H22.51V7.5H25.01V5Z" fill="#F6C043"/>
    <path d="M22.51 5H20.01V7.5H22.51V5Z" fill="#F6C043"/>
    <path d="M20.01 5H17.51V7.5H20.01V5Z" fill="#FBEED1"/>
    <path d="M17.51 5H15.01V7.5H17.51V5Z" fill="#F6C043"/>
    <path d="M15 5H12.5V7.5H15V5Z" fill="#F6C043"/>
    <path d="M12.5 5H10V7.5H12.5V5Z" fill="#F6C043"/>
    <path d="M10 5H7.5V7.5H10V5Z" fill="#F6C043"/>
    <path d="M7.5 5H5V7.5H7.5V5Z" fill="#AF3023"/>
    <path d="M5 5H2.5V7.5H5V5Z" fill="#AF3023"/>
    <path d="M2.5 5H0V7.5H2.5V5Z" fill="#620E27"/>
    <path d="M40.01 7.5H37.51V10H40.01V7.5Z" fill="#620E27"/>
    <path d="M37.51 7.5H35.01V10H37.51V7.5Z" fill="#AF3023"/>
    <path d="M35.01 7.5H32.51V10H35.01V7.5Z" fill="#FBEED1"/>
    <path d="M32.51 7.5H30.01V10H32.51V7.5Z" fill="#E97523"/>
    <path d="M30.01 7.5H27.51V10H30.01V7.5Z" fill="#E97523"/>
    <path d="M27.51 7.5H25.01V10H27.51V7.5Z" fill="#E97523"/>
    <path d="M25.01 7.5H22.51V10H25.01V7.5Z" fill="#E97523"/>
    <path d="M22.51 7.5H20.01V10H22.51V7.5Z" fill="#E97523"/>
    <path d="M20.01 7.5H17.51V10H20.01V7.5Z" fill="#E97523"/>
    <path d="M17.51 7.5H15.01V10H17.51V7.5Z" fill="#E97523"/>
    <path d="M15 7.5H12.5V10H15V7.5Z" fill="#E97523"/>
    <path d="M12.5 7.5H10V10H12.5V7.5Z" fill="#E97523"/>
    <path d="M10 7.5H7.5V10H10V7.5Z" fill="#E97523"/>
    <path d="M7.5 7.5H5V10H7.5V7.5Z" fill="#F6C043"/>
    <path d="M5 7.5H2.5V10H5V7.5Z" fill="#AF3023"/>
    <path d="M2.5 7.5H0V10H2.5V7.5Z" fill="#620E27"/>
    <path d="M40.01 10H37.51V12.5H40.01V10Z" fill="#620E27"/>
    <path d="M37.51 10H35.01V12.5H37.51V10Z" fill="#AF3023"/>
    <path d="M35.01 10H32.51V12.5H35.01V10Z" fill="#F6C043"/>
    <path d="M32.51 10H30.01V12.5H32.51V10Z" fill="#E97523"/>
    <path d="M30.01 10H27.51V12.5H30.01V10Z" fill="#E97523"/>
    <path d="M27.51 10H25.01V12.5H27.51V10Z" fill="#620E27"/>
    <path d="M25.01 10H22.51V12.5H25.01V10Z" fill="#620E27"/>
    <path d="M22.51 10H20.01V12.5H22.51V10Z" fill="#E97523"/>
    <path d="M20.01 10H17.51V12.5H20.01V10Z" fill="#E97523"/>
    <path d="M17.51 10H15.01V12.5H17.51V10Z" fill="#E97523"/>
    <path d="M15 10H12.5V12.5H15V10Z" fill="#E97523"/>
    <path d="M12.5 10H10V12.5H12.5V10Z" fill="#E97523"/>
    <path d="M10 10H7.5V12.5H10V10Z" fill="#E97523"/>
    <path d="M7.5 10H5V12.5H7.5V10Z" fill="#E97523"/>
    <path d="M5 10H2.5V12.5H5V10Z" fill="#AF3023"/>
    <path d="M2.5 10H0V12.5H2.5V10Z" fill="#620E27"/>
    <path d="M40.01 12.5H37.51V15H40.01V12.5Z" fill="#620E27"/>
    <path d="M37.51 12.5H35.01V15H37.51V12.5Z" fill="#AF3023"/>
    <path d="M35.01 12.5H32.51V15H35.01V12.5Z" fill="#F6C043"/>
    <path d="M32.51 12.5H30.01V15H32.51V12.5Z" fill="#E97523"/>
    <path d="M30.01 12.5H27.51V15H30.01V12.5Z" fill="#E97523"/>
    <path d="M27.51 12.5H25.01V15H27.51V12.5Z" fill="#620E27"/>
    <path d="M25.01 12.5H22.51V15H25.01V12.5Z" fill="#AF3023"/>
    <path d="M22.51 12.5H20.01V15H22.51V12.5Z" fill="#620E27"/>
    <path d="M20.01 12.5H17.51V15H20.01V12.5Z" fill="#620E27"/>
    <path d="M17.51 12.5H15.01V15H17.51V12.5Z" fill="#E97523"/>
    <path d="M15 12.5H12.5V15H15V12.5Z" fill="#E97523"/>
    <path d="M12.5 12.5H10V15H12.5V12.5Z" fill="#E97523"/>
    <path d="M10 12.5H7.5V15H10V12.5Z" fill="#E97523"/>
    <path d="M7.5 12.5H5V15H7.5V12.5Z" fill="#E97523"/>
    <path d="M5 12.5H2.5V15H5V12.5Z" fill="#AF3023"/>
    <path d="M2.5 12.5H0V15H2.5V12.5Z" fill="#620E27"/>
    <path d="M40.01 15.01H37.51V17.51H40.01V15.01Z" fill="#620E27"/>
    <path d="M37.51 15.01H35.01V17.51H37.51V15.01Z" fill="#AF3023"/>
    <path d="M35.01 15.01H32.51V17.51H35.01V15.01Z" fill="#E97523"/>
    <path d="M32.51 15.01H30.01V17.51H32.51V15.01Z" fill="#E97523"/>
    <path d="M30.01 15.01H27.51V17.51H30.01V15.01Z" fill="#E97523"/>
    <path d="M27.51 15.01H25.01V17.51H27.51V15.01Z" fill="#620E27"/>
    <path d="M25.01 15.01H22.51V17.51H25.01V15.01Z" fill="#AF3023"/>
    <path d="M22.51 15.01H20.01V17.51H22.51V15.01Z" fill="#AF3023"/>
    <path d="M20.01 15.01H17.51V17.51H20.01V15.01Z" fill="#AF3023"/>
    <path d="M17.51 15.01H15.01V17.51H17.51V15.01Z" fill="#620E27"/>
    <path d="M15 15.01H12.5V17.51H15V15.01Z" fill="#620E27"/>
    <path d="M12.5 15.01H10V17.51H12.5V15.01Z" fill="#E97523"/>
    <path d="M10 15.01H7.5V17.51H10V15.01Z" fill="#E97523"/>
    <path d="M7.5 15.01H5V17.51H7.5V15.01Z" fill="#E97523"/>
    <path d="M5 15.01H2.5V17.51H5V15.01Z" fill="#AF3023"/>
    <path d="M2.5 15.01H0V17.51H2.5V15.01Z" fill="#620E27"/>
    <path d="M40.01 17.51H37.51V20.01H40.01V17.51Z" fill="#620E27"/>
    <path d="M37.51 17.51H35.01V20.01H37.51V17.51Z" fill="#AF3023"/>
    <path d="M35.01 17.51H32.51V20.01H35.01V17.51Z" fill="#E97523"/>
    <path d="M32.51 17.51H30.01V20.01H32.51V17.51Z" fill="#E97523"/>
    <path d="M30.01 17.51H27.51V20.01H30.01V17.51Z" fill="#E97523"/>
    <path d="M27.51 17.51H25.01V20.01H27.51V17.51Z" fill="#620E27"/>
    <path d="M25.01 17.51H22.51V20.01H25.01V17.51Z" fill="#AF3023"/>
    <path d="M22.51 17.51H20.01V20.01H22.51V17.51Z" fill="#AF3023"/>
    <path d="M20.01 17.51H17.51V20.01H20.01V17.51Z" fill="#AF3023"/>
    <path d="M17.51 17.51H15.01V20.01H17.51V17.51Z" fill="#AF3023"/>
    <path d="M15 17.51H12.5V20.01H15V17.51Z" fill="#AF3023"/>
    <path d="M12.5 17.51H10V20.01H12.5V17.51Z" fill="#620E27"/>
    <path d="M10 17.51H7.5V20.01H10V17.51Z" fill="#E97523"/>
    <path d="M7.5 17.51H5V20.01H7.5V17.51Z" fill="#E97523"/>
    <path d="M5 17.51H2.5V20.01H5V17.51Z" fill="#AF3023"/>
    <path d="M2.5 17.51H0V20.01H2.5V17.51Z" fill="#620E27"/>
    <path d="M40.01 20.01H37.51V22.51H40.01V20.01Z" fill="#620E27"/>
    <path d="M37.51 20.01H35.01V22.51H37.51V20.01Z" fill="#AF3023"/>
    <path d="M35.01 20.01H32.51V22.51H35.01V20.01Z" fill="#E97523"/>
    <path d="M32.51 20.01H30.01V22.51H32.51V20.01Z" fill="#E97523"/>
    <path d="M30.01 20.01H27.51V22.51H30.01V20.01Z" fill="#E97523"/>
    <path d="M27.51 20.01H25.01V22.51H27.51V20.01Z" fill="#620E27"/>
    <path d="M25.01 20.01H22.51V22.51H25.01V20.01Z" fill="#AF3023"/>
    <path d="M22.51 20.01H20.01V22.51H22.51V20.01Z" fill="#AF3023"/>
    <path d="M20.01 20.01H17.51V22.51H20.01V20.01Z" fill="#AF3023"/>
    <path d="M17.51 20.01H15.01V22.51H17.51V20.01Z" fill="#AF3023"/>
    <path d="M15 20.01H12.5V22.51H15V20.01Z" fill="#AF3023"/>
    <path d="M12.5 20.01H10V22.51H12.5V20.01Z" fill="#FBEED1"/>
    <path d="M10 20.01H7.5V22.51H10V20.01Z" fill="#E97523"/>
    <path d="M7.5 20.01H5V22.51H7.5V20.01Z" fill="#E97523"/>
    <path d="M5 20.01H2.5V22.51H5V20.01Z" fill="#AF3023"/>
    <path d="M2.5 20.01H0V22.51H2.5V20.01Z" fill="#620E27"/>
    <path d="M40.01 22.51H37.51V25.01H40.01V22.51Z" fill="#620E27"/>
    <path d="M37.51 22.51H35.01V25.01H37.51V22.51Z" fill="#AF3023"/>
    <path d="M35.01 22.51H32.51V25.01H35.01V22.51Z" fill="#E97523"/>
    <path d="M32.51 22.51H30.01V25.01H32.51V22.51Z" fill="#E97523"/>
    <path d="M30.01 22.51H27.51V25.01H30.01V22.51Z" fill="#E97523"/>
    <path d="M27.51 22.51H25.01V25.01H27.51V22.51Z" fill="#620E27"/>
    <path d="M25.01 22.51H22.51V25.01H25.01V22.51Z" fill="#AF3023"/>
    <path d="M22.51 22.51H20.01V25.01H22.51V22.51Z" fill="#AF3023"/>
    <path d="M20.01 22.51H17.51V25.01H20.01V22.51Z" fill="#AF3023"/>
    <path d="M17.51 22.51H15.01V25.01H17.51V22.51Z" fill="#FBEED1"/>
    <path d="M15 22.51H12.5V25.01H15V22.51Z" fill="#FBEED1"/>
    <path d="M12.5 22.51H10V25.01H12.5V22.51Z" fill="#E97523"/>
    <path d="M10 22.51H7.5V25.01H10V22.51Z" fill="#E97523"/>
    <path d="M7.5 22.51H5V25.01H7.5V22.51Z" fill="#E97523"/>
    <path d="M5 22.51H2.5V25.01H5V22.51Z" fill="#AF3023"/>
    <path d="M2.5 22.51H0V25.01H2.5V22.51Z" fill="#620E27"/>
    <path d="M40.01 25.01H37.51V27.51H40.01V25.01Z" fill="#620E27"/>
    <path d="M37.51 25.01H35.01V27.51H37.51V25.01Z" fill="#AF3023"/>
    <path d="M35.01 25.01H32.51V27.51H35.01V25.01Z" fill="#E97523"/>
    <path d="M32.51 25.01H30.01V27.51H32.51V25.01Z" fill="#E97523"/>
    <path d="M30.01 25.01H27.51V27.51H30.01V25.01Z" fill="#E97523"/>
    <path d="M27.51 25.01H25.01V27.51H27.51V25.01Z" fill="#620E27"/>
    <path d="M25.01 25.01H22.51V27.51H25.01V25.01Z" fill="#AF3023"/>
    <path d="M22.51 25.01H20.01V27.51H22.51V25.01Z" fill="#FBEED1"/>
    <path d="M20.01 25.01H17.51V27.51H20.01V25.01Z" fill="#FBEED1"/>
    <path d="M17.51 25.01H15.01V27.51H17.51V25.01Z" fill="#E97523"/>
    <path d="M15 25.01H12.5V27.51H15V25.01Z" fill="#E97523"/>
    <path d="M12.5 25.01H10V27.51H12.5V25.01Z" fill="#E97523"/>
    <path d="M10 25.01H7.5V27.51H10V25.01Z" fill="#E97523"/>
    <path d="M7.5 25.01H5V27.51H7.5V25.01Z" fill="#E97523"/>
    <path d="M5 25.01H2.5V27.51H5V25.01Z" fill="#AF3023"/>
    <path d="M2.5 25.01H0V27.51H2.5V25.01Z" fill="#620E27"/>
    <path d="M40.01 27.51H37.51V30.01H40.01V27.51Z" fill="#620E27"/>
    <path d="M37.51 27.51H35.01V30.01H37.51V27.51Z" fill="#AF3023"/>
    <path d="M35.01 27.51H32.51V30.01H35.01V27.51Z" fill="#E97523"/>
    <path d="M32.51 27.51H30.01V30.01H32.51V27.51Z" fill="#E97523"/>
    <path d="M30.01 27.51H27.51V30.01H30.01V27.51Z" fill="#E97523"/>
    <path d="M27.51 27.51H25.01V30.01H27.51V27.51Z" fill="#FBEED1"/>
    <path d="M25.01 27.51H22.51V30.01H25.01V27.51Z" fill="#FBEED1"/>
    <path d="M22.51 27.51H20.01V30.01H22.51V27.51Z" fill="#E97523"/>
    <path d="M20.01 27.51H17.51V30.01H20.01V27.51Z" fill="#E97523"/>
    <path d="M17.51 27.51H15.01V30.01H17.51V27.51Z" fill="#E97523"/>
    <path d="M15 27.51H12.5V30.01H15V27.51Z" fill="#E97523"/>
    <path d="M12.5 27.51H10V30.01H12.5V27.51Z" fill="#E97523"/>
    <path d="M10 27.51H7.5V30.01H10V27.51Z" fill="#E97523"/>
    <path d="M7.5 27.51H5V30.01H7.5V27.51Z" fill="#E97523"/>
    <path d="M5 27.51H2.5V30.01H5V27.51Z" fill="#AF3023"/>
    <path d="M2.5 27.51H0V30.01H2.5V27.51Z" fill="#620E27"/>
    <path d="M40.01 30.01H37.51V32.51H40.01V30.01Z" fill="#620E27"/>
    <path d="M37.51 30.01H35.01V32.51H37.51V30.01Z" fill="#AF3023"/>
    <path d="M35.01 30.01H32.51V32.51H35.01V30.01Z" fill="#E97523"/>
    <path d="M32.51 30.01H30.01V32.51H32.51V30.01Z" fill="#E97523"/>
    <path d="M30.01 30.01H27.51V32.51H30.01V30.01Z" fill="#E97523"/>
    <path d="M27.51 30.01H25.01V32.51H27.51V30.01Z" fill="#E97523"/>
    <path d="M25.01 30.01H22.51V32.51H25.01V30.01Z" fill="#E97523"/>
    <path d="M22.51 30.01H20.01V32.51H22.51V30.01Z" fill="#E97523"/>
    <path d="M20.01 30.01H17.51V32.51H20.01V30.01Z" fill="#E97523"/>
    <path d="M17.51 30.01H15.01V32.51H17.51V30.01Z" fill="#E97523"/>
    <path d="M15 30.01H12.5V32.51H15V30.01Z" fill="#E97523"/>
    <path d="M12.5 30.01H10V32.51H12.5V30.01Z" fill="#E97523"/>
    <path d="M10 30.01H7.5V32.51H10V30.01Z" fill="#E97523"/>
    <path d="M7.5 30.01H5V32.51H7.5V30.01Z" fill="#E97523"/>
    <path d="M5 30.01H2.5V32.51H5V30.01Z" fill="#AF3023"/>
    <path d="M2.5 30.01H0V32.51H2.5V30.01Z" fill="#620E27"/>
    <path d="M40.01 32.51H37.51V35.01H40.01V32.51Z" fill="#620E27"/>
    <path d="M37.51 32.51H35.01V35.01H37.51V32.51Z" fill="#AF3023"/>
    <path d="M35.01 32.51H32.51V35.01H35.01V32.51Z" fill="#AF3023"/>
    <path d="M32.51 32.51H30.01V35.01H32.51V32.51Z" fill="#E97523"/>
    <path d="M30.01 32.51H27.51V35.01H30.01V32.51Z" fill="#E97523"/>
    <path d="M27.51 32.51H25.01V35.01H27.51V32.51Z" fill="#E97523"/>
    <path d="M25.01 32.51H22.51V35.01H25.01V32.51Z" fill="#E97523"/>
    <path d="M22.51 32.51H20.01V35.01H22.51V32.51Z" fill="#E97523"/>
    <path d="M20.01 32.51H17.51V35.01H20.01V32.51Z" fill="#E97523"/>
    <path d="M17.51 32.51H15.01V35.01H17.51V32.51Z" fill="#E97523"/>
    <path d="M15 32.51H12.5V35.01H15V32.51Z" fill="#E97523"/>
    <path d="M12.5 32.51H10V35.01H12.5V32.51Z" fill="#E97523"/>
    <path d="M10 32.51H7.5V35.01H10V32.51Z" fill="#E97523"/>
    <path d="M7.5 32.51H5V35.01H7.5V32.51Z" fill="#AF3023"/>
    <path d="M5 32.51H2.5V35.01H5V32.51Z" fill="#AF3023"/>
    <path d="M2.5 32.51H0V35.01H2.5V32.51Z" fill="#620E27"/>
    <path d="M37.51 35.01H35.01V37.51H37.51V35.01Z" fill="#620E27"/>
    <path d="M35.01 35.01H32.51V37.51H35.01V35.01Z" fill="#AF3023"/>
    <path d="M32.51 35.01H30.01V37.51H32.51V35.01Z" fill="#AF3023"/>
    <path d="M30.01 35.01H27.51V37.51H30.01V35.01Z" fill="#AF3023"/>
    <path d="M27.51 35.01H25.01V37.51H27.51V35.01Z" fill="#AF3023"/>
    <path d="M25.01 35.01H22.51V37.51H25.01V35.01Z" fill="#AF3023"/>
    <path d="M22.51 35.01H20.01V37.51H22.51V35.01Z" fill="#AF3023"/>
    <path d="M20.01 35.01H17.51V37.51H20.01V35.01Z" fill="#AF3023"/>
    <path d="M17.51 35.01H15.01V37.51H17.51V35.01Z" fill="#AF3023"/>
    <path d="M15 35.01H12.5V37.51H15V35.01Z" fill="#AF3023"/>
    <path d="M12.5 35.01H10V37.51H12.5V35.01Z" fill="#AF3023"/>
    <path d="M10 35.01H7.5V37.51H10V35.01Z" fill="#AF3023"/>
    <path d="M7.5 35.01H5V37.51H7.5V35.01Z" fill="#AF3023"/>
    <path d="M5 35.01H2.5V37.51H5V35.01Z" fill="#620E27"/>
    <path d="M35.01 37.51H32.51V40.01H35.01V37.51Z" fill="#620E27"/>
    <path d="M32.51 37.51H30.01V40.01H32.51V37.51Z" fill="#620E27"/>
    <path d="M30.01 37.51H27.51V40.01H30.01V37.51Z" fill="#620E27"/>
    <path d="M27.51 37.51H25.01V40.01H27.51V37.51Z" fill="#620E27"/>
    <path d="M25.01 37.51H22.51V40.01H25.01V37.51Z" fill="#620E27"/>
    <path d="M22.51 37.51H20.01V40.01H22.51V37.51Z" fill="#620E27"/>
    <path d="M20.01 37.51H17.51V40.01H20.01V37.51Z" fill="#620E27"/>
    <path d="M17.51 37.51H15.01V40.01H17.51V37.51Z" fill="#620E27"/>
    <path d="M15 37.51H12.5V40.01H15V37.51Z" fill="#620E27"/>
    <path d="M12.5 37.51H10V40.01H12.5V37.51Z" fill="#620E27"/>
    <path d="M10 37.51H7.5V40.01H10V37.51Z" fill="#620E27"/>
    <path d="M7.5 37.51H5V40.01H7.5V37.51Z" fill="#620E27"/>
</svg>