<svg shape-rendering="crispEdges" width="100" height="100" viewBox="0 0 100 100" fill="none" xmlns="http://www.w3.org/2000/svg">
    <g clip-path="url(#clip0_910_8761)">
        <path d="M99.9991 78.7876H96.969V81.8185H99.9991V78.7876Z" fill="#231F20"/>
        <path d="M99.9991 75.7576H96.969V78.7877H99.9991V75.7576Z" fill="#231F20"/>
        <path d="M99.9991 72.7275H96.969V75.7576H99.9991V72.7275Z" fill="#231F20"/>
        <path d="M99.9991 69.6973H96.969V72.7274H99.9991V69.6973Z" fill="#231F20"/>
        <path d="M99.9991 66.6665H96.969V69.6966H99.9991V66.6665Z" fill="#231F20"/>
        <path d="M99.9991 63.6362H96.969V66.6663H99.9991V63.6362Z" fill="#231F20"/>
        <path d="M99.9991 51.5151H96.969V54.5452H99.9991V51.5151Z" fill="#231F20"/>
        <path d="M99.9991 48.4849H96.969V51.515H99.9991V48.4849Z" fill="#231F20"/>
        <path d="M99.9991 45.4548H96.969V48.4849H99.9991V45.4548Z" fill="#231F20"/>
        <path d="M99.9991 42.4238H96.969V45.4548H99.9991V42.4238Z" fill="#231F20"/>
        <path d="M99.9991 39.3938H96.969V42.4239H99.9991V39.3938Z" fill="#231F20"/>
        <path d="M99.9991 36.3638H96.969V39.3939H99.9991V36.3638Z" fill="#231F20"/>
        <path d="M99.9991 33.3335H96.969V36.3636H99.9991V33.3335Z" fill="#231F20"/>
        <path d="M99.9991 30.3035H96.969V33.3336H99.9991V30.3035Z" fill="#231F20"/>
        <path d="M99.9991 27.2725H96.969V30.3026H99.9991V27.2725Z" fill="#231F20"/>
        <path d="M99.9991 24.2424H96.969V27.2734H99.9991V24.2424Z" fill="#231F20"/>
        <path d="M99.9991 21.2124H96.969V24.2425H99.9991V21.2124Z" fill="#231F20"/>
        <path d="M96.9691 78.7876H93.939V81.8185H96.9691V78.7876Z" fill="#231F20"/>
        <path d="M96.9691 75.7576H93.939V78.7877H96.9691V75.7576Z" fill="#FF8431"/>
        <path d="M96.9691 72.7275H93.939V75.7576H96.9691V72.7275Z" fill="#FF8431"/>
        <path d="M96.9691 69.6973H93.939V72.7274H96.9691V69.6973Z" fill="#FF8431"/>
        <path d="M96.9691 66.6665H93.939V69.6966H96.9691V66.6665Z" fill="#DB6A1F"/>
        <path d="M96.9691 63.6362H93.939V66.6663H96.9691V63.6362Z" fill="#EFEFEF"/>
        <path d="M96.9691 60.6062H93.939V63.6372H96.9691V60.6062Z" fill="#231F20"/>
        <path d="M96.9691 51.5151H93.939V54.5452H96.9691V51.5151Z" fill="#231F20"/>
        <path d="M96.9691 48.4849H93.939V51.515H96.9691V48.4849Z" fill="#FF8431"/>
        <path d="M96.9691 45.4548H93.939V48.4849H96.9691V45.4548Z" fill="#FF8431"/>
        <path d="M96.9691 42.4238H93.939V45.4548H96.9691V42.4238Z" fill="#DB6A1F"/>
        <path d="M96.9691 39.3938H93.939V42.4239H96.9691V39.3938Z" fill="#EFEFEF"/>
        <path d="M96.9691 36.3638H93.939V39.3939H96.9691V36.3638Z" fill="#EFEFEF"/>
        <path d="M96.9691 33.3335H93.939V36.3636H96.9691V33.3335Z" fill="#EFEFEF"/>
        <path d="M96.9691 30.3035H93.939V33.3336H96.9691V30.3035Z" fill="#DB6A1F"/>
        <path d="M96.9691 27.2725H93.939V30.3026H96.9691V27.2725Z" fill="#FF8431"/>
        <path d="M96.9691 24.2424H93.939V27.2734H96.9691V24.2424Z" fill="#FF8431"/>
        <path d="M96.9691 21.2124H93.939V24.2425H96.9691V21.2124Z" fill="#DB6A1F"/>
        <path d="M96.9691 18.1814H93.939V21.2115H96.9691V18.1814Z" fill="#231F20"/>
        <path d="M93.939 78.7876H90.9089V81.8185H93.939V78.7876Z" fill="#231F20"/>
        <path d="M93.939 75.7576H90.9089V78.7877H93.939V75.7576Z" fill="#FF8431"/>
        <path d="M93.939 72.7275H90.9089V75.7576H93.939V72.7275Z" fill="#FF8431"/>
        <path d="M93.939 69.6973H90.9089V72.7274H93.939V69.6973Z" fill="#DB6A1F"/>
        <path d="M93.939 66.6665H90.9089V69.6966H93.939V66.6665Z" fill="#EFEFEF"/>
        <path d="M93.939 63.6362H90.9089V66.6663H93.939V63.6362Z" fill="#EFEFEF"/>
        <path d="M93.939 60.6062H90.9089V63.6372H93.939V60.6062Z" fill="#231F20"/>
        <path d="M93.939 51.5151H90.9089V54.5452H93.939V51.5151Z" fill="#231F20"/>
        <path d="M93.939 48.4849H90.9089V51.515H93.939V48.4849Z" fill="#FF8431"/>
        <path d="M93.939 45.4548H90.9089V48.4849H93.939V45.4548Z" fill="#DB6A1F"/>
        <path d="M93.939 42.4238H90.9089V45.4548H93.939V42.4238Z" fill="#EFEFEF"/>
        <path d="M93.939 39.3938H90.9089V42.4239H93.939V39.3938Z" fill="#EFEFEF"/>
        <path d="M93.939 36.3638H90.9089V39.3939H93.939V36.3638Z" fill="#EFEFEF"/>
        <path d="M93.939 33.3335H90.9089V36.3636H93.939V33.3335Z" fill="#DB6A1F"/>
        <path d="M93.939 30.3035H90.9089V33.3336H93.939V30.3035Z" fill="#FF8431"/>
        <path d="M93.939 27.2725H90.9089V30.3026H93.939V27.2725Z" fill="#FF8431"/>
        <path d="M93.939 24.2424H90.9089V27.2734H93.939V24.2424Z" fill="#DB6A1F"/>
        <path d="M93.939 21.2124H90.9089V24.2425H93.939V21.2124Z" fill="#EFEFEF"/>
        <path d="M93.939 18.1814H90.9089V21.2115H93.939V18.1814Z" fill="#231F20"/>
        <path d="M90.9088 78.7876H87.8787V81.8185H90.9088V78.7876Z" fill="#231F20"/>
        <path d="M90.9088 75.7576H87.8787V78.7877H90.9088V75.7576Z" fill="#FF8431"/>
        <path d="M90.9088 72.7275H87.8787V75.7576H90.9088V72.7275Z" fill="#DB6A1F"/>
        <path d="M90.9088 69.6973H87.8787V72.7274H90.9088V69.6973Z" fill="#EFEFEF"/>
        <path d="M90.9088 66.6665H87.8787V69.6966H90.9088V66.6665Z" fill="#EFEFEF"/>
        <path d="M90.9088 63.6362H87.8787V66.6663H90.9088V63.6362Z" fill="#EFEFEF"/>
        <path d="M90.9088 60.6062H87.8787V63.6372H90.9088V60.6062Z" fill="#231F20"/>
        <path d="M90.9088 51.5151H87.8787V54.5452H90.9088V51.5151Z" fill="#231F20"/>
        <path d="M90.9088 48.4849H87.8787V51.515H90.9088V48.4849Z" fill="#DB6A1F"/>
        <path d="M90.9088 45.4548H87.8787V48.4849H90.9088V45.4548Z" fill="#EFEFEF"/>
        <path d="M90.9088 42.4238H87.8787V45.4548H90.9088V42.4238Z" fill="#EFEFEF"/>
        <path d="M90.9088 39.3938H87.8787V42.4239H90.9088V39.3938Z" fill="#EFEFEF"/>
        <path d="M90.9088 36.3638H87.8787V39.3939H90.9088V36.3638Z" fill="#DB6A1F"/>
        <path d="M90.9088 33.3335H87.8787V36.3636H90.9088V33.3335Z" fill="#FF8431"/>
        <path d="M90.9088 30.3035H87.8787V33.3336H90.9088V30.3035Z" fill="#FF8431"/>
        <path d="M90.9088 27.2725H87.8787V30.3026H90.9088V27.2725Z" fill="#DB6A1F"/>
        <path d="M90.9088 24.2424H87.8787V27.2734H90.9088V24.2424Z" fill="#EFEFEF"/>
        <path d="M90.9088 21.2124H87.8787V24.2425H90.9088V21.2124Z" fill="#EFEFEF"/>
        <path d="M90.9088 18.1814H87.8787V21.2115H90.9088V18.1814Z" fill="#231F20"/>
        <path d="M87.8789 96.969H84.8479V100H87.8789V96.969Z" fill="#231F20"/>
        <path d="M87.8789 93.939H84.8479V96.9691H87.8789V93.939Z" fill="#231F20"/>
        <path d="M87.8789 78.7876H84.8479V81.8185H87.8789V78.7876Z" fill="#231F20"/>
        <path d="M87.8789 75.7576H84.8479V78.7877H87.8789V75.7576Z" fill="#DB6A1F"/>
        <path d="M87.8789 72.7275H84.8479V75.7576H87.8789V72.7275Z" fill="#EFEFEF"/>
        <path d="M87.8789 69.6973H84.8479V72.7274H87.8789V69.6973Z" fill="#EFEFEF"/>
        <path d="M87.8789 66.6665H84.8479V69.6966H87.8789V66.6665Z" fill="#EFEFEF"/>
        <path d="M87.8789 63.6362H84.8479V66.6663H87.8789V63.6362Z" fill="#DB6A1F"/>
        <path d="M87.8789 60.6062H84.8479V63.6372H87.8789V60.6062Z" fill="#231F20"/>
        <path d="M87.8789 51.5151H84.8479V54.5452H87.8789V51.5151Z" fill="#231F20"/>
        <path d="M87.8789 48.4849H84.8479V51.515H87.8789V48.4849Z" fill="#EFEFEF"/>
        <path d="M87.8789 45.4548H84.8479V48.4849H87.8789V45.4548Z" fill="#EFEFEF"/>
        <path d="M87.8789 42.4238H84.8479V45.4548H87.8789V42.4238Z" fill="#EFEFEF"/>
        <path d="M87.8789 39.3938H84.8479V42.4239H87.8789V39.3938Z" fill="#DB6A1F"/>
        <path d="M87.8789 36.3638H84.8479V39.3939H87.8789V36.3638Z" fill="#FF8431"/>
        <path d="M87.8789 33.3335H84.8479V36.3636H87.8789V33.3335Z" fill="#FF8431"/>
        <path d="M87.8789 30.3035H84.8479V33.3336H87.8789V30.3035Z" fill="#DB6A1F"/>
        <path d="M87.8789 27.2725H84.8479V30.3026H87.8789V27.2725Z" fill="#EFEFEF"/>
        <path d="M87.8789 24.2424H84.8479V27.2734H87.8789V24.2424Z" fill="#EFEFEF"/>
        <path d="M87.8789 21.2124H84.8479V24.2425H87.8789V21.2124Z" fill="#EFEFEF"/>
        <path d="M87.8789 18.1814H84.8479V21.2115H87.8789V18.1814Z" fill="#231F20"/>
        <path d="M87.8789 9.09106H84.8479V12.1212H87.8789V9.09106Z" fill="#231F20"/>
        <path d="M87.8789 6.0603H84.8479V9.09125H87.8789V6.0603Z" fill="#231F20"/>
        <path d="M87.8789 3.03003H84.8479V6.06013H87.8789V3.03003Z" fill="#231F20"/>
        <path d="M84.8477 96.969H81.8176V100H84.8477V96.969Z" fill="#231F20"/>
        <path d="M84.8477 93.939H81.8176V96.9691H84.8477V93.939Z" fill="#444444"/>
        <path d="M84.8477 90.9089H81.8176V93.939H84.8477V90.9089Z" fill="#231F20"/>
        <path d="M84.8477 87.8787H81.8176V90.9088H84.8477V87.8787Z" fill="#231F20"/>
        <path d="M84.8477 84.8486H81.8176V87.8787H84.8477V84.8486Z" fill="#231F20"/>
        <path d="M84.8477 81.8186H81.8176V84.8487H84.8477V81.8186Z" fill="#231F20"/>
        <path d="M84.8477 78.7876H81.8176V81.8185H84.8477V78.7876Z" fill="#231F20"/>
        <path d="M84.8477 75.7576H81.8176V78.7877H84.8477V75.7576Z" fill="#EFEFEF"/>
        <path d="M84.8477 72.7275H81.8176V75.7576H84.8477V72.7275Z" fill="#EFEFEF"/>
        <path d="M84.8477 69.6973H81.8176V72.7274H84.8477V69.6973Z" fill="#EFEFEF"/>
        <path d="M84.8477 66.6665H81.8176V69.6966H84.8477V66.6665Z" fill="#DB6A1F"/>
        <path d="M84.8477 63.6362H81.8176V66.6663H84.8477V63.6362Z" fill="#FF8431"/>
        <path d="M84.8477 60.6062H81.8176V63.6372H84.8477V60.6062Z" fill="#B54F16"/>
        <path d="M84.8477 57.5752H81.8176V60.6053H84.8477V57.5752Z" fill="#231F20"/>
        <path d="M84.8477 54.5452H81.8176V57.5753H84.8477V54.5452Z" fill="#231F20"/>
        <path d="M84.8477 51.5151H81.8176V54.5452H84.8477V51.5151Z" fill="#5E5E5E"/>
        <path d="M84.8477 48.4849H81.8176V51.515H84.8477V48.4849Z" fill="#EFEFEF"/>
        <path d="M84.8477 45.4548H81.8176V48.4849H84.8477V45.4548Z" fill="#EFEFEF"/>
        <path d="M84.8477 42.4238H81.8176V45.4548H84.8477V42.4238Z" fill="#DB6A1F"/>
        <path d="M84.8477 39.3938H81.8176V42.4239H84.8477V39.3938Z" fill="#FF8431"/>
        <path d="M84.8477 36.3638H81.8176V39.3939H84.8477V36.3638Z" fill="#FF8431"/>
        <path d="M84.8477 33.3335H81.8176V36.3636H84.8477V33.3335Z" fill="#DB6A1F"/>
        <path d="M84.8477 30.3035H81.8176V33.3336H84.8477V30.3035Z" fill="#EFEFEF"/>
        <path d="M84.8477 27.2725H81.8176V30.3026H84.8477V27.2725Z" fill="#EFEFEF"/>
        <path d="M84.8477 24.2424H81.8176V27.2734H84.8477V24.2424Z" fill="#EFEFEF"/>
        <path d="M84.8477 21.2124H81.8176V24.2425H84.8477V21.2124Z" fill="#DB6A1F"/>
        <path d="M84.8477 18.1814H81.8176V21.2115H84.8477V18.1814Z" fill="#231F20"/>
        <path d="M84.8477 15.1514H81.8176V18.1815H84.8477V15.1514Z" fill="#231F20"/>
        <path d="M84.8477 12.1213H81.8176V15.1514H84.8477V12.1213Z" fill="#231F20"/>
        <path d="M84.8477 9.09106H81.8176V12.1212H84.8477V9.09106Z" fill="#A01F1F"/>
        <path d="M84.8477 6.0603H81.8176V9.09125H84.8477V6.0603Z" fill="#A01F1F"/>
        <path d="M84.8477 3.03003H81.8176V6.06013H84.8477V3.03003Z" fill="#A01F1F"/>
        <path d="M84.8477 0H81.8176V3.0301H84.8477V0Z" fill="#231F20"/>
        <path d="M81.8177 96.969H78.7876V100H81.8177V96.969Z" fill="#231F20"/>
        <path d="M81.8177 93.939H78.7876V96.9691H81.8177V93.939Z" fill="#444444"/>
        <path d="M81.8177 90.9089H78.7876V93.939H81.8177V90.9089Z" fill="#ADADAD"/>
        <path d="M81.8177 87.8787H78.7876V90.9088H81.8177V87.8787Z" fill="#ADADAD"/>
        <path d="M81.8177 84.8486H78.7876V87.8787H81.8177V84.8486Z" fill="#ADADAD"/>
        <path d="M81.8177 81.8186H78.7876V84.8487H81.8177V81.8186Z" fill="#848484"/>
        <path d="M81.8177 78.7876H78.7876V81.8185H81.8177V78.7876Z" fill="#231F20"/>
        <path d="M81.8177 75.7576H78.7876V78.7877H81.8177V75.7576Z" fill="#EFEFEF"/>
        <path d="M81.8177 72.7275H78.7876V75.7576H81.8177V72.7275Z" fill="#EFEFEF"/>
        <path d="M81.8177 69.6973H78.7876V72.7274H81.8177V69.6973Z" fill="#DB6A1F"/>
        <path d="M81.8177 66.6665H78.7876V69.6966H81.8177V66.6665Z" fill="#FF8431"/>
        <path d="M81.8177 63.6362H78.7876V66.6663H81.8177V63.6362Z" fill="#FF8431"/>
        <path d="M81.8177 60.6062H78.7876V63.6372H81.8177V60.6062Z" fill="#B54F16"/>
        <path d="M81.8177 57.5752H78.7876V60.6053H81.8177V57.5752Z" fill="#ADADAD"/>
        <path d="M81.8177 54.5452H78.7876V57.5753H81.8177V54.5452Z" fill="#848484"/>
        <path d="M81.8177 51.5151H78.7876V54.5452H81.8177V51.5151Z" fill="#5E5E5E"/>
        <path d="M81.8177 48.4849H78.7876V51.515H81.8177V48.4849Z" fill="#EFEFEF"/>
        <path d="M81.8177 45.4548H78.7876V48.4849H81.8177V45.4548Z" fill="#DB6A1F"/>
        <path d="M81.8177 42.4238H78.7876V45.4548H81.8177V42.4238Z" fill="#FF8431"/>
        <path d="M81.8177 39.3938H78.7876V42.4239H81.8177V39.3938Z" fill="#FF8431"/>
        <path d="M81.8177 36.3638H78.7876V39.3939H81.8177V36.3638Z" fill="#DB6A1F"/>
        <path d="M81.8177 33.3335H78.7876V36.3636H81.8177V33.3335Z" fill="#EFEFEF"/>
        <path d="M81.8177 30.3035H78.7876V33.3336H81.8177V30.3035Z" fill="#EFEFEF"/>
        <path d="M81.8177 27.2725H78.7876V30.3026H81.8177V27.2725Z" fill="#EFEFEF"/>
        <path d="M81.8177 24.2424H78.7876V27.2734H81.8177V24.2424Z" fill="#DB6A1F"/>
        <path d="M81.8177 21.2124H78.7876V24.2425H81.8177V21.2124Z" fill="#FF8431"/>
        <path d="M81.8177 18.1814H78.7876V21.2115H81.8177V18.1814Z" fill="#231F20"/>
        <path d="M81.8177 15.1514H78.7876V18.1815H81.8177V15.1514Z" fill="#ADADAD"/>
        <path d="M81.8177 12.1213H78.7876V15.1514H81.8177V12.1213Z" fill="#600F0F"/>
        <path d="M81.8177 9.09106H78.7876V12.1212H81.8177V9.09106Z" fill="#A01F1F"/>
        <path d="M81.8177 6.0603H78.7876V9.09125H81.8177V6.0603Z" fill="#A01F1F"/>
        <path d="M81.8177 3.03003H78.7876V6.06013H81.8177V3.03003Z" fill="#DB4D4D"/>
        <path d="M81.8177 0H78.7876V3.0301H81.8177V0Z" fill="#231F20"/>
        <path d="M78.7877 96.969H75.7576V100H78.7877V96.969Z" fill="#231F20"/>
        <path d="M78.7877 93.939H75.7576V96.9691H78.7877V93.939Z" fill="#444444"/>
        <path d="M78.7877 90.9089H75.7576V93.939H78.7877V90.9089Z" fill="#ADADAD"/>
        <path d="M78.7877 87.8787H75.7576V90.9088H78.7877V87.8787Z" fill="#ADADAD"/>
        <path d="M78.7877 84.8486H75.7576V87.8787H78.7877V84.8486Z" fill="#ADADAD"/>
        <path d="M78.7877 81.8186H75.7576V84.8487H78.7877V81.8186Z" fill="#848484"/>
        <path d="M78.7877 78.7876H75.7576V81.8185H78.7877V78.7876Z" fill="#231F20"/>
        <path d="M78.7877 75.7576H75.7576V78.7877H78.7877V75.7576Z" fill="#EFEFEF"/>
        <path d="M78.7877 72.7275H75.7576V75.7576H78.7877V72.7275Z" fill="#DB6A1F"/>
        <path d="M78.7877 69.6973H75.7576V72.7274H78.7877V69.6973Z" fill="#FF8431"/>
        <path d="M78.7877 66.6665H75.7576V69.6966H78.7877V66.6665Z" fill="#FF8431"/>
        <path d="M78.7877 63.6362H75.7576V66.6663H78.7877V63.6362Z" fill="#DB6A1F"/>
        <path d="M78.7877 60.6062H75.7576V63.6372H78.7877V60.6062Z" fill="#B54F16"/>
        <path d="M78.7877 57.5752H75.7576V60.6053H78.7877V57.5752Z" fill="#ADADAD"/>
        <path d="M78.7877 54.5452H75.7576V57.5753H78.7877V54.5452Z" fill="#848484"/>
        <path d="M78.7877 51.5151H75.7576V54.5452H78.7877V51.5151Z" fill="#B54F16"/>
        <path d="M78.7877 48.4849H75.7576V51.515H78.7877V48.4849Z" fill="#DB6A1F"/>
        <path d="M78.7877 45.4548H75.7576V48.4849H78.7877V45.4548Z" fill="#FF8431"/>
        <path d="M78.7877 42.4238H75.7576V45.4548H78.7877V42.4238Z" fill="#FF8431"/>
        <path d="M78.7877 39.3938H75.7576V42.4239H78.7877V39.3938Z" fill="#DB6A1F"/>
        <path d="M78.7877 36.3638H75.7576V39.3939H78.7877V36.3638Z" fill="#EFEFEF"/>
        <path d="M78.7877 33.3335H75.7576V36.3636H78.7877V33.3335Z" fill="#EFEFEF"/>
        <path d="M78.7877 30.3035H75.7576V33.3336H78.7877V30.3035Z" fill="#EFEFEF"/>
        <path d="M78.7877 27.2725H75.7576V30.3026H78.7877V27.2725Z" fill="#DB6A1F"/>
        <path d="M78.7877 24.2424H75.7576V27.2734H78.7877V24.2424Z" fill="#FF8431"/>
        <path d="M78.7877 21.2124H75.7576V24.2425H78.7877V21.2124Z" fill="#FF8431"/>
        <path d="M78.7877 18.1814H75.7576V21.2115H78.7877V18.1814Z" fill="#231F20"/>
        <path d="M78.7877 15.1514H75.7576V18.1815H78.7877V15.1514Z" fill="#ADADAD"/>
        <path d="M78.7877 12.1213H75.7576V15.1514H78.7877V12.1213Z" fill="#600F0F"/>
        <path d="M78.7877 9.09106H75.7576V12.1212H78.7877V9.09106Z" fill="#A01F1F"/>
        <path d="M78.7877 6.0603H75.7576V9.09125H78.7877V6.0603Z" fill="#A01F1F"/>
        <path d="M78.7877 3.03003H75.7576V6.06013H78.7877V3.03003Z" fill="#DB4D4D"/>
        <path d="M78.7877 0H75.7576V3.0301H78.7877V0Z" fill="#231F20"/>
        <path d="M75.7576 96.969H72.7275V100H75.7576V96.969Z" fill="#231F20"/>
        <path d="M75.7576 93.939H72.7275V96.9691H75.7576V93.939Z" fill="#444444"/>
        <path d="M75.7576 90.9089H72.7275V93.939H75.7576V90.9089Z" fill="#231F20"/>
        <path d="M75.7576 87.8787H72.7275V90.9088H75.7576V87.8787Z" fill="#231F20"/>
        <path d="M75.7576 84.8486H72.7275V87.8787H75.7576V84.8486Z" fill="#231F20"/>
        <path d="M75.7576 81.8186H72.7275V84.8487H75.7576V81.8186Z" fill="#231F20"/>
        <path d="M75.7576 78.7876H72.7275V81.8185H75.7576V78.7876Z" fill="#231F20"/>
        <path d="M75.7576 75.7576H72.7275V78.7877H75.7576V75.7576Z" fill="#DB6A1F"/>
        <path d="M75.7576 72.7275H72.7275V75.7576H75.7576V72.7275Z" fill="#FF8431"/>
        <path d="M75.7576 69.6973H72.7275V72.7274H75.7576V69.6973Z" fill="#FF8431"/>
        <path d="M75.7576 66.6665H72.7275V69.6966H75.7576V66.6665Z" fill="#DB6A1F"/>
        <path d="M75.7576 63.6362H72.7275V66.6663H75.7576V63.6362Z" fill="#EFEFEF"/>
        <path d="M75.7576 60.6062H72.7275V63.6372H75.7576V60.6062Z" fill="#848484"/>
        <path d="M75.7576 57.5752H72.7275V60.6053H75.7576V57.5752Z" fill="#231F20"/>
        <path d="M75.7576 54.5452H72.7275V57.5753H75.7576V54.5452Z" fill="#231F20"/>
        <path d="M75.7576 51.5151H72.7275V54.5452H75.7576V51.5151Z" fill="#DB6A1F"/>
        <path d="M75.7576 48.4849H72.7275V51.515H75.7576V48.4849Z" fill="#FF8431"/>
        <path d="M75.7576 45.4548H72.7275V48.4849H75.7576V45.4548Z" fill="#FF8431"/>
        <path d="M75.7576 42.4238H72.7275V45.4548H75.7576V42.4238Z" fill="#DB6A1F"/>
        <path d="M75.7576 39.3938H72.7275V42.4239H75.7576V39.3938Z" fill="#EFEFEF"/>
        <path d="M75.7576 36.3638H72.7275V39.3939H75.7576V36.3638Z" fill="#EFEFEF"/>
        <path d="M75.7576 33.3335H72.7275V36.3636H75.7576V33.3335Z" fill="#EFEFEF"/>
        <path d="M75.7576 30.3035H72.7275V33.3336H75.7576V30.3035Z" fill="#DB6A1F"/>
        <path d="M75.7576 27.2725H72.7275V30.3026H75.7576V27.2725Z" fill="#FF8431"/>
        <path d="M75.7576 24.2424H72.7275V27.2734H75.7576V24.2424Z" fill="#FF8431"/>
        <path d="M75.7576 21.2124H72.7275V24.2425H75.7576V21.2124Z" fill="#DB6A1F"/>
        <path d="M75.7576 18.1814H72.7275V21.2115H75.7576V18.1814Z" fill="#231F20"/>
        <path d="M75.7576 15.1514H72.7275V18.1815H75.7576V15.1514Z" fill="#231F20"/>
        <path d="M75.7576 12.1213H72.7275V15.1514H75.7576V12.1213Z" fill="#231F20"/>
        <path d="M75.7576 9.09106H72.7275V12.1212H75.7576V9.09106Z" fill="#A01F1F"/>
        <path d="M75.7576 6.0603H72.7275V9.09125H75.7576V6.0603Z" fill="#DB4D4D"/>
        <path d="M75.7576 3.03003H72.7275V6.06013H75.7576V3.03003Z" fill="#DB4D4D"/>
        <path d="M75.7576 0H72.7275V3.0301H75.7576V0Z" fill="#231F20"/>
        <path d="M72.7274 96.969H69.6973V100H72.7274V96.969Z" fill="#231F20"/>
        <path d="M72.7274 93.939H69.6973V96.9691H72.7274V93.939Z" fill="#231F20"/>
        <path d="M72.7274 78.7876H69.6973V81.8185H72.7274V78.7876Z" fill="#231F20"/>
        <path d="M72.7274 75.7576H69.6973V78.7877H72.7274V75.7576Z" fill="#FF8431"/>
        <path d="M72.7274 72.7275H69.6973V75.7576H72.7274V72.7275Z" fill="#FF8431"/>
        <path d="M72.7274 69.6973H69.6973V72.7274H72.7274V69.6973Z" fill="#DB6A1F"/>
        <path d="M72.7274 66.6665H69.6973V69.6966H72.7274V66.6665Z" fill="#EFEFEF"/>
        <path d="M72.7274 63.6362H69.6973V66.6663H72.7274V63.6362Z" fill="#EFEFEF"/>
        <path d="M72.7274 60.6062H69.6973V63.6372H72.7274V60.6062Z" fill="#231F20"/>
        <path d="M72.7274 51.5151H69.6973V54.5452H72.7274V51.5151Z" fill="#231F20"/>
        <path d="M72.7274 48.4849H69.6973V51.515H72.7274V48.4849Z" fill="#FF8431"/>
        <path d="M72.7274 45.4548H69.6973V48.4849H72.7274V45.4548Z" fill="#DB6A1F"/>
        <path d="M72.7274 42.4238H69.6973V45.4548H72.7274V42.4238Z" fill="#EFEFEF"/>
        <path d="M72.7274 39.3938H69.6973V42.4239H72.7274V39.3938Z" fill="#EFEFEF"/>
        <path d="M72.7274 36.3638H69.6973V39.3939H72.7274V36.3638Z" fill="#EFEFEF"/>
        <path d="M72.7274 33.3335H69.6973V36.3636H72.7274V33.3335Z" fill="#DB6A1F"/>
        <path d="M72.7274 30.3035H69.6973V33.3336H72.7274V30.3035Z" fill="#FF8431"/>
        <path d="M72.7274 27.2725H69.6973V30.3026H72.7274V27.2725Z" fill="#FF8431"/>
        <path d="M72.7274 24.2424H69.6973V27.2734H72.7274V24.2424Z" fill="#DB6A1F"/>
        <path d="M72.7274 21.2124H69.6973V24.2425H72.7274V21.2124Z" fill="#EFEFEF"/>
        <path d="M72.7274 18.1814H69.6973V21.2115H72.7274V18.1814Z" fill="#231F20"/>
        <path d="M72.7274 9.09106H69.6973V12.1212H72.7274V9.09106Z" fill="#231F20"/>
        <path d="M72.7274 6.0603H69.6973V9.09125H72.7274V6.0603Z" fill="#231F20"/>
        <path d="M72.7274 3.03003H69.6973V6.06013H72.7274V3.03003Z" fill="#231F20"/>
        <path d="M69.6975 78.7876H66.6665V81.8185H69.6975V78.7876Z" fill="#231F20"/>
        <path d="M69.6975 75.7576H66.6665V78.7877H69.6975V75.7576Z" fill="#FF8431"/>
        <path d="M69.6975 72.7275H66.6665V75.7576H69.6975V72.7275Z" fill="#DB6A1F"/>
        <path d="M69.6975 69.6973H66.6665V72.7274H69.6975V69.6973Z" fill="#EFEFEF"/>
        <path d="M69.6975 66.6665H66.6665V69.6966H69.6975V66.6665Z" fill="#EFEFEF"/>
        <path d="M69.6975 63.6362H66.6665V66.6663H69.6975V63.6362Z" fill="#EFEFEF"/>
        <path d="M69.6975 60.6062H66.6665V63.6372H69.6975V60.6062Z" fill="#231F20"/>
        <path d="M69.6975 51.5151H66.6665V54.5452H69.6975V51.5151Z" fill="#231F20"/>
        <path d="M69.6975 48.4849H66.6665V51.515H69.6975V48.4849Z" fill="#DB6A1F"/>
        <path d="M69.6975 45.4548H66.6665V48.4849H69.6975V45.4548Z" fill="#EFEFEF"/>
        <path d="M69.6975 42.4238H66.6665V45.4548H69.6975V42.4238Z" fill="#EFEFEF"/>
        <path d="M69.6975 39.3938H66.6665V42.4239H69.6975V39.3938Z" fill="#EFEFEF"/>
        <path d="M69.6975 36.3638H66.6665V39.3939H69.6975V36.3638Z" fill="#DB6A1F"/>
        <path d="M69.6975 33.3335H66.6665V36.3636H69.6975V33.3335Z" fill="#FF8431"/>
        <path d="M69.6975 30.3035H66.6665V33.3336H69.6975V30.3035Z" fill="#FF8431"/>
        <path d="M69.6975 27.2725H66.6665V30.3026H69.6975V27.2725Z" fill="#DB6A1F"/>
        <path d="M69.6975 24.2424H66.6665V27.2734H69.6975V24.2424Z" fill="#EFEFEF"/>
        <path d="M69.6975 21.2124H66.6665V24.2425H69.6975V21.2124Z" fill="#EFEFEF"/>
        <path d="M69.6975 18.1814H66.6665V21.2115H69.6975V18.1814Z" fill="#231F20"/>
        <path d="M66.6663 78.7876H63.6362V81.8185H66.6663V78.7876Z" fill="#231F20"/>
        <path d="M66.6663 75.7576H63.6362V78.7877H66.6663V75.7576Z" fill="#DB6A1F"/>
        <path d="M66.6663 72.7275H63.6362V75.7576H66.6663V72.7275Z" fill="#EFEFEF"/>
        <path d="M66.6663 69.6973H63.6362V72.7274H66.6663V69.6973Z" fill="#EFEFEF"/>
        <path d="M66.6663 66.6665H63.6362V69.6966H66.6663V66.6665Z" fill="#EFEFEF"/>
        <path d="M66.6663 63.6362H63.6362V66.6663H66.6663V63.6362Z" fill="#DB6A1F"/>
        <path d="M66.6663 60.6062H63.6362V63.6372H66.6663V60.6062Z" fill="#231F20"/>
        <path d="M66.6663 51.5151H63.6362V54.5452H66.6663V51.5151Z" fill="#231F20"/>
        <path d="M66.6663 48.4849H63.6362V51.515H66.6663V48.4849Z" fill="#EFEFEF"/>
        <path d="M66.6663 45.4548H63.6362V48.4849H66.6663V45.4548Z" fill="#EFEFEF"/>
        <path d="M66.6663 42.4238H63.6362V45.4548H66.6663V42.4238Z" fill="#EFEFEF"/>
        <path d="M66.6663 39.3938H63.6362V42.4239H66.6663V39.3938Z" fill="#DB6A1F"/>
        <path d="M66.6663 36.3638H63.6362V39.3939H66.6663V36.3638Z" fill="#FF8431"/>
        <path d="M66.6663 33.3335H63.6362V36.3636H66.6663V33.3335Z" fill="#FF8431"/>
        <path d="M66.6663 30.3035H63.6362V33.3336H66.6663V30.3035Z" fill="#DB6A1F"/>
        <path d="M66.6663 27.2725H63.6362V30.3026H66.6663V27.2725Z" fill="#EFEFEF"/>
        <path d="M66.6663 24.2424H63.6362V27.2734H66.6663V24.2424Z" fill="#EFEFEF"/>
        <path d="M66.6663 21.2124H63.6362V24.2425H66.6663V21.2124Z" fill="#EFEFEF"/>
        <path d="M66.6663 18.1814H63.6362V21.2115H66.6663V18.1814Z" fill="#231F20"/>
        <path d="M63.6363 78.7876H60.6062V81.8185H63.6363V78.7876Z" fill="#231F20"/>
        <path d="M63.6363 75.7576H60.6062V78.7877H63.6363V75.7576Z" fill="#EFEFEF"/>
        <path d="M63.6363 72.7275H60.6062V75.7576H63.6363V72.7275Z" fill="#EFEFEF"/>
        <path d="M63.6363 69.6973H60.6062V72.7274H63.6363V69.6973Z" fill="#EFEFEF"/>
        <path d="M63.6363 66.6665H60.6062V69.6966H63.6363V66.6665Z" fill="#DB6A1F"/>
        <path d="M63.6363 63.6362H60.6062V66.6663H63.6363V63.6362Z" fill="#FF8431"/>
        <path d="M63.6363 60.6062H60.6062V63.6372H63.6363V60.6062Z" fill="#231F20"/>
        <path d="M63.6363 51.5151H60.6062V54.5452H63.6363V51.5151Z" fill="#231F20"/>
        <path d="M63.6363 48.4849H60.6062V51.515H63.6363V48.4849Z" fill="#EFEFEF"/>
        <path d="M63.6363 45.4548H60.6062V48.4849H63.6363V45.4548Z" fill="#EFEFEF"/>
        <path d="M63.6363 42.4238H60.6062V45.4548H63.6363V42.4238Z" fill="#DB6A1F"/>
        <path d="M63.6363 39.3938H60.6062V42.4239H63.6363V39.3938Z" fill="#FF8431"/>
        <path d="M63.6363 36.3638H60.6062V39.3939H63.6363V36.3638Z" fill="#FF8431"/>
        <path d="M63.6363 33.3335H60.6062V36.3636H63.6363V33.3335Z" fill="#DB6A1F"/>
        <path d="M63.6363 30.3035H60.6062V33.3336H63.6363V30.3035Z" fill="#EFEFEF"/>
        <path d="M63.6363 27.2725H60.6062V30.3026H63.6363V27.2725Z" fill="#EFEFEF"/>
        <path d="M63.6363 24.2424H60.6062V27.2734H63.6363V24.2424Z" fill="#EFEFEF"/>
        <path d="M63.6363 21.2124H60.6062V24.2425H63.6363V21.2124Z" fill="#DB6A1F"/>
        <path d="M63.6363 18.1814H60.6062V21.2115H63.6363V18.1814Z" fill="#231F20"/>
        <path d="M60.6053 78.7876H57.5752V81.8185H60.6053V78.7876Z" fill="#231F20"/>
        <path d="M60.6053 75.7576H57.5752V78.7877H60.6053V75.7576Z" fill="#EFEFEF"/>
        <path d="M60.6053 72.7275H57.5752V75.7576H60.6053V72.7275Z" fill="#EFEFEF"/>
        <path d="M60.6053 69.6973H57.5752V72.7274H60.6053V69.6973Z" fill="#DB6A1F"/>
        <path d="M60.6053 66.6665H57.5752V69.6966H60.6053V66.6665Z" fill="#FF8431"/>
        <path d="M60.6053 63.6362H57.5752V66.6663H60.6053V63.6362Z" fill="#FF8431"/>
        <path d="M60.6053 60.6062H57.5752V63.6372H60.6053V60.6062Z" fill="#231F20"/>
        <path d="M60.6053 51.5151H57.5752V54.5452H60.6053V51.5151Z" fill="#231F20"/>
        <path d="M60.6053 48.4849H57.5752V51.515H60.6053V48.4849Z" fill="#EFEFEF"/>
        <path d="M60.6053 45.4548H57.5752V48.4849H60.6053V45.4548Z" fill="#DB6A1F"/>
        <path d="M60.6053 42.4238H57.5752V45.4548H60.6053V42.4238Z" fill="#FF8431"/>
        <path d="M60.6053 39.3938H57.5752V42.4239H60.6053V39.3938Z" fill="#FF8431"/>
        <path d="M60.6053 36.3638H57.5752V39.3939H60.6053V36.3638Z" fill="#DB6A1F"/>
        <path d="M60.6053 33.3335H57.5752V36.3636H60.6053V33.3335Z" fill="#EFEFEF"/>
        <path d="M60.6053 30.3035H57.5752V33.3336H60.6053V30.3035Z" fill="#EFEFEF"/>
        <path d="M60.6053 27.2725H57.5752V30.3026H60.6053V27.2725Z" fill="#EFEFEF"/>
        <path d="M60.6053 24.2424H57.5752V27.2734H60.6053V24.2424Z" fill="#DB6A1F"/>
        <path d="M60.6053 21.2124H57.5752V24.2425H60.6053V21.2124Z" fill="#FF8431"/>
        <path d="M60.6053 18.1814H57.5752V21.2115H60.6053V18.1814Z" fill="#231F20"/>
        <path d="M57.5753 78.7876H54.5452V81.8185H57.5753V78.7876Z" fill="#231F20"/>
        <path d="M57.5753 75.7576H54.5452V78.7877H57.5753V75.7576Z" fill="#EFEFEF"/>
        <path d="M57.5753 72.7275H54.5452V75.7576H57.5753V72.7275Z" fill="#DB6A1F"/>
        <path d="M57.5753 69.6973H54.5452V72.7274H57.5753V69.6973Z" fill="#FF8431"/>
        <path d="M57.5753 66.6665H54.5452V69.6966H57.5753V66.6665Z" fill="#FF8431"/>
        <path d="M57.5753 63.6362H54.5452V66.6663H57.5753V63.6362Z" fill="#DB6A1F"/>
        <path d="M57.5753 60.6062H54.5452V63.6372H57.5753V60.6062Z" fill="#231F20"/>
        <path d="M57.5753 51.5151H54.5452V54.5452H57.5753V51.5151Z" fill="#231F20"/>
        <path d="M57.5753 48.4849H54.5452V51.515H57.5753V48.4849Z" fill="#DB6A1F"/>
        <path d="M57.5753 45.4548H54.5452V48.4849H57.5753V45.4548Z" fill="#FF8431"/>
        <path d="M57.5753 42.4238H54.5452V45.4548H57.5753V42.4238Z" fill="#FF8431"/>
        <path d="M57.5753 39.3938H54.5452V42.4239H57.5753V39.3938Z" fill="#DB6A1F"/>
        <path d="M57.5753 36.3638H54.5452V39.3939H57.5753V36.3638Z" fill="#EFEFEF"/>
        <path d="M57.5753 33.3335H54.5452V36.3636H57.5753V33.3335Z" fill="#EFEFEF"/>
        <path d="M57.5753 30.3035H54.5452V33.3336H57.5753V30.3035Z" fill="#EFEFEF"/>
        <path d="M57.5753 27.2725H54.5452V30.3026H57.5753V27.2725Z" fill="#DB6A1F"/>
        <path d="M57.5753 24.2424H54.5452V27.2734H57.5753V24.2424Z" fill="#FF8431"/>
        <path d="M57.5753 21.2124H54.5452V24.2425H57.5753V21.2124Z" fill="#FF8431"/>
        <path d="M57.5753 18.1814H54.5452V21.2115H57.5753V18.1814Z" fill="#231F20"/>
        <path d="M54.5452 78.7876H51.5151V81.8185H54.5452V78.7876Z" fill="#231F20"/>
        <path d="M54.5452 75.7576H51.5151V78.7877H54.5452V75.7576Z" fill="#DB6A1F"/>
        <path d="M54.5452 72.7275H51.5151V75.7576H54.5452V72.7275Z" fill="#FF8431"/>
        <path d="M54.5452 69.6973H51.5151V72.7274H54.5452V69.6973Z" fill="#FF8431"/>
        <path d="M54.5452 66.6665H51.5151V69.6966H54.5452V66.6665Z" fill="#DB6A1F"/>
        <path d="M54.5452 63.6362H51.5151V66.6663H54.5452V63.6362Z" fill="#EFEFEF"/>
        <path d="M54.5452 60.6062H51.5151V63.6372H54.5452V60.6062Z" fill="#231F20"/>
        <path d="M54.5452 51.5151H51.5151V54.5452H54.5452V51.5151Z" fill="#231F20"/>
        <path d="M54.5452 48.4849H51.5151V51.515H54.5452V48.4849Z" fill="#FF8431"/>
        <path d="M54.5452 45.4548H51.5151V48.4849H54.5452V45.4548Z" fill="#FF8431"/>
        <path d="M54.5452 42.4238H51.5151V45.4548H54.5452V42.4238Z" fill="#DB6A1F"/>
        <path d="M54.5452 39.3938H51.5151V42.4239H54.5452V39.3938Z" fill="#EFEFEF"/>
        <path d="M54.5452 36.3638H51.5151V39.3939H54.5452V36.3638Z" fill="#EFEFEF"/>
        <path d="M54.5452 33.3335H51.5151V36.3636H54.5452V33.3335Z" fill="#EFEFEF"/>
        <path d="M54.5452 30.3035H51.5151V33.3336H54.5452V30.3035Z" fill="#DB6A1F"/>
        <path d="M54.5452 27.2725H51.5151V30.3026H54.5452V27.2725Z" fill="#FF8431"/>
        <path d="M54.5452 24.2424H51.5151V27.2734H54.5452V24.2424Z" fill="#FF8431"/>
        <path d="M54.5452 21.2124H51.5151V24.2425H54.5452V21.2124Z" fill="#DB6A1F"/>
        <path d="M54.5452 18.1814H51.5151V21.2115H54.5452V18.1814Z" fill="#231F20"/>
        <path d="M51.5151 78.7876H48.4841V81.8185H51.5151V78.7876Z" fill="#231F20"/>
        <path d="M51.5151 75.7576H48.4841V78.7877H51.5151V75.7576Z" fill="#FF8431"/>
        <path d="M51.5151 72.7275H48.4841V75.7576H51.5151V72.7275Z" fill="#FF8431"/>
        <path d="M51.5151 69.6973H48.4841V72.7274H51.5151V69.6973Z" fill="#DB6A1F"/>
        <path d="M51.5151 66.6665H48.4841V69.6966H51.5151V66.6665Z" fill="#EFEFEF"/>
        <path d="M51.5151 63.6362H48.4841V66.6663H51.5151V63.6362Z" fill="#EFEFEF"/>
        <path d="M51.5151 60.6062H48.4841V63.6372H51.5151V60.6062Z" fill="#231F20"/>
        <path d="M51.5151 51.5151H48.4841V54.5452H51.5151V51.5151Z" fill="#231F20"/>
        <path d="M51.5151 48.4849H48.4841V51.515H51.5151V48.4849Z" fill="#FF8431"/>
        <path d="M51.5151 45.4548H48.4841V48.4849H51.5151V45.4548Z" fill="#DB6A1F"/>
        <path d="M51.5151 42.4238H48.4841V45.4548H51.5151V42.4238Z" fill="#EFEFEF"/>
        <path d="M51.5151 39.3938H48.4841V42.4239H51.5151V39.3938Z" fill="#EFEFEF"/>
        <path d="M51.5151 36.3638H48.4841V39.3939H51.5151V36.3638Z" fill="#EFEFEF"/>
        <path d="M51.5151 33.3335H48.4841V36.3636H51.5151V33.3335Z" fill="#DB6A1F"/>
        <path d="M51.5151 30.3035H48.4841V33.3336H51.5151V30.3035Z" fill="#FF8431"/>
        <path d="M51.5151 27.2725H48.4841V30.3026H51.5151V27.2725Z" fill="#FF8431"/>
        <path d="M51.5151 24.2424H48.4841V27.2734H51.5151V24.2424Z" fill="#DB6A1F"/>
        <path d="M51.5151 21.2124H48.4841V24.2425H51.5151V21.2124Z" fill="#EFEFEF"/>
        <path d="M51.5151 18.1814H48.4841V21.2115H51.5151V18.1814Z" fill="#231F20"/>
        <path d="M48.4842 78.7876H45.4541V81.8185H48.4842V78.7876Z" fill="#231F20"/>
        <path d="M48.4842 75.7576H45.4541V78.7877H48.4842V75.7576Z" fill="#FF8431"/>
        <path d="M48.4842 72.7275H45.4541V75.7576H48.4842V72.7275Z" fill="#DB6A1F"/>
        <path d="M48.4842 69.6973H45.4541V72.7274H48.4842V69.6973Z" fill="#EFEFEF"/>
        <path d="M48.4842 66.6665H45.4541V69.6966H48.4842V66.6665Z" fill="#EFEFEF"/>
        <path d="M48.4842 63.6362H45.4541V66.6663H48.4842V63.6362Z" fill="#EFEFEF"/>
        <path d="M48.4842 60.6062H45.4541V63.6372H48.4842V60.6062Z" fill="#231F20"/>
        <path d="M48.4842 51.5151H45.4541V54.5452H48.4842V51.5151Z" fill="#231F20"/>
        <path d="M48.4842 48.4849H45.4541V51.515H48.4842V48.4849Z" fill="#DB6A1F"/>
        <path d="M48.4842 45.4548H45.4541V48.4849H48.4842V45.4548Z" fill="#EFEFEF"/>
        <path d="M48.4842 42.4238H45.4541V45.4548H48.4842V42.4238Z" fill="#EFEFEF"/>
        <path d="M48.4842 39.3938H45.4541V42.4239H48.4842V39.3938Z" fill="#EFEFEF"/>
        <path d="M48.4842 36.3638H45.4541V39.3939H48.4842V36.3638Z" fill="#DB6A1F"/>
        <path d="M48.4842 33.3335H45.4541V36.3636H48.4842V33.3335Z" fill="#FF8431"/>
        <path d="M48.4842 30.3035H45.4541V33.3336H48.4842V30.3035Z" fill="#FF8431"/>
        <path d="M48.4842 27.2725H45.4541V30.3026H48.4842V27.2725Z" fill="#DB6A1F"/>
        <path d="M48.4842 24.2424H45.4541V27.2734H48.4842V24.2424Z" fill="#EFEFEF"/>
        <path d="M48.4842 21.2124H45.4541V24.2425H48.4842V21.2124Z" fill="#EFEFEF"/>
        <path d="M48.4842 18.1814H45.4541V21.2115H48.4842V18.1814Z" fill="#231F20"/>
        <path d="M45.4539 78.7876H42.4238V81.8185H45.4539V78.7876Z" fill="#231F20"/>
        <path d="M45.4539 75.7576H42.4238V78.7877H45.4539V75.7576Z" fill="#DB6A1F"/>
        <path d="M45.4539 72.7275H42.4238V75.7576H45.4539V72.7275Z" fill="#EFEFEF"/>
        <path d="M45.4539 69.6973H42.4238V72.7274H45.4539V69.6973Z" fill="#EFEFEF"/>
        <path d="M45.4539 66.6665H42.4238V69.6966H45.4539V66.6665Z" fill="#EFEFEF"/>
        <path d="M45.4539 63.6362H42.4238V66.6663H45.4539V63.6362Z" fill="#DB6A1F"/>
        <path d="M45.4539 60.6062H42.4238V63.6372H45.4539V60.6062Z" fill="#231F20"/>
        <path d="M45.4539 51.5151H42.4238V54.5452H45.4539V51.5151Z" fill="#231F20"/>
        <path d="M45.4539 48.4849H42.4238V51.515H45.4539V48.4849Z" fill="#EFEFEF"/>
        <path d="M45.4539 45.4548H42.4238V48.4849H45.4539V45.4548Z" fill="#EFEFEF"/>
        <path d="M45.4539 42.4238H42.4238V45.4548H45.4539V42.4238Z" fill="#EFEFEF"/>
        <path d="M45.4539 39.3938H42.4238V42.4239H45.4539V39.3938Z" fill="#DB6A1F"/>
        <path d="M45.4539 36.3638H42.4238V39.3939H45.4539V36.3638Z" fill="#FF8431"/>
        <path d="M45.4539 33.3335H42.4238V36.3636H45.4539V33.3335Z" fill="#FF8431"/>
        <path d="M45.4539 30.3035H42.4238V33.3336H45.4539V30.3035Z" fill="#DB6A1F"/>
        <path d="M45.4539 27.2725H42.4238V30.3026H45.4539V27.2725Z" fill="#EFEFEF"/>
        <path d="M45.4539 24.2424H42.4238V27.2734H45.4539V24.2424Z" fill="#EFEFEF"/>
        <path d="M45.4539 21.2124H42.4238V24.2425H45.4539V21.2124Z" fill="#EFEFEF"/>
        <path d="M45.4539 18.1814H42.4238V21.2115H45.4539V18.1814Z" fill="#231F20"/>
        <path d="M42.4239 78.7876H39.3938V81.8185H42.4239V78.7876Z" fill="#231F20"/>
        <path d="M42.4239 75.7576H39.3938V78.7877H42.4239V75.7576Z" fill="#EFEFEF"/>
        <path d="M42.4239 72.7275H39.3938V75.7576H42.4239V72.7275Z" fill="#EFEFEF"/>
        <path d="M42.4239 69.6973H39.3938V72.7274H42.4239V69.6973Z" fill="#EFEFEF"/>
        <path d="M42.4239 66.6665H39.3938V69.6966H42.4239V66.6665Z" fill="#DB6A1F"/>
        <path d="M42.4239 63.6362H39.3938V66.6663H42.4239V63.6362Z" fill="#FF8431"/>
        <path d="M42.4239 60.6062H39.3938V63.6372H42.4239V60.6062Z" fill="#231F20"/>
        <path d="M42.4239 51.5151H39.3938V54.5452H42.4239V51.5151Z" fill="#231F20"/>
        <path d="M42.4239 48.4849H39.3938V51.515H42.4239V48.4849Z" fill="#EFEFEF"/>
        <path d="M42.4239 45.4548H39.3938V48.4849H42.4239V45.4548Z" fill="#EFEFEF"/>
        <path d="M42.4239 42.4238H39.3938V45.4548H42.4239V42.4238Z" fill="#DB6A1F"/>
        <path d="M42.4239 39.3938H39.3938V42.4239H42.4239V39.3938Z" fill="#FF8431"/>
        <path d="M42.4239 36.3638H39.3938V39.3939H42.4239V36.3638Z" fill="#FF8431"/>
        <path d="M42.4239 33.3335H39.3938V36.3636H42.4239V33.3335Z" fill="#DB6A1F"/>
        <path d="M42.4239 30.3035H39.3938V33.3336H42.4239V30.3035Z" fill="#EFEFEF"/>
        <path d="M42.4239 27.2725H39.3938V30.3026H42.4239V27.2725Z" fill="#EFEFEF"/>
        <path d="M42.4239 24.2424H39.3938V27.2734H42.4239V24.2424Z" fill="#EFEFEF"/>
        <path d="M42.4239 21.2124H39.3938V24.2425H42.4239V21.2124Z" fill="#DB6A1F"/>
        <path d="M42.4239 18.1814H39.3938V21.2115H42.4239V18.1814Z" fill="#231F20"/>
        <path d="M39.3939 78.7876H36.3638V81.8185H39.3939V78.7876Z" fill="#231F20"/>
        <path d="M39.3939 75.7576H36.3638V78.7877H39.3939V75.7576Z" fill="#EFEFEF"/>
        <path d="M39.3939 72.7275H36.3638V75.7576H39.3939V72.7275Z" fill="#EFEFEF"/>
        <path d="M39.3939 69.6973H36.3638V72.7274H39.3939V69.6973Z" fill="#DB6A1F"/>
        <path d="M39.3939 66.6665H36.3638V69.6966H39.3939V66.6665Z" fill="#FF8431"/>
        <path d="M39.3939 63.6362H36.3638V66.6663H39.3939V63.6362Z" fill="#FF8431"/>
        <path d="M39.3939 60.6062H36.3638V63.6372H39.3939V60.6062Z" fill="#231F20"/>
        <path d="M39.3939 51.5151H36.3638V54.5452H39.3939V51.5151Z" fill="#231F20"/>
        <path d="M39.3939 48.4849H36.3638V51.515H39.3939V48.4849Z" fill="#EFEFEF"/>
        <path d="M39.3939 45.4548H36.3638V48.4849H39.3939V45.4548Z" fill="#DB6A1F"/>
        <path d="M39.3939 42.4238H36.3638V45.4548H39.3939V42.4238Z" fill="#FF8431"/>
        <path d="M39.3939 39.3938H36.3638V42.4239H39.3939V39.3938Z" fill="#FF8431"/>
        <path d="M39.3939 36.3638H36.3638V39.3939H39.3939V36.3638Z" fill="#DB6A1F"/>
        <path d="M39.3939 33.3335H36.3638V36.3636H39.3939V33.3335Z" fill="#EFEFEF"/>
        <path d="M39.3939 30.3035H36.3638V33.3336H39.3939V30.3035Z" fill="#EFEFEF"/>
        <path d="M39.3939 27.2725H36.3638V30.3026H39.3939V27.2725Z" fill="#EFEFEF"/>
        <path d="M39.3939 24.2424H36.3638V27.2734H39.3939V24.2424Z" fill="#DB6A1F"/>
        <path d="M39.3939 21.2124H36.3638V24.2425H39.3939V21.2124Z" fill="#FF8431"/>
        <path d="M39.3939 18.1814H36.3638V21.2115H39.3939V18.1814Z" fill="#231F20"/>
        <path d="M36.3636 78.7876H33.3335V81.8185H36.3636V78.7876Z" fill="#231F20"/>
        <path d="M36.3636 75.7576H33.3335V78.7877H36.3636V75.7576Z" fill="#EFEFEF"/>
        <path d="M36.3636 72.7275H33.3335V75.7576H36.3636V72.7275Z" fill="#DB6A1F"/>
        <path d="M36.3636 69.6973H33.3335V72.7274H36.3636V69.6973Z" fill="#FF8431"/>
        <path d="M36.3636 66.6665H33.3335V69.6966H36.3636V66.6665Z" fill="#FF8431"/>
        <path d="M36.3636 63.6362H33.3335V66.6663H36.3636V63.6362Z" fill="#DB6A1F"/>
        <path d="M36.3636 60.6062H33.3335V63.6372H36.3636V60.6062Z" fill="#231F20"/>
        <path d="M36.3636 51.5151H33.3335V54.5452H36.3636V51.5151Z" fill="#231F20"/>
        <path d="M36.3636 48.4849H33.3335V51.515H36.3636V48.4849Z" fill="#DB6A1F"/>
        <path d="M36.3636 45.4548H33.3335V48.4849H36.3636V45.4548Z" fill="#FF8431"/>
        <path d="M36.3636 42.4238H33.3335V45.4548H36.3636V42.4238Z" fill="#FF8431"/>
        <path d="M36.3636 39.3938H33.3335V42.4239H36.3636V39.3938Z" fill="#DB6A1F"/>
        <path d="M36.3636 36.3638H33.3335V39.3939H36.3636V36.3638Z" fill="#EFEFEF"/>
        <path d="M36.3636 33.3335H33.3335V36.3636H36.3636V33.3335Z" fill="#EFEFEF"/>
        <path d="M36.3636 30.3035H33.3335V33.3336H36.3636V30.3035Z" fill="#EFEFEF"/>
        <path d="M36.3636 27.2725H33.3335V30.3026H36.3636V27.2725Z" fill="#DB6A1F"/>
        <path d="M36.3636 24.2424H33.3335V27.2734H36.3636V24.2424Z" fill="#FF8431"/>
        <path d="M36.3636 21.2124H33.3335V24.2425H36.3636V21.2124Z" fill="#FF8431"/>
        <path d="M36.3636 18.1814H33.3335V21.2115H36.3636V18.1814Z" fill="#231F20"/>
        <path d="M33.3337 78.7876H30.3027V81.8185H33.3337V78.7876Z" fill="#231F20"/>
        <path d="M33.3337 75.7576H30.3027V78.7877H33.3337V75.7576Z" fill="#DB6A1F"/>
        <path d="M33.3337 72.7275H30.3027V75.7576H33.3337V72.7275Z" fill="#FF8431"/>
        <path d="M33.3337 69.6973H30.3027V72.7274H33.3337V69.6973Z" fill="#FF8431"/>
        <path d="M33.3337 66.6665H30.3027V69.6966H33.3337V66.6665Z" fill="#DB6A1F"/>
        <path d="M33.3337 63.6362H30.3027V66.6663H33.3337V63.6362Z" fill="#EFEFEF"/>
        <path d="M33.3337 60.6062H30.3027V63.6372H33.3337V60.6062Z" fill="#231F20"/>
        <path d="M33.3337 51.5151H30.3027V54.5452H33.3337V51.5151Z" fill="#231F20"/>
        <path d="M33.3337 48.4849H30.3027V51.515H33.3337V48.4849Z" fill="#FF8431"/>
        <path d="M33.3337 45.4548H30.3027V48.4849H33.3337V45.4548Z" fill="#FF8431"/>
        <path d="M33.3337 42.4238H30.3027V45.4548H33.3337V42.4238Z" fill="#DB6A1F"/>
        <path d="M33.3337 39.3938H30.3027V42.4239H33.3337V39.3938Z" fill="#EFEFEF"/>
        <path d="M33.3337 36.3638H30.3027V39.3939H33.3337V36.3638Z" fill="#EFEFEF"/>
        <path d="M33.3337 33.3335H30.3027V36.3636H33.3337V33.3335Z" fill="#EFEFEF"/>
        <path d="M33.3337 30.3035H30.3027V33.3336H33.3337V30.3035Z" fill="#DB6A1F"/>
        <path d="M33.3337 27.2725H30.3027V30.3026H33.3337V27.2725Z" fill="#FF8431"/>
        <path d="M33.3337 24.2424H30.3027V27.2734H33.3337V24.2424Z" fill="#FF8431"/>
        <path d="M33.3337 21.2124H30.3027V24.2425H33.3337V21.2124Z" fill="#DB6A1F"/>
        <path d="M33.3337 18.1814H30.3027V21.2115H33.3337V18.1814Z" fill="#231F20"/>
        <path d="M30.3026 96.969H27.2725V100H30.3026V96.969Z" fill="#231F20"/>
        <path d="M30.3026 93.939H27.2725V96.9691H30.3026V93.939Z" fill="#231F20"/>
        <path d="M30.3026 78.7876H27.2725V81.8185H30.3026V78.7876Z" fill="#231F20"/>
        <path d="M30.3026 75.7576H27.2725V78.7877H30.3026V75.7576Z" fill="#FF8431"/>
        <path d="M30.3026 72.7275H27.2725V75.7576H30.3026V72.7275Z" fill="#FF8431"/>
        <path d="M30.3026 69.6973H27.2725V72.7274H30.3026V69.6973Z" fill="#DB6A1F"/>
        <path d="M30.3026 66.6665H27.2725V69.6966H30.3026V66.6665Z" fill="#EFEFEF"/>
        <path d="M30.3026 63.6362H27.2725V66.6663H30.3026V63.6362Z" fill="#EFEFEF"/>
        <path d="M30.3026 60.6062H27.2725V63.6372H30.3026V60.6062Z" fill="#231F20"/>
        <path d="M30.3026 51.5151H27.2725V54.5452H30.3026V51.5151Z" fill="#231F20"/>
        <path d="M30.3026 48.4849H27.2725V51.515H30.3026V48.4849Z" fill="#FF8431"/>
        <path d="M30.3026 45.4548H27.2725V48.4849H30.3026V45.4548Z" fill="#DB6A1F"/>
        <path d="M30.3026 42.4238H27.2725V45.4548H30.3026V42.4238Z" fill="#EFEFEF"/>
        <path d="M30.3026 39.3938H27.2725V42.4239H30.3026V39.3938Z" fill="#EFEFEF"/>
        <path d="M30.3026 36.3638H27.2725V39.3939H30.3026V36.3638Z" fill="#EFEFEF"/>
        <path d="M30.3026 33.3335H27.2725V36.3636H30.3026V33.3335Z" fill="#DB6A1F"/>
        <path d="M30.3026 30.3035H27.2725V33.3336H30.3026V30.3035Z" fill="#FF8431"/>
        <path d="M30.3026 27.2725H27.2725V30.3026H30.3026V27.2725Z" fill="#FF8431"/>
        <path d="M30.3026 24.2424H27.2725V27.2734H30.3026V24.2424Z" fill="#DB6A1F"/>
        <path d="M30.3026 21.2124H27.2725V24.2425H30.3026V21.2124Z" fill="#EFEFEF"/>
        <path d="M30.3026 18.1814H27.2725V21.2115H30.3026V18.1814Z" fill="#231F20"/>
        <path d="M30.3026 9.09106H27.2725V12.1212H30.3026V9.09106Z" fill="#231F20"/>
        <path d="M30.3026 6.0603H27.2725V9.09125H30.3026V6.0603Z" fill="#231F20"/>
        <path d="M30.3026 3.03003H27.2725V6.06013H30.3026V3.03003Z" fill="#231F20"/>
        <path d="M27.2725 96.969H24.2424V100H27.2725V96.969Z" fill="#231F20"/>
        <path d="M27.2725 93.939H24.2424V96.9691H27.2725V93.939Z" fill="#444444"/>
        <path d="M27.2725 90.9089H24.2424V93.939H27.2725V90.9089Z" fill="#231F20"/>
        <path d="M27.2725 87.8787H24.2424V90.9088H27.2725V87.8787Z" fill="#231F20"/>
        <path d="M27.2725 84.8486H24.2424V87.8787H27.2725V84.8486Z" fill="#231F20"/>
        <path d="M27.2725 81.8186H24.2424V84.8487H27.2725V81.8186Z" fill="#231F20"/>
        <path d="M27.2725 78.7876H24.2424V81.8185H27.2725V78.7876Z" fill="#231F20"/>
        <path d="M27.2725 75.7576H24.2424V78.7877H27.2725V75.7576Z" fill="#FF8431"/>
        <path d="M27.2725 72.7275H24.2424V75.7576H27.2725V72.7275Z" fill="#DB6A1F"/>
        <path d="M27.2725 69.6973H24.2424V72.7274H27.2725V69.6973Z" fill="#EFEFEF"/>
        <path d="M27.2725 66.6665H24.2424V69.6966H27.2725V66.6665Z" fill="#EFEFEF"/>
        <path d="M27.2725 63.6362H24.2424V66.6663H27.2725V63.6362Z" fill="#EFEFEF"/>
        <path d="M27.2725 60.6062H24.2424V63.6372H27.2725V60.6062Z" fill="#B54F16"/>
        <path d="M27.2725 57.5752H24.2424V60.6053H27.2725V57.5752Z" fill="#231F20"/>
        <path d="M27.2725 54.5452H24.2424V57.5753H27.2725V54.5452Z" fill="#231F20"/>
        <path d="M27.2725 51.5151H24.2424V54.5452H27.2725V51.5151Z" fill="#B54F16"/>
        <path d="M27.2725 48.4849H24.2424V51.515H27.2725V48.4849Z" fill="#DB6A1F"/>
        <path d="M27.2725 45.4548H24.2424V48.4849H27.2725V45.4548Z" fill="#EFEFEF"/>
        <path d="M27.2725 42.4238H24.2424V45.4548H27.2725V42.4238Z" fill="#EFEFEF"/>
        <path d="M27.2725 39.3938H24.2424V42.4239H27.2725V39.3938Z" fill="#EFEFEF"/>
        <path d="M27.2725 36.3638H24.2424V39.3939H27.2725V36.3638Z" fill="#DB6A1F"/>
        <path d="M27.2725 33.3335H24.2424V36.3636H27.2725V33.3335Z" fill="#FF8431"/>
        <path d="M27.2725 30.3035H24.2424V33.3336H27.2725V30.3035Z" fill="#FF8431"/>
        <path d="M27.2725 27.2725H24.2424V30.3026H27.2725V27.2725Z" fill="#DB6A1F"/>
        <path d="M27.2725 24.2424H24.2424V27.2734H27.2725V24.2424Z" fill="#EFEFEF"/>
        <path d="M27.2725 21.2124H24.2424V24.2425H27.2725V21.2124Z" fill="#EFEFEF"/>
        <path d="M27.2725 18.1814H24.2424V21.2115H27.2725V18.1814Z" fill="#231F20"/>
        <path d="M27.2725 15.1514H24.2424V18.1815H27.2725V15.1514Z" fill="#231F20"/>
        <path d="M27.2725 12.1213H24.2424V15.1514H27.2725V12.1213Z" fill="#231F20"/>
        <path d="M27.2725 9.09106H24.2424V12.1212H27.2725V9.09106Z" fill="#A01F1F"/>
        <path d="M27.2725 6.0603H24.2424V9.09125H27.2725V6.0603Z" fill="#A01F1F"/>
        <path d="M27.2725 3.03003H24.2424V6.06013H27.2725V3.03003Z" fill="#A01F1F"/>
        <path d="M27.2725 0H24.2424V3.0301H27.2725V0Z" fill="#231F20"/>
        <path d="M24.2425 96.969H21.2124V100H24.2425V96.969Z" fill="#231F20"/>
        <path d="M24.2425 93.939H21.2124V96.9691H24.2425V93.939Z" fill="#444444"/>
        <path d="M24.2425 90.9089H21.2124V93.939H24.2425V90.9089Z" fill="#ADADAD"/>
        <path d="M24.2425 87.8787H21.2124V90.9088H24.2425V87.8787Z" fill="#ADADAD"/>
        <path d="M24.2425 84.8486H21.2124V87.8787H24.2425V84.8486Z" fill="#ADADAD"/>
        <path d="M24.2425 81.8186H21.2124V84.8487H24.2425V81.8186Z" fill="#848484"/>
        <path d="M24.2425 78.7876H21.2124V81.8185H24.2425V78.7876Z" fill="#231F20"/>
        <path d="M24.2425 75.7576H21.2124V78.7877H24.2425V75.7576Z" fill="#DB6A1F"/>
        <path d="M24.2425 72.7275H21.2124V75.7576H24.2425V72.7275Z" fill="#EFEFEF"/>
        <path d="M24.2425 69.6973H21.2124V72.7274H24.2425V69.6973Z" fill="#EFEFEF"/>
        <path d="M24.2425 66.6665H21.2124V69.6966H24.2425V66.6665Z" fill="#EFEFEF"/>
        <path d="M24.2425 63.6362H21.2124V66.6663H24.2425V63.6362Z" fill="#DB6A1F"/>
        <path d="M24.2425 60.6062H21.2124V63.6372H24.2425V60.6062Z" fill="#B54F16"/>
        <path d="M24.2425 57.5752H21.2124V60.6053H24.2425V57.5752Z" fill="#ADADAD"/>
        <path d="M24.2425 54.5452H21.2124V57.5753H24.2425V54.5452Z" fill="#848484"/>
        <path d="M24.2425 51.5151H21.2124V54.5452H24.2425V51.5151Z" fill="#5E5E5E"/>
        <path d="M24.2425 48.4849H21.2124V51.515H24.2425V48.4849Z" fill="#EFEFEF"/>
        <path d="M24.2425 45.4548H21.2124V48.4849H24.2425V45.4548Z" fill="#EFEFEF"/>
        <path d="M24.2425 42.4238H21.2124V45.4548H24.2425V42.4238Z" fill="#EFEFEF"/>
        <path d="M24.2425 39.3938H21.2124V42.4239H24.2425V39.3938Z" fill="#DB6A1F"/>
        <path d="M24.2425 36.3638H21.2124V39.3939H24.2425V36.3638Z" fill="#FF8431"/>
        <path d="M24.2425 33.3335H21.2124V36.3636H24.2425V33.3335Z" fill="#FF8431"/>
        <path d="M24.2425 30.3035H21.2124V33.3336H24.2425V30.3035Z" fill="#DB6A1F"/>
        <path d="M24.2425 27.2725H21.2124V30.3026H24.2425V27.2725Z" fill="#EFEFEF"/>
        <path d="M24.2425 24.2424H21.2124V27.2734H24.2425V24.2424Z" fill="#EFEFEF"/>
        <path d="M24.2425 21.2124H21.2124V24.2425H24.2425V21.2124Z" fill="#EFEFEF"/>
        <path d="M24.2425 18.1814H21.2124V21.2115H24.2425V18.1814Z" fill="#231F20"/>
        <path d="M24.2425 15.1514H21.2124V18.1815H24.2425V15.1514Z" fill="#ADADAD"/>
        <path d="M24.2425 12.1213H21.2124V15.1514H24.2425V12.1213Z" fill="#600F0F"/>
        <path d="M24.2425 9.09106H21.2124V12.1212H24.2425V9.09106Z" fill="#A01F1F"/>
        <path d="M24.2425 6.0603H21.2124V9.09125H24.2425V6.0603Z" fill="#A01F1F"/>
        <path d="M24.2425 3.03003H21.2124V6.06013H24.2425V3.03003Z" fill="#DB4D4D"/>
        <path d="M24.2425 0H21.2124V3.0301H24.2425V0Z" fill="#231F20"/>
        <path d="M21.2115 96.969H18.1814V100H21.2115V96.969Z" fill="#231F20"/>
        <path d="M21.2115 93.939H18.1814V96.9691H21.2115V93.939Z" fill="#444444"/>
        <path d="M21.2115 90.9089H18.1814V93.939H21.2115V90.9089Z" fill="#ADADAD"/>
        <path d="M21.2115 87.8787H18.1814V90.9088H21.2115V87.8787Z" fill="#ADADAD"/>
        <path d="M21.2115 84.8486H18.1814V87.8787H21.2115V84.8486Z" fill="#ADADAD"/>
        <path d="M21.2115 81.8186H18.1814V84.8487H21.2115V81.8186Z" fill="#848484"/>
        <path d="M21.2115 78.7876H18.1814V81.8185H21.2115V78.7876Z" fill="#231F20"/>
        <path d="M21.2115 75.7576H18.1814V78.7877H21.2115V75.7576Z" fill="#EFEFEF"/>
        <path d="M21.2115 72.7275H18.1814V75.7576H21.2115V72.7275Z" fill="#EFEFEF"/>
        <path d="M21.2115 69.6973H18.1814V72.7274H21.2115V69.6973Z" fill="#EFEFEF"/>
        <path d="M21.2115 66.6665H18.1814V69.6966H21.2115V66.6665Z" fill="#DB6A1F"/>
        <path d="M21.2115 63.6362H18.1814V66.6663H21.2115V63.6362Z" fill="#FF8431"/>
        <path d="M21.2115 60.6062H18.1814V63.6372H21.2115V60.6062Z" fill="#B54F16"/>
        <path d="M21.2115 57.5752H18.1814V60.6053H21.2115V57.5752Z" fill="#ADADAD"/>
        <path d="M21.2115 54.5452H18.1814V57.5753H21.2115V54.5452Z" fill="#848484"/>
        <path d="M21.2115 51.5151H18.1814V54.5452H21.2115V51.5151Z" fill="#5E5E5E"/>
        <path d="M21.2115 48.4849H18.1814V51.515H21.2115V48.4849Z" fill="#EFEFEF"/>
        <path d="M21.2115 45.4548H18.1814V48.4849H21.2115V45.4548Z" fill="#EFEFEF"/>
        <path d="M21.2115 42.4238H18.1814V45.4548H21.2115V42.4238Z" fill="#DB6A1F"/>
        <path d="M21.2115 39.3938H18.1814V42.4239H21.2115V39.3938Z" fill="#FF8431"/>
        <path d="M21.2115 36.3638H18.1814V39.3939H21.2115V36.3638Z" fill="#FF8431"/>
        <path d="M21.2115 33.3335H18.1814V36.3636H21.2115V33.3335Z" fill="#DB6A1F"/>
        <path d="M21.2115 30.3035H18.1814V33.3336H21.2115V30.3035Z" fill="#EFEFEF"/>
        <path d="M21.2115 27.2725H18.1814V30.3026H21.2115V27.2725Z" fill="#EFEFEF"/>
        <path d="M21.2115 24.2424H18.1814V27.2734H21.2115V24.2424Z" fill="#EFEFEF"/>
        <path d="M21.2115 21.2124H18.1814V24.2425H21.2115V21.2124Z" fill="#DB6A1F"/>
        <path d="M21.2115 18.1814H18.1814V21.2115H21.2115V18.1814Z" fill="#231F20"/>
        <path d="M21.2115 15.1514H18.1814V18.1815H21.2115V15.1514Z" fill="#ADADAD"/>
        <path d="M21.2115 12.1213H18.1814V15.1514H21.2115V12.1213Z" fill="#600F0F"/>
        <path d="M21.2115 9.09106H18.1814V12.1212H21.2115V9.09106Z" fill="#A01F1F"/>
        <path d="M21.2115 6.0603H18.1814V9.09125H21.2115V6.0603Z" fill="#A01F1F"/>
        <path d="M21.2115 3.03003H18.1814V6.06013H21.2115V3.03003Z" fill="#DB4D4D"/>
        <path d="M21.2115 0H18.1814V3.0301H21.2115V0Z" fill="#231F20"/>
        <path d="M18.1815 96.969H15.1514V100H18.1815V96.969Z" fill="#231F20"/>
        <path d="M18.1815 93.939H15.1514V96.9691H18.1815V93.939Z" fill="#444444"/>
        <path d="M18.1815 90.9089H15.1514V93.939H18.1815V90.9089Z" fill="#231F20"/>
        <path d="M18.1815 87.8787H15.1514V90.9088H18.1815V87.8787Z" fill="#231F20"/>
        <path d="M18.1815 84.8486H15.1514V87.8787H18.1815V84.8486Z" fill="#231F20"/>
        <path d="M18.1815 81.8186H15.1514V84.8487H18.1815V81.8186Z" fill="#231F20"/>
        <path d="M18.1815 78.7876H15.1514V81.8185H18.1815V78.7876Z" fill="#231F20"/>
        <path d="M18.1815 75.7576H15.1514V78.7877H18.1815V75.7576Z" fill="#EFEFEF"/>
        <path d="M18.1815 72.7275H15.1514V75.7576H18.1815V72.7275Z" fill="#EFEFEF"/>
        <path d="M18.1815 69.6973H15.1514V72.7274H18.1815V69.6973Z" fill="#DB6A1F"/>
        <path d="M18.1815 66.6665H15.1514V69.6966H18.1815V66.6665Z" fill="#FF8431"/>
        <path d="M18.1815 63.6362H15.1514V66.6663H18.1815V63.6362Z" fill="#FF8431"/>
        <path d="M18.1815 60.6062H15.1514V63.6372H18.1815V60.6062Z" fill="#B54F16"/>
        <path d="M18.1815 57.5752H15.1514V60.6053H18.1815V57.5752Z" fill="#231F20"/>
        <path d="M18.1815 54.5452H15.1514V57.5753H18.1815V54.5452Z" fill="#231F20"/>
        <path d="M18.1815 51.5151H15.1514V54.5452H18.1815V51.5151Z" fill="#5E5E5E"/>
        <path d="M18.1815 48.4849H15.1514V51.515H18.1815V48.4849Z" fill="#EFEFEF"/>
        <path d="M18.1815 45.4548H15.1514V48.4849H18.1815V45.4548Z" fill="#DB6A1F"/>
        <path d="M18.1815 42.4238H15.1514V45.4548H18.1815V42.4238Z" fill="#FF8431"/>
        <path d="M18.1815 39.3938H15.1514V42.4239H18.1815V39.3938Z" fill="#FF8431"/>
        <path d="M18.1815 36.3638H15.1514V39.3939H18.1815V36.3638Z" fill="#DB6A1F"/>
        <path d="M18.1815 33.3335H15.1514V36.3636H18.1815V33.3335Z" fill="#EFEFEF"/>
        <path d="M18.1815 30.3035H15.1514V33.3336H18.1815V30.3035Z" fill="#EFEFEF"/>
        <path d="M18.1815 27.2725H15.1514V30.3026H18.1815V27.2725Z" fill="#EFEFEF"/>
        <path d="M18.1815 24.2424H15.1514V27.2734H18.1815V24.2424Z" fill="#DB6A1F"/>
        <path d="M18.1815 21.2124H15.1514V24.2425H18.1815V21.2124Z" fill="#FF8431"/>
        <path d="M18.1815 18.1814H15.1514V21.2115H18.1815V18.1814Z" fill="#231F20"/>
        <path d="M18.1815 15.1514H15.1514V18.1815H18.1815V15.1514Z" fill="#231F20"/>
        <path d="M18.1815 12.1213H15.1514V15.1514H18.1815V12.1213Z" fill="#231F20"/>
        <path d="M18.1815 9.09106H15.1514V12.1212H18.1815V9.09106Z" fill="#A01F1F"/>
        <path d="M18.1815 6.0603H15.1514V9.09125H18.1815V6.0603Z" fill="#DB4D4D"/>
        <path d="M18.1815 3.03003H15.1514V6.06013H18.1815V3.03003Z" fill="#DB4D4D"/>
        <path d="M18.1815 0H15.1514V3.0301H18.1815V0Z" fill="#231F20"/>
        <path d="M15.1523 96.969H12.1213V100H15.1523V96.969Z" fill="#231F20"/>
        <path d="M15.1523 93.939H12.1213V96.9691H15.1523V93.939Z" fill="#231F20"/>
        <path d="M15.1523 78.7876H12.1213V81.8185H15.1523V78.7876Z" fill="#231F20"/>
        <path d="M15.1523 75.7576H12.1213V78.7877H15.1523V75.7576Z" fill="#EFEFEF"/>
        <path d="M15.1523 72.7275H12.1213V75.7576H15.1523V72.7275Z" fill="#DB6A1F"/>
        <path d="M15.1523 69.6973H12.1213V72.7274H15.1523V69.6973Z" fill="#FF8431"/>
        <path d="M15.1523 66.6665H12.1213V69.6966H15.1523V66.6665Z" fill="#FF8431"/>
        <path d="M15.1523 63.6362H12.1213V66.6663H15.1523V63.6362Z" fill="#DB6A1F"/>
        <path d="M15.1523 60.6062H12.1213V63.6372H15.1523V60.6062Z" fill="#231F20"/>
        <path d="M15.1523 51.5151H12.1213V54.5452H15.1523V51.5151Z" fill="#231F20"/>
        <path d="M15.1523 48.4849H12.1213V51.515H15.1523V48.4849Z" fill="#DB6A1F"/>
        <path d="M15.1523 45.4548H12.1213V48.4849H15.1523V45.4548Z" fill="#FF8431"/>
        <path d="M15.1523 42.4238H12.1213V45.4548H15.1523V42.4238Z" fill="#FF8431"/>
        <path d="M15.1523 39.3938H12.1213V42.4239H15.1523V39.3938Z" fill="#DB6A1F"/>
        <path d="M15.1523 36.3638H12.1213V39.3939H15.1523V36.3638Z" fill="#EFEFEF"/>
        <path d="M15.1523 33.3335H12.1213V36.3636H15.1523V33.3335Z" fill="#EFEFEF"/>
        <path d="M15.1523 30.3035H12.1213V33.3336H15.1523V30.3035Z" fill="#EFEFEF"/>
        <path d="M15.1523 27.2725H12.1213V30.3026H15.1523V27.2725Z" fill="#DB6A1F"/>
        <path d="M15.1523 24.2424H12.1213V27.2734H15.1523V24.2424Z" fill="#FF8431"/>
        <path d="M15.1523 21.2124H12.1213V24.2425H15.1523V21.2124Z" fill="#FF8431"/>
        <path d="M15.1523 18.1814H12.1213V21.2115H15.1523V18.1814Z" fill="#231F20"/>
        <path d="M15.1523 9.09106H12.1213V12.1212H15.1523V9.09106Z" fill="#231F20"/>
        <path d="M15.1523 6.0603H12.1213V9.09125H15.1523V6.0603Z" fill="#231F20"/>
        <path d="M15.1523 3.03003H12.1213V6.06013H15.1523V3.03003Z" fill="#231F20"/>
        <path d="M12.1204 78.7876H9.09033V81.8185H12.1204V78.7876Z" fill="#231F20"/>
        <path d="M12.1204 75.7576H9.09033V78.7877H12.1204V75.7576Z" fill="#DB6A1F"/>
        <path d="M12.1204 72.7275H9.09033V75.7576H12.1204V72.7275Z" fill="#FF8431"/>
        <path d="M12.1204 69.6973H9.09033V72.7274H12.1204V69.6973Z" fill="#FF8431"/>
        <path d="M12.1204 66.6665H9.09033V69.6966H12.1204V66.6665Z" fill="#DB6A1F"/>
        <path d="M12.1204 63.6362H9.09033V66.6663H12.1204V63.6362Z" fill="#EFEFEF"/>
        <path d="M12.1204 60.6062H9.09033V63.6372H12.1204V60.6062Z" fill="#231F20"/>
        <path d="M12.1204 51.5151H9.09033V54.5452H12.1204V51.5151Z" fill="#231F20"/>
        <path d="M12.1204 48.4849H9.09033V51.515H12.1204V48.4849Z" fill="#FF8431"/>
        <path d="M12.1204 45.4548H9.09033V48.4849H12.1204V45.4548Z" fill="#FF8431"/>
        <path d="M12.1204 42.4238H9.09033V45.4548H12.1204V42.4238Z" fill="#DB6A1F"/>
        <path d="M12.1204 39.3938H9.09033V42.4239H12.1204V39.3938Z" fill="#EFEFEF"/>
        <path d="M12.1204 36.3638H9.09033V39.3939H12.1204V36.3638Z" fill="#EFEFEF"/>
        <path d="M12.1204 33.3335H9.09033V36.3636H12.1204V33.3335Z" fill="#EFEFEF"/>
        <path d="M12.1204 30.3035H9.09033V33.3336H12.1204V30.3035Z" fill="#DB6A1F"/>
        <path d="M12.1204 27.2725H9.09033V30.3026H12.1204V27.2725Z" fill="#FF8431"/>
        <path d="M12.1204 24.2424H9.09033V27.2734H12.1204V24.2424Z" fill="#FF8431"/>
        <path d="M12.1204 21.2124H9.09033V24.2425H12.1204V21.2124Z" fill="#FF8431"/>
        <path d="M12.1204 18.1814H9.09033V21.2115H12.1204V18.1814Z" fill="#231F20"/>
        <path d="M9.0904 78.7876H6.0603V81.8185H9.0904V78.7876Z" fill="#231F20"/>
        <path d="M9.0904 75.7576H6.0603V78.7877H9.0904V75.7576Z" fill="#FF8431"/>
        <path d="M9.0904 72.7275H6.0603V75.7576H9.0904V72.7275Z" fill="#FF8431"/>
        <path d="M9.0904 69.6973H6.0603V72.7274H9.0904V69.6973Z" fill="#DB6A1F"/>
        <path d="M9.0904 66.6665H6.0603V69.6966H9.0904V66.6665Z" fill="#EFEFEF"/>
        <path d="M9.0904 63.6362H6.0603V66.6663H9.0904V63.6362Z" fill="#EFEFEF"/>
        <path d="M9.0904 60.6062H6.0603V63.6372H9.0904V60.6062Z" fill="#231F20"/>
        <path d="M9.0904 51.5151H6.0603V54.5452H9.0904V51.5151Z" fill="#231F20"/>
        <path d="M9.0904 48.4849H6.0603V51.515H9.0904V48.4849Z" fill="#FF8431"/>
        <path d="M9.0904 45.4548H6.0603V48.4849H9.0904V45.4548Z" fill="#DB6A1F"/>
        <path d="M9.0904 42.4238H6.0603V45.4548H9.0904V42.4238Z" fill="#EFEFEF"/>
        <path d="M9.0904 39.3938H6.0603V42.4239H9.0904V39.3938Z" fill="#EFEFEF"/>
        <path d="M9.0904 36.3638H6.0603V39.3939H9.0904V36.3638Z" fill="#EFEFEF"/>
        <path d="M9.0904 33.3335H6.0603V36.3636H9.0904V33.3335Z" fill="#DB6A1F"/>
        <path d="M9.0904 30.3035H6.0603V33.3336H9.0904V30.3035Z" fill="#FF8431"/>
        <path d="M9.0904 27.2725H6.0603V30.3026H9.0904V27.2725Z" fill="#FF8431"/>
        <path d="M9.0904 24.2424H6.0603V27.2734H9.0904V24.2424Z" fill="#FF8431"/>
        <path d="M9.0904 21.2124H6.0603V24.2425H9.0904V21.2124Z" fill="#DB6A1F"/>
        <path d="M9.0904 18.1814H6.0603V21.2115H9.0904V18.1814Z" fill="#231F20"/>
        <path d="M6.06013 78.7876H3.03003V81.8185H6.06013V78.7876Z" fill="#231F20"/>
        <path d="M6.06013 75.7576H3.03003V78.7877H6.06013V75.7576Z" fill="#FF8431"/>
        <path d="M6.06013 72.7275H3.03003V75.7576H6.06013V72.7275Z" fill="#DB6A1F"/>
        <path d="M6.06013 69.6973H3.03003V72.7274H6.06013V69.6973Z" fill="#EFEFEF"/>
        <path d="M6.06013 66.6665H3.03003V69.6966H6.06013V66.6665Z" fill="#EFEFEF"/>
        <path d="M6.06013 63.6362H3.03003V66.6663H6.06013V63.6362Z" fill="#EFEFEF"/>
        <path d="M6.06013 60.6062H3.03003V63.6372H6.06013V60.6062Z" fill="#231F20"/>
        <path d="M6.06013 51.5151H3.03003V54.5452H6.06013V51.5151Z" fill="#231F20"/>
        <path d="M6.06013 48.4849H3.03003V51.515H6.06013V48.4849Z" fill="#DB6A1F"/>
        <path d="M6.06013 45.4548H3.03003V48.4849H6.06013V45.4548Z" fill="#EFEFEF"/>
        <path d="M6.06013 42.4238H3.03003V45.4548H6.06013V42.4238Z" fill="#EFEFEF"/>
        <path d="M6.06013 39.3938H3.03003V42.4239H6.06013V39.3938Z" fill="#EFEFEF"/>
        <path d="M6.06013 36.3638H3.03003V39.3939H6.06013V36.3638Z" fill="#DB6A1F"/>
        <path d="M6.06013 33.3335H3.03003V36.3636H6.06013V33.3335Z" fill="#FF8431"/>
        <path d="M6.06013 30.3035H3.03003V33.3336H6.06013V30.3035Z" fill="#FF8431"/>
        <path d="M6.06013 27.2725H3.03003V30.3026H6.06013V27.2725Z" fill="#FF8431"/>
        <path d="M6.06013 24.2424H3.03003V27.2734H6.06013V24.2424Z" fill="#DB6A1F"/>
        <path d="M6.06013 21.2124H3.03003V24.2425H6.06013V21.2124Z" fill="#EFEFEF"/>
        <path d="M6.06013 18.1814H3.03003V21.2115H6.06013V18.1814Z" fill="#231F20"/>
        <path d="M3.0301 78.7876H0V81.8185H3.0301V78.7876Z" fill="#231F20"/>
        <path d="M3.0301 75.7576H0V78.7877H3.0301V75.7576Z" fill="#231F20"/>
        <path d="M3.0301 72.7275H0V75.7576H3.0301V72.7275Z" fill="#231F20"/>
        <path d="M3.0301 69.6973H0V72.7274H3.0301V69.6973Z" fill="#231F20"/>
        <path d="M3.0301 66.6665H0V69.6966H3.0301V66.6665Z" fill="#231F20"/>
        <path d="M3.0301 63.6362H0V66.6663H3.0301V63.6362Z" fill="#231F20"/>
        <path d="M3.0301 51.5151H0V54.5452H3.0301V51.5151Z" fill="#231F20"/>
        <path d="M3.0301 48.4849H0V51.515H3.0301V48.4849Z" fill="#231F20"/>
        <path d="M3.0301 45.4548H0V48.4849H3.0301V45.4548Z" fill="#231F20"/>
        <path d="M3.0301 42.4238H0V45.4548H3.0301V42.4238Z" fill="#231F20"/>
        <path d="M3.0301 39.3938H0V42.4239H3.0301V39.3938Z" fill="#231F20"/>
        <path d="M3.0301 36.3638H0V39.3939H3.0301V36.3638Z" fill="#231F20"/>
        <path d="M3.0301 33.3335H0V36.3636H3.0301V33.3335Z" fill="#231F20"/>
        <path d="M3.0301 30.3035H0V33.3336H3.0301V30.3035Z" fill="#231F20"/>
        <path d="M3.0301 27.2725H0V30.3026H3.0301V27.2725Z" fill="#231F20"/>
        <path d="M3.0301 24.2424H0V27.2734H3.0301V24.2424Z" fill="#231F20"/>
        <path d="M3.0301 21.2124H0V24.2425H3.0301V21.2124Z" fill="#231F20"/>
    </g>
    <defs>
        <clipPath id="clip0_910_8761">
            <rect width="100" height="100" fill="white"/>
        </clipPath>
    </defs>
</svg>