<svg shape-rendering="crispEdges" width="99" height="42" viewBox="0 0 99 42" fill="none" xmlns="http://www.w3.org/2000/svg">
    <path d="M18.2732 14.604H16.4431V16.434H18.2732V14.604Z" fill="black"/>
    <path d="M18.2732 12.7831H16.4431V14.6131H18.2732V12.7831Z" fill="black"/>
    <path d="M18.2732 9.12292H16.4431V10.953H18.2732V9.12292Z" fill="black"/>
    <path d="M18.2732 7.302H16.4431V9.13206H18.2732V7.302Z" fill="black"/>
    <path d="M18.2732 5.47192H16.4431V7.30198H18.2732V5.47192Z" fill="black"/>
    <path d="M20.0941 3.65097H18.264V5.48102H20.0941V3.65097Z" fill="black"/>
    <path d="M21.9241 3.65097H20.0941V5.48102H21.9241V3.65097Z" fill="black"/>
    <path d="M23.7451 3.65097H21.915V5.48102H23.7451V3.65097Z" fill="black"/>
    <path d="M25.5751 3.65097H23.7451V5.48102H25.5751V3.65097Z" fill="black"/>
    <path d="M27.4052 3.65097H25.5751V5.48102H27.4052V3.65097Z" fill="black"/>
    <path d="M29.2261 5.47192H27.3961V7.30198H29.2261V5.47192Z" fill="black"/>
    <path d="M29.2261 7.302H27.3961V9.13206H29.2261V7.302Z" fill="black"/>
    <path d="M29.2261 9.12292H27.3961V10.953H29.2261V9.12292Z" fill="black"/>
    <path d="M18.2732 10.953H16.4431V12.7831H18.2732V10.953Z" fill="black"/>
    <path d="M29.2261 10.953H27.3961V12.7831H29.2261V10.953Z" fill="#A582CF"/>
    <path d="M29.2261 12.7831H27.3961V14.6131H29.2261V12.7831Z" fill="#A582CF"/>
    <path d="M29.2261 14.604H27.3961V16.434H29.2261V14.604Z" fill="#ECECEC"/>
    <path d="M27.4052 5.47192H25.5751V7.30198H27.4052V5.47192Z" fill="#777777"/>
    <path d="M27.4052 7.302H25.5751V9.13206H27.4052V7.302Z" fill="black"/>
    <path d="M27.4052 9.12292H25.5751V10.953H27.4052V9.12292Z" fill="black"/>
    <path d="M27.4052 10.953H25.5751V12.7831H27.4052V10.953Z" fill="#A582CF"/>
    <path d="M27.4052 12.7831H25.5751V14.6131H27.4052V12.7831Z" fill="black"/>
    <path d="M27.4052 14.604H25.5751V16.434H27.4052V14.604Z" fill="#ECECEC"/>
    <path d="M27.4052 12.7831H25.5751V14.6131H27.4052V12.7831Z" fill="#A582CF"/>
    <path d="M25.5751 5.47192H23.7451V7.30198H25.5751V5.47192Z" fill="#777777"/>
    <path d="M25.5751 7.302H23.7451V9.13206H25.5751V7.302Z" fill="black"/>
    <path d="M25.5751 9.12292H23.7451V10.953H25.5751V9.12292Z" fill="black"/>
    <path d="M25.5751 10.953H23.7451V12.7831H25.5751V10.953Z" fill="#A582CF"/>
    <path d="M25.5751 12.7831H23.7451V14.6131H25.5751V12.7831Z" fill="#A582CF"/>
    <path d="M25.5751 14.604H23.7451V16.434H25.5751V14.604Z" fill="#ECECEC"/>
    <path d="M23.7451 5.47192H21.915V7.30198H23.7451V5.47192Z" fill="#777777"/>
    <path d="M23.7451 7.302H21.915V9.13206H23.7451V7.302Z" fill="black"/>
    <path d="M23.7451 9.12292H21.915V10.953H23.7451V9.12292Z" fill="black"/>
    <path d="M23.7451 10.953H21.915V12.7831H23.7451V10.953Z" fill="black"/>
    <path d="M23.7451 12.7831H21.915V14.6131H23.7451V12.7831Z" fill="#A582CF"/>
    <path d="M23.7451 14.604H21.915V16.434H23.7451V14.604Z" fill="#A582CF"/>
    <path d="M21.9241 5.47192H20.0941V7.30198H21.9241V5.47192Z" fill="black"/>
    <path d="M21.9241 7.302H20.0941V9.13206H21.9241V7.302Z" fill="black"/>
    <path d="M21.9241 9.12292H20.0941V10.953H21.9241V9.12292Z" fill="black"/>
    <path d="M21.9241 10.953H20.0941V12.7831H21.9241V10.953Z" fill="black"/>
    <path d="M21.9241 12.7831H20.0941V14.6131H21.9241V12.7831Z" fill="black"/>
    <path d="M21.9241 14.604H20.0941V16.434H21.9241V14.604Z" fill="black"/>
    <path d="M20.0941 5.47192H18.264V7.30198H20.0941V5.47192Z" fill="#777777"/>
    <path d="M20.0941 7.302H18.264V9.13206H20.0941V7.302Z" fill="black"/>
    <path d="M20.0941 9.12292H18.264V10.953H20.0941V9.12292Z" fill="black"/>
    <path d="M20.0941 10.953H18.264V12.7831H20.0941V10.953Z" fill="black"/>
    <path d="M20.0941 12.7831H18.264V14.6131H20.0941V12.7831Z" fill="black"/>
    <path d="M20.0941 14.604H18.264V16.434H20.0941V14.604Z" fill="black"/>
    <path d="M20.0941 16.434H18.264V18.2641H20.0941V16.434Z" fill="black"/>
    <path d="M16.4431 14.604H14.613V16.434H16.4431V14.604Z" fill="#5D7769"/>
    <path d="M16.4431 16.434H14.613V18.2641H16.4431V16.434Z" fill="#5D7769"/>
    <path d="M16.4431 12.7831H14.613V14.6131H16.4431V12.7831Z" fill="#5D7769"/>
    <path d="M16.4431 9.12292H14.613V10.953H16.4431V9.12292Z" fill="#5D7769"/>
    <path d="M16.4431 10.953H14.613V12.7831H16.4431V10.953Z" fill="#5D7769"/>
    <path d="M18.2732 16.434H16.4431V18.2641H18.2732V16.434Z" fill="#5D7769"/>
    <path d="M18.2732 18.2549H16.4431V20.085H18.2732V18.2549Z" fill="#5D7769"/>
    <path d="M20.0941 21.915H18.264V23.7451H20.0941V21.915Z" fill="#5D7769"/>
    <path d="M20.0941 20.085H18.264V21.915H20.0941V20.085Z" fill="#5D7769"/>
    <path d="M20.0941 18.2549H18.264V20.085H20.0941V18.2549Z" fill="#5D7769"/>
    <path d="M18.2732 20.085H16.4431V21.915H18.2732V20.085Z" fill="#5D7769"/>
    <path d="M16.4431 20.085H14.613V21.915H16.4431V20.085Z" fill="#5D7769"/>
    <path d="M14.613 20.085H12.7831V21.915H14.613V20.085Z" fill="#5D7769"/>
    <path d="M12.7921 20.085H10.9621V21.915H12.7921V20.085Z" fill="#5D7769"/>
    <path d="M10.9621 20.085H9.13205V21.915H10.9621V20.085Z" fill="#5D7769"/>
    <path d="M9.14115 20.085H7.3111V21.915H9.14115V20.085Z" fill="#5D7769"/>
    <path d="M7.3111 20.085H5.48105V21.915H7.3111V20.085Z" fill="#5D7769"/>
    <path d="M5.48102 20.085H3.65097V21.915H5.48102V20.085Z" fill="#5D7769"/>
    <path d="M3.6601 21.915H1.83005V23.7451H3.6601V21.915Z" fill="#5D7769"/>
    <path d="M1.83005 23.736H0V25.566H1.83005V23.736Z" fill="#5D7769"/>
    <path d="M1.83005 25.566H0V27.3961H1.83005V25.566Z" fill="#5D7769"/>
    <path d="M1.83005 27.387H0V29.217H1.83005V27.387Z" fill="#5D7769"/>
    <path d="M1.83005 29.217H0V31.0471H1.83005V29.217Z" fill="#5D7769"/>
    <path d="M1.83005 31.0471H0V32.8771H1.83005V31.0471Z" fill="#5D7769"/>
    <path d="M1.83005 32.868H0V34.6981H1.83005V32.868Z" fill="#5D7769"/>
    <path d="M1.83005 34.6981H0V36.5281H1.83005V34.6981Z" fill="#5D7769"/>
    <path d="M21.9241 16.434H20.0941V18.2641H21.9241V16.434Z" fill="black"/>
    <path d="M23.7451 16.434H21.915V18.2641H23.7451V16.434Z" fill="black"/>
    <path d="M25.5751 16.434H23.7451V18.2641H25.5751V16.434Z" fill="#ECECEC"/>
    <path d="M27.4052 16.434H25.5751V18.2641H27.4052V16.434Z" fill="#ECECEC"/>
    <path d="M29.2261 3.65097H27.3961V5.48102H29.2261V3.65097Z" fill="black"/>
    <path d="M31.0561 5.47192H29.2261V7.30198H31.0561V5.47192Z" fill="black"/>
    <path d="M31.0561 7.302H29.2261V9.13206H31.0561V7.302Z" fill="black"/>
    <path d="M31.0561 9.12292H29.2261V10.953H31.0561V9.12292Z" fill="black"/>
    <path d="M31.0561 10.953H29.2261V12.7831H31.0561V10.953Z" fill="#A582CF"/>
    <path d="M32.8771 10.953H31.0471V12.7831H32.8771V10.953Z" fill="#A582CF"/>
    <path d="M31.0561 12.7831H29.2261V14.6131H31.0561V12.7831Z" fill="#A582CF"/>
    <path d="M31.0561 14.604H29.2261V16.434H31.0561V14.604Z" fill="#ECECEC"/>
    <path d="M29.2261 16.434H27.3961V18.2641H29.2261V16.434Z" fill="#ECECEC"/>
    <path d="M3.6601 34.6981H1.83005V36.5281H3.6601V34.6981Z" fill="black"/>
    <path d="M3.6601 32.868H1.83005V34.6981H3.6601V32.868Z" fill="black"/>
    <path d="M3.6601 29.217H1.83005V31.0471H3.6601V29.217Z" fill="black"/>
    <path d="M3.6601 25.566H1.83005V27.3961H3.6601V25.566Z" fill="black"/>
    <path d="M3.6601 23.736H1.83005V25.566H3.6601V23.736Z" fill="black"/>
    <path d="M5.48102 21.915H3.65097V23.7451H5.48102V21.915Z" fill="black"/>
    <path d="M7.3111 21.915H5.48105V23.7451H7.3111V21.915Z" fill="black"/>
    <path d="M9.14115 21.915H7.3111V23.7451H9.14115V21.915Z" fill="black"/>
    <path d="M10.9621 21.915H9.13205V23.7451H10.9621V21.915Z" fill="black"/>
    <path d="M12.7921 21.915H10.9621V23.7451H12.7921V21.915Z" fill="black"/>
    <path d="M14.613 21.915H12.7831V23.7451H14.613V21.915Z" fill="black"/>
    <path d="M18.2732 23.736H16.4431V25.566H18.2732V23.736Z" fill="black"/>
    <path d="M18.2732 25.566H16.4431V27.3961H18.2732V25.566Z" fill="black"/>
    <path d="M18.2732 29.217H16.4431V31.0471H18.2732V29.217Z" fill="black"/>
    <path d="M3.6601 31.0471H1.83005V32.8771H3.6601V31.0471Z" fill="black"/>
    <path d="M18.2732 31.0471H16.4431V32.8771H18.2732V31.0471Z" fill="black"/>
    <path d="M18.2732 32.868H16.4431V34.6981H18.2732V32.868Z" fill="black"/>
    <path d="M18.2732 34.6981H16.4431V36.5281H18.2732V34.6981Z" fill="black"/>
    <path d="M14.613 23.736H12.7831V25.566H14.613V23.736Z" fill="#777777"/>
    <path d="M16.4431 23.736H14.613V25.566H16.4431V23.736Z" fill="#777777"/>
    <path d="M14.613 25.566H12.7831V27.3961H14.613V25.566Z" fill="black"/>
    <path d="M14.613 29.217H12.7831V31.0471H14.613V29.217Z" fill="black"/>
    <path d="M14.613 31.0471H12.7831V32.8771H14.613V31.0471Z" fill="black"/>
    <path d="M14.613 32.868H12.7831V34.6981H14.613V32.868Z" fill="black"/>
    <path d="M14.613 34.6981H12.7831V36.5281H14.613V34.6981Z" fill="black"/>
    <path d="M12.7921 23.736H10.9621V25.566H12.7921V23.736Z" fill="#777777"/>
    <path d="M12.7921 25.566H10.9621V27.3961H12.7921V25.566Z" fill="black"/>
    <path d="M12.7921 29.217H10.9621V31.0471H12.7921V29.217Z" fill="black"/>
    <path d="M12.7921 31.0471H10.9621V32.8771H12.7921V31.0471Z" fill="black"/>
    <path d="M12.7921 32.868H10.9621V34.6981H12.7921V32.868Z" fill="black"/>
    <path d="M12.7921 34.6981H10.9621V36.5281H12.7921V34.6981Z" fill="black"/>
    <path d="M10.9621 23.736H9.13205V25.566H10.9621V23.736Z" fill="#777777"/>
    <path d="M10.9621 25.566H9.13205V27.3961H10.9621V25.566Z" fill="black"/>
    <path d="M10.9621 29.217H9.13205V31.0471H10.9621V29.217Z" fill="black"/>
    <path d="M10.9621 31.0471H9.13205V32.8771H10.9621V31.0471Z" fill="black"/>
    <path d="M10.9621 32.868H9.13205V34.6981H10.9621V32.868Z" fill="black"/>
    <path d="M10.9621 34.6981H9.13205V36.5281H10.9621V34.6981Z" fill="black"/>
    <path d="M9.14115 23.736H7.3111V25.566H9.14115V23.736Z" fill="#777777"/>
    <path d="M9.14115 25.566H7.3111V27.3961H9.14115V25.566Z" fill="black"/>
    <path d="M9.14115 29.217H7.3111V31.0471H9.14115V29.217Z" fill="black"/>
    <path d="M9.14115 31.0471H7.3111V32.8771H9.14115V31.0471Z" fill="black"/>
    <path d="M9.14115 32.868H7.3111V34.6981H9.14115V32.868Z" fill="black"/>
    <path d="M9.14115 34.6981H7.3111V36.5281H9.14115V34.6981Z" fill="black"/>
    <path d="M7.3111 23.736H5.48105V25.566H7.3111V23.736Z" fill="black"/>
    <path d="M7.3111 25.566H5.48105V27.3961H7.3111V25.566Z" fill="black"/>
    <path d="M7.3111 29.217H5.48105V31.0471H7.3111V29.217Z" fill="black"/>
    <path d="M7.3111 31.0471H5.48105V32.8771H7.3111V31.0471Z" fill="black"/>
    <path d="M7.3111 32.868H5.48105V34.6981H7.3111V32.868Z" fill="black"/>
    <path d="M7.3111 34.6981H5.48105V36.5281H7.3111V34.6981Z" fill="black"/>
    <path d="M5.48102 23.736H3.65097V25.566H5.48102V23.736Z" fill="#777777"/>
    <path d="M5.48102 25.566H3.65097V27.3961H5.48102V25.566Z" fill="black"/>
    <path d="M5.48102 29.217H3.65097V31.0471H5.48102V29.217Z" fill="black"/>
    <path d="M5.48102 31.0471H3.65097V32.8771H5.48102V31.0471Z" fill="black"/>
    <path d="M5.48102 32.868H3.65097V34.6981H5.48102V32.868Z" fill="black"/>
    <path d="M5.48102 34.6981H3.65097V36.5281H5.48102V34.6981Z" fill="black"/>
    <path d="M5.48102 36.519H3.65097V38.3491H5.48102V36.519Z" fill="black"/>
    <path d="M7.3111 36.519H5.48105V38.3491H7.3111V36.519Z" fill="black"/>
    <path d="M9.14115 36.519H7.3111V38.3491H9.14115V36.519Z" fill="black"/>
    <path d="M10.9621 36.519H9.13205V38.3491H10.9621V36.519Z" fill="black"/>
    <path d="M12.7921 36.519H10.9621V38.3491H12.7921V36.519Z" fill="black"/>
    <path d="M14.613 36.519H12.7831V38.3491H14.613V36.519Z" fill="black"/>
    <path d="M18.2732 21.915H16.4431V23.7451H18.2732V21.915Z" fill="black"/>
    <path d="M20.0941 23.736H18.264V25.566H20.0941V23.736Z" fill="black"/>
    <path d="M20.0941 25.566H18.264V27.3961H20.0941V25.566Z" fill="black"/>
    <path d="M20.0941 29.217H18.264V31.0471H20.0941V29.217Z" fill="black"/>
    <path d="M20.0941 31.0471H18.264V32.8771H20.0941V31.0471Z" fill="black"/>
    <path d="M20.0941 32.868H18.264V34.6981H20.0941V32.868Z" fill="black"/>
    <path d="M20.0941 34.6981H18.264V36.5281H20.0941V34.6981Z" fill="black"/>
    <path d="M21.9241 32.868H20.0941V34.6981H21.9241V32.868Z" fill="black"/>
    <path d="M21.9241 27.387H20.0941V29.217H21.9241V27.387Z" fill="#636363"/>
    <path d="M23.7451 25.566H21.915V27.3961H23.7451V25.566Z" fill="#636363"/>
    <path d="M23.7451 23.736H21.915V25.566H23.7451V23.736Z" fill="#636363"/>
    <path d="M23.7451 21.915H21.915V23.7451H23.7451V21.915Z" fill="#636363"/>
    <path d="M23.7451 20.085H21.915V21.915H23.7451V20.085Z" fill="#8D8D8D"/>
    <path d="M23.7451 18.2549H21.915V20.085H23.7451V18.2549Z" fill="#8D8D8D"/>
    <path d="M21.9241 25.566H20.0941V27.3961H21.9241V25.566Z" fill="#636363"/>
    <path d="M21.9241 23.736H20.0941V25.566H21.9241V23.736Z" fill="#636363"/>
    <path d="M21.9241 20.085H20.0941V21.915H21.9241V20.085Z" fill="#ECECEC"/>
    <path d="M21.9241 20.085H20.0941V21.915H21.9241V20.085Z" fill="#8D8D8D"/>
    <path d="M21.9241 21.915H20.0941V23.7451H21.9241V21.915Z" fill="#8D8D8D"/>
    <path d="M21.9241 18.2549H20.0941V20.085H21.9241V18.2549Z" fill="#ECECEC"/>
    <path d="M21.9241 16.434H20.0941V18.2641H21.9241V16.434Z" fill="black"/>
    <path d="M23.7451 16.434H21.915V18.2641H23.7451V16.434Z" fill="#ECECEC"/>
    <path d="M25.5751 16.434H23.7451V18.2641H25.5751V16.434Z" fill="#ECECEC"/>
    <path d="M25.5751 18.2549H23.7451V20.085H25.5751V18.2549Z" fill="#A582CF"/>
    <path d="M27.4052 18.2549H25.5751V20.085H27.4052V18.2549Z" fill="#A582CF"/>
    <path d="M29.2261 18.2549H27.3961V20.085H29.2261V18.2549Z" fill="#A582CF"/>
    <path d="M31.0561 18.2549H29.2261V20.085H31.0561V18.2549Z" fill="#A582CF"/>
    <path d="M32.8771 18.2549H31.0471V20.085H32.8771V18.2549Z" fill="#A582CF"/>
    <path d="M34.7071 18.2549H32.8771V20.085H34.7071V18.2549Z" fill="#A582CF"/>
    <path d="M36.5281 18.2549H34.698V20.085H36.5281V18.2549Z" fill="#A582CF"/>
    <path d="M38.3581 18.2549H36.5281V20.085H38.3581V18.2549Z" fill="#A582CF"/>
    <path d="M40.1882 18.2549H38.3581V20.085H40.1882V18.2549Z" fill="#A582CF"/>
    <path d="M42.0091 18.2549H40.1791V20.085H42.0091V18.2549Z" fill="#A582CF"/>
    <path d="M43.8392 18.2549H42.0091V20.085H43.8392V18.2549Z" fill="#A582CF"/>
    <path d="M45.6601 18.2549H43.83V20.085H45.6601V18.2549Z" fill="#A582CF"/>
    <path d="M47.4901 18.2549H45.6601V20.085H47.4901V18.2549Z" fill="#A582CF"/>
    <path d="M49.3201 18.2549H47.4901V20.085H49.3201V18.2549Z" fill="#A582CF"/>
    <path d="M25.5751 20.085H23.7451V21.915H25.5751V20.085Z" fill="black"/>
    <path d="M25.5751 21.915H23.7451V23.7451H25.5751V21.915Z" fill="#FF2D29"/>
    <path d="M25.5751 23.736H23.7451V25.566H25.5751V23.736Z" fill="#FF00A2"/>
    <path d="M25.5751 25.566H23.7451V27.3961H25.5751V25.566Z" fill="#FF2D29"/>
    <path d="M23.7451 27.387H21.915V29.217H23.7451V27.387Z" fill="black"/>
    <path d="M27.4052 20.085H25.5751V21.915H27.4052V20.085Z" fill="black"/>
    <path d="M29.2261 20.085H27.3961V21.915H29.2261V20.085Z" fill="black"/>
    <path d="M31.0561 20.085H29.2261V21.915H31.0561V20.085Z" fill="black"/>
    <path d="M32.8771 20.085H31.0471V21.915H32.8771V20.085Z" fill="black"/>
    <path d="M34.7071 20.085H32.8771V21.915H34.7071V20.085Z" fill="black"/>
    <path d="M36.5281 20.085H34.698V21.915H36.5281V20.085Z" fill="black"/>
    <path d="M38.3581 20.085H36.5281V21.915H38.3581V20.085Z" fill="black"/>
    <path d="M40.1882 20.085H38.3581V21.915H40.1882V20.085Z" fill="black"/>
    <path d="M42.0091 20.085H40.1791V21.915H42.0091V20.085Z" fill="black"/>
    <path d="M43.8392 20.085H42.0091V21.915H43.8392V20.085Z" fill="black"/>
    <path d="M45.6601 20.085H43.83V21.915H45.6601V20.085Z" fill="black"/>
    <path d="M47.4901 20.085H45.6601V21.915H47.4901V20.085Z" fill="black"/>
    <path d="M49.3201 20.085H47.4901V21.915H49.3201V20.085Z" fill="black"/>
    <path d="M27.4052 16.434H25.5751V18.2641H27.4052V16.434Z" fill="#ECECEC"/>
    <path d="M29.2261 16.434H27.3961V18.2641H29.2261V16.434Z" fill="#ECECEC"/>
    <path d="M31.0561 16.434H29.2261V18.2641H31.0561V16.434Z" fill="#ECECEC"/>
    <path d="M32.8771 16.434H31.0471V18.2641H32.8771V16.434Z" fill="#ECECEC"/>
    <path d="M34.7071 16.434H32.8771V18.2641H34.7071V16.434Z" fill="#ECECEC"/>
    <path d="M36.5281 16.434H34.698V18.2641H36.5281V16.434Z" fill="#ECECEC"/>
    <path d="M38.3581 16.434H36.5281V18.2641H38.3581V16.434Z" fill="#ECECEC"/>
    <path d="M40.1882 16.434H38.3581V18.2641H40.1882V16.434Z" fill="#ECECEC"/>
    <path d="M42.0091 16.434H40.1791V18.2641H42.0091V16.434Z" fill="#ECECEC"/>
    <path d="M43.8392 16.434H42.0091V18.2641H43.8392V16.434Z" fill="#ECECEC"/>
    <path d="M45.6601 16.434H43.83V18.2641H45.6601V16.434Z" fill="#ECECEC"/>
    <path d="M47.4901 16.434H45.6601V18.2641H47.4901V16.434Z" fill="#ECECEC"/>
    <path d="M49.3201 16.434H47.4901V18.2641H49.3201V16.434Z" fill="#ECECEC"/>
    <path d="M23.7451 32.868H21.915V34.6981H23.7451V32.868Z" fill="black"/>
    <path d="M21.9241 34.6981H20.0941V36.5281H21.9241V34.6981Z" fill="#4C514F"/>
    <path d="M23.7451 34.6981H21.915V36.5281H23.7451V34.6981Z" fill="#4C514F"/>
    <path d="M21.9241 36.519H20.0941V38.3491H21.9241V36.519Z" fill="#4C514F"/>
    <path d="M20.0941 36.519H18.264V38.3491H20.0941V36.519Z" fill="#4C514F"/>
    <path d="M20.0941 38.3491H18.264V40.1791H20.0941V38.3491Z" fill="#4C514F"/>
    <path d="M18.264 38.3491H16.434V40.1791H18.264V38.3491Z" fill="#4C514F"/>
    <path d="M16.4431 38.3491H14.613V40.1791H16.4431V38.3491Z" fill="#4C514F"/>
    <path d="M14.613 38.3491H12.7831V40.1791H14.613V38.3491Z" fill="#4C514F"/>
    <path d="M12.7831 38.3491H10.953V40.1791H12.7831V38.3491Z" fill="#4C514F"/>
    <path d="M10.953 38.3491H9.12292V40.1791H10.953V38.3491Z" fill="#4C514F"/>
    <path d="M9.12293 38.3491H7.29288V40.1791H9.12293V38.3491Z" fill="#4C514F"/>
    <path d="M7.29288 38.3491H5.46283V40.1791H7.29288V38.3491Z" fill="#4C514F"/>
    <path d="M5.48102 38.3491H3.65097V40.1791H5.48102V38.3491Z" fill="#4C514F"/>
    <path d="M23.7451 36.519H21.915V38.3491H23.7451V36.519Z" fill="#4C514F"/>
    <path d="M25.5751 36.519H23.7451V38.3491H25.5751V36.519Z" fill="#4C514F"/>
    <path d="M27.4052 36.519H25.5751V38.3491H27.4052V36.519Z" fill="#4C514F"/>
    <path d="M29.2261 36.519H27.3961V38.3491H29.2261V36.519Z" fill="#4C514F"/>
    <path d="M31.0561 36.519H29.2261V38.3491H31.0561V36.519Z" fill="#4C514F"/>
    <path d="M32.8771 36.519H31.0471V38.3491H32.8771V36.519Z" fill="#4C514F"/>
    <path d="M23.7451 38.3491H21.915V40.1791H23.7451V38.3491Z" fill="#4C514F"/>
    <path d="M25.5751 38.3491H23.7451V40.1791H25.5751V38.3491Z" fill="#4C514F"/>
    <path d="M27.4052 38.3491H25.5751V40.1791H27.4052V38.3491Z" fill="#4C514F"/>
    <path d="M29.2261 38.3491H27.3961V40.1791H29.2261V38.3491Z" fill="#4C514F"/>
    <path d="M31.0561 38.3491H29.2261V40.1791H31.0561V38.3491Z" fill="#4C514F"/>
    <path d="M32.8771 38.3491H31.0471V40.1791H32.8771V38.3491Z" fill="#4C514F"/>
    <path d="M34.7071 38.3491H32.8771V40.1791H34.7071V38.3491Z" fill="#4C514F"/>
    <path d="M36.5281 38.3491H34.698V40.1791H36.5281V38.3491Z" fill="#4C514F"/>
    <path d="M38.3581 38.3491H36.5281V40.1791H38.3581V38.3491Z" fill="#4C514F"/>
    <path d="M40.1882 38.3491H38.3581V40.1791H40.1882V38.3491Z" fill="#4C514F"/>
    <path d="M42.0091 38.3491H40.1791V40.1791H42.0091V38.3491Z" fill="#4C514F"/>
    <path d="M43.8392 38.3491H42.0091V40.1791H43.8392V38.3491Z" fill="#4C514F"/>
    <path d="M45.6601 38.3491H43.83V40.1791H45.6601V38.3491Z" fill="#4C514F"/>
    <path d="M47.4901 38.3491H45.6601V40.1791H47.4901V38.3491Z" fill="#4C514F"/>
    <path d="M49.3201 38.3491H47.4901V40.1791H49.3201V38.3491Z" fill="#4C514F"/>
    <path d="M51.1411 38.3491H49.3111V40.1791H51.1411V38.3491Z" fill="#4C514F"/>
    <path d="M52.9712 38.3491H51.1411V40.1791H52.9712V38.3491Z" fill="#4C514F"/>
    <path d="M54.7921 38.3491H52.962V40.1791H54.7921V38.3491Z" fill="#4C514F"/>
    <path d="M56.6221 38.3491H54.7921V40.1791H56.6221V38.3491Z" fill="#4C514F"/>
    <path d="M58.4522 38.3491H56.6221V40.1791H58.4522V38.3491Z" fill="#4C514F"/>
    <path d="M60.2731 38.3491H58.4431V40.1791H60.2731V38.3491Z" fill="#4C514F"/>
    <path d="M62.1032 38.3491H60.2732V40.1791H62.1032V38.3491Z" fill="#4C514F"/>
    <path d="M63.9241 38.3491H62.0941V40.1791H63.9241V38.3491Z" fill="#4C514F"/>
    <path d="M65.7542 38.3491H63.9241V40.1791H65.7542V38.3491Z" fill="#4C514F"/>
    <path d="M67.5751 38.3491H65.7451V40.1791H67.5751V38.3491Z" fill="#4C514F"/>
    <path d="M32.8771 40.17H31.0471V42H32.8771V40.17Z" fill="#4C514F"/>
    <path d="M34.7071 40.17H32.8771V42H34.7071V40.17Z" fill="#4C514F"/>
    <path d="M36.5281 40.17H34.698V42H36.5281V40.17Z" fill="#4C514F"/>
    <path d="M38.3581 40.17H36.5281V42H38.3581V40.17Z" fill="#4C514F"/>
    <path d="M40.1882 40.17H38.3581V42H40.1882V40.17Z" fill="#4C514F"/>
    <path d="M42.0091 40.17H40.1791V42H42.0091V40.17Z" fill="#4C514F"/>
    <path d="M43.8392 40.17H42.0091V42H43.8392V40.17Z" fill="#4C514F"/>
    <path d="M45.6601 40.17H43.83V42H45.6601V40.17Z" fill="#4C514F"/>
    <path d="M47.4901 40.17H45.6601V42H47.4901V40.17Z" fill="#4C514F"/>
    <path d="M49.3201 40.17H47.4901V42H49.3201V40.17Z" fill="#4C514F"/>
    <path d="M51.1411 40.17H49.3111V42H51.1411V40.17Z" fill="#4C514F"/>
    <path d="M52.9712 40.17H51.1411V42H52.9712V40.17Z" fill="#4C514F"/>
    <path d="M54.7921 40.17H52.962V42H54.7921V40.17Z" fill="#4C514F"/>
    <path d="M56.6221 40.17H54.7921V42H56.6221V40.17Z" fill="#4C514F"/>
    <path d="M58.4522 40.17H56.6221V42H58.4522V40.17Z" fill="#4C514F"/>
    <path d="M60.2731 40.17H58.4431V42H60.2731V40.17Z" fill="#4C514F"/>
    <path d="M62.1032 40.17H60.2732V42H62.1032V40.17Z" fill="#4C514F"/>
    <path d="M63.9241 40.17H62.0941V42H63.9241V40.17Z" fill="#4C514F"/>
    <path d="M65.7542 40.17H63.9241V42H65.7542V40.17Z" fill="#4C514F"/>
    <path d="M67.5751 40.17H65.7451V42H67.5751V40.17Z" fill="#4C514F"/>
    <path d="M69.4052 38.3491H67.5751V40.1791H69.4052V38.3491Z" fill="#4C514F"/>
    <path d="M71.2352 38.3491H69.4052V40.1791H71.2352V38.3491Z" fill="#4C514F"/>
    <path d="M73.0561 38.3491H71.2261V40.1791H73.0561V38.3491Z" fill="#4C514F"/>
    <path d="M74.8862 38.3491H73.0562V40.1791H74.8862V38.3491Z" fill="#4C514F"/>
    <path d="M76.7072 38.3491H74.8771V40.1791H76.7072V38.3491Z" fill="#4C514F"/>
    <path d="M67.5751 36.519H65.7451V38.3491H67.5751V36.519Z" fill="#4C514F"/>
    <path d="M69.4052 36.519H67.5751V38.3491H69.4052V36.519Z" fill="#4C514F"/>
    <path d="M71.2352 36.519H69.4052V38.3491H71.2352V36.519Z" fill="#4C514F"/>
    <path d="M73.0561 36.519H71.2261V38.3491H73.0561V36.519Z" fill="#4C514F"/>
    <path d="M74.8862 36.519H73.0562V38.3491H74.8862V36.519Z" fill="#4C514F"/>
    <path d="M76.7072 36.519H74.8771V38.3491H76.7072V36.519Z" fill="#4C514F"/>
    <path d="M76.7072 34.6981H74.8771V36.5281H76.7072V34.6981Z" fill="#4C514F"/>
    <path d="M78.5372 36.519H76.7072V38.3491H78.5372V36.519Z" fill="#4C514F"/>
    <path d="M80.3673 36.519H78.5372V38.3491H80.3673V36.519Z" fill="#4C514F"/>
    <path d="M80.3673 38.3491H78.5372V40.1791H80.3673V38.3491Z" fill="#4C514F"/>
    <path d="M82.1882 38.3491H80.3582V40.1791H82.1882V38.3491Z" fill="#4C514F"/>
    <path d="M84.0183 38.3491H82.1882V40.1791H84.0183V38.3491Z" fill="#4C514F"/>
    <path d="M85.8392 38.3491H84.0092V40.1791H85.8392V38.3491Z" fill="#4C514F"/>
    <path d="M87.6693 38.3491H85.8392V40.1791H87.6693V38.3491Z" fill="#4C514F"/>
    <path d="M89.4993 38.3491H87.6693V40.1791H89.4993V38.3491Z" fill="#4C514F"/>
    <path d="M91.3202 38.3491H89.4902V40.1791H91.3202V38.3491Z" fill="#4C514F"/>
    <path d="M93.1502 38.3491H91.3202V40.1791H93.1502V38.3491Z" fill="#4C514F"/>
    <path d="M94.9712 38.3491H93.1411V40.1791H94.9712V38.3491Z" fill="#4C514F"/>
    <path d="M78.5372 34.6981H76.7072V36.5281H78.5372V34.6981Z" fill="#4C514F"/>
    <path d="M25.5751 34.6981H23.7451V36.5281H25.5751V34.6981Z" fill="black"/>
    <path d="M27.4052 34.6981H25.5751V36.5281H27.4052V34.6981Z" fill="black"/>
    <path d="M29.2261 34.6981H27.3961V36.5281H29.2261V34.6981Z" fill="black"/>
    <path d="M29.2261 32.868H27.3961V34.6981H29.2261V32.868Z" fill="#636363"/>
    <path d="M27.4052 32.868H25.5751V34.6981H27.4052V32.868Z" fill="#636363"/>
    <path d="M25.5751 32.868H23.7451V34.6981H25.5751V32.868Z" fill="#424242"/>
    <path d="M25.5751 31.0471H23.7451V32.8771H25.5751V31.0471Z" fill="#424242"/>
    <path d="M23.7451 31.0471H21.915V32.8771H23.7451V31.0471Z" fill="#424242"/>
    <path d="M21.9241 31.0471H20.0941V32.8771H21.9241V31.0471Z" fill="black"/>
    <path d="M27.4052 31.0471H25.5751V32.8771H27.4052V31.0471Z" fill="#424242"/>
    <path d="M29.2261 31.0471H27.3961V32.8771H29.2261V31.0471Z" fill="#424242"/>
    <path d="M31.0561 31.0471H29.2261V32.8771H31.0561V31.0471Z" fill="#424242"/>
    <path d="M32.8771 29.217H31.0471V31.0471H32.8771V29.217Z" fill="black"/>
    <path d="M32.8771 31.0471H31.0471V32.8771H32.8771V31.0471Z" fill="#777777"/>
    <path d="M34.7071 32.868H32.8771V34.6981H34.7071V32.868Z" fill="#ECECEC"/>
    <path d="M38.3581 31.0471H36.5281V32.8771H38.3581V31.0471Z" fill="#777777"/>
    <path d="M40.1882 31.0471H38.3581V32.8771H40.1882V31.0471Z" fill="#ECECEC"/>
    <path d="M42.0091 32.868H40.1791V34.6981H42.0091V32.868Z" fill="#636363"/>
    <path d="M38.3581 29.217H36.5281V31.0471H38.3581V29.217Z" fill="#BDBDBD"/>
    <path d="M40.1882 29.217H38.3581V31.0471H40.1882V29.217Z" fill="#BDBDBD"/>
    <path d="M42.0091 29.217H40.1791V31.0471H42.0091V29.217Z" fill="#BDBDBD"/>
    <path d="M38.3581 31.0471H36.5281V32.8771H38.3581V31.0471Z" fill="#ECECEC"/>
    <path d="M36.5281 31.0471H34.698V32.8771H36.5281V31.0471Z" fill="#ECECEC"/>
    <path d="M31.0561 32.868H29.2261V34.6981H31.0561V32.868Z" fill="#636363"/>
    <path d="M32.8771 32.868H31.0471V34.6981H32.8771V32.868Z" fill="#424242"/>
    <path d="M36.5281 32.868H34.698V34.6981H36.5281V32.868Z" fill="black"/>
    <path d="M38.3581 32.868H36.5281V34.6981H38.3581V32.868Z" fill="black"/>
    <path d="M40.1882 32.868H38.3581V34.6981H40.1882V32.868Z" fill="#BDBDBD"/>
    <path d="M43.8392 29.217H42.0091V31.0471H43.8392V29.217Z" fill="black"/>
    <path d="M42.0091 31.0471H40.1791V32.8771H42.0091V31.0471Z" fill="black"/>
    <path d="M38.3581 29.217H36.5281V31.0471H38.3581V29.217Z" fill="black"/>
    <path d="M42.0091 31.0471H40.1791V32.8771H42.0091V31.0471Z" fill="#424242"/>
    <path d="M40.1882 29.217H38.3581V31.0471H40.1882V29.217Z" fill="black"/>
    <path d="M42.0091 29.217H40.1791V31.0471H42.0091V29.217Z" fill="black"/>
    <path d="M31.0561 34.6981H29.2261V36.5281H31.0561V34.6981Z" fill="black"/>
    <path d="M32.8771 34.6981H31.0471V36.5281H32.8771V34.6981Z" fill="black"/>
    <path d="M34.7071 34.6981H32.8771V36.5281H34.7071V34.6981Z" fill="#636363"/>
    <path d="M36.5281 34.6981H34.698V36.5281H36.5281V34.6981Z" fill="#636363"/>
    <path d="M38.3581 34.6981H36.5281V36.5281H38.3581V34.6981Z" fill="#636363"/>
    <path d="M40.1882 34.6981H38.3581V36.5281H40.1882V34.6981Z" fill="black"/>
    <path d="M27.4052 32.868H25.5751V34.6981H27.4052V32.868Z" fill="#ECECEC"/>
    <path d="M32.8771 31.0471H31.0471V32.8771H32.8771V31.0471Z" fill="#ECECEC"/>
    <path d="M31.0561 31.0471H29.2261V32.8771H31.0561V31.0471Z" fill="#ECECEC"/>
    <path d="M29.2261 31.0471H27.3961V32.8771H29.2261V31.0471Z" fill="#ECECEC"/>
    <path d="M29.2261 32.868H27.3961V34.6981H29.2261V32.868Z" fill="black"/>
    <path d="M31.0561 32.868H29.2261V34.6981H31.0561V32.868Z" fill="black"/>
    <path d="M32.8771 32.868H31.0471V34.6981H32.8771V32.868Z" fill="#BDBDBD"/>
    <path d="M27.4052 34.6981H25.5751V36.5281H27.4052V34.6981Z" fill="#636363"/>
    <path d="M29.2261 34.6981H27.3961V36.5281H29.2261V34.6981Z" fill="#636363"/>
    <path d="M31.0561 34.6981H29.2261V36.5281H31.0561V34.6981Z" fill="#636363"/>
    <path d="M32.8771 34.6981H31.0471V36.5281H32.8771V34.6981Z" fill="black"/>
    <path d="M42.0091 34.6981H40.1791V36.5281H42.0091V34.6981Z" fill="black"/>
    <path d="M43.8392 36.519H42.0091V38.3491H43.8392V36.519Z" fill="black"/>
    <path d="M42.0091 36.519H40.1791V38.3491H42.0091V36.519Z" fill="black"/>
    <path d="M40.1882 36.519H38.3581V38.3491H40.1882V36.519Z" fill="black"/>
    <path d="M38.3581 36.519H36.5281V38.3491H38.3581V36.519Z" fill="black"/>
    <path d="M36.5281 36.519H34.698V38.3491H36.5281V36.519Z" fill="black"/>
    <path d="M34.7071 36.519H32.8771V38.3491H34.7071V36.519Z" fill="black"/>
    <path d="M32.8771 36.519H31.0471V38.3491H32.8771V36.519Z" fill="black"/>
    <path d="M45.6601 36.519H43.83V38.3491H45.6601V36.519Z" fill="black"/>
    <path d="M47.4901 36.519H45.6601V38.3491H47.4901V36.519Z" fill="black"/>
    <path d="M49.3201 36.519H47.4901V38.3491H49.3201V36.519Z" fill="black"/>
    <path d="M18.2732 36.519H16.4431V38.3491H18.2732V36.519Z" fill="black"/>
    <path d="M16.4431 25.566H14.613V27.3961H16.4431V25.566Z" fill="black"/>
    <path d="M16.4431 29.217H14.613V31.0471H16.4431V29.217Z" fill="black"/>
    <path d="M3.6601 27.387H1.83005V29.217H3.6601V27.387Z" fill="black"/>
    <path d="M18.2732 27.387H16.4431V29.217H18.2732V27.387Z" fill="black"/>
    <path d="M14.613 27.387H12.7831V29.217H14.613V27.387Z" fill="black"/>
    <path d="M12.7921 27.387H10.9621V29.217H12.7921V27.387Z" fill="black"/>
    <path d="M10.9621 27.387H9.13205V29.217H10.9621V27.387Z" fill="black"/>
    <path d="M9.14115 27.387H7.3111V29.217H9.14115V27.387Z" fill="black"/>
    <path d="M7.3111 27.387H5.48105V29.217H7.3111V27.387Z" fill="black"/>
    <path d="M5.48102 27.387H3.65097V29.217H5.48102V27.387Z" fill="black"/>
    <path d="M20.0941 27.387H18.264V29.217H20.0941V27.387Z" fill="black"/>
    <path d="M16.4431 27.387H14.613V29.217H16.4431V27.387Z" fill="black"/>
    <path d="M16.4431 31.0471H14.613V32.8771H16.4431V31.0471Z" fill="black"/>
    <path d="M16.4431 32.868H14.613V34.6981H16.4431V32.868Z" fill="black"/>
    <path d="M16.4431 34.6981H14.613V36.5281H16.4431V34.6981Z" fill="black"/>
    <path d="M16.4431 21.915H14.613V23.7451H16.4431V21.915Z" fill="black"/>
    <path d="M16.4431 36.519H14.613V38.3491H16.4431V36.519Z" fill="black"/>
    <path d="M36.5281 9.12292H34.698V10.953H36.5281V9.12292Z" fill="#ECECEC"/>
    <path d="M34.7071 10.953H32.8771V12.7831H34.7071V10.953Z" fill="#ECECEC"/>
    <path d="M32.8771 12.7831H31.0471V14.6131H32.8771V12.7831Z" fill="#A582CF"/>
    <path d="M27.4052 23.736H25.5751V25.566H27.4052V23.736Z" fill="#FF2D29"/>
    <path d="M29.2261 23.736H27.3961V25.566H29.2261V23.736Z" fill="#FF2D29"/>
    <path d="M27.4052 25.566H25.5751V27.3961H27.4052V25.566Z" fill="#FF00A2"/>
    <path d="M29.2261 25.566H27.3961V27.3961H29.2261V25.566Z" fill="#FF00A2"/>
    <path d="M31.0561 25.566H29.2261V27.3961H31.0561V25.566Z" fill="#FF00A2"/>
    <path d="M32.8771 25.566H31.0471V27.3961H32.8771V25.566Z" fill="#FF00A2"/>
    <path d="M31.0561 21.915H29.2261V23.7451H31.0561V21.915Z" fill="black"/>
    <path d="M29.2261 21.915H27.3961V23.7451H29.2261V21.915Z" fill="black"/>
    <path d="M27.4052 21.915H25.5751V23.7451H27.4052V21.915Z" fill="black"/>
    <path d="M32.8771 21.915H31.0471V23.7451H32.8771V21.915Z" fill="black"/>
    <path d="M31.0561 23.736H29.2261V25.566H31.0561V23.736Z" fill="#FF2D29"/>
    <path d="M32.8771 23.736H31.0471V25.566H32.8771V23.736Z" fill="#FF2D29"/>
    <path d="M34.7071 21.915H32.8771V23.7451H34.7071V21.915Z" fill="black"/>
    <path d="M34.7071 23.736H32.8771V25.566H34.7071V23.736Z" fill="#FF2D29"/>
    <path d="M36.5281 21.915H34.698V23.7451H36.5281V21.915Z" fill="black"/>
    <path d="M36.5281 23.736H34.698V25.566H36.5281V23.736Z" fill="#FF2D29"/>
    <path d="M38.3581 21.915H36.5281V23.7451H38.3581V21.915Z" fill="black"/>
    <path d="M38.3581 23.736H36.5281V25.566H38.3581V23.736Z" fill="#FF2D29"/>
    <path d="M36.5281 25.566H34.698V27.3961H36.5281V25.566Z" fill="#FF00A2"/>
    <path d="M34.7071 25.566H32.8771V27.3961H34.7071V25.566Z" fill="#FF00A2"/>
    <path d="M34.7071 27.387H32.8771V29.217H34.7071V27.387Z" fill="#FF2D29"/>
    <path d="M32.8771 27.387H31.0471V29.217H32.8771V27.387Z" fill="#FF2D29"/>
    <path d="M40.1882 21.915H38.3581V23.7451H40.1882V21.915Z" fill="black"/>
    <path d="M40.1882 23.736H38.3581V25.566H40.1882V23.736Z" fill="#FF2D29"/>
    <path d="M42.0091 21.915H40.1791V23.7451H42.0091V21.915Z" fill="black"/>
    <path d="M42.0091 23.736H40.1791V25.566H42.0091V23.736Z" fill="#FF2D29"/>
    <path d="M43.8392 21.915H42.0091V23.7451H43.8392V21.915Z" fill="black"/>
    <path d="M43.8392 23.736H42.0091V25.566H43.8392V23.736Z" fill="#FF2D29"/>
    <path d="M45.6601 21.915H43.83V23.7451H45.6601V21.915Z" fill="black"/>
    <path d="M45.6601 23.736H43.83V25.566H45.6601V23.736Z" fill="#FF2D29"/>
    <path d="M47.4901 21.915H45.6601V23.7451H47.4901V21.915Z" fill="black"/>
    <path d="M47.4901 23.736H45.6601V25.566H47.4901V23.736Z" fill="#FF2D29"/>
    <path d="M49.3201 21.915H47.4901V23.7451H49.3201V21.915Z" fill="black"/>
    <path d="M49.3201 23.736H47.4901V25.566H49.3201V23.736Z" fill="black"/>
    <path d="M47.4901 25.566H45.6601V27.3961H47.4901V25.566Z" fill="#FF00A2"/>
    <path d="M49.3201 25.566H47.4901V27.3961H49.3201V25.566Z" fill="black"/>
    <path d="M47.4901 27.387H45.6601V29.217H47.4901V27.387Z" fill="#FF2D29"/>
    <path d="M43.8392 25.566H42.0091V27.3961H43.8392V25.566Z" fill="#FF00A2"/>
    <path d="M43.8392 27.387H42.0091V29.217H43.8392V27.387Z" fill="#FF2D29"/>
    <path d="M42.0091 25.566H40.1791V27.3961H42.0091V25.566Z" fill="#FF00A2"/>
    <path d="M42.0091 27.387H40.1791V29.217H42.0091V27.387Z" fill="#FF2D29"/>
    <path d="M40.1882 25.566H38.3581V27.3961H40.1882V25.566Z" fill="#FF00A2"/>
    <path d="M40.1882 27.387H38.3581V29.217H40.1882V27.387Z" fill="#FF2D29"/>
    <path d="M38.3581 25.566H36.5281V27.3961H38.3581V25.566Z" fill="#FF00A2"/>
    <path d="M38.3581 27.387H36.5281V29.217H38.3581V27.387Z" fill="#FF2D29"/>
    <path d="M36.5281 27.387H34.698V29.217H36.5281V27.387Z" fill="#FF2D29"/>
    <path d="M36.5281 29.217H34.698V31.0471H36.5281V29.217Z" fill="black"/>
    <path d="M34.7071 29.217H32.8771V31.0471H34.7071V29.217Z" fill="black"/>
    <path d="M34.7071 31.0471H32.8771V32.8771H34.7071V31.0471Z" fill="#424242"/>
    <path d="M31.0561 27.387H29.2261V29.217H31.0561V27.387Z" fill="#FF2D29"/>
    <path d="M29.2261 27.387H27.3961V29.217H29.2261V27.387Z" fill="#FF2D29"/>
    <path d="M27.4052 27.387H25.5751V29.217H27.4052V27.387Z" fill="#FF2D29"/>
    <path d="M25.5751 27.387H23.7451V29.217H25.5751V27.387Z" fill="black"/>
    <path d="M29.2261 29.217H27.3961V31.0471H29.2261V29.217Z" fill="black"/>
    <path d="M27.4052 29.217H25.5751V31.0471H27.4052V29.217Z" fill="black"/>
    <path d="M25.5751 29.217H23.7451V31.0471H25.5751V29.217Z" fill="#A582CF"/>
    <path d="M31.0561 29.217H29.2261V31.0471H31.0561V29.217Z" fill="black"/>
    <path d="M49.3201 27.387H47.4901V29.217H49.3201V27.387Z" fill="black"/>
    <path d="M47.4901 29.217H45.6601V31.0471H47.4901V29.217Z" fill="black"/>
    <path d="M43.8392 31.0471H42.0091V32.8771H43.8392V31.0471Z" fill="#424242"/>
    <path d="M43.8392 32.868H42.0091V34.6981H43.8392V32.868Z" fill="#636363"/>
    <path d="M43.8392 34.6981H42.0091V36.5281H43.8392V34.6981Z" fill="#636363"/>
    <path d="M42.0091 34.6981H40.1791V36.5281H42.0091V34.6981Z" fill="#424242"/>
    <path d="M45.6601 32.868H43.83V34.6981H45.6601V32.868Z" fill="black"/>
    <path d="M45.6601 34.6981H43.83V36.5281H45.6601V34.6981Z" fill="#636363"/>
    <path d="M45.6601 31.0471H43.83V32.8771H45.6601V31.0471Z" fill="#424242"/>
    <path d="M47.4901 32.868H45.6601V34.6981H47.4901V32.868Z" fill="black"/>
    <path d="M47.4901 34.6981H45.6601V36.5281H47.4901V34.6981Z" fill="#636363"/>
    <path d="M47.4901 31.0471H45.6601V32.8771H47.4901V31.0471Z" fill="#424242"/>
    <path d="M49.3201 32.868H47.4901V34.6981H49.3201V32.868Z" fill="black"/>
    <path d="M49.3201 34.6981H47.4901V36.5281H49.3201V34.6981Z" fill="#636363"/>
    <path d="M49.3201 31.0471H47.4901V32.8771H49.3201V31.0471Z" fill="#424242"/>
    <path d="M49.3201 29.217H47.4901V31.0471H49.3201V29.217Z" fill="black"/>
    <path d="M32.8771 14.604H31.0471V16.434H32.8771V14.604Z" fill="#ECECEC"/>
    <path d="M36.5281 10.953H34.698V12.7831H36.5281V10.953Z" fill="#ECECEC"/>
    <path d="M38.3581 10.953H36.5281V12.7831H38.3581V10.953Z" fill="#ECECEC"/>
    <path d="M40.1882 10.953H38.3581V12.7831H40.1882V10.953Z" fill="#ECECEC"/>
    <path d="M40.1882 12.7831H38.3581V14.6131H40.1882V12.7831Z" fill="#A582CF"/>
    <path d="M42.0091 14.604H40.1791V16.434H42.0091V14.604Z" fill="#ECECEC"/>
    <path d="M43.8392 14.604H42.0091V16.434H43.8392V14.604Z" fill="#ECECEC"/>
    <path d="M43.8392 12.7831H42.0091V14.6131H43.8392V12.7831Z" fill="#A582CF"/>
    <path d="M43.8392 10.953H42.0091V12.7831H43.8392V10.953Z" fill="#BDBDBD"/>
    <path d="M43.8392 9.12292H42.0091V10.953H43.8392V9.12292Z" fill="#BDBDBD"/>
    <path d="M45.6601 14.604H43.83V16.434H45.6601V14.604Z" fill="#ECECEC"/>
    <path d="M45.6601 12.7831H43.83V14.6131H45.6601V12.7831Z" fill="#A582CF"/>
    <path d="M45.6601 10.953H43.83V12.7831H45.6601V10.953Z" fill="#BDBDBD"/>
    <path d="M45.6601 9.12292H43.83V10.953H45.6601V9.12292Z" fill="#BDBDBD"/>
    <path d="M47.4901 7.302H45.6601V9.13206H47.4901V7.302Z" fill="#BDBDBD"/>
    <path d="M38.3581 12.7831H36.5281V14.6131H38.3581V12.7831Z" fill="#A582CF"/>
    <path d="M36.5281 12.7831H34.698V14.6131H36.5281V12.7831Z" fill="#A582CF"/>
    <path d="M34.7071 12.7831H32.8771V14.6131H34.7071V12.7831Z" fill="#A582CF"/>
    <path d="M34.7071 7.302H32.8771V9.13206H34.7071V7.302Z" fill="#A582CF"/>
    <path d="M34.7071 9.12292H32.8771V10.953H34.7071V9.12292Z" fill="#4D00A4"/>
    <path d="M36.5281 7.302H34.698V9.13206H36.5281V7.302Z" fill="#A582CF"/>
    <path d="M38.3581 7.302H36.5281V9.13206H38.3581V7.302Z" fill="#A582CF"/>
    <path d="M40.1882 7.302H38.3581V9.13206H40.1882V7.302Z" fill="#A582CF"/>
    <path d="M42.0091 7.302H40.1791V9.13206H42.0091V7.302Z" fill="#A582CF"/>
    <path d="M34.7071 5.47192H32.8771V7.30198H34.7071V5.47192Z" fill="#A582CF"/>
    <path d="M32.8771 7.302H31.0471V9.13206H32.8771V7.302Z" fill="#4D00A4"/>
    <path d="M32.8771 5.47192H31.0471V7.30198H32.8771V5.47192Z" fill="#4D00A4"/>
    <path d="M27.3779 1.82092H25.5478V3.65098H27.3779V1.82092Z" fill="#A582CF"/>
    <path d="M27.3779 0H25.5478V1.83005H27.3779V0Z" fill="#A582CF"/>
    <path d="M31.0561 1.82092H29.2261V3.65098H31.0561V1.82092Z" fill="#A582CF"/>
    <path d="M38.3581 14.604H36.5281V16.434H38.3581V14.604Z" fill="#ECECEC"/>
    <path d="M36.5281 14.604H34.698V16.434H36.5281V14.604Z" fill="#ECECEC"/>
    <path d="M34.7071 14.604H32.8771V16.434H34.7071V14.604Z" fill="#ECECEC"/>
    <path d="M25.5751 29.217H23.7451V31.0471H25.5751V29.217Z" fill="black"/>
    <path d="M23.7451 29.217H21.915V31.0471H23.7451V29.217Z" fill="black"/>
    <path d="M21.9241 29.217H20.0941V31.0471H21.9241V29.217Z" fill="black"/>
    <path d="M32.8771 14.604H31.0471V16.434H32.8771V14.604Z" fill="#ECECEC"/>
    <path d="M38.3581 9.12292H36.5281V10.953H38.3581V9.12292Z" fill="#ECECEC"/>
    <path d="M40.1882 9.12292H38.3581V10.953H40.1882V9.12292Z" fill="#ECECEC"/>
    <path d="M42.0091 9.12292H40.1791V10.953H42.0091V9.12292Z" fill="#ECECEC"/>
    <path d="M43.8392 7.302H42.0091V9.13206H43.8392V7.302Z" fill="#ECECEC"/>
    <path d="M45.6601 7.302H43.83V9.13206H45.6601V7.302Z" fill="#BDBDBD"/>
    <path d="M47.4901 5.47192H45.6601V7.30198H47.4901V5.47192Z" fill="#BDBDBD"/>
    <path d="M49.3201 5.47192H47.4901V7.30198H49.3201V5.47192Z" fill="#BDBDBD"/>
    <path d="M49.3201 7.302H47.4901V9.13206H49.3201V7.302Z" fill="#ECECEC"/>
    <path d="M47.4901 9.12292H45.6601V10.953H47.4901V9.12292Z" fill="#ECECEC"/>
    <path d="M49.3201 9.12292H47.4901V10.953H49.3201V9.12292Z" fill="#ECECEC"/>
    <path d="M47.4901 10.953H45.6601V12.7831H47.4901V10.953Z" fill="#ECECEC"/>
    <path d="M49.3201 10.953H47.4901V12.7831H49.3201V10.953Z" fill="#ECECEC"/>
    <path d="M47.4901 12.7831H45.6601V14.6131H47.4901V12.7831Z" fill="#A582CF"/>
    <path d="M49.3201 12.7831H47.4901V14.6131H49.3201V12.7831Z" fill="#A582CF"/>
    <path d="M47.4901 14.604H45.6601V16.434H47.4901V14.604Z" fill="#ECECEC"/>
    <path d="M49.3201 14.604H47.4901V16.434H49.3201V14.604Z" fill="#ECECEC"/>
    <path d="M38.3581 14.604H36.5281V16.434H38.3581V14.604Z" fill="#ECECEC"/>
    <path d="M40.1882 14.604H38.3581V16.434H40.1882V14.604Z" fill="#ECECEC"/>
    <path d="M42.0091 12.7831H40.1791V14.6131H42.0091V12.7831Z" fill="#A582CF"/>
    <path d="M42.0091 10.953H40.1791V12.7831H42.0091V10.953Z" fill="#BDBDBD"/>
    <path d="M45.6601 21.915H43.83V23.7451H45.6601V21.915Z" fill="black"/>
    <path d="M45.6601 23.736H43.83V25.566H45.6601V23.736Z" fill="#FF2D29"/>
    <path d="M45.6601 25.566H43.83V27.3961H45.6601V25.566Z" fill="#FF00A2"/>
    <path d="M45.6601 27.387H43.83V29.217H45.6601V27.387Z" fill="#FF2D29"/>
    <path d="M45.6601 29.217H43.83V31.0471H45.6601V29.217Z" fill="black"/>
    <path d="M82.1882 14.604H80.3582V16.434H82.1882V14.604Z" fill="black"/>
    <path d="M82.1882 12.7831H80.3582V14.6131H82.1882V12.7831Z" fill="black"/>
    <path d="M82.1882 9.12292H80.3582V10.953H82.1882V9.12292Z" fill="black"/>
    <path d="M82.1882 7.302H80.3582V9.13206H82.1882V7.302Z" fill="black"/>
    <path d="M82.1882 5.47192H80.3582V7.30198H82.1882V5.47192Z" fill="black"/>
    <path d="M80.3673 3.65097H78.5372V5.48102H80.3673V3.65097Z" fill="black"/>
    <path d="M78.5372 3.65097H76.7072V5.48102H78.5372V3.65097Z" fill="black"/>
    <path d="M76.7072 3.65097H74.8771V5.48102H76.7072V3.65097Z" fill="black"/>
    <path d="M74.8862 3.65097H73.0562V5.48102H74.8862V3.65097Z" fill="black"/>
    <path d="M73.0561 3.65097H71.2261V5.48102H73.0561V3.65097Z" fill="black"/>
    <path d="M71.2352 5.47192H69.4052V7.30198H71.2352V5.47192Z" fill="black"/>
    <path d="M71.2352 7.302H69.4052V9.13206H71.2352V7.302Z" fill="black"/>
    <path d="M71.2352 9.12292H69.4052V10.953H71.2352V9.12292Z" fill="black"/>
    <path d="M82.1882 10.953H80.3582V12.7831H82.1882V10.953Z" fill="black"/>
    <path d="M71.2352 10.953H69.4052V12.7831H71.2352V10.953Z" fill="#A582CF"/>
    <path d="M71.2352 12.7831H69.4052V14.6131H71.2352V12.7831Z" fill="#A582CF"/>
    <path d="M71.2352 14.604H69.4052V16.434H71.2352V14.604Z" fill="#ECECEC"/>
    <path d="M73.0561 5.47192H71.2261V7.30198H73.0561V5.47192Z" fill="#777777"/>
    <path d="M73.0561 7.302H71.2261V9.13206H73.0561V7.302Z" fill="black"/>
    <path d="M73.0561 9.12292H71.2261V10.953H73.0561V9.12292Z" fill="black"/>
    <path d="M73.0561 10.953H71.2261V12.7831H73.0561V10.953Z" fill="#A582CF"/>
    <path d="M73.0561 12.7831H71.2261V14.6131H73.0561V12.7831Z" fill="black"/>
    <path d="M73.0561 14.604H71.2261V16.434H73.0561V14.604Z" fill="#ECECEC"/>
    <path d="M73.0561 12.7831H71.2261V14.6131H73.0561V12.7831Z" fill="#A582CF"/>
    <path d="M74.8862 5.47192H73.0562V7.30198H74.8862V5.47192Z" fill="#777777"/>
    <path d="M74.8862 7.302H73.0562V9.13206H74.8862V7.302Z" fill="black"/>
    <path d="M74.8862 9.12292H73.0562V10.953H74.8862V9.12292Z" fill="black"/>
    <path d="M74.8862 10.953H73.0562V12.7831H74.8862V10.953Z" fill="#A582CF"/>
    <path d="M74.8862 12.7831H73.0562V14.6131H74.8862V12.7831Z" fill="#A582CF"/>
    <path d="M74.8862 14.604H73.0562V16.434H74.8862V14.604Z" fill="#ECECEC"/>
    <path d="M76.7072 5.47192H74.8771V7.30198H76.7072V5.47192Z" fill="#777777"/>
    <path d="M76.7072 7.302H74.8771V9.13206H76.7072V7.302Z" fill="black"/>
    <path d="M76.7072 9.12292H74.8771V10.953H76.7072V9.12292Z" fill="black"/>
    <path d="M76.7072 10.953H74.8771V12.7831H76.7072V10.953Z" fill="black"/>
    <path d="M76.7072 12.7831H74.8771V14.6131H76.7072V12.7831Z" fill="#A582CF"/>
    <path d="M76.7072 14.604H74.8771V16.434H76.7072V14.604Z" fill="#A582CF"/>
    <path d="M78.5372 5.47192H76.7072V7.30198H78.5372V5.47192Z" fill="black"/>
    <path d="M78.5372 7.302H76.7072V9.13206H78.5372V7.302Z" fill="black"/>
    <path d="M78.5372 9.12292H76.7072V10.953H78.5372V9.12292Z" fill="black"/>
    <path d="M78.5372 10.953H76.7072V12.7831H78.5372V10.953Z" fill="black"/>
    <path d="M78.5372 12.7831H76.7072V14.6131H78.5372V12.7831Z" fill="black"/>
    <path d="M78.5372 14.604H76.7072V16.434H78.5372V14.604Z" fill="black"/>
    <path d="M80.3673 5.47192H78.5372V7.30198H80.3673V5.47192Z" fill="#777777"/>
    <path d="M80.3673 7.302H78.5372V9.13206H80.3673V7.302Z" fill="black"/>
    <path d="M80.3673 9.12292H78.5372V10.953H80.3673V9.12292Z" fill="black"/>
    <path d="M80.3673 10.953H78.5372V12.7831H80.3673V10.953Z" fill="black"/>
    <path d="M80.3673 12.7831H78.5372V14.6131H80.3673V12.7831Z" fill="black"/>
    <path d="M80.3673 14.604H78.5372V16.434H80.3673V14.604Z" fill="black"/>
    <path d="M80.3673 16.434H78.5372V18.2641H80.3673V16.434Z" fill="black"/>
    <path d="M84.0183 14.604H82.1882V16.434H84.0183V14.604Z" fill="#5D7769"/>
    <path d="M84.0183 12.7831H82.1882V14.6131H84.0183V12.7831Z" fill="#5D7769"/>
    <path d="M84.0183 9.12292H82.1882V10.953H84.0183V9.12292Z" fill="#5D7769"/>
    <path d="M16.4431 7.302H14.613V9.13206H16.4431V7.302Z" fill="#5D7769"/>
    <path d="M84.0183 7.302H82.1882V9.13206H84.0183V7.302Z" fill="#5D7769"/>
    <path d="M16.4431 5.47192H14.613V7.30198H16.4431V5.47192Z" fill="#5D7769"/>
    <path d="M84.0183 5.47192H82.1882V7.30198H84.0183V5.47192Z" fill="#5D7769"/>
    <path d="M84.0183 10.953H82.1882V12.7831H84.0183V10.953Z" fill="#5D7769"/>
    <path d="M82.1882 16.434H80.3582V18.2641H82.1882V16.434Z" fill="#5D7769"/>
    <path d="M84.0183 16.434H82.1882V18.2641H84.0183V16.434Z" fill="#5D7769"/>
    <path d="M82.1882 18.2549H80.3582V20.085H82.1882V18.2549Z" fill="#5D7769"/>
    <path d="M80.3673 21.915H78.5372V23.7451H80.3673V21.915Z" fill="#5D7769"/>
    <path d="M80.3673 20.085H78.5372V21.915H80.3673V20.085Z" fill="#5D7769"/>
    <path d="M80.3673 18.2549H78.5372V20.085H80.3673V18.2549Z" fill="#5D7769"/>
    <path d="M82.1882 20.085H80.3582V21.915H82.1882V20.085Z" fill="#5D7769"/>
    <path d="M84.0183 20.085H82.1882V21.915H84.0183V20.085Z" fill="#5D7769"/>
    <path d="M85.8392 20.085H84.0092V21.915H85.8392V20.085Z" fill="#5D7769"/>
    <path d="M87.6693 20.085H85.8392V21.915H87.6693V20.085Z" fill="#5D7769"/>
    <path d="M89.4902 20.085H87.6602V21.915H89.4902V20.085Z" fill="#5D7769"/>
    <path d="M91.3202 20.085H89.4902V21.915H91.3202V20.085Z" fill="#5D7769"/>
    <path d="M93.1502 20.085H91.3202V21.915H93.1502V20.085Z" fill="#5D7769"/>
    <path d="M94.9712 20.085H93.1411V21.915H94.9712V20.085Z" fill="#5D7769"/>
    <path d="M96.8012 21.915H94.9712V23.7451H96.8012V21.915Z" fill="#5D7769"/>
    <path d="M98.6221 23.736H96.7921V25.566H98.6221V23.736Z" fill="#5D7769"/>
    <path d="M98.6221 25.566H96.7921V27.3961H98.6221V25.566Z" fill="#5D7769"/>
    <path d="M98.6221 27.387H96.7921V29.217H98.6221V27.387Z" fill="#5D7769"/>
    <path d="M98.6221 29.217H96.7921V31.0471H98.6221V29.217Z" fill="#5D7769"/>
    <path d="M98.6221 31.038H96.7921V32.868H98.6221V31.038Z" fill="#5D7769"/>
    <path d="M98.6221 32.868H96.7921V34.6981H98.6221V32.868Z" fill="#5D7769"/>
    <path d="M98.6221 34.6981H96.7921V36.5281H98.6221V34.6981Z" fill="#5D7769"/>
    <path d="M78.5372 16.434H76.7072V18.2641H78.5372V16.434Z" fill="black"/>
    <path d="M76.7072 16.434H74.8771V18.2641H76.7072V16.434Z" fill="black"/>
    <path d="M74.8862 16.434H73.0562V18.2641H74.8862V16.434Z" fill="#ECECEC"/>
    <path d="M73.0561 16.434H71.2261V18.2641H73.0561V16.434Z" fill="#ECECEC"/>
    <path d="M71.2352 3.65097H69.4052V5.48102H71.2352V3.65097Z" fill="black"/>
    <path d="M69.4052 5.47192H67.5751V7.30198H69.4052V5.47192Z" fill="black"/>
    <path d="M69.4052 7.302H67.5751V9.13206H69.4052V7.302Z" fill="black"/>
    <path d="M69.4052 9.12292H67.5751V10.953H69.4052V9.12292Z" fill="black"/>
    <path d="M69.4052 10.953H67.5751V12.7831H69.4052V10.953Z" fill="#A582CF"/>
    <path d="M67.5751 10.953H65.7451V12.7831H67.5751V10.953Z" fill="#A582CF"/>
    <path d="M69.4052 12.7831H67.5751V14.6131H69.4052V12.7831Z" fill="#A582CF"/>
    <path d="M69.4052 14.604H67.5751V16.434H69.4052V14.604Z" fill="#ECECEC"/>
    <path d="M71.2352 16.434H69.4052V18.2641H71.2352V16.434Z" fill="#ECECEC"/>
    <path d="M96.8012 34.6981H94.9712V36.5281H96.8012V34.6981Z" fill="black"/>
    <path d="M96.8012 32.868H94.9712V34.6981H96.8012V32.868Z" fill="black"/>
    <path d="M96.8012 29.217H94.9712V31.0471H96.8012V29.217Z" fill="black"/>
    <path d="M96.8012 25.566H94.9712V27.3961H96.8012V25.566Z" fill="black"/>
    <path d="M96.8012 23.736H94.9712V25.566H96.8012V23.736Z" fill="black"/>
    <path d="M94.9712 21.915H93.1411V23.7451H94.9712V21.915Z" fill="black"/>
    <path d="M93.1502 21.915H91.3202V23.7451H93.1502V21.915Z" fill="black"/>
    <path d="M91.3202 21.915H89.4902V23.7451H91.3202V21.915Z" fill="black"/>
    <path d="M89.4902 21.915H87.6602V23.7451H89.4902V21.915Z" fill="black"/>
    <path d="M87.6693 21.915H85.8392V23.7451H87.6693V21.915Z" fill="black"/>
    <path d="M85.8392 21.915H84.0092V23.7451H85.8392V21.915Z" fill="black"/>
    <path d="M82.1882 23.736H80.3582V25.566H82.1882V23.736Z" fill="black"/>
    <path d="M82.1882 25.566H80.3582V27.3961H82.1882V25.566Z" fill="black"/>
    <path d="M82.1882 29.217H80.3582V31.0471H82.1882V29.217Z" fill="black"/>
    <path d="M96.8012 31.0471H94.9712V32.8771H96.8012V31.0471Z" fill="black"/>
    <path d="M82.1882 31.0471H80.3582V32.8771H82.1882V31.0471Z" fill="black"/>
    <path d="M82.1882 32.868H80.3582V34.6981H82.1882V32.868Z" fill="black"/>
    <path d="M82.1882 34.6981H80.3582V36.5281H82.1882V34.6981Z" fill="black"/>
    <path d="M85.8392 23.736H84.0092V25.566H85.8392V23.736Z" fill="#777777"/>
    <path d="M84.0183 23.736H82.1882V25.566H84.0183V23.736Z" fill="#777777"/>
    <path d="M85.8392 25.566H84.0092V27.3961H85.8392V25.566Z" fill="black"/>
    <path d="M85.8392 29.217H84.0092V31.0471H85.8392V29.217Z" fill="black"/>
    <path d="M85.8392 31.0471H84.0092V32.8771H85.8392V31.0471Z" fill="black"/>
    <path d="M85.8392 32.868H84.0092V34.6981H85.8392V32.868Z" fill="black"/>
    <path d="M85.8392 34.6981H84.0092V36.5281H85.8392V34.6981Z" fill="black"/>
    <path d="M87.6693 23.736H85.8392V25.566H87.6693V23.736Z" fill="#777777"/>
    <path d="M87.6693 25.566H85.8392V27.3961H87.6693V25.566Z" fill="black"/>
    <path d="M87.6693 29.217H85.8392V31.0471H87.6693V29.217Z" fill="black"/>
    <path d="M87.6693 31.0471H85.8392V32.8771H87.6693V31.0471Z" fill="black"/>
    <path d="M87.6693 32.868H85.8392V34.6981H87.6693V32.868Z" fill="black"/>
    <path d="M87.6693 34.6981H85.8392V36.5281H87.6693V34.6981Z" fill="black"/>
    <path d="M89.4902 23.736H87.6602V25.566H89.4902V23.736Z" fill="#777777"/>
    <path d="M89.4902 25.566H87.6602V27.3961H89.4902V25.566Z" fill="black"/>
    <path d="M89.4902 29.217H87.6602V31.0471H89.4902V29.217Z" fill="black"/>
    <path d="M89.4902 31.0471H87.6602V32.8771H89.4902V31.0471Z" fill="black"/>
    <path d="M89.4902 32.868H87.6602V34.6981H89.4902V32.868Z" fill="black"/>
    <path d="M89.4902 34.6981H87.6602V36.5281H89.4902V34.6981Z" fill="black"/>
    <path d="M91.3202 23.736H89.4902V25.566H91.3202V23.736Z" fill="#777777"/>
    <path d="M91.3202 25.566H89.4902V27.3961H91.3202V25.566Z" fill="black"/>
    <path d="M91.3202 29.217H89.4902V31.0471H91.3202V29.217Z" fill="black"/>
    <path d="M91.3202 31.0471H89.4902V32.8771H91.3202V31.0471Z" fill="black"/>
    <path d="M91.3202 32.868H89.4902V34.6981H91.3202V32.868Z" fill="black"/>
    <path d="M91.3202 34.6981H89.4902V36.5281H91.3202V34.6981Z" fill="black"/>
    <path d="M93.1502 23.736H91.3202V25.566H93.1502V23.736Z" fill="black"/>
    <path d="M93.1502 25.566H91.3202V27.3961H93.1502V25.566Z" fill="black"/>
    <path d="M93.1502 29.217H91.3202V31.0471H93.1502V29.217Z" fill="black"/>
    <path d="M93.1502 31.0471H91.3202V32.8771H93.1502V31.0471Z" fill="black"/>
    <path d="M93.1502 32.868H91.3202V34.6981H93.1502V32.868Z" fill="black"/>
    <path d="M93.1502 34.6981H91.3202V36.5281H93.1502V34.6981Z" fill="black"/>
    <path d="M94.9712 23.736H93.1411V25.566H94.9712V23.736Z" fill="#777777"/>
    <path d="M94.9712 25.566H93.1411V27.3961H94.9712V25.566Z" fill="black"/>
    <path d="M94.9712 29.217H93.1411V31.0471H94.9712V29.217Z" fill="black"/>
    <path d="M94.9712 31.0471H93.1411V32.8771H94.9712V31.0471Z" fill="black"/>
    <path d="M94.9712 32.868H93.1411V34.6981H94.9712V32.868Z" fill="black"/>
    <path d="M94.9712 34.6981H93.1411V36.5281H94.9712V34.6981Z" fill="black"/>
    <path d="M94.9712 36.519H93.1411V38.3491H94.9712V36.519Z" fill="black"/>
    <path d="M93.1502 36.519H91.3202V38.3491H93.1502V36.519Z" fill="black"/>
    <path d="M91.3202 36.519H89.4902V38.3491H91.3202V36.519Z" fill="black"/>
    <path d="M89.4902 36.519H87.6602V38.3491H89.4902V36.519Z" fill="black"/>
    <path d="M87.6693 36.519H85.8392V38.3491H87.6693V36.519Z" fill="black"/>
    <path d="M85.8392 36.519H84.0092V38.3491H85.8392V36.519Z" fill="black"/>
    <path d="M82.1882 21.915H80.3582V23.7451H82.1882V21.915Z" fill="black"/>
    <path d="M80.3673 23.736H78.5372V25.566H80.3673V23.736Z" fill="black"/>
    <path d="M80.3673 25.566H78.5372V27.3961H80.3673V25.566Z" fill="black"/>
    <path d="M80.3673 29.217H78.5372V31.0471H80.3673V29.217Z" fill="black"/>
    <path d="M80.3673 31.0471H78.5372V32.8771H80.3673V31.0471Z" fill="black"/>
    <path d="M80.3673 32.868H78.5372V34.6981H80.3673V32.868Z" fill="black"/>
    <path d="M80.3673 34.6981H78.5372V36.5281H80.3673V34.6981Z" fill="black"/>
    <path d="M78.5372 32.868H76.7072V34.6981H78.5372V32.868Z" fill="black"/>
    <path d="M78.5372 27.387H76.7072V29.217H78.5372V27.387Z" fill="#636363"/>
    <path d="M76.7072 25.566H74.8771V27.3961H76.7072V25.566Z" fill="#636363"/>
    <path d="M76.7072 23.736H74.8771V25.566H76.7072V23.736Z" fill="#636363"/>
    <path d="M76.7072 21.915H74.8771V23.7451H76.7072V21.915Z" fill="#636363"/>
    <path d="M76.7072 20.085H74.8771V21.915H76.7072V20.085Z" fill="#8D8D8D"/>
    <path d="M76.7072 18.2549H74.8771V20.085H76.7072V18.2549Z" fill="#8D8D8D"/>
    <path d="M78.5372 25.566H76.7072V27.3961H78.5372V25.566Z" fill="#636363"/>
    <path d="M78.5372 23.736H76.7072V25.566H78.5372V23.736Z" fill="#636363"/>
    <path d="M78.5372 20.085H76.7072V21.915H78.5372V20.085Z" fill="#ECECEC"/>
    <path d="M78.5372 20.085H76.7072V21.915H78.5372V20.085Z" fill="#8D8D8D"/>
    <path d="M78.5372 21.915H76.7072V23.7451H78.5372V21.915Z" fill="#8D8D8D"/>
    <path d="M78.5372 18.2549H76.7072V20.085H78.5372V18.2549Z" fill="#ECECEC"/>
    <path d="M78.5372 16.434H76.7072V18.2641H78.5372V16.434Z" fill="black"/>
    <path d="M76.7072 16.434H74.8771V18.2641H76.7072V16.434Z" fill="#ECECEC"/>
    <path d="M74.8862 16.434H73.0562V18.2641H74.8862V16.434Z" fill="#ECECEC"/>
    <path d="M74.8862 18.2549H73.0562V20.085H74.8862V18.2549Z" fill="#A582CF"/>
    <path d="M73.0561 18.2549H71.2261V20.085H73.0561V18.2549Z" fill="#A582CF"/>
    <path d="M71.2352 18.2549H69.4052V20.085H71.2352V18.2549Z" fill="#A582CF"/>
    <path d="M69.4052 18.2549H67.5751V20.085H69.4052V18.2549Z" fill="#A582CF"/>
    <path d="M67.5751 18.2549H65.7451V20.085H67.5751V18.2549Z" fill="#A582CF"/>
    <path d="M65.7542 18.2549H63.9241V20.085H65.7542V18.2549Z" fill="#A582CF"/>
    <path d="M63.9241 18.2549H62.0941V20.085H63.9241V18.2549Z" fill="#A582CF"/>
    <path d="M62.1032 18.2549H60.2732V20.085H62.1032V18.2549Z" fill="#A582CF"/>
    <path d="M60.2731 18.2549H58.4431V20.085H60.2731V18.2549Z" fill="#A582CF"/>
    <path d="M58.4431 18.2549H56.613V20.085H58.4431V18.2549Z" fill="#A582CF"/>
    <path d="M56.6221 18.2549H54.7921V20.085H56.6221V18.2549Z" fill="#A582CF"/>
    <path d="M54.7921 18.2549H52.962V20.085H54.7921V18.2549Z" fill="#A582CF"/>
    <path d="M52.9712 18.2549H51.1411V20.085H52.9712V18.2549Z" fill="#A582CF"/>
    <path d="M51.1411 18.2549H49.3111V20.085H51.1411V18.2549Z" fill="#A582CF"/>
    <path d="M74.8862 20.085H73.0562V21.915H74.8862V20.085Z" fill="black"/>
    <path d="M74.8862 21.915H73.0562V23.7451H74.8862V21.915Z" fill="#FF2D29"/>
    <path d="M74.8862 23.736H73.0562V25.566H74.8862V23.736Z" fill="#FF00A2"/>
    <path d="M74.8862 25.566H73.0562V27.3961H74.8862V25.566Z" fill="#FF2D29"/>
    <path d="M76.7072 27.387H74.8771V29.217H76.7072V27.387Z" fill="black"/>
    <path d="M73.0561 20.085H71.2261V21.915H73.0561V20.085Z" fill="black"/>
    <path d="M71.2352 20.085H69.4052V21.915H71.2352V20.085Z" fill="black"/>
    <path d="M69.4052 20.085H67.5751V21.915H69.4052V20.085Z" fill="black"/>
    <path d="M67.5751 20.085H65.7451V21.915H67.5751V20.085Z" fill="black"/>
    <path d="M65.7542 20.085H63.9241V21.915H65.7542V20.085Z" fill="black"/>
    <path d="M63.9241 20.085H62.0941V21.915H63.9241V20.085Z" fill="black"/>
    <path d="M62.1032 20.085H60.2732V21.915H62.1032V20.085Z" fill="black"/>
    <path d="M60.2731 20.085H58.4431V21.915H60.2731V20.085Z" fill="black"/>
    <path d="M58.4431 20.085H56.613V21.915H58.4431V20.085Z" fill="black"/>
    <path d="M56.6221 20.085H54.7921V21.915H56.6221V20.085Z" fill="black"/>
    <path d="M54.7921 20.085H52.962V21.915H54.7921V20.085Z" fill="black"/>
    <path d="M52.9712 20.085H51.1411V21.915H52.9712V20.085Z" fill="black"/>
    <path d="M51.1411 20.085H49.3111V21.915H51.1411V20.085Z" fill="black"/>
    <path d="M73.0561 16.434H71.2261V18.2641H73.0561V16.434Z" fill="#ECECEC"/>
    <path d="M71.2352 16.434H69.4052V18.2641H71.2352V16.434Z" fill="#ECECEC"/>
    <path d="M69.4052 16.434H67.5751V18.2641H69.4052V16.434Z" fill="#ECECEC"/>
    <path d="M67.5751 16.434H65.7451V18.2641H67.5751V16.434Z" fill="#ECECEC"/>
    <path d="M65.7542 16.434H63.9241V18.2641H65.7542V16.434Z" fill="#ECECEC"/>
    <path d="M63.9241 16.434H62.0941V18.2641H63.9241V16.434Z" fill="#ECECEC"/>
    <path d="M62.1032 16.434H60.2732V18.2641H62.1032V16.434Z" fill="#ECECEC"/>
    <path d="M60.2731 16.434H58.4431V18.2641H60.2731V16.434Z" fill="#ECECEC"/>
    <path d="M58.4431 16.434H56.613V18.2641H58.4431V16.434Z" fill="#ECECEC"/>
    <path d="M56.6221 16.434H54.7921V18.2641H56.6221V16.434Z" fill="#ECECEC"/>
    <path d="M54.7921 16.434H52.962V18.2641H54.7921V16.434Z" fill="#ECECEC"/>
    <path d="M52.9712 16.434H51.1411V18.2641H52.9712V16.434Z" fill="#ECECEC"/>
    <path d="M51.1411 16.434H49.3111V18.2641H51.1411V16.434Z" fill="#ECECEC"/>
    <path d="M76.7072 32.868H74.8771V34.6981H76.7072V32.868Z" fill="black"/>
    <path d="M74.8862 34.6981H73.0562V36.5281H74.8862V34.6981Z" fill="black"/>
    <path d="M73.0561 34.6981H71.2261V36.5281H73.0561V34.6981Z" fill="black"/>
    <path d="M71.2352 34.6981H69.4052V36.5281H71.2352V34.6981Z" fill="black"/>
    <path d="M71.2352 32.868H69.4052V34.6981H71.2352V32.868Z" fill="#636363"/>
    <path d="M73.0561 32.868H71.2261V34.6981H73.0561V32.868Z" fill="#636363"/>
    <path d="M74.8862 32.868H73.0562V34.6981H74.8862V32.868Z" fill="#424242"/>
    <path d="M74.8862 31.0471H73.0562V32.8771H74.8862V31.0471Z" fill="#424242"/>
    <path d="M76.7072 31.0471H74.8771V32.8771H76.7072V31.0471Z" fill="#424242"/>
    <path d="M78.5372 31.0471H76.7072V32.8771H78.5372V31.0471Z" fill="black"/>
    <path d="M73.0561 31.0471H71.2261V32.8771H73.0561V31.0471Z" fill="#424242"/>
    <path d="M71.2352 31.0471H69.4052V32.8771H71.2352V31.0471Z" fill="#424242"/>
    <path d="M69.4052 31.0471H67.5751V32.8771H69.4052V31.0471Z" fill="#424242"/>
    <path d="M67.5751 29.217H65.7451V31.0471H67.5751V29.217Z" fill="black"/>
    <path d="M67.5751 31.0471H65.7451V32.8771H67.5751V31.0471Z" fill="#777777"/>
    <path d="M65.7542 32.868H63.9241V34.6981H65.7542V32.868Z" fill="#ECECEC"/>
    <path d="M62.1032 31.0471H60.2732V32.8771H62.1032V31.0471Z" fill="#777777"/>
    <path d="M60.2731 31.0471H58.4431V32.8771H60.2731V31.0471Z" fill="#ECECEC"/>
    <path d="M58.4431 32.868H56.613V34.6981H58.4431V32.868Z" fill="#636363"/>
    <path d="M62.1032 29.217H60.2732V31.0471H62.1032V29.217Z" fill="#BDBDBD"/>
    <path d="M60.2731 29.217H58.4431V31.0471H60.2731V29.217Z" fill="#BDBDBD"/>
    <path d="M58.4431 29.217H56.613V31.0471H58.4431V29.217Z" fill="#BDBDBD"/>
    <path d="M62.1032 31.0471H60.2732V32.8771H62.1032V31.0471Z" fill="#ECECEC"/>
    <path d="M63.9241 31.0471H62.0941V32.8771H63.9241V31.0471Z" fill="#ECECEC"/>
    <path d="M69.4052 32.868H67.5751V34.6981H69.4052V32.868Z" fill="#636363"/>
    <path d="M67.5751 32.868H65.7451V34.6981H67.5751V32.868Z" fill="#424242"/>
    <path d="M63.9241 32.868H62.0941V34.6981H63.9241V32.868Z" fill="black"/>
    <path d="M62.1032 32.868H60.2732V34.6981H62.1032V32.868Z" fill="black"/>
    <path d="M60.2731 32.868H58.4431V34.6981H60.2731V32.868Z" fill="#BDBDBD"/>
    <path d="M56.6221 29.217H54.7921V31.0471H56.6221V29.217Z" fill="black"/>
    <path d="M58.4431 31.0471H56.613V32.8771H58.4431V31.0471Z" fill="black"/>
    <path d="M62.1032 29.217H60.2732V31.0471H62.1032V29.217Z" fill="black"/>
    <path d="M58.4431 31.0471H56.613V32.8771H58.4431V31.0471Z" fill="#424242"/>
    <path d="M60.2731 29.217H58.4431V31.0471H60.2731V29.217Z" fill="black"/>
    <path d="M58.4431 29.217H56.613V31.0471H58.4431V29.217Z" fill="black"/>
    <path d="M69.4052 34.6981H67.5751V36.5281H69.4052V34.6981Z" fill="black"/>
    <path d="M67.5751 34.6981H65.7451V36.5281H67.5751V34.6981Z" fill="black"/>
    <path d="M65.7542 34.6981H63.9241V36.5281H65.7542V34.6981Z" fill="#636363"/>
    <path d="M63.9241 34.6981H62.0941V36.5281H63.9241V34.6981Z" fill="#636363"/>
    <path d="M62.1032 34.6981H60.2732V36.5281H62.1032V34.6981Z" fill="#636363"/>
    <path d="M73.0561 32.868H71.2261V34.6981H73.0561V32.868Z" fill="#ECECEC"/>
    <path d="M67.5751 31.0471H65.7451V32.8771H67.5751V31.0471Z" fill="#ECECEC"/>
    <path d="M69.4052 31.0471H67.5751V32.8771H69.4052V31.0471Z" fill="#ECECEC"/>
    <path d="M71.2352 31.0471H69.4052V32.8771H71.2352V31.0471Z" fill="#ECECEC"/>
    <path d="M71.2352 32.868H69.4052V34.6981H71.2352V32.868Z" fill="black"/>
    <path d="M69.4052 32.868H67.5751V34.6981H69.4052V32.868Z" fill="black"/>
    <path d="M67.5751 32.868H65.7451V34.6981H67.5751V32.868Z" fill="#BDBDBD"/>
    <path d="M73.0561 34.6981H71.2261V36.5281H73.0561V34.6981Z" fill="#636363"/>
    <path d="M71.2352 34.6981H69.4052V36.5281H71.2352V34.6981Z" fill="#636363"/>
    <path d="M69.4052 34.6981H67.5751V36.5281H69.4052V34.6981Z" fill="#636363"/>
    <path d="M60.2731 34.6981H58.4431V36.5281H60.2731V34.6981Z" fill="black"/>
    <path d="M58.4431 34.6981H56.613V36.5281H58.4431V34.6981Z" fill="black"/>
    <path d="M56.6221 36.519H54.7921V38.3491H56.6221V36.519Z" fill="black"/>
    <path d="M58.4431 36.519H56.613V38.3491H58.4431V36.519Z" fill="black"/>
    <path d="M60.2731 36.519H58.4431V38.3491H60.2731V36.519Z" fill="black"/>
    <path d="M62.1032 36.519H60.2732V38.3491H62.1032V36.519Z" fill="black"/>
    <path d="M63.9241 36.519H62.0941V38.3491H63.9241V36.519Z" fill="black"/>
    <path d="M65.7542 36.519H63.9241V38.3491H65.7542V36.519Z" fill="black"/>
    <path d="M67.5751 36.519H65.7451V38.3491H67.5751V36.519Z" fill="black"/>
    <path d="M54.7921 36.519H52.962V38.3491H54.7921V36.519Z" fill="black"/>
    <path d="M52.9712 36.519H51.1411V38.3491H52.9712V36.519Z" fill="black"/>
    <path d="M51.1411 36.519H49.3111V38.3491H51.1411V36.519Z" fill="black"/>
    <path d="M82.1882 36.519H80.3582V38.3491H82.1882V36.519Z" fill="black"/>
    <path d="M84.0183 25.566H82.1882V27.3961H84.0183V25.566Z" fill="black"/>
    <path d="M84.0183 29.217H82.1882V31.0471H84.0183V29.217Z" fill="black"/>
    <path d="M96.8012 27.387H94.9712V29.217H96.8012V27.387Z" fill="black"/>
    <path d="M82.1882 27.387H80.3582V29.217H82.1882V27.387Z" fill="black"/>
    <path d="M85.8392 27.387H84.0092V29.217H85.8392V27.387Z" fill="black"/>
    <path d="M87.6693 27.387H85.8392V29.217H87.6693V27.387Z" fill="black"/>
    <path d="M89.4902 27.387H87.6602V29.217H89.4902V27.387Z" fill="black"/>
    <path d="M91.3202 27.387H89.4902V29.217H91.3202V27.387Z" fill="black"/>
    <path d="M93.1502 27.387H91.3202V29.217H93.1502V27.387Z" fill="black"/>
    <path d="M94.9712 27.387H93.1411V29.217H94.9712V27.387Z" fill="black"/>
    <path d="M80.3673 27.387H78.5372V29.217H80.3673V27.387Z" fill="black"/>
    <path d="M84.0183 27.387H82.1882V29.217H84.0183V27.387Z" fill="black"/>
    <path d="M84.0183 31.0471H82.1882V32.8771H84.0183V31.0471Z" fill="black"/>
    <path d="M84.0183 32.868H82.1882V34.6981H84.0183V32.868Z" fill="black"/>
    <path d="M84.0183 34.6981H82.1882V36.5281H84.0183V34.6981Z" fill="black"/>
    <path d="M84.0183 21.915H82.1882V23.7451H84.0183V21.915Z" fill="black"/>
    <path d="M84.0183 36.519H82.1882V38.3491H84.0183V36.519Z" fill="black"/>
    <path d="M63.9241 9.12292H62.0941V10.953H63.9241V9.12292Z" fill="#ECECEC"/>
    <path d="M65.7542 10.953H63.9241V12.7831H65.7542V10.953Z" fill="#ECECEC"/>
    <path d="M67.5751 12.7831H65.7451V14.6131H67.5751V12.7831Z" fill="#A582CF"/>
    <path d="M73.0561 23.736H71.2261V25.566H73.0561V23.736Z" fill="#FF2D29"/>
    <path d="M71.2352 23.736H69.4052V25.566H71.2352V23.736Z" fill="#FF2D29"/>
    <path d="M73.0561 25.566H71.2261V27.3961H73.0561V25.566Z" fill="#FF00A2"/>
    <path d="M71.2352 25.566H69.4052V27.3961H71.2352V25.566Z" fill="#FF00A2"/>
    <path d="M69.4052 25.566H67.5751V27.3961H69.4052V25.566Z" fill="#FF00A2"/>
    <path d="M67.5751 25.566H65.7451V27.3961H67.5751V25.566Z" fill="#FF00A2"/>
    <path d="M69.4052 21.915H67.5751V23.7451H69.4052V21.915Z" fill="black"/>
    <path d="M71.2352 21.915H69.4052V23.7451H71.2352V21.915Z" fill="black"/>
    <path d="M73.0561 21.915H71.2261V23.7451H73.0561V21.915Z" fill="black"/>
    <path d="M67.5751 21.915H65.7451V23.7451H67.5751V21.915Z" fill="black"/>
    <path d="M69.4052 23.736H67.5751V25.566H69.4052V23.736Z" fill="#FF2D29"/>
    <path d="M67.5751 23.736H65.7451V25.566H67.5751V23.736Z" fill="#FF2D29"/>
    <path d="M65.7542 21.915H63.9241V23.7451H65.7542V21.915Z" fill="black"/>
    <path d="M65.7542 23.736H63.9241V25.566H65.7542V23.736Z" fill="#FF2D29"/>
    <path d="M63.9241 21.915H62.0941V23.7451H63.9241V21.915Z" fill="black"/>
    <path d="M63.9241 23.736H62.0941V25.566H63.9241V23.736Z" fill="#FF2D29"/>
    <path d="M62.1032 21.915H60.2732V23.7451H62.1032V21.915Z" fill="black"/>
    <path d="M62.1032 23.736H60.2732V25.566H62.1032V23.736Z" fill="#FF2D29"/>
    <path d="M63.9241 25.566H62.0941V27.3961H63.9241V25.566Z" fill="#FF00A2"/>
    <path d="M65.7542 25.566H63.9241V27.3961H65.7542V25.566Z" fill="#FF00A2"/>
    <path d="M65.7542 27.387H63.9241V29.217H65.7542V27.387Z" fill="#FF2D29"/>
    <path d="M67.5751 27.387H65.7451V29.217H67.5751V27.387Z" fill="#FF2D29"/>
    <path d="M60.2731 21.915H58.4431V23.7451H60.2731V21.915Z" fill="black"/>
    <path d="M60.2731 23.736H58.4431V25.566H60.2731V23.736Z" fill="#FF2D29"/>
    <path d="M58.4431 21.915H56.613V23.7451H58.4431V21.915Z" fill="black"/>
    <path d="M58.4431 23.736H56.613V25.566H58.4431V23.736Z" fill="#FF2D29"/>
    <path d="M56.6221 21.915H54.7921V23.7451H56.6221V21.915Z" fill="black"/>
    <path d="M56.6221 23.736H54.7921V25.566H56.6221V23.736Z" fill="#FF2D29"/>
    <path d="M54.7921 21.915H52.962V23.7451H54.7921V21.915Z" fill="black"/>
    <path d="M54.7921 23.736H52.962V25.566H54.7921V23.736Z" fill="#FF2D29"/>
    <path d="M52.9712 21.915H51.1411V23.7451H52.9712V21.915Z" fill="black"/>
    <path d="M52.9712 23.736H51.1411V25.566H52.9712V23.736Z" fill="#FF2D29"/>
    <path d="M51.1411 21.915H49.3111V23.7451H51.1411V21.915Z" fill="black"/>
    <path d="M51.1411 23.736H49.3111V25.566H51.1411V23.736Z" fill="black"/>
    <path d="M52.9712 25.566H51.1411V27.3961H52.9712V25.566Z" fill="#FF00A2"/>
    <path d="M51.1411 25.566H49.3111V27.3961H51.1411V25.566Z" fill="black"/>
    <path d="M52.9712 27.387H51.1411V29.217H52.9712V27.387Z" fill="#FF2D29"/>
    <path d="M56.6221 25.566H54.7921V27.3961H56.6221V25.566Z" fill="#FF00A2"/>
    <path d="M56.6221 27.387H54.7921V29.217H56.6221V27.387Z" fill="#FF2D29"/>
    <path d="M58.4431 25.566H56.613V27.3961H58.4431V25.566Z" fill="#FF00A2"/>
    <path d="M58.4431 27.387H56.613V29.217H58.4431V27.387Z" fill="#FF2D29"/>
    <path d="M60.2731 25.566H58.4431V27.3961H60.2731V25.566Z" fill="#FF00A2"/>
    <path d="M60.2731 27.387H58.4431V29.217H60.2731V27.387Z" fill="#FF2D29"/>
    <path d="M62.1032 25.566H60.2732V27.3961H62.1032V25.566Z" fill="#FF00A2"/>
    <path d="M62.1032 27.387H60.2732V29.217H62.1032V27.387Z" fill="#FF2D29"/>
    <path d="M63.9241 27.387H62.0941V29.217H63.9241V27.387Z" fill="#FF2D29"/>
    <path d="M63.9241 29.217H62.0941V31.0471H63.9241V29.217Z" fill="black"/>
    <path d="M65.7542 29.217H63.9241V31.0471H65.7542V29.217Z" fill="black"/>
    <path d="M65.7542 31.0471H63.9241V32.8771H65.7542V31.0471Z" fill="#424242"/>
    <path d="M69.4052 27.387H67.5751V29.217H69.4052V27.387Z" fill="#FF2D29"/>
    <path d="M71.2352 27.387H69.4052V29.217H71.2352V27.387Z" fill="#FF2D29"/>
    <path d="M73.0561 27.387H71.2261V29.217H73.0561V27.387Z" fill="#FF2D29"/>
    <path d="M74.8862 27.387H73.0562V29.217H74.8862V27.387Z" fill="black"/>
    <path d="M71.2352 29.217H69.4052V31.0471H71.2352V29.217Z" fill="black"/>
    <path d="M73.0561 29.217H71.2261V31.0471H73.0561V29.217Z" fill="black"/>
    <path d="M74.8862 29.217H73.0562V31.0471H74.8862V29.217Z" fill="#A582CF"/>
    <path d="M69.4052 29.217H67.5751V31.0471H69.4052V29.217Z" fill="black"/>
    <path d="M51.1411 27.387H49.3111V29.217H51.1411V27.387Z" fill="black"/>
    <path d="M52.9712 29.217H51.1411V31.0471H52.9712V29.217Z" fill="black"/>
    <path d="M56.6221 31.0471H54.7921V32.8771H56.6221V31.0471Z" fill="#424242"/>
    <path d="M56.6221 32.868H54.7921V34.6981H56.6221V32.868Z" fill="#636363"/>
    <path d="M56.6221 34.6981H54.7921V36.5281H56.6221V34.6981Z" fill="#636363"/>
    <path d="M58.4522 34.6981H56.6221V36.5281H58.4522V34.6981Z" fill="#424242"/>
    <path d="M54.7921 32.868H52.962V34.6981H54.7921V32.868Z" fill="black"/>
    <path d="M54.7921 34.6981H52.962V36.5281H54.7921V34.6981Z" fill="#636363"/>
    <path d="M54.7921 31.0471H52.962V32.8771H54.7921V31.0471Z" fill="#424242"/>
    <path d="M52.9712 32.868H51.1411V34.6981H52.9712V32.868Z" fill="black"/>
    <path d="M52.9712 34.6981H51.1411V36.5281H52.9712V34.6981Z" fill="#636363"/>
    <path d="M52.9712 31.0471H51.1411V32.8771H52.9712V31.0471Z" fill="#424242"/>
    <path d="M51.1411 32.868H49.3111V34.6981H51.1411V32.868Z" fill="black"/>
    <path d="M51.1411 34.6981H49.3111V36.5281H51.1411V34.6981Z" fill="#636363"/>
    <path d="M51.1411 31.0471H49.3111V32.8771H51.1411V31.0471Z" fill="#424242"/>
    <path d="M51.1411 29.217H49.3111V31.0471H51.1411V29.217Z" fill="black"/>
    <path d="M67.5751 14.604H65.7451V16.434H67.5751V14.604Z" fill="#ECECEC"/>
    <path d="M63.9241 10.953H62.0941V12.7831H63.9241V10.953Z" fill="#ECECEC"/>
    <path d="M62.1032 10.953H60.2732V12.7831H62.1032V10.953Z" fill="#ECECEC"/>
    <path d="M60.2731 10.953H58.4431V12.7831H60.2731V10.953Z" fill="#ECECEC"/>
    <path d="M60.2731 12.7831H58.4431V14.6131H60.2731V12.7831Z" fill="#A582CF"/>
    <path d="M58.4431 14.604H56.613V16.434H58.4431V14.604Z" fill="#ECECEC"/>
    <path d="M56.6221 14.604H54.7921V16.434H56.6221V14.604Z" fill="#ECECEC"/>
    <path d="M56.6221 12.7831H54.7921V14.6131H56.6221V12.7831Z" fill="#A582CF"/>
    <path d="M56.6221 10.953H54.7921V12.7831H56.6221V10.953Z" fill="#BDBDBD"/>
    <path d="M56.6221 9.12292H54.7921V10.953H56.6221V9.12292Z" fill="#BDBDBD"/>
    <path d="M54.7921 14.604H52.962V16.434H54.7921V14.604Z" fill="#ECECEC"/>
    <path d="M54.7921 12.7831H52.962V14.6131H54.7921V12.7831Z" fill="#A582CF"/>
    <path d="M54.7921 10.953H52.962V12.7831H54.7921V10.953Z" fill="#BDBDBD"/>
    <path d="M54.7921 9.12292H52.962V10.953H54.7921V9.12292Z" fill="#BDBDBD"/>
    <path d="M52.9712 7.302H51.1411V9.13206H52.9712V7.302Z" fill="#BDBDBD"/>
    <path d="M62.1032 12.7831H60.2732V14.6131H62.1032V12.7831Z" fill="#A582CF"/>
    <path d="M63.9241 12.7831H62.0941V14.6131H63.9241V12.7831Z" fill="#A582CF"/>
    <path d="M65.7542 12.7831H63.9241V14.6131H65.7542V12.7831Z" fill="#A582CF"/>
    <path d="M65.7542 7.302H63.9241V9.13206H65.7542V7.302Z" fill="#A582CF"/>
    <path d="M65.7542 9.12292H63.9241V10.953H65.7542V9.12292Z" fill="#4D00A4"/>
    <path d="M63.9241 7.302H62.0941V9.13206H63.9241V7.302Z" fill="#A582CF"/>
    <path d="M62.1032 7.302H60.2732V9.13206H62.1032V7.302Z" fill="#A582CF"/>
    <path d="M60.2731 7.302H58.4431V9.13206H60.2731V7.302Z" fill="#A582CF"/>
    <path d="M58.4431 7.302H56.613V9.13206H58.4431V7.302Z" fill="#A582CF"/>
    <path d="M65.7542 5.47192H63.9241V7.30198H65.7542V5.47192Z" fill="#A582CF"/>
    <path d="M67.5751 7.302H65.7451V9.13206H67.5751V7.302Z" fill="#4D00A4"/>
    <path d="M67.5751 5.47192H65.7451V7.30198H67.5751V5.47192Z" fill="#4D00A4"/>
    <path d="M73.0561 1.82092H71.2261V3.65098H73.0561V1.82092Z" fill="#A582CF"/>
    <path d="M73.0561 0H71.2261V1.83005H73.0561V0Z" fill="#A582CF"/>
    <path d="M69.4052 1.82092H67.5751V3.65098H69.4052V1.82092Z" fill="#4D00A4"/>
    <path d="M71.2352 1.82092H69.4052V3.65098H71.2352V1.82092Z" fill="#4D00A4"/>
    <path d="M67.5751 1.82092H65.7451V3.65098H67.5751V1.82092Z" fill="#4D00A4"/>
    <path d="M65.7542 1.82092H63.9241V3.65098H65.7542V1.82092Z" fill="#A582CF"/>
    <path d="M63.9241 1.82092H62.0941V3.65098H63.9241V1.82092Z" fill="#A582CF"/>
    <path d="M62.1032 1.82092H60.2732V3.65098H62.1032V1.82092Z" fill="#A582CF"/>
    <path d="M60.2731 1.82092H58.4431V3.65098H60.2731V1.82092Z" fill="#A582CF"/>
    <path d="M58.4522 1.82092H56.6221V3.65098H58.4522V1.82092Z" fill="#A582CF"/>
    <path d="M56.6221 1.82092H54.7921V3.65098H56.6221V1.82092Z" fill="#A582CF"/>
    <path d="M54.7921 1.82092H52.962V3.65098H54.7921V1.82092Z" fill="#A582CF"/>
    <path d="M52.9712 1.82092H51.1411V3.65098H52.9712V1.82092Z" fill="#A582CF"/>
    <path d="M51.1411 1.82092H49.3111V3.65098H51.1411V1.82092Z" fill="#A582CF"/>
    <path d="M49.3201 1.82092H47.4901V3.65098H49.3201V1.82092Z" fill="#A582CF"/>
    <path d="M47.4901 1.82092H45.6601V3.65098H47.4901V1.82092Z" fill="#A582CF"/>
    <path d="M45.6601 1.82092H43.83V3.65098H45.6601V1.82092Z" fill="#A582CF"/>
    <path d="M43.8301 1.82092H42V3.65098H43.8301V1.82092Z" fill="#A582CF"/>
    <path d="M42 1.82092H40.17V3.65098H42V1.82092Z" fill="#A582CF"/>
    <path d="M40.1791 1.82092H38.349V3.65098H40.1791V1.82092Z" fill="#A582CF"/>
    <path d="M38.349 1.82092H36.519V3.65098H38.349V1.82092Z" fill="#A582CF"/>
    <path d="M36.519 1.82092H34.689V3.65098H36.519V1.82092Z" fill="#A582CF"/>
    <path d="M34.6889 1.82092H32.8589V3.65098H34.6889V1.82092Z" fill="#A582CF"/>
    <path d="M32.8589 1.82092H31.0288V3.65098H32.8589V1.82092Z" fill="#4D00A4"/>
    <path d="M31.0288 1.82092H29.1988V3.65098H31.0288V1.82092Z" fill="#4D00A4"/>
    <path d="M29.1988 1.82092H27.3687V3.65098H29.1988V1.82092Z" fill="#4D00A4"/>
    <path d="M62.1032 14.604H60.2732V16.434H62.1032V14.604Z" fill="#ECECEC"/>
    <path d="M63.9241 14.604H62.0941V16.434H63.9241V14.604Z" fill="#ECECEC"/>
    <path d="M65.7542 14.604H63.9241V16.434H65.7542V14.604Z" fill="#ECECEC"/>
    <path d="M74.8862 29.217H73.0562V31.0471H74.8862V29.217Z" fill="black"/>
    <path d="M76.7072 29.217H74.8771V31.0471H76.7072V29.217Z" fill="black"/>
    <path d="M78.5372 29.217H76.7072V31.0471H78.5372V29.217Z" fill="black"/>
    <path d="M67.5751 14.604H65.7451V16.434H67.5751V14.604Z" fill="#ECECEC"/>
    <path d="M62.1032 9.12292H60.2732V10.953H62.1032V9.12292Z" fill="#ECECEC"/>
    <path d="M60.2731 9.12292H58.4431V10.953H60.2731V9.12292Z" fill="#ECECEC"/>
    <path d="M58.4431 9.12292H56.613V10.953H58.4431V9.12292Z" fill="#ECECEC"/>
    <path d="M56.6221 7.302H54.7921V9.13206H56.6221V7.302Z" fill="#ECECEC"/>
    <path d="M36.5281 5.47192H34.698V7.30198H36.5281V5.47192Z" fill="#A582CF"/>
    <path d="M38.3581 5.47192H36.5281V7.30198H38.3581V5.47192Z" fill="#A582CF"/>
    <path d="M40.1882 5.47192H38.3581V7.30198H40.1882V5.47192Z" fill="#A582CF"/>
    <path d="M42.0091 5.47192H40.1791V7.30198H42.0091V5.47192Z" fill="#A582CF"/>
    <path d="M43.8392 5.47192H42.0091V7.30198H43.8392V5.47192Z" fill="#A582CF"/>
    <path d="M45.6601 5.47192H43.83V7.30198H45.6601V5.47192Z" fill="#ECECEC"/>
    <path d="M63.9241 5.47192H62.0941V7.30198H63.9241V5.47192Z" fill="#A582CF"/>
    <path d="M62.1032 5.47192H60.2732V7.30198H62.1032V5.47192Z" fill="#A582CF"/>
    <path d="M60.2731 5.47192H58.4431V7.30198H60.2731V5.47192Z" fill="#A582CF"/>
    <path d="M58.4431 5.47192H56.613V7.30198H58.4431V5.47192Z" fill="#A582CF"/>
    <path d="M56.6221 5.47192H54.7921V7.30198H56.6221V5.47192Z" fill="#A582CF"/>
    <path d="M54.7921 5.47192H52.962V7.30198H54.7921V5.47192Z" fill="#ECECEC"/>
    <path d="M54.7921 7.302H52.962V9.13206H54.7921V7.302Z" fill="#BDBDBD"/>
    <path d="M52.9712 5.47192H51.1411V7.30198H52.9712V5.47192Z" fill="#BDBDBD"/>
    <path d="M51.1411 5.47192H49.3111V7.30198H51.1411V5.47192Z" fill="#BDBDBD"/>
    <path d="M47.4901 3.65097H45.6601V5.48102H47.4901V3.65097Z" fill="#ECECEC"/>
    <path d="M49.3201 3.65097H47.4901V5.48102H49.3201V3.65097Z" fill="#ECECEC"/>
    <path d="M52.9712 3.65097H51.1411V5.48102H52.9712V3.65097Z" fill="#ECECEC"/>
    <path d="M51.1411 3.65097H49.3111V5.48102H51.1411V3.65097Z" fill="#ECECEC"/>
    <path d="M51.1411 7.302H49.3111V9.13206H51.1411V7.302Z" fill="#ECECEC"/>
    <path d="M52.9712 9.12292H51.1411V10.953H52.9712V9.12292Z" fill="#ECECEC"/>
    <path d="M51.1411 9.12292H49.3111V10.953H51.1411V9.12292Z" fill="#ECECEC"/>
    <path d="M52.9712 10.953H51.1411V12.7831H52.9712V10.953Z" fill="#ECECEC"/>
    <path d="M51.1411 10.953H49.3111V12.7831H51.1411V10.953Z" fill="#ECECEC"/>
    <path d="M52.9712 12.7831H51.1411V14.6131H52.9712V12.7831Z" fill="#A582CF"/>
    <path d="M51.1411 12.7831H49.3111V14.6131H51.1411V12.7831Z" fill="#A582CF"/>
    <path d="M52.9712 14.604H51.1411V16.434H52.9712V14.604Z" fill="#ECECEC"/>
    <path d="M51.1411 14.604H49.3111V16.434H51.1411V14.604Z" fill="#ECECEC"/>
    <path d="M62.1032 14.604H60.2732V16.434H62.1032V14.604Z" fill="#ECECEC"/>
    <path d="M60.2731 14.604H58.4431V16.434H60.2731V14.604Z" fill="#ECECEC"/>
    <path d="M58.4431 12.7831H56.613V14.6131H58.4431V12.7831Z" fill="#A582CF"/>
    <path d="M58.4431 10.953H56.613V12.7831H58.4431V10.953Z" fill="#BDBDBD"/>
    <path d="M54.7921 21.915H52.962V23.7451H54.7921V21.915Z" fill="black"/>
    <path d="M54.7921 23.736H52.962V25.566H54.7921V23.736Z" fill="#FF2D29"/>
    <path d="M54.7921 25.566H52.962V27.3961H54.7921V25.566Z" fill="#FF00A2"/>
    <path d="M54.7921 27.387H52.962V29.217H54.7921V27.387Z" fill="#FF2D29"/>
    <path d="M54.7921 29.217H52.962V31.0471H54.7921V29.217Z" fill="black"/>
</svg>