<svg shape-rendering="crispEdges" width="82" height="100" viewBox="0 0 82 100" fill="none" xmlns="http://www.w3.org/2000/svg">
    <path d="M81.2488 96.8757H78.1244V100H81.2488V96.8757Z" fill="#231F20"/>
    <path d="M81.2488 93.7502H78.1244V96.8746H81.2488V93.7502Z" fill="#231F20"/>
    <path d="M81.2488 90.625H78.1244V93.7504H81.2488V90.625Z" fill="#231F20"/>
    <path d="M81.2488 87.5005H78.1244V90.6249H81.2488V87.5005Z" fill="#231F20"/>
    <path d="M81.2488 84.375H78.1244V87.4994H81.2488V84.375Z" fill="#231F20"/>
    <path d="M81.2488 81.2498H78.1244V84.3751H81.2488V81.2498Z" fill="#231F20"/>
    <path d="M78.1244 96.8757H75V100H78.1244V96.8757Z" fill="#231F20"/>
    <path d="M78.1244 93.7502H75V96.8746H78.1244V93.7502Z" fill="#D49627"/>
    <path d="M78.1244 90.625H75V93.7504H78.1244V90.625Z" fill="#D49627"/>
    <path d="M78.1244 87.5005H75V90.6249H78.1244V87.5005Z" fill="#D49627"/>
    <path d="M78.1244 84.375H75V87.4994H78.1244V84.375Z" fill="#D49627"/>
    <path d="M78.1244 81.2498H75V84.3751H78.1244V81.2498Z" fill="#D49627"/>
    <path d="M78.1244 78.1255H75V81.2499H78.1244V78.1255Z" fill="#231F20"/>
    <path d="M78.1244 75H75V78.1244H78.1244V75Z" fill="#231F20"/>
    <path d="M78.1244 71.8748H75V75.0001H78.1244V71.8748Z" fill="#231F20"/>
    <path d="M78.1244 68.7502H75V71.8746H78.1244V68.7502Z" fill="#231F20"/>
    <path d="M78.1244 65.6248H75V68.7491H78.1244V65.6248Z" fill="#231F20"/>
    <path d="M78.1244 62.5005H75V65.6249H78.1244V62.5005Z" fill="#231F20"/>
    <path d="M74.999 96.8757H71.8746V100H74.999V96.8757Z" fill="#231F20"/>
    <path d="M74.999 93.7502H71.8746V96.8746H74.999V93.7502Z" fill="#D49627"/>
    <path d="M74.999 90.625H71.8746V93.7504H74.999V90.625Z" fill="#D49627"/>
    <path d="M74.999 87.5005H71.8746V90.6249H74.999V87.5005Z" fill="#D49627"/>
    <path d="M74.999 84.375H71.8746V87.4994H74.999V84.375Z" fill="#D49627"/>
    <path d="M74.999 81.2498H71.8746V84.3751H74.999V81.2498Z" fill="#D49627"/>
    <path d="M74.999 78.1255H71.8746V81.2499H74.999V78.1255Z" fill="#D49627"/>
    <path d="M74.999 75H71.8746V78.1244H74.999V75Z" fill="#D49627"/>
    <path d="M74.999 71.8748H71.8746V75.0001H74.999V71.8748Z" fill="#D49627"/>
    <path d="M74.999 68.7502H71.8746V71.8746H74.999V68.7502Z" fill="#D49627"/>
    <path d="M74.999 65.6248H71.8746V68.7491H74.999V65.6248Z" fill="#D49627"/>
    <path d="M74.999 62.5005H71.8746V65.6249H74.999V62.5005Z" fill="#D49627"/>
    <path d="M74.999 59.375H71.8746V62.5004H74.999V59.375Z" fill="#231F20"/>
    <path d="M74.999 56.2507H71.8746V59.3751H74.999V56.2507Z" fill="#231F20"/>
    <path d="M74.999 53.1255H71.8746V56.2499H74.999V53.1255Z" fill="#231F20"/>
    <path d="M74.999 50H71.8746V53.1254H74.999V50Z" fill="#231F20"/>
    <path d="M74.999 46.8755H71.8746V49.9999H74.999V46.8755Z" fill="#231F20"/>
    <path d="M74.999 43.7502H71.8746V46.8746H74.999V43.7502Z" fill="#231F20"/>
    <path d="M74.999 40.6248H71.8746V43.7501H74.999V40.6248Z" fill="#231F20"/>
    <path d="M71.8745 96.8757H68.7491V100H71.8745V96.8757Z" fill="#231F20"/>
    <path d="M71.8745 93.7502H68.7491V96.8746H71.8745V93.7502Z" fill="#D49627"/>
    <path d="M71.8745 90.625H68.7491V93.7504H71.8745V90.625Z" fill="#D49627"/>
    <path d="M71.8745 87.5005H68.7491V90.6249H71.8745V87.5005Z" fill="#D49627"/>
    <path d="M71.8745 84.375H68.7491V87.4994H71.8745V84.375Z" fill="#D49627"/>
    <path d="M71.8745 81.2498H68.7491V84.3751H71.8745V81.2498Z" fill="#D49627"/>
    <path d="M71.8745 78.1255H68.7491V81.2499H71.8745V78.1255Z" fill="#D49627"/>
    <path d="M71.8745 75H68.7491V78.1244H71.8745V75Z" fill="#D49627"/>
    <path d="M71.8745 71.8748H68.7491V75.0001H71.8745V71.8748Z" fill="#D49627"/>
    <path d="M71.8745 68.7502H68.7491V71.8746H71.8745V68.7502Z" fill="#D49627"/>
    <path d="M71.8745 65.6248H68.7491V68.7491H71.8745V65.6248Z" fill="#D49627"/>
    <path d="M71.8745 62.5005H68.7491V65.6249H71.8745V62.5005Z" fill="#D49627"/>
    <path d="M71.8745 59.375H68.7491V62.5004H71.8745V59.375Z" fill="#D49627"/>
    <path d="M71.8745 56.2507H68.7491V59.3751H71.8745V56.2507Z" fill="#D49627"/>
    <path d="M71.8745 53.1255H68.7491V56.2499H71.8745V53.1255Z" fill="#D49627"/>
    <path d="M71.8745 50H68.7491V53.1254H71.8745V50Z" fill="#D49627"/>
    <path d="M71.8745 46.8755H68.7491V49.9999H71.8745V46.8755Z" fill="#D49627"/>
    <path d="M71.8745 43.7502H68.7491V46.8746H71.8745V43.7502Z" fill="#D49627"/>
    <path d="M71.8745 40.6248H68.7491V43.7501H71.8745V40.6248Z" fill="#D49627"/>
    <path d="M71.8745 37.5005H68.7491V40.6249H71.8745V37.5005Z" fill="#231F20"/>
    <path d="M71.8745 34.3752H68.7491V37.4996H71.8745V34.3752Z" fill="#231F20"/>
    <path d="M71.8745 31.2507H68.7491V34.3751H71.8745V31.2507Z" fill="#231F20"/>
    <path d="M71.8745 28.1252H68.7491V31.2506H71.8745V28.1252Z" fill="#231F20"/>
    <path d="M71.8745 25H68.7491V28.1244H71.8745V25Z" fill="#231F20"/>
    <path d="M71.8745 21.8755H68.7491V24.9999H71.8745V21.8755Z" fill="#231F20"/>
    <path d="M68.7491 93.7502H65.6248V96.8746H68.7491V93.7502Z" fill="#231F20"/>
    <path d="M68.7491 90.625H65.6248V93.7504H68.7491V90.625Z" fill="#D49627"/>
    <path d="M68.7491 87.5005H65.6248V90.6249H68.7491V87.5005Z" fill="#D49627"/>
    <path d="M68.7491 84.375H65.6248V87.4994H68.7491V84.375Z" fill="#D49627"/>
    <path d="M68.7491 81.2498H65.6248V84.3751H68.7491V81.2498Z" fill="#D49627"/>
    <path d="M68.7491 78.1255H65.6248V81.2499H68.7491V78.1255Z" fill="#D49627"/>
    <path d="M68.7491 75H65.6248V78.1244H68.7491V75Z" fill="#D49627"/>
    <path d="M68.7491 71.8748H65.6248V75.0001H68.7491V71.8748Z" fill="#D49627"/>
    <path d="M68.7491 68.7502H65.6248V71.8746H68.7491V68.7502Z" fill="#D49627"/>
    <path d="M68.7491 65.6248H65.6248V68.7491H68.7491V65.6248Z" fill="#D49627"/>
    <path d="M68.7491 62.5005H65.6248V65.6249H68.7491V62.5005Z" fill="#D49627"/>
    <path d="M68.7491 59.375H65.6248V62.5004H68.7491V59.375Z" fill="#D49627"/>
    <path d="M68.7491 56.2507H65.6248V59.3751H68.7491V56.2507Z" fill="#D49627"/>
    <path d="M68.7491 53.1255H65.6248V56.2499H68.7491V53.1255Z" fill="#D49627"/>
    <path d="M68.7491 50H65.6248V53.1254H68.7491V50Z" fill="#D49627"/>
    <path d="M68.7491 46.8755H65.6248V49.9999H68.7491V46.8755Z" fill="#D49627"/>
    <path d="M68.7491 43.7502H65.6248V46.8746H68.7491V43.7502Z" fill="#D49627"/>
    <path d="M68.7491 40.6248H65.6248V43.7501H68.7491V40.6248Z" fill="#D49627"/>
    <path d="M68.7491 37.5005H65.6248V40.6249H68.7491V37.5005Z" fill="#C18421"/>
    <path d="M68.7491 34.3752H65.6248V37.4996H68.7491V34.3752Z" fill="#C18421"/>
    <path d="M68.7491 31.2507H65.6248V34.3751H68.7491V31.2507Z" fill="#C18421"/>
    <path d="M68.7491 28.1252H65.6248V31.2506H68.7491V28.1252Z" fill="#C18421"/>
    <path d="M68.7491 25H65.6248V28.1244H68.7491V25Z" fill="#C18421"/>
    <path d="M68.7491 21.8755H65.6248V24.9999H68.7491V21.8755Z" fill="#C18421"/>
    <path d="M68.7491 18.7502H65.6248V21.8756H68.7491V18.7502Z" fill="#231F20"/>
    <path d="M68.7491 15.625H65.6248V18.7494H68.7491V15.625Z" fill="#231F20"/>
    <path d="M68.7491 12.5005H65.6248V15.6249H68.7491V12.5005Z" fill="#231F20"/>
    <path d="M68.7491 9.37524H65.6248V12.5006H68.7491V9.37524Z" fill="#231F20"/>
    <path d="M68.7491 6.24976H65.6248V9.37413H68.7491V6.24976Z" fill="#231F20"/>
    <path d="M68.7491 3.12524H65.6248V6.24961H68.7491V3.12524Z" fill="#231F20"/>
    <path d="M65.6239 90.625H62.4995V93.7504H65.6239V90.625Z" fill="#231F20"/>
    <path d="M65.6239 87.5005H62.4995V90.6249H65.6239V87.5005Z" fill="#231F20"/>
    <path d="M65.6239 84.375H62.4995V87.4994H65.6239V84.375Z" fill="#D49627"/>
    <path d="M65.6239 81.2498H62.4995V84.3751H65.6239V81.2498Z" fill="#D49627"/>
    <path d="M65.6239 78.1255H62.4995V81.2499H65.6239V78.1255Z" fill="#D49627"/>
    <path d="M65.6239 75H62.4995V78.1244H65.6239V75Z" fill="#D49627"/>
    <path d="M65.6239 71.8748H62.4995V75.0001H65.6239V71.8748Z" fill="#D49627"/>
    <path d="M65.6239 68.7502H62.4995V71.8746H65.6239V68.7502Z" fill="#D49627"/>
    <path d="M65.6239 65.6248H62.4995V68.7491H65.6239V65.6248Z" fill="#D49627"/>
    <path d="M65.6239 62.5005H62.4995V65.6249H65.6239V62.5005Z" fill="#D49627"/>
    <path d="M65.6239 59.375H62.4995V62.5004H65.6239V59.375Z" fill="#C18421"/>
    <path d="M65.6239 56.2507H62.4995V59.3751H65.6239V56.2507Z" fill="#C18421"/>
    <path d="M65.6239 53.1255H62.4995V56.2499H65.6239V53.1255Z" fill="#C18421"/>
    <path d="M65.6239 50H62.4995V53.1254H65.6239V50Z" fill="#C18421"/>
    <path d="M65.6239 46.8755H62.4995V49.9999H65.6239V46.8755Z" fill="#C18421"/>
    <path d="M65.6239 43.7502H62.4995V46.8746H65.6239V43.7502Z" fill="#C18421"/>
    <path d="M65.6239 40.6248H62.4995V43.7501H65.6239V40.6248Z" fill="#C18421"/>
    <path d="M65.6239 37.5005H62.4995V40.6249H65.6239V37.5005Z" fill="#DB7714"/>
    <path d="M65.6239 34.3752H62.4995V37.4996H65.6239V34.3752Z" fill="#DB7714"/>
    <path d="M65.6239 31.2507H62.4995V34.3751H65.6239V31.2507Z" fill="#DB7714"/>
    <path d="M65.6239 28.1252H62.4995V31.2506H65.6239V28.1252Z" fill="#DB7714"/>
    <path d="M65.6239 25H62.4995V28.1244H65.6239V25Z" fill="#DB7714"/>
    <path d="M65.6239 21.8755H62.4995V24.9999H65.6239V21.8755Z" fill="#DB7714"/>
    <path d="M65.6239 18.7502H62.4995V21.8756H65.6239V18.7502Z" fill="#FCC734"/>
    <path d="M65.6239 15.625H62.4995V18.7494H65.6239V15.625Z" fill="#FCC734"/>
    <path d="M65.6239 12.5005H62.4995V15.6249H65.6239V12.5005Z" fill="#FCC734"/>
    <path d="M65.6239 9.37524H62.4995V12.5006H65.6239V9.37524Z" fill="#FCC734"/>
    <path d="M65.6239 6.24976H62.4995V9.37413H65.6239V6.24976Z" fill="#FCC734"/>
    <path d="M65.6239 3.12524H62.4995V6.24961H65.6239V3.12524Z" fill="#FCC734"/>
    <path d="M65.6239 0H62.4995V3.12538H65.6239V0Z" fill="#231F20"/>
    <path d="M62.4995 84.375H59.3741V87.4994H62.4995V84.375Z" fill="#231F20"/>
    <path d="M62.4995 81.2498H59.3741V84.3751H62.4995V81.2498Z" fill="#D49627"/>
    <path d="M62.4995 78.1255H59.3741V81.2499H62.4995V78.1255Z" fill="#C18421"/>
    <path d="M62.4995 75H59.3741V78.1244H62.4995V75Z" fill="#C18421"/>
    <path d="M62.4995 71.8748H59.3741V75.0001H62.4995V71.8748Z" fill="#C18421"/>
    <path d="M62.4995 68.7502H59.3741V71.8746H62.4995V68.7502Z" fill="#C18421"/>
    <path d="M62.4995 65.6248H59.3741V68.7491H62.4995V65.6248Z" fill="#C18421"/>
    <path d="M62.4995 62.5005H59.3741V65.6249H62.4995V62.5005Z" fill="#C18421"/>
    <path d="M62.4995 59.375H59.3741V62.5004H62.4995V59.375Z" fill="#DB7714"/>
    <path d="M62.4995 56.2507H59.3741V59.3751H62.4995V56.2507Z" fill="#DB7714"/>
    <path d="M62.4995 53.1255H59.3741V56.2499H62.4995V53.1255Z" fill="#DB7714"/>
    <path d="M62.4995 50H59.3741V53.1254H62.4995V50Z" fill="#DB7714"/>
    <path d="M62.4995 46.8755H59.3741V49.9999H62.4995V46.8755Z" fill="#DB7714"/>
    <path d="M62.4995 43.7502H59.3741V46.8746H62.4995V43.7502Z" fill="#DB7714"/>
    <path d="M62.4995 40.6248H59.3741V43.7501H62.4995V40.6248Z" fill="#DB7714"/>
    <path d="M62.4995 37.5005H59.3741V40.6249H62.4995V37.5005Z" fill="#FCC734"/>
    <path d="M62.4995 34.3752H59.3741V37.4996H62.4995V34.3752Z" fill="#FCC734"/>
    <path d="M62.4995 31.2507H59.3741V34.3751H62.4995V31.2507Z" fill="#FCC734"/>
    <path d="M62.4995 28.1252H59.3741V31.2506H62.4995V28.1252Z" fill="#FCC734"/>
    <path d="M62.4995 25H59.3741V28.1244H62.4995V25Z" fill="#FCC734"/>
    <path d="M62.4995 21.8755H59.3741V24.9999H62.4995V21.8755Z" fill="#FCC734"/>
    <path d="M62.4995 18.7502H59.3741V21.8756H62.4995V18.7502Z" fill="#F4AE2D"/>
    <path d="M62.4995 15.625H59.3741V18.7494H62.4995V15.625Z" fill="#F4AE2D"/>
    <path d="M62.4995 12.5005H59.3741V15.6249H62.4995V12.5005Z" fill="#F4AE2D"/>
    <path d="M62.4995 9.37524H59.3741V12.5006H62.4995V9.37524Z" fill="#F4AE2D"/>
    <path d="M62.4995 6.24976H59.3741V9.37413H62.4995V6.24976Z" fill="#F4AE2D"/>
    <path d="M62.4995 3.12524H59.3741V6.24961H62.4995V3.12524Z" fill="#FCC734"/>
    <path d="M62.4995 0H59.3741V3.12538H62.4995V0Z" fill="#231F20"/>
    <path d="M59.3741 84.375H56.2498V87.4994H59.3741V84.375Z" fill="#231F20"/>
    <path d="M59.3741 81.2498H56.2498V84.3751H59.3741V81.2498Z" fill="#C18421"/>
    <path d="M59.3741 78.1255H56.2498V81.2499H59.3741V78.1255Z" fill="#DB7714"/>
    <path d="M59.3741 75H56.2498V78.1244H59.3741V75Z" fill="#DB7714"/>
    <path d="M59.3741 71.8748H56.2498V75.0001H59.3741V71.8748Z" fill="#DB7714"/>
    <path d="M59.3741 68.7502H56.2498V71.8746H59.3741V68.7502Z" fill="#DB7714"/>
    <path d="M59.3741 65.6248H56.2498V68.7491H59.3741V65.6248Z" fill="#DB7714"/>
    <path d="M59.3741 62.5005H56.2498V65.6249H59.3741V62.5005Z" fill="#DB7714"/>
    <path d="M59.3741 59.375H56.2498V62.5004H59.3741V59.375Z" fill="#FCC734"/>
    <path d="M59.3741 56.2507H56.2498V59.3751H59.3741V56.2507Z" fill="#FCC734"/>
    <path d="M59.3741 53.1255H56.2498V56.2499H59.3741V53.1255Z" fill="#FCC734"/>
    <path d="M59.3741 50H56.2498V53.1254H59.3741V50Z" fill="#FCC734"/>
    <path d="M59.3741 46.8755H56.2498V49.9999H59.3741V46.8755Z" fill="#FCC734"/>
    <path d="M59.3741 43.7502H56.2498V46.8746H59.3741V43.7502Z" fill="#FCC734"/>
    <path d="M59.3741 40.6248H56.2498V43.7501H59.3741V40.6248Z" fill="#FCC734"/>
    <path d="M59.3741 37.5005H56.2498V40.6249H59.3741V37.5005Z" fill="#F4AE2D"/>
    <path d="M59.3741 34.3752H56.2498V37.4996H59.3741V34.3752Z" fill="#F4AE2D"/>
    <path d="M59.3741 31.2507H56.2498V34.3751H59.3741V31.2507Z" fill="#F4AE2D"/>
    <path d="M59.3741 28.1252H56.2498V31.2506H59.3741V28.1252Z" fill="#F4AE2D"/>
    <path d="M59.3741 25H56.2498V28.1244H59.3741V25Z" fill="#F4AE2D"/>
    <path d="M59.3741 21.8755H56.2498V24.9999H59.3741V21.8755Z" fill="#F4AE2D"/>
    <path d="M59.3741 18.7502H56.2498V21.8756H59.3741V18.7502Z" fill="#F4AE2D"/>
    <path d="M59.3741 15.625H56.2498V18.7494H59.3741V15.625Z" fill="#F4AE2D"/>
    <path d="M59.3741 12.5005H56.2498V15.6249H59.3741V12.5005Z" fill="#F4AE2D"/>
    <path d="M59.3741 9.37524H56.2498V12.5006H59.3741V9.37524Z" fill="#F4AE2D"/>
    <path d="M59.3741 6.24976H56.2498V9.37413H59.3741V6.24976Z" fill="#F4AE2D"/>
    <path d="M59.3741 3.12524H56.2498V6.24961H59.3741V3.12524Z" fill="#FCC734"/>
    <path d="M59.3741 0H56.2498V3.12538H59.3741V0Z" fill="#231F20"/>
    <path d="M56.2488 93.7502H53.1244V96.8746H56.2488V93.7502Z" fill="#231F20"/>
    <path d="M56.2488 90.625H53.1244V93.7504H56.2488V90.625Z" fill="#231F20"/>
    <path d="M56.2488 87.5005H53.1244V90.6249H56.2488V87.5005Z" fill="#231F20"/>
    <path d="M56.2488 84.375H53.1244V87.4994H56.2488V84.375Z" fill="#DB7714"/>
    <path d="M56.2488 81.2498H53.1244V84.3751H56.2488V81.2498Z" fill="#DB7714"/>
    <path d="M56.2488 78.1255H53.1244V81.2499H56.2488V78.1255Z" fill="#FCC734"/>
    <path d="M56.2488 75H53.1244V78.1244H56.2488V75Z" fill="#FCC734"/>
    <path d="M56.2488 71.8748H53.1244V75.0001H56.2488V71.8748Z" fill="#FCC734"/>
    <path d="M56.2488 68.7502H53.1244V71.8746H56.2488V68.7502Z" fill="#FCC734"/>
    <path d="M56.2488 65.6248H53.1244V68.7491H56.2488V65.6248Z" fill="#FCC734"/>
    <path d="M56.2488 62.5005H53.1244V65.6249H56.2488V62.5005Z" fill="#FCC734"/>
    <path d="M56.2488 59.375H53.1244V62.5004H56.2488V59.375Z" fill="#F4AE2D"/>
    <path d="M56.2488 56.2507H53.1244V59.3751H56.2488V56.2507Z" fill="#F4AE2D"/>
    <path d="M56.2488 53.1255H53.1244V56.2499H56.2488V53.1255Z" fill="#F4AE2D"/>
    <path d="M56.2488 50H53.1244V53.1254H56.2488V50Z" fill="#F4AE2D"/>
    <path d="M56.2488 46.8755H53.1244V49.9999H56.2488V46.8755Z" fill="#F4AE2D"/>
    <path d="M56.2488 43.7502H53.1244V46.8746H56.2488V43.7502Z" fill="#F4AE2D"/>
    <path d="M56.2488 40.6248H53.1244V43.7501H56.2488V40.6248Z" fill="#F4AE2D"/>
    <path d="M56.2488 37.5005H53.1244V40.6249H56.2488V37.5005Z" fill="#F4AE2D"/>
    <path d="M56.2488 34.3752H53.1244V37.4996H56.2488V34.3752Z" fill="#F4AE2D"/>
    <path d="M56.2488 31.2507H53.1244V34.3751H56.2488V31.2507Z" fill="#F4AE2D"/>
    <path d="M56.2488 28.1252H53.1244V31.2506H56.2488V28.1252Z" fill="#F4AE2D"/>
    <path d="M56.2488 25H53.1244V28.1244H56.2488V25Z" fill="#F4AE2D"/>
    <path d="M56.2488 21.8755H53.1244V24.9999H56.2488V21.8755Z" fill="#F4AE2D"/>
    <path d="M56.2488 18.7502H53.1244V21.8756H56.2488V18.7502Z" fill="#F4AE2D"/>
    <path d="M56.2488 15.625H53.1244V18.7494H56.2488V15.625Z" fill="#F4AE2D"/>
    <path d="M56.2488 12.5005H53.1244V15.6249H56.2488V12.5005Z" fill="#F4AE2D"/>
    <path d="M56.2488 9.37524H53.1244V12.5006H56.2488V9.37524Z" fill="#F4AE2D"/>
    <path d="M56.2488 6.24976H53.1244V9.37413H56.2488V6.24976Z" fill="#F4AE2D"/>
    <path d="M56.2488 3.12524H53.1244V6.24961H56.2488V3.12524Z" fill="#FCC734"/>
    <path d="M56.2488 0H53.1244V3.12538H56.2488V0Z" fill="#231F20"/>
    <path d="M53.1243 96.8757H49.9989V100H53.1243V96.8757Z" fill="#231F20"/>
    <path d="M53.1243 93.7502H49.9989V96.8746H53.1243V93.7502Z" fill="#FCC734"/>
    <path d="M53.1243 90.625H49.9989V93.7504H53.1243V90.625Z" fill="#FCC734"/>
    <path d="M53.1243 87.5005H49.9989V90.6249H53.1243V87.5005Z" fill="#FCC734"/>
    <path d="M53.1243 84.375H49.9989V87.4994H53.1243V84.375Z" fill="#FCC734"/>
    <path d="M53.1243 81.2498H49.9989V84.3751H53.1243V81.2498Z" fill="#FCC734"/>
    <path d="M53.1243 78.1255H49.9989V81.2499H53.1243V78.1255Z" fill="#EE8F28"/>
    <path d="M53.1243 75H49.9989V78.1244H53.1243V75Z" fill="#F4AE2D"/>
    <path d="M53.1243 71.8748H49.9989V75.0001H53.1243V71.8748Z" fill="#F4AE2D"/>
    <path d="M53.1243 68.7502H49.9989V71.8746H53.1243V68.7502Z" fill="#F4AE2D"/>
    <path d="M53.1243 65.6248H49.9989V68.7491H53.1243V65.6248Z" fill="#F4AE2D"/>
    <path d="M53.1243 62.5005H49.9989V65.6249H53.1243V62.5005Z" fill="#F4AE2D"/>
    <path d="M53.1243 59.375H49.9989V62.5004H53.1243V59.375Z" fill="#F4AE2D"/>
    <path d="M53.1243 56.2507H49.9989V59.3751H53.1243V56.2507Z" fill="#F4AE2D"/>
    <path d="M53.1243 53.1255H49.9989V56.2499H53.1243V53.1255Z" fill="#F4AE2D"/>
    <path d="M53.1243 50H49.9989V53.1254H53.1243V50Z" fill="#F4AE2D"/>
    <path d="M53.1243 46.8755H49.9989V49.9999H53.1243V46.8755Z" fill="#F4AE2D"/>
    <path d="M53.1243 43.7502H49.9989V46.8746H53.1243V43.7502Z" fill="#F4AE2D"/>
    <path d="M53.1243 40.6248H49.9989V43.7501H53.1243V40.6248Z" fill="#F4AE2D"/>
    <path d="M53.1243 37.5005H49.9989V40.6249H53.1243V37.5005Z" fill="#F4AE2D"/>
    <path d="M53.1243 34.3752H49.9989V37.4996H53.1243V34.3752Z" fill="#F4AE2D"/>
    <path d="M53.1243 31.2507H49.9989V34.3751H53.1243V31.2507Z" fill="#F4AE2D"/>
    <path d="M53.1243 28.1252H49.9989V31.2506H53.1243V28.1252Z" fill="#F4AE2D"/>
    <path d="M53.1243 25H49.9989V28.1244H53.1243V25Z" fill="#F4AE2D"/>
    <path d="M53.1243 21.8755H49.9989V24.9999H53.1243V21.8755Z" fill="#F4AE2D"/>
    <path d="M53.1243 18.7502H49.9989V21.8756H53.1243V18.7502Z" fill="#F4AE2D"/>
    <path d="M53.1243 15.625H49.9989V18.7494H53.1243V15.625Z" fill="#F4AE2D"/>
    <path d="M53.1243 12.5005H49.9989V15.6249H53.1243V12.5005Z" fill="#F4AE2D"/>
    <path d="M53.1243 9.37524H49.9989V12.5006H53.1243V9.37524Z" fill="#DB7714"/>
    <path d="M53.1243 6.24976H49.9989V9.37413H53.1243V6.24976Z" fill="#DB7714"/>
    <path d="M53.1243 3.12524H49.9989V6.24961H53.1243V3.12524Z" fill="#FCC734"/>
    <path d="M53.1243 0H49.9989V3.12538H53.1243V0Z" fill="#231F20"/>
    <path d="M49.9989 96.8757H46.8745V100H49.9989V96.8757Z" fill="#231F20"/>
    <path d="M49.9989 93.7502H46.8745V96.8746H49.9989V93.7502Z" fill="#FCC734"/>
    <path d="M49.9989 90.625H46.8745V93.7504H49.9989V90.625Z" fill="#EE8F28"/>
    <path d="M49.9989 87.5005H46.8745V90.6249H49.9989V87.5005Z" fill="#EE8F28"/>
    <path d="M49.9989 84.375H46.8745V87.4994H49.9989V84.375Z" fill="#EE8F28"/>
    <path d="M49.9989 81.2498H46.8745V84.3751H49.9989V81.2498Z" fill="#EE8F28"/>
    <path d="M49.9989 78.1255H46.8745V81.2499H49.9989V78.1255Z" fill="#EE8F28"/>
    <path d="M49.9989 75H46.8745V78.1244H49.9989V75Z" fill="#F4AE2D"/>
    <path d="M49.9989 71.8748H46.8745V75.0001H49.9989V71.8748Z" fill="#F4AE2D"/>
    <path d="M49.9989 68.7502H46.8745V71.8746H49.9989V68.7502Z" fill="#F4AE2D"/>
    <path d="M49.9989 65.6248H46.8745V68.7491H49.9989V65.6248Z" fill="#F4AE2D"/>
    <path d="M49.9989 62.5005H46.8745V65.6249H49.9989V62.5005Z" fill="#F4AE2D"/>
    <path d="M49.9989 59.375H46.8745V62.5004H49.9989V59.375Z" fill="#F4AE2D"/>
    <path d="M49.9989 56.2507H46.8745V59.3751H49.9989V56.2507Z" fill="#F4AE2D"/>
    <path d="M49.9989 53.1255H46.8745V56.2499H49.9989V53.1255Z" fill="#F4AE2D"/>
    <path d="M49.9989 50H46.8745V53.1254H49.9989V50Z" fill="#F4AE2D"/>
    <path d="M49.9989 46.8755H46.8745V49.9999H49.9989V46.8755Z" fill="#F4AE2D"/>
    <path d="M49.9989 43.7502H46.8745V46.8746H49.9989V43.7502Z" fill="#F4AE2D"/>
    <path d="M49.9989 40.6248H46.8745V43.7501H49.9989V40.6248Z" fill="#F4AE2D"/>
    <path d="M49.9989 37.5005H46.8745V40.6249H49.9989V37.5005Z" fill="#F4AE2D"/>
    <path d="M49.9989 34.3752H46.8745V37.4996H49.9989V34.3752Z" fill="#F4AE2D"/>
    <path d="M49.9989 31.2507H46.8745V34.3751H49.9989V31.2507Z" fill="#F4AE2D"/>
    <path d="M49.9989 28.1252H46.8745V31.2506H49.9989V28.1252Z" fill="#F4AE2D"/>
    <path d="M49.9989 25H46.8745V28.1244H49.9989V25Z" fill="#F4AE2D"/>
    <path d="M49.9989 21.8755H46.8745V24.9999H49.9989V21.8755Z" fill="#F4AE2D"/>
    <path d="M49.9989 18.7502H46.8745V21.8756H49.9989V18.7502Z" fill="#DB7714"/>
    <path d="M49.9989 15.625H46.8745V18.7494H49.9989V15.625Z" fill="#DB7714"/>
    <path d="M49.9989 12.5005H46.8745V15.6249H49.9989V12.5005Z" fill="#DB7714"/>
    <path d="M49.9989 6.24976H46.8745V9.37413H49.9989V6.24976Z" fill="#DB7714"/>
    <path d="M49.9989 3.12524H46.8745V6.24961H49.9989V3.12524Z" fill="#FCC734"/>
    <path d="M49.9989 0H46.8745V3.12538H49.9989V0Z" fill="#231F20"/>
    <path d="M46.8746 96.8757H43.7502V100H46.8746V96.8757Z" fill="#231F20"/>
    <path d="M46.8746 93.7502H43.7502V96.8746H46.8746V93.7502Z" fill="#FCC734"/>
    <path d="M46.8746 90.625H43.7502V93.7504H46.8746V90.625Z" fill="#EE8F28"/>
    <path d="M46.8746 87.5005H43.7502V90.6249H46.8746V87.5005Z" fill="#EE8F28"/>
    <path d="M46.8746 84.375H43.7502V87.4994H46.8746V84.375Z" fill="#EE8F28"/>
    <path d="M46.8746 81.2498H43.7502V84.3751H46.8746V81.2498Z" fill="#EE8F28"/>
    <path d="M46.8746 78.1255H43.7502V81.2499H46.8746V78.1255Z" fill="#EE8F28"/>
    <path d="M46.8746 75H43.7502V78.1244H46.8746V75Z" fill="#F4AE2D"/>
    <path d="M46.8746 71.8748H43.7502V75.0001H46.8746V71.8748Z" fill="#DB7714"/>
    <path d="M46.8746 68.7502H43.7502V71.8746H46.8746V68.7502Z" fill="#F4AE2D"/>
    <path d="M46.8746 65.6248H43.7502V68.7491H46.8746V65.6248Z" fill="#DB7714"/>
    <path d="M46.8746 62.5005H43.7502V65.6249H46.8746V62.5005Z" fill="#F4AE2D"/>
    <path d="M46.8746 59.375H43.7502V62.5004H46.8746V59.375Z" fill="#DB7714"/>
    <path d="M46.8746 56.2507H43.7502V59.3751H46.8746V56.2507Z" fill="#DB7714"/>
    <path d="M46.8746 53.1255H43.7502V56.2499H46.8746V53.1255Z" fill="#DB7714"/>
    <path d="M46.8746 50H43.7502V53.1254H46.8746V50Z" fill="#DB7714"/>
    <path d="M46.8746 46.8755H43.7502V49.9999H46.8746V46.8755Z" fill="#F4AE2D"/>
    <path d="M46.8746 43.7502H43.7502V46.8746H46.8746V43.7502Z" fill="#F4AE2D"/>
    <path d="M46.8746 40.6248H43.7502V43.7501H46.8746V40.6248Z" fill="#F4AE2D"/>
    <path d="M46.8746 37.5005H43.7502V40.6249H46.8746V37.5005Z" fill="#F4AE2D"/>
    <path d="M46.8746 34.3752H43.7502V37.4996H46.8746V34.3752Z" fill="#F4AE2D"/>
    <path d="M46.8746 31.2507H43.7502V34.3751H46.8746V31.2507Z" fill="#F4AE2D"/>
    <path d="M46.8746 28.1252H43.7502V31.2506H46.8746V28.1252Z" fill="#F4AE2D"/>
    <path d="M46.8746 25H43.7502V28.1244H46.8746V25Z" fill="#F4AE2D"/>
    <path d="M46.8746 21.8755H43.7502V24.9999H46.8746V21.8755Z" fill="#F4AE2D"/>
    <path d="M46.8746 18.7502H43.7502V21.8756H46.8746V18.7502Z" fill="#DB7714"/>
    <path d="M46.8746 6.24976H43.7502V9.37413H46.8746V6.24976Z" fill="#DB7714"/>
    <path d="M46.8746 3.12524H43.7502V6.24961H46.8746V3.12524Z" fill="#FCC734"/>
    <path d="M46.8746 0H43.7502V3.12538H46.8746V0Z" fill="#231F20"/>
    <path d="M43.7492 96.8757H40.6249V100H43.7492V96.8757Z" fill="#231F20"/>
    <path d="M43.7492 93.7502H40.6249V96.8746H43.7492V93.7502Z" fill="#FCC734"/>
    <path d="M43.7492 90.625H40.6249V93.7504H43.7492V90.625Z" fill="#EE8F28"/>
    <path d="M43.7492 87.5005H40.6249V90.6249H43.7492V87.5005Z" fill="#EE8F28"/>
    <path d="M43.7492 84.375H40.6249V87.4994H43.7492V84.375Z" fill="#EE8F28"/>
    <path d="M43.7492 81.2498H40.6249V84.3751H43.7492V81.2498Z" fill="#EE8F28"/>
    <path d="M43.7492 78.1255H40.6249V81.2499H43.7492V78.1255Z" fill="#EE8F28"/>
    <path d="M43.7492 75H40.6249V78.1244H43.7492V75Z" fill="#F4AE2D"/>
    <path d="M43.7492 71.8748H40.6249V75.0001H43.7492V71.8748Z" fill="#DB7714"/>
    <path d="M43.7492 68.7502H40.6249V71.8746H43.7492V68.7502Z" fill="#DB7714"/>
    <path d="M43.7492 65.6248H40.6249V68.7491H43.7492V65.6248Z" fill="#DB7714"/>
    <path d="M43.7492 62.5005H40.6249V65.6249H43.7492V62.5005Z" fill="#F4AE2D"/>
    <path d="M43.7492 59.375H40.6249V62.5004H43.7492V59.375Z" fill="#DB7714"/>
    <path d="M43.7492 56.2507H40.6249V59.3751H43.7492V56.2507Z" fill="#F4AE2D"/>
    <path d="M43.7492 53.1255H40.6249V56.2499H43.7492V53.1255Z" fill="#F4AE2D"/>
    <path d="M43.7492 50H40.6249V53.1254H43.7492V50Z" fill="#F4AE2D"/>
    <path d="M43.7492 46.8755H40.6249V49.9999H43.7492V46.8755Z" fill="#DB7714"/>
    <path d="M43.7492 43.7502H40.6249V46.8746H43.7492V43.7502Z" fill="#DB7714"/>
    <path d="M43.7492 40.6248H40.6249V43.7501H43.7492V40.6248Z" fill="#DB7714"/>
    <path d="M43.7492 37.5005H40.6249V40.6249H43.7492V37.5005Z" fill="#F4AE2D"/>
    <path d="M43.7492 34.3752H40.6249V37.4996H43.7492V34.3752Z" fill="#F4AE2D"/>
    <path d="M43.7492 31.2507H40.6249V34.3751H43.7492V31.2507Z" fill="#F4AE2D"/>
    <path d="M43.7492 28.1252H40.6249V31.2506H43.7492V28.1252Z" fill="#F4AE2D"/>
    <path d="M43.7492 25H40.6249V28.1244H43.7492V25Z" fill="#F4AE2D"/>
    <path d="M43.7492 21.8755H40.6249V24.9999H43.7492V21.8755Z" fill="#F4AE2D"/>
    <path d="M43.7492 18.7502H40.6249V21.8756H43.7492V18.7502Z" fill="#DB7714"/>
    <path d="M43.7492 6.24976H40.6249V9.37413H43.7492V6.24976Z" fill="#DB7714"/>
    <path d="M43.7492 3.12524H40.6249V6.24961H43.7492V3.12524Z" fill="#FCC734"/>
    <path d="M43.7492 0H40.6249V3.12538H43.7492V0Z" fill="#231F20"/>
    <path d="M40.6249 93.7502H37.4995V96.8746H40.6249V93.7502Z" fill="#231F20"/>
    <path d="M40.6249 90.625H37.4995V93.7504H40.6249V90.625Z" fill="#FCC734"/>
    <path d="M40.6249 87.5005H37.4995V90.6249H40.6249V87.5005Z" fill="#FCC734"/>
    <path d="M40.6249 84.375H37.4995V87.4994H40.6249V84.375Z" fill="#EE8F28"/>
    <path d="M40.6249 81.2498H37.4995V84.3751H40.6249V81.2498Z" fill="#EE8F28"/>
    <path d="M40.6249 78.1255H37.4995V81.2499H40.6249V78.1255Z" fill="#EE8F28"/>
    <path d="M40.6249 75H37.4995V78.1244H40.6249V75Z" fill="#F4AE2D"/>
    <path d="M40.6249 71.8748H37.4995V75.0001H40.6249V71.8748Z" fill="#F4AE2D"/>
    <path d="M40.6249 68.7502H37.4995V71.8746H40.6249V68.7502Z" fill="#F4AE2D"/>
    <path d="M40.6249 65.6248H37.4995V68.7491H40.6249V65.6248Z" fill="#DB7714"/>
    <path d="M40.6249 62.5005H37.4995V65.6249H40.6249V62.5005Z" fill="#F4AE2D"/>
    <path d="M40.6249 59.375H37.4995V62.5004H40.6249V59.375Z" fill="#DB7714"/>
    <path d="M40.6249 56.2507H37.4995V59.3751H40.6249V56.2507Z" fill="#F4AE2D"/>
    <path d="M40.6249 53.1255H37.4995V56.2499H40.6249V53.1255Z" fill="#F4AE2D"/>
    <path d="M40.6249 50H37.4995V53.1254H40.6249V50Z" fill="#F4AE2D"/>
    <path d="M40.6249 46.8755H37.4995V49.9999H40.6249V46.8755Z" fill="#F4AE2D"/>
    <path d="M40.6249 43.7502H37.4995V46.8746H40.6249V43.7502Z" fill="#F4AE2D"/>
    <path d="M40.6249 40.6248H37.4995V43.7501H40.6249V40.6248Z" fill="#F4AE2D"/>
    <path d="M40.6249 37.5005H37.4995V40.6249H40.6249V37.5005Z" fill="#DB7714"/>
    <path d="M40.6249 34.3752H37.4995V37.4996H40.6249V34.3752Z" fill="#DB7714"/>
    <path d="M40.6249 31.2507H37.4995V34.3751H40.6249V31.2507Z" fill="#DB7714"/>
    <path d="M40.6249 28.1252H37.4995V31.2506H40.6249V28.1252Z" fill="#DB7714"/>
    <path d="M40.6249 25H37.4995V28.1244H40.6249V25Z" fill="#F4AE2D"/>
    <path d="M40.6249 21.8755H37.4995V24.9999H40.6249V21.8755Z" fill="#F4AE2D"/>
    <path d="M40.6249 18.7502H37.4995V21.8756H40.6249V18.7502Z" fill="#DB7714"/>
    <path d="M40.6249 6.24976H37.4995V9.37413H40.6249V6.24976Z" fill="#DB7714"/>
    <path d="M40.6249 3.12524H37.4995V6.24961H40.6249V3.12524Z" fill="#FCC734"/>
    <path d="M40.6249 0H37.4995V3.12538H40.6249V0Z" fill="#231F20"/>
    <path d="M37.4995 96.8757H34.3751V100H37.4995V96.8757Z" fill="#231F20"/>
    <path d="M37.4995 93.7502H34.3751V96.8746H37.4995V93.7502Z" fill="#C18421"/>
    <path d="M37.4995 90.625H34.3751V93.7504H37.4995V90.625Z" fill="#DB7714"/>
    <path d="M37.4995 87.5005H34.3751V90.6249H37.4995V87.5005Z" fill="#DB7714"/>
    <path d="M37.4995 84.375H34.3751V87.4994H37.4995V84.375Z" fill="#FCC734"/>
    <path d="M37.4995 81.2498H34.3751V84.3751H37.4995V81.2498Z" fill="#EE8F28"/>
    <path d="M37.4995 78.1255H34.3751V81.2499H37.4995V78.1255Z" fill="#EE8F28"/>
    <path d="M37.4995 75H34.3751V78.1244H37.4995V75Z" fill="#F4AE2D"/>
    <path d="M37.4995 71.8748H34.3751V75.0001H37.4995V71.8748Z" fill="#F4AE2D"/>
    <path d="M37.4995 68.7502H34.3751V71.8746H37.4995V68.7502Z" fill="#F4AE2D"/>
    <path d="M37.4995 65.6248H34.3751V68.7491H37.4995V65.6248Z" fill="#F4AE2D"/>
    <path d="M37.4995 62.5005H34.3751V65.6249H37.4995V62.5005Z" fill="#F4AE2D"/>
    <path d="M37.4995 59.375H34.3751V62.5004H37.4995V59.375Z" fill="#DB7714"/>
    <path d="M37.4995 56.2507H34.3751V59.3751H37.4995V56.2507Z" fill="#F4AE2D"/>
    <path d="M37.4995 53.1255H34.3751V56.2499H37.4995V53.1255Z" fill="#F4AE2D"/>
    <path d="M37.4995 50H34.3751V53.1254H37.4995V50Z" fill="#F4AE2D"/>
    <path d="M37.4995 46.8755H34.3751V49.9999H37.4995V46.8755Z" fill="#F4AE2D"/>
    <path d="M37.4995 43.7502H34.3751V46.8746H37.4995V43.7502Z" fill="#F4AE2D"/>
    <path d="M37.4995 40.6248H34.3751V43.7501H37.4995V40.6248Z" fill="#F4AE2D"/>
    <path d="M37.4995 37.5005H34.3751V40.6249H37.4995V37.5005Z" fill="#F4AE2D"/>
    <path d="M37.4995 34.3752H34.3751V37.4996H37.4995V34.3752Z" fill="#F4AE2D"/>
    <path d="M37.4995 31.2507H34.3751V34.3751H37.4995V31.2507Z" fill="#F4AE2D"/>
    <path d="M37.4995 28.1252H34.3751V31.2506H37.4995V28.1252Z" fill="#DB7714"/>
    <path d="M37.4995 25H34.3751V28.1244H37.4995V25Z" fill="#F4AE2D"/>
    <path d="M37.4995 21.8755H34.3751V24.9999H37.4995V21.8755Z" fill="#F4AE2D"/>
    <path d="M37.4995 18.7502H34.3751V21.8756H37.4995V18.7502Z" fill="#DB7714"/>
    <path d="M37.4995 6.24976H34.3751V9.37413H37.4995V6.24976Z" fill="#DB7714"/>
    <path d="M37.4995 3.12524H34.3751V6.24961H37.4995V3.12524Z" fill="#FFD876"/>
    <path d="M37.4995 0H34.3751V3.12538H37.4995V0Z" fill="#231F20"/>
    <path d="M34.3742 96.8757H31.2499V100H34.3742V96.8757Z" fill="#231F20"/>
    <path d="M34.3742 93.7502H31.2499V96.8746H34.3742V93.7502Z" fill="#D49627"/>
    <path d="M34.3742 90.625H31.2499V93.7504H34.3742V90.625Z" fill="#C18421"/>
    <path d="M34.3742 87.5005H31.2499V90.6249H34.3742V87.5005Z" fill="#C18421"/>
    <path d="M34.3742 84.375H31.2499V87.4994H34.3742V84.375Z" fill="#DB7714"/>
    <path d="M34.3742 81.2498H31.2499V84.3751H34.3742V81.2498Z" fill="#FCC734"/>
    <path d="M34.3742 78.1255H31.2499V81.2499H34.3742V78.1255Z" fill="#EE8F28"/>
    <path d="M34.3742 75H31.2499V78.1244H34.3742V75Z" fill="#F4AE2D"/>
    <path d="M34.3742 71.8748H31.2499V75.0001H34.3742V71.8748Z" fill="#DB7714"/>
    <path d="M34.3742 68.7502H31.2499V71.8746H34.3742V68.7502Z" fill="#F4AE2D"/>
    <path d="M34.3742 65.6248H31.2499V68.7491H34.3742V65.6248Z" fill="#DB7714"/>
    <path d="M34.3742 62.5005H31.2499V65.6249H34.3742V62.5005Z" fill="#F4AE2D"/>
    <path d="M34.3742 59.375H31.2499V62.5004H34.3742V59.375Z" fill="#DB7714"/>
    <path d="M34.3742 56.2507H31.2499V59.3751H34.3742V56.2507Z" fill="#F4AE2D"/>
    <path d="M34.3742 53.1255H31.2499V56.2499H34.3742V53.1255Z" fill="#F4AE2D"/>
    <path d="M34.3742 50H31.2499V53.1254H34.3742V50Z" fill="#F4AE2D"/>
    <path d="M34.3742 46.8755H31.2499V49.9999H34.3742V46.8755Z" fill="#F4AE2D"/>
    <path d="M34.3742 43.7502H31.2499V46.8746H34.3742V43.7502Z" fill="#F4AE2D"/>
    <path d="M34.3742 40.6248H31.2499V43.7501H34.3742V40.6248Z" fill="#DB7714"/>
    <path d="M34.3742 37.5005H31.2499V40.6249H34.3742V37.5005Z" fill="#DB7714"/>
    <path d="M34.3742 34.3752H31.2499V37.4996H34.3742V34.3752Z" fill="#F4AE2D"/>
    <path d="M34.3742 31.2507H31.2499V34.3751H34.3742V31.2507Z" fill="#F4AE2D"/>
    <path d="M34.3742 28.1252H31.2499V31.2506H34.3742V28.1252Z" fill="#DB7714"/>
    <path d="M34.3742 25H31.2499V28.1244H34.3742V25Z" fill="#F4AE2D"/>
    <path d="M34.3742 21.8755H31.2499V24.9999H34.3742V21.8755Z" fill="#F4AE2D"/>
    <path d="M34.3742 18.7502H31.2499V21.8756H34.3742V18.7502Z" fill="#DB7714"/>
    <path d="M34.3742 6.24976H31.2499V9.37413H34.3742V6.24976Z" fill="#DB7714"/>
    <path d="M34.3742 3.12524H31.2499V6.24961H34.3742V3.12524Z" fill="#FCC734"/>
    <path d="M34.3742 0H31.2499V3.12538H34.3742V0Z" fill="#231F20"/>
    <path d="M31.2496 96.8757H28.1243V100H31.2496V96.8757Z" fill="#231F20"/>
    <path d="M31.2496 93.7502H28.1243V96.8746H31.2496V93.7502Z" fill="#D49627"/>
    <path d="M31.2496 90.625H28.1243V93.7504H31.2496V90.625Z" fill="#D49627"/>
    <path d="M31.2496 87.5005H28.1243V90.6249H31.2496V87.5005Z" fill="#C18421"/>
    <path d="M31.2496 84.375H28.1243V87.4994H31.2496V84.375Z" fill="#DB7714"/>
    <path d="M31.2496 81.2498H28.1243V84.3751H31.2496V81.2498Z" fill="#FCC734"/>
    <path d="M31.2496 78.1255H28.1243V81.2499H31.2496V78.1255Z" fill="#EE8F28"/>
    <path d="M31.2496 75H28.1243V78.1244H31.2496V75Z" fill="#F4AE2D"/>
    <path d="M31.2496 71.8748H28.1243V75.0001H31.2496V71.8748Z" fill="#DB7714"/>
    <path d="M31.2496 68.7502H28.1243V71.8746H31.2496V68.7502Z" fill="#DB7714"/>
    <path d="M31.2496 65.6248H28.1243V68.7491H31.2496V65.6248Z" fill="#DB7714"/>
    <path d="M31.2496 62.5005H28.1243V65.6249H31.2496V62.5005Z" fill="#F4AE2D"/>
    <path d="M31.2496 59.375H28.1243V62.5004H31.2496V59.375Z" fill="#DB7714"/>
    <path d="M31.2496 56.2507H28.1243V59.3751H31.2496V56.2507Z" fill="#F4AE2D"/>
    <path d="M31.2496 53.1255H28.1243V56.2499H31.2496V53.1255Z" fill="#DB7714"/>
    <path d="M31.2496 50H28.1243V53.1254H31.2496V50Z" fill="#F4AE2D"/>
    <path d="M31.2496 46.8755H28.1243V49.9999H31.2496V46.8755Z" fill="#DB7714"/>
    <path d="M31.2496 43.7502H28.1243V46.8746H31.2496V43.7502Z" fill="#DB7714"/>
    <path d="M31.2496 40.6248H28.1243V43.7501H31.2496V40.6248Z" fill="#F4AE2D"/>
    <path d="M31.2496 37.5005H28.1243V40.6249H31.2496V37.5005Z" fill="#F4AE2D"/>
    <path d="M31.2496 34.3752H28.1243V37.4996H31.2496V34.3752Z" fill="#F4AE2D"/>
    <path d="M31.2496 31.2507H28.1243V34.3751H31.2496V31.2507Z" fill="#DB7714"/>
    <path d="M31.2496 28.1252H28.1243V31.2506H31.2496V28.1252Z" fill="#F4AE2D"/>
    <path d="M31.2496 25H28.1243V28.1244H31.2496V25Z" fill="#F4AE2D"/>
    <path d="M31.2496 21.8755H28.1243V24.9999H31.2496V21.8755Z" fill="#F4AE2D"/>
    <path d="M31.2496 18.7502H28.1243V21.8756H31.2496V18.7502Z" fill="#DB7714"/>
    <path d="M31.2496 12.5005H28.1243V15.6249H31.2496V12.5005Z" fill="#DB7714"/>
    <path d="M31.2496 9.37524H28.1243V12.5006H31.2496V9.37524Z" fill="#DB7714"/>
    <path d="M31.2496 6.24976H28.1243V9.37413H31.2496V6.24976Z" fill="#DB7714"/>
    <path d="M31.2496 3.12524H28.1243V6.24961H31.2496V3.12524Z" fill="#FFD876"/>
    <path d="M31.2496 0H28.1243V3.12538H31.2496V0Z" fill="#231F20"/>
    <path d="M28.1244 96.8757H25V100H28.1244V96.8757Z" fill="#231F20"/>
    <path d="M28.1244 93.7502H25V96.8746H28.1244V93.7502Z" fill="#231F20"/>
    <path d="M28.1244 90.625H25V93.7504H28.1244V90.625Z" fill="#231F20"/>
    <path d="M28.1244 87.5005H25V90.6249H28.1244V87.5005Z" fill="#231F20"/>
    <path d="M28.1244 84.375H25V87.4994H28.1244V84.375Z" fill="#DB7714"/>
    <path d="M28.1244 81.2498H25V84.3751H28.1244V81.2498Z" fill="#FCC734"/>
    <path d="M28.1244 78.1255H25V81.2499H28.1244V78.1255Z" fill="#EE8F28"/>
    <path d="M28.1244 75H25V78.1244H28.1244V75Z" fill="#F4AE2D"/>
    <path d="M28.1244 71.8748H25V75.0001H28.1244V71.8748Z" fill="#F4AE2D"/>
    <path d="M28.1244 68.7502H25V71.8746H28.1244V68.7502Z" fill="#F4AE2D"/>
    <path d="M28.1244 65.6248H25V68.7491H28.1244V65.6248Z" fill="#F4AE2D"/>
    <path d="M28.1244 62.5005H25V65.6249H28.1244V62.5005Z" fill="#F4AE2D"/>
    <path d="M28.1244 59.375H25V62.5004H28.1244V59.375Z" fill="#DB7714"/>
    <path d="M28.1244 56.2507H25V59.3751H28.1244V56.2507Z" fill="#F4AE2D"/>
    <path d="M28.1244 53.1255H25V56.2499H28.1244V53.1255Z" fill="#F4AE2D"/>
    <path d="M28.1244 50H25V53.1254H28.1244V50Z" fill="#F4AE2D"/>
    <path d="M28.1244 46.8755H25V49.9999H28.1244V46.8755Z" fill="#F4AE2D"/>
    <path d="M28.1244 43.7502H25V46.8746H28.1244V43.7502Z" fill="#F4AE2D"/>
    <path d="M28.1244 40.6248H25V43.7501H28.1244V40.6248Z" fill="#F4AE2D"/>
    <path d="M28.1244 37.5005H25V40.6249H28.1244V37.5005Z" fill="#DB7714"/>
    <path d="M28.1244 34.3752H25V37.4996H28.1244V34.3752Z" fill="#DB7714"/>
    <path d="M28.1244 31.2507H25V34.3751H28.1244V31.2507Z" fill="#F4AE2D"/>
    <path d="M28.1244 28.1252H25V31.2506H28.1244V28.1252Z" fill="#F4AE2D"/>
    <path d="M28.1244 25H25V28.1244H28.1244V25Z" fill="#F4AE2D"/>
    <path d="M28.1244 21.8755H25V24.9999H28.1244V21.8755Z" fill="#F4AE2D"/>
    <path d="M28.1244 18.7502H25V21.8756H28.1244V18.7502Z" fill="#DB7714"/>
    <path d="M28.1244 15.625H25V18.7494H28.1244V15.625Z" fill="#DB7714"/>
    <path d="M28.1244 12.5005H25V15.6249H28.1244V12.5005Z" fill="#F4AE2D"/>
    <path d="M28.1244 9.37524H25V12.5006H28.1244V9.37524Z" fill="#F4AE2D"/>
    <path d="M28.1244 6.24976H25V9.37413H28.1244V6.24976Z" fill="#F4AE2D"/>
    <path d="M28.1244 3.12524H25V6.24961H28.1244V3.12524Z" fill="#FFD876"/>
    <path d="M28.1244 0H25V3.12538H28.1244V0Z" fill="#231F20"/>
    <path d="M24.999 84.375H21.8746V87.4994H24.999V84.375Z" fill="#231F20"/>
    <path d="M24.999 81.2498H21.8746V84.3751H24.999V81.2498Z" fill="#FCC734"/>
    <path d="M24.999 78.1255H21.8746V81.2499H24.999V78.1255Z" fill="#EE8F28"/>
    <path d="M24.999 75H21.8746V78.1244H24.999V75Z" fill="#F4AE2D"/>
    <path d="M24.999 71.8748H21.8746V75.0001H24.999V71.8748Z" fill="#DB7714"/>
    <path d="M24.999 68.7502H21.8746V71.8746H24.999V68.7502Z" fill="#DB7714"/>
    <path d="M24.999 65.6248H21.8746V68.7491H24.999V65.6248Z" fill="#DB7714"/>
    <path d="M24.999 62.5005H21.8746V65.6249H24.999V62.5005Z" fill="#F4AE2D"/>
    <path d="M24.999 59.375H21.8746V62.5004H24.999V59.375Z" fill="#DB7714"/>
    <path d="M24.999 56.2507H21.8746V59.3751H24.999V56.2507Z" fill="#F4AE2D"/>
    <path d="M24.999 53.1255H21.8746V56.2499H24.999V53.1255Z" fill="#F4AE2D"/>
    <path d="M24.999 50H21.8746V53.1254H24.999V50Z" fill="#F4AE2D"/>
    <path d="M24.999 46.8755H21.8746V49.9999H24.999V46.8755Z" fill="#F4AE2D"/>
    <path d="M24.999 43.7502H21.8746V46.8746H24.999V43.7502Z" fill="#DB7714"/>
    <path d="M24.999 40.6248H21.8746V43.7501H24.999V40.6248Z" fill="#DB7714"/>
    <path d="M24.999 37.5005H21.8746V40.6249H24.999V37.5005Z" fill="#F4AE2D"/>
    <path d="M24.999 34.3752H21.8746V37.4996H24.999V34.3752Z" fill="#F4AE2D"/>
    <path d="M24.999 31.2507H21.8746V34.3751H24.999V31.2507Z" fill="#F4AE2D"/>
    <path d="M24.999 28.1252H21.8746V31.2506H24.999V28.1252Z" fill="#F4AE2D"/>
    <path d="M24.999 25H21.8746V28.1244H24.999V25Z" fill="#F4AE2D"/>
    <path d="M24.999 21.8755H21.8746V24.9999H24.999V21.8755Z" fill="#F4AE2D"/>
    <path d="M24.999 18.7502H21.8746V21.8756H24.999V18.7502Z" fill="#F4AE2D"/>
    <path d="M24.999 15.625H21.8746V18.7494H24.999V15.625Z" fill="#F4AE2D"/>
    <path d="M24.999 12.5005H21.8746V15.6249H24.999V12.5005Z" fill="#F4AE2D"/>
    <path d="M24.999 9.37524H21.8746V12.5006H24.999V9.37524Z" fill="#F4AE2D"/>
    <path d="M24.999 6.24976H21.8746V9.37413H24.999V6.24976Z" fill="#F4AE2D"/>
    <path d="M24.999 3.12524H21.8746V6.24961H24.999V3.12524Z" fill="#FFD876"/>
    <path d="M24.999 0H21.8746V3.12538H24.999V0Z" fill="#231F20"/>
    <path d="M21.8746 84.375H18.7493V87.4994H21.8746V84.375Z" fill="#231F20"/>
    <path d="M21.8746 81.2498H18.7493V84.3751H21.8746V81.2498Z" fill="#FCC734"/>
    <path d="M21.8746 78.1255H18.7493V81.2499H21.8746V78.1255Z" fill="#EE8F28"/>
    <path d="M21.8746 75H18.7493V78.1244H21.8746V75Z" fill="#F4AE2D"/>
    <path d="M21.8746 71.8748H18.7493V75.0001H21.8746V71.8748Z" fill="#F4AE2D"/>
    <path d="M21.8746 68.7502H18.7493V71.8746H21.8746V68.7502Z" fill="#DB7714"/>
    <path d="M21.8746 65.6248H18.7493V68.7491H21.8746V65.6248Z" fill="#F4AE2D"/>
    <path d="M21.8746 62.5005H18.7493V65.6249H21.8746V62.5005Z" fill="#F4AE2D"/>
    <path d="M21.8746 59.375H18.7493V62.5004H21.8746V59.375Z" fill="#DB7714"/>
    <path d="M21.8746 56.2507H18.7493V59.3751H21.8746V56.2507Z" fill="#F4AE2D"/>
    <path d="M21.8746 53.1255H18.7493V56.2499H21.8746V53.1255Z" fill="#F4AE2D"/>
    <path d="M21.8746 50H18.7493V53.1254H21.8746V50Z" fill="#DB7714"/>
    <path d="M21.8746 46.8755H18.7493V49.9999H21.8746V46.8755Z" fill="#DB7714"/>
    <path d="M21.8746 43.7502H18.7493V46.8746H21.8746V43.7502Z" fill="#F4AE2D"/>
    <path d="M21.8746 40.6248H18.7493V43.7501H21.8746V40.6248Z" fill="#F4AE2D"/>
    <path d="M21.8746 37.5005H18.7493V40.6249H21.8746V37.5005Z" fill="#F4AE2D"/>
    <path d="M21.8746 34.3752H18.7493V37.4996H21.8746V34.3752Z" fill="#F4AE2D"/>
    <path d="M21.8746 31.2507H18.7493V34.3751H21.8746V31.2507Z" fill="#F4AE2D"/>
    <path d="M21.8746 28.1252H18.7493V31.2506H21.8746V28.1252Z" fill="#F4AE2D"/>
    <path d="M21.8746 25H18.7493V28.1244H21.8746V25Z" fill="#F4AE2D"/>
    <path d="M21.8746 21.8755H18.7493V24.9999H21.8746V21.8755Z" fill="#F4AE2D"/>
    <path d="M21.8746 18.7502H18.7493V21.8756H21.8746V18.7502Z" fill="#F4AE2D"/>
    <path d="M21.8746 15.625H18.7493V18.7494H21.8746V15.625Z" fill="#F4AE2D"/>
    <path d="M21.8746 12.5005H18.7493V15.6249H21.8746V12.5005Z" fill="#F4AE2D"/>
    <path d="M21.8746 9.37524H18.7493V12.5006H21.8746V9.37524Z" fill="#F4AE2D"/>
    <path d="M21.8746 6.24976H18.7493V9.37413H21.8746V6.24976Z" fill="#F4AE2D"/>
    <path d="M21.8746 3.12524H18.7493V6.24961H21.8746V3.12524Z" fill="#FFD876"/>
    <path d="M21.8746 0H18.7493V3.12538H21.8746V0Z" fill="#231F20"/>
    <path d="M18.7492 90.625H15.6249V93.7504H18.7492V90.625Z" fill="#231F20"/>
    <path d="M18.7492 87.5005H15.6249V90.6249H18.7492V87.5005Z" fill="#231F20"/>
    <path d="M18.7492 84.375H15.6249V87.4994H18.7492V84.375Z" fill="#FCC734"/>
    <path d="M18.7492 81.2498H15.6249V84.3751H18.7492V81.2498Z" fill="#EE8F28"/>
    <path d="M18.7492 78.1255H15.6249V81.2499H18.7492V78.1255Z" fill="#EE8F28"/>
    <path d="M18.7492 75H15.6249V78.1244H18.7492V75Z" fill="#F4AE2D"/>
    <path d="M18.7492 71.8748H15.6249V75.0001H18.7492V71.8748Z" fill="#DB7714"/>
    <path d="M18.7492 68.7502H15.6249V71.8746H18.7492V68.7502Z" fill="#F4AE2D"/>
    <path d="M18.7492 65.6248H15.6249V68.7491H18.7492V65.6248Z" fill="#F4AE2D"/>
    <path d="M18.7492 62.5005H15.6249V65.6249H18.7492V62.5005Z" fill="#F4AE2D"/>
    <path d="M18.7492 59.375H15.6249V62.5004H18.7492V59.375Z" fill="#DB7714"/>
    <path d="M18.7492 56.2507H15.6249V59.3751H18.7492V56.2507Z" fill="#DB7714"/>
    <path d="M18.7492 53.1255H15.6249V56.2499H18.7492V53.1255Z" fill="#DB7714"/>
    <path d="M18.7492 50H15.6249V53.1254H18.7492V50Z" fill="#F4AE2D"/>
    <path d="M18.7492 46.8755H15.6249V49.9999H18.7492V46.8755Z" fill="#F4AE2D"/>
    <path d="M18.7492 43.7502H15.6249V46.8746H18.7492V43.7502Z" fill="#F4AE2D"/>
    <path d="M18.7492 40.6248H15.6249V43.7501H18.7492V40.6248Z" fill="#F4AE2D"/>
    <path d="M18.7492 37.5005H15.6249V40.6249H18.7492V37.5005Z" fill="#F4AE2D"/>
    <path d="M18.7492 34.3752H15.6249V37.4996H18.7492V34.3752Z" fill="#F4AE2D"/>
    <path d="M18.7492 31.2507H15.6249V34.3751H18.7492V31.2507Z" fill="#F4AE2D"/>
    <path d="M18.7492 28.1252H15.6249V31.2506H18.7492V28.1252Z" fill="#F4AE2D"/>
    <path d="M18.7492 25H15.6249V28.1244H18.7492V25Z" fill="#F4AE2D"/>
    <path d="M18.7492 21.8755H15.6249V24.9999H18.7492V21.8755Z" fill="#F4AE2D"/>
    <path d="M18.7492 18.7502H15.6249V21.8756H18.7492V18.7502Z" fill="#FCC734"/>
    <path d="M18.7492 15.625H15.6249V18.7494H18.7492V15.625Z" fill="#FCC734"/>
    <path d="M18.7492 12.5005H15.6249V15.6249H18.7492V12.5005Z" fill="#FCC734"/>
    <path d="M18.7492 9.37524H15.6249V12.5006H18.7492V9.37524Z" fill="#FFD876"/>
    <path d="M18.7492 6.24976H15.6249V9.37413H18.7492V6.24976Z" fill="#FFD876"/>
    <path d="M18.7492 3.12524H15.6249V6.24961H18.7492V3.12524Z" fill="#FFD876"/>
    <path d="M18.7492 0H15.6249V3.12538H18.7492V0Z" fill="#231F20"/>
    <path d="M15.6239 93.7502H12.4995V96.8746H15.6239V93.7502Z" fill="#231F20"/>
    <path d="M15.6239 90.625H12.4995V93.7504H15.6239V90.625Z" fill="#FCC734"/>
    <path d="M15.6239 87.5005H12.4995V90.6249H15.6239V87.5005Z" fill="#FCC734"/>
    <path d="M15.6239 84.375H12.4995V87.4994H15.6239V84.375Z" fill="#EE8F28"/>
    <path d="M15.6239 81.2498H12.4995V84.3751H15.6239V81.2498Z" fill="#EE8F28"/>
    <path d="M15.6239 78.1255H12.4995V81.2499H15.6239V78.1255Z" fill="#EE8F28"/>
    <path d="M15.6239 75H12.4995V78.1244H15.6239V75Z" fill="#F4AE2D"/>
    <path d="M15.6239 71.8748H12.4995V75.0001H15.6239V71.8748Z" fill="#F4AE2D"/>
    <path d="M15.6239 68.7502H12.4995V71.8746H15.6239V68.7502Z" fill="#DB7714"/>
    <path d="M15.6239 65.6248H12.4995V68.7491H15.6239V65.6248Z" fill="#DB7714"/>
    <path d="M15.6239 62.5005H12.4995V65.6249H15.6239V62.5005Z" fill="#F4AE2D"/>
    <path d="M15.6239 59.375H12.4995V62.5004H15.6239V59.375Z" fill="#F4AE2D"/>
    <path d="M15.6239 56.2507H12.4995V59.3751H15.6239V56.2507Z" fill="#F4AE2D"/>
    <path d="M15.6239 53.1255H12.4995V56.2499H15.6239V53.1255Z" fill="#F4AE2D"/>
    <path d="M15.6239 50H12.4995V53.1254H15.6239V50Z" fill="#F4AE2D"/>
    <path d="M15.6239 46.8755H12.4995V49.9999H15.6239V46.8755Z" fill="#F4AE2D"/>
    <path d="M15.6239 43.7502H12.4995V46.8746H15.6239V43.7502Z" fill="#F4AE2D"/>
    <path d="M15.6239 40.6248H12.4995V43.7501H15.6239V40.6248Z" fill="#F4AE2D"/>
    <path d="M15.6239 37.5005H12.4995V40.6249H15.6239V37.5005Z" fill="#FCC734"/>
    <path d="M15.6239 34.3752H12.4995V37.4996H15.6239V34.3752Z" fill="#FCC734"/>
    <path d="M15.6239 31.2507H12.4995V34.3751H15.6239V31.2507Z" fill="#FCC734"/>
    <path d="M15.6239 28.1252H12.4995V31.2506H15.6239V28.1252Z" fill="#FCC734"/>
    <path d="M15.6239 25H12.4995V28.1244H15.6239V25Z" fill="#FCC734"/>
    <path d="M15.6239 21.8755H12.4995V24.9999H15.6239V21.8755Z" fill="#FCC734"/>
    <path d="M15.6239 18.7502H12.4995V21.8756H15.6239V18.7502Z" fill="#231F20"/>
    <path d="M15.6239 15.625H12.4995V18.7494H15.6239V15.625Z" fill="#231F20"/>
    <path d="M15.6239 12.5005H12.4995V15.6249H15.6239V12.5005Z" fill="#231F20"/>
    <path d="M15.6239 9.37524H12.4995V12.5006H15.6239V9.37524Z" fill="#231F20"/>
    <path d="M15.6239 6.24976H12.4995V9.37413H15.6239V6.24976Z" fill="#231F20"/>
    <path d="M15.6239 3.12524H12.4995V6.24961H15.6239V3.12524Z" fill="#231F20"/>
    <path d="M12.4996 96.8757H9.37524V100H12.4996V96.8757Z" fill="#231F20"/>
    <path d="M12.4996 93.7502H9.37524V96.8746H12.4996V93.7502Z" fill="#FCC734"/>
    <path d="M12.4996 90.625H9.37524V93.7504H12.4996V90.625Z" fill="#EE8F28"/>
    <path d="M12.4996 87.5005H9.37524V90.6249H12.4996V87.5005Z" fill="#EE8F28"/>
    <path d="M12.4996 84.375H9.37524V87.4994H12.4996V84.375Z" fill="#EE8F28"/>
    <path d="M12.4996 81.2498H9.37524V84.3751H12.4996V81.2498Z" fill="#EE8F28"/>
    <path d="M12.4996 78.1255H9.37524V81.2499H12.4996V78.1255Z" fill="#EE8F28"/>
    <path d="M12.4996 75H9.37524V78.1244H12.4996V75Z" fill="#F4AE2D"/>
    <path d="M12.4996 71.8748H9.37524V75.0001H12.4996V71.8748Z" fill="#F4AE2D"/>
    <path d="M12.4996 68.7502H9.37524V71.8746H12.4996V68.7502Z" fill="#F4AE2D"/>
    <path d="M12.4996 65.6248H9.37524V68.7491H12.4996V65.6248Z" fill="#F4AE2D"/>
    <path d="M12.4996 62.5005H9.37524V65.6249H12.4996V62.5005Z" fill="#F4AE2D"/>
    <path d="M12.4996 59.375H9.37524V62.5004H12.4996V59.375Z" fill="#FCC734"/>
    <path d="M12.4996 56.2507H9.37524V59.3751H12.4996V56.2507Z" fill="#FCC734"/>
    <path d="M12.4996 53.1255H9.37524V56.2499H12.4996V53.1255Z" fill="#FCC734"/>
    <path d="M12.4996 50H9.37524V53.1254H12.4996V50Z" fill="#FCC734"/>
    <path d="M12.4996 46.8755H9.37524V49.9999H12.4996V46.8755Z" fill="#FCC734"/>
    <path d="M12.4996 43.7502H9.37524V46.8746H12.4996V43.7502Z" fill="#FCC734"/>
    <path d="M12.4996 40.6248H9.37524V43.7501H12.4996V40.6248Z" fill="#FCC734"/>
    <path d="M12.4996 37.5005H9.37524V40.6249H12.4996V37.5005Z" fill="#231F20"/>
    <path d="M12.4996 34.3752H9.37524V37.4996H12.4996V34.3752Z" fill="#231F20"/>
    <path d="M12.4996 31.2507H9.37524V34.3751H12.4996V31.2507Z" fill="#231F20"/>
    <path d="M12.4996 28.1252H9.37524V31.2506H12.4996V28.1252Z" fill="#231F20"/>
    <path d="M12.4996 25H9.37524V28.1244H12.4996V25Z" fill="#231F20"/>
    <path d="M12.4996 21.8755H9.37524V24.9999H12.4996V21.8755Z" fill="#231F20"/>
    <path d="M9.37513 96.8757H6.24976V100H9.37513V96.8757Z" fill="#231F20"/>
    <path d="M9.37513 93.7502H6.24976V96.8746H9.37513V93.7502Z" fill="#FCC734"/>
    <path d="M9.37513 90.625H6.24976V93.7504H9.37513V90.625Z" fill="#EE8F28"/>
    <path d="M9.37513 87.5005H6.24976V90.6249H9.37513V87.5005Z" fill="#EE8F28"/>
    <path d="M9.37513 84.375H6.24976V87.4994H9.37513V84.375Z" fill="#EE8F28"/>
    <path d="M9.37513 81.2498H6.24976V84.3751H9.37513V81.2498Z" fill="#EE8F28"/>
    <path d="M9.37513 78.1255H6.24976V81.2499H9.37513V78.1255Z" fill="#FCC734"/>
    <path d="M9.37513 75H6.24976V78.1244H9.37513V75Z" fill="#FCC734"/>
    <path d="M9.37513 71.8748H6.24976V75.0001H9.37513V71.8748Z" fill="#FCC734"/>
    <path d="M9.37513 68.7502H6.24976V71.8746H9.37513V68.7502Z" fill="#FCC734"/>
    <path d="M9.37513 65.6248H6.24976V68.7491H9.37513V65.6248Z" fill="#FCC734"/>
    <path d="M9.37513 62.5005H6.24976V65.6249H9.37513V62.5005Z" fill="#FCC734"/>
    <path d="M9.37513 59.375H6.24976V62.5004H9.37513V59.375Z" fill="#231F20"/>
    <path d="M9.37513 56.2507H6.24976V59.3751H9.37513V56.2507Z" fill="#231F20"/>
    <path d="M9.37513 53.1255H6.24976V56.2499H9.37513V53.1255Z" fill="#231F20"/>
    <path d="M9.37513 50H6.24976V53.1254H9.37513V50Z" fill="#231F20"/>
    <path d="M9.37513 46.8755H6.24976V49.9999H9.37513V46.8755Z" fill="#231F20"/>
    <path d="M9.37513 43.7502H6.24976V46.8746H9.37513V43.7502Z" fill="#231F20"/>
    <path d="M9.37513 40.6248H6.24976V43.7501H9.37513V40.6248Z" fill="#231F20"/>
    <path d="M6.24876 96.8757H3.12439V100H6.24876V96.8757Z" fill="#231F20"/>
    <path d="M6.24876 93.7502H3.12439V96.8746H6.24876V93.7502Z" fill="#FCC734"/>
    <path d="M6.24876 90.625H3.12439V93.7504H6.24876V90.625Z" fill="#FCC734"/>
    <path d="M6.24876 87.5005H3.12439V90.6249H6.24876V87.5005Z" fill="#FCC734"/>
    <path d="M6.24876 84.375H3.12439V87.4994H6.24876V84.375Z" fill="#FCC734"/>
    <path d="M6.24876 81.2498H3.12439V84.3751H6.24876V81.2498Z" fill="#FCC734"/>
    <path d="M6.24876 78.1255H3.12439V81.2499H6.24876V78.1255Z" fill="#231F20"/>
    <path d="M6.24876 75H3.12439V78.1244H6.24876V75Z" fill="#231F20"/>
    <path d="M6.24876 71.8748H3.12439V75.0001H6.24876V71.8748Z" fill="#231F20"/>
    <path d="M6.24876 68.7502H3.12439V71.8746H6.24876V68.7502Z" fill="#231F20"/>
    <path d="M6.24876 65.6248H3.12439V68.7491H6.24876V65.6248Z" fill="#231F20"/>
    <path d="M6.24876 62.5005H3.12439V65.6249H6.24876V62.5005Z" fill="#231F20"/>
    <path d="M3.12437 96.8757H0V100H3.12437V96.8757Z" fill="#231F20"/>
    <path d="M3.12437 93.7502H0V96.8746H3.12437V93.7502Z" fill="#231F20"/>
    <path d="M3.12437 90.625H0V93.7504H3.12437V90.625Z" fill="#231F20"/>
    <path d="M3.12437 87.5005H0V90.6249H3.12437V87.5005Z" fill="#231F20"/>
    <path d="M3.12437 84.375H0V87.4994H3.12437V84.375Z" fill="#231F20"/>
    <path d="M3.12437 81.2498H0V84.3751H3.12437V81.2498Z" fill="#231F20"/>
</svg>