<svg shape-rendering="crispEdges" width="66" height="28" viewBox="0 0 66 28" fill="none" xmlns="http://www.w3.org/2000/svg">
    <path d="M12.1099 9.69H10.8999V10.9H12.1099V9.69Z" fill="black"/>
    <path d="M12.1099 8.48004H10.8999V9.69H12.1099V8.48004Z" fill="black"/>
    <path d="M12.1099 6.04999H10.8999V7.26001H12.1099V6.04999Z" fill="black"/>
    <path d="M12.1099 4.84003H10.8999V6.04999H12.1099V4.84003Z" fill="black"/>
    <path d="M12.1099 3.63H10.8999V4.84003H12.1099V3.63Z" fill="black"/>
    <path d="M13.3199 2.42004H12.1099V3.63H13.3199V2.42004Z" fill="black"/>
    <path d="M14.53 2.42004H13.3199V3.63H14.53V2.42004Z" fill="black"/>
    <path d="M15.74 2.42004H14.53V3.63H15.74V2.42004Z" fill="black"/>
    <path d="M16.95 2.42004H15.74V3.63H16.95V2.42004Z" fill="black"/>
    <path d="M18.16 2.42004H16.95V3.63H18.16V2.42004Z" fill="black"/>
    <path d="M19.3699 3.63H18.1599V4.84003H19.3699V3.63Z" fill="black"/>
    <path d="M19.3699 4.84003H18.1599V6.04999H19.3699V4.84003Z" fill="black"/>
    <path d="M19.3699 6.04999H18.1599V7.26001H19.3699V6.04999Z" fill="black"/>
    <path d="M12.1099 7.27002H10.8999V8.48004H12.1099V7.27002Z" fill="black"/>
    <path d="M19.3699 7.27002H18.1599V8.48004H19.3699V7.27002Z" fill="#CFA710"/>
    <path d="M19.3699 8.48004H18.1599V9.69H19.3699V8.48004Z" fill="#CFA710"/>
    <path d="M19.3699 9.69H18.1599V10.9H19.3699V9.69Z" fill="#ECECEC"/>
    <path d="M18.16 3.63H16.95V4.84003H18.16V3.63Z" fill="#777777"/>
    <path d="M18.16 4.84003H16.95V6.04999H18.16V4.84003Z" fill="black"/>
    <path d="M18.16 6.04999H16.95V7.26001H18.16V6.04999Z" fill="black"/>
    <path d="M18.16 7.27002H16.95V8.48004H18.16V7.27002Z" fill="#CFA710"/>
    <path d="M18.16 8.48004H16.95V9.69H18.16V8.48004Z" fill="black"/>
    <path d="M18.16 9.69H16.95V10.9H18.16V9.69Z" fill="#ECECEC"/>
    <path d="M18.16 8.48004H16.95V9.69H18.16V8.48004Z" fill="#CFA710"/>
    <path d="M16.95 3.63H15.74V4.84003H16.95V3.63Z" fill="#777777"/>
    <path d="M16.95 4.84003H15.74V6.04999H16.95V4.84003Z" fill="black"/>
    <path d="M16.95 6.04999H15.74V7.26001H16.95V6.04999Z" fill="black"/>
    <path d="M16.95 7.27002H15.74V8.48004H16.95V7.27002Z" fill="#CFA710"/>
    <path d="M16.95 8.48004H15.74V9.69H16.95V8.48004Z" fill="#CFA710"/>
    <path d="M16.95 9.69H15.74V10.9H16.95V9.69Z" fill="#ECECEC"/>
    <path d="M15.74 3.63H14.53V4.84003H15.74V3.63Z" fill="#777777"/>
    <path d="M15.74 4.84003H14.53V6.04999H15.74V4.84003Z" fill="black"/>
    <path d="M15.74 6.04999H14.53V7.26001H15.74V6.04999Z" fill="black"/>
    <path d="M15.74 7.27002H14.53V8.48004H15.74V7.27002Z" fill="black"/>
    <path d="M15.74 8.48004H14.53V9.69H15.74V8.48004Z" fill="#CFA710"/>
    <path d="M15.74 9.69H14.53V10.9H15.74V9.69Z" fill="#CFA710"/>
    <path d="M14.53 3.63H13.3199V4.84003H14.53V3.63Z" fill="black"/>
    <path d="M14.53 4.84003H13.3199V6.04999H14.53V4.84003Z" fill="black"/>
    <path d="M14.53 6.04999H13.3199V7.26001H14.53V6.04999Z" fill="black"/>
    <path d="M14.53 7.27002H13.3199V8.48004H14.53V7.27002Z" fill="black"/>
    <path d="M14.53 8.48004H13.3199V9.69H14.53V8.48004Z" fill="black"/>
    <path d="M14.53 9.69H13.3199V10.9H14.53V9.69Z" fill="black"/>
    <path d="M13.3199 3.63H12.1099V4.84003H13.3199V3.63Z" fill="#777777"/>
    <path d="M13.3199 4.84003H12.1099V6.04999H13.3199V4.84003Z" fill="black"/>
    <path d="M13.3199 6.04999H12.1099V7.26001H13.3199V6.04999Z" fill="black"/>
    <path d="M13.3199 7.27002H12.1099V8.48004H13.3199V7.27002Z" fill="black"/>
    <path d="M13.3199 8.48004H12.1099V9.69H13.3199V8.48004Z" fill="black"/>
    <path d="M13.3199 9.69H12.1099V10.9H13.3199V9.69Z" fill="black"/>
    <path d="M13.3199 10.9H12.1099V12.11H13.3199V10.9Z" fill="black"/>
    <path d="M10.9 9.69H9.68994V10.9H10.9V9.69Z" fill="#775D64"/>
    <path d="M10.9 10.9H9.68994V12.11H10.9V10.9Z" fill="#775D64"/>
    <path d="M10.9 8.48004H9.68994V9.69H10.9V8.48004Z" fill="#775D64"/>
    <path d="M10.9 6.04999H9.68994V7.26001H10.9V6.04999Z" fill="#775D64"/>
    <path d="M10.9 7.27002H9.68994V8.48004H10.9V7.27002Z" fill="#775D64"/>
    <path d="M12.1099 10.9H10.8999V12.11H12.1099V10.9Z" fill="#775D64"/>
    <path d="M12.1099 12.11H10.8999V13.32H12.1099V12.11Z" fill="#775D64"/>
    <path d="M13.3199 14.53H12.1099V15.74H13.3199V14.53Z" fill="#775D64"/>
    <path d="M13.3199 13.32H12.1099V14.53H13.3199V13.32Z" fill="#775D64"/>
    <path d="M13.3199 12.11H12.1099V13.32H13.3199V12.11Z" fill="#775D64"/>
    <path d="M12.1099 13.32H10.8999V14.53H12.1099V13.32Z" fill="#775D64"/>
    <path d="M10.9 13.32H9.68994V14.53H10.9V13.32Z" fill="#775D64"/>
    <path d="M9.68994 13.32H8.47998V14.53H9.68994V13.32Z" fill="#775D64"/>
    <path d="M8.48004 13.32H7.27002V14.53H8.48004V13.32Z" fill="#775D64"/>
    <path d="M7.26996 13.32H6.05994V14.53H7.26996V13.32Z" fill="#775D64"/>
    <path d="M6.05994 13.32H4.84998V14.53H6.05994V13.32Z" fill="#775D64"/>
    <path d="M4.8399 13.32H3.62988V14.53H4.8399V13.32Z" fill="#775D64"/>
    <path d="M3.62994 13.32H2.41992V14.53H3.62994V13.32Z" fill="#775D64"/>
    <path d="M2.41992 14.53H1.20996V15.74H2.41992V14.53Z" fill="#775D64"/>
    <path d="M1.21002 15.74H0V16.95H1.21002V15.74Z" fill="#775D64"/>
    <path d="M1.21002 16.95H0V18.16H1.21002V16.95Z" fill="#775D64"/>
    <path d="M1.21002 18.16H0V19.37H1.21002V18.16Z" fill="#775D64"/>
    <path d="M1.21002 19.37H0V20.58H1.21002V19.37Z" fill="#775D64"/>
    <path d="M1.21002 20.58H0V21.79H1.21002V20.58Z" fill="#775D64"/>
    <path d="M1.21002 21.79H0V23H1.21002V21.79Z" fill="#775D64"/>
    <path d="M1.21002 23H0V24.21H1.21002V23Z" fill="#775D64"/>
    <path d="M14.53 10.9H13.3199V12.11H14.53V10.9Z" fill="black"/>
    <path d="M15.74 10.9H14.53V12.11H15.74V10.9Z" fill="black"/>
    <path d="M16.95 10.9H15.74V12.11H16.95V10.9Z" fill="#ECECEC"/>
    <path d="M18.16 10.9H16.95V12.11H18.16V10.9Z" fill="#ECECEC"/>
    <path d="M19.3699 2.42004H18.1599V3.63H19.3699V2.42004Z" fill="black"/>
    <path d="M20.5799 3.63H19.3699V4.84003H20.5799V3.63Z" fill="black"/>
    <path d="M20.5799 4.84003H19.3699V6.04999H20.5799V4.84003Z" fill="black"/>
    <path d="M20.5799 6.04999H19.3699V7.26001H20.5799V6.04999Z" fill="black"/>
    <path d="M20.5799 7.27002H19.3699V8.48004H20.5799V7.27002Z" fill="#CFA710"/>
    <path d="M21.79 7.27002H20.58V8.48004H21.79V7.27002Z" fill="#CFA710"/>
    <path d="M20.5799 8.48004H19.3699V9.69H20.5799V8.48004Z" fill="#CFA710"/>
    <path d="M20.5799 9.69H19.3699V10.9H20.5799V9.69Z" fill="#ECECEC"/>
    <path d="M19.3699 10.9H18.1599V12.11H19.3699V10.9Z" fill="#ECECEC"/>
    <path d="M2.41992 23H1.20996V24.21H2.41992V23Z" fill="black"/>
    <path d="M2.41992 21.79H1.20996V23H2.41992V21.79Z" fill="black"/>
    <path d="M2.41992 19.37H1.20996V20.58H2.41992V19.37Z" fill="black"/>
    <path d="M2.41992 16.95H1.20996V18.16H2.41992V16.95Z" fill="black"/>
    <path d="M2.41992 15.74H1.20996V16.95H2.41992V15.74Z" fill="black"/>
    <path d="M3.62994 14.53H2.41992V15.74H3.62994V14.53Z" fill="black"/>
    <path d="M4.8399 14.53H3.62988V15.74H4.8399V14.53Z" fill="black"/>
    <path d="M6.05994 14.53H4.84998V15.74H6.05994V14.53Z" fill="black"/>
    <path d="M7.26996 14.53H6.05994V15.74H7.26996V14.53Z" fill="black"/>
    <path d="M8.48004 14.53H7.27002V15.74H8.48004V14.53Z" fill="black"/>
    <path d="M9.68994 14.53H8.47998V15.74H9.68994V14.53Z" fill="black"/>
    <path d="M12.1099 15.74H10.8999V16.95H12.1099V15.74Z" fill="black"/>
    <path d="M12.1099 16.95H10.8999V18.16H12.1099V16.95Z" fill="black"/>
    <path d="M12.1099 19.37H10.8999V20.58H12.1099V19.37Z" fill="black"/>
    <path d="M2.41992 20.58H1.20996V21.79H2.41992V20.58Z" fill="black"/>
    <path d="M12.1099 20.58H10.8999V21.79H12.1099V20.58Z" fill="black"/>
    <path d="M12.1099 21.79H10.8999V23H12.1099V21.79Z" fill="black"/>
    <path d="M12.1099 23H10.8999V24.21H12.1099V23Z" fill="black"/>
    <path d="M9.68994 15.74H8.47998V16.95H9.68994V15.74Z" fill="#777777"/>
    <path d="M10.9 15.74H9.68994V16.95H10.9V15.74Z" fill="#777777"/>
    <path d="M9.68994 16.95H8.47998V18.16H9.68994V16.95Z" fill="black"/>
    <path d="M9.68994 19.37H8.47998V20.58H9.68994V19.37Z" fill="black"/>
    <path d="M9.68994 20.58H8.47998V21.79H9.68994V20.58Z" fill="black"/>
    <path d="M9.68994 21.79H8.47998V23H9.68994V21.79Z" fill="black"/>
    <path d="M9.68994 23H8.47998V24.21H9.68994V23Z" fill="black"/>
    <path d="M8.48004 15.74H7.27002V16.95H8.48004V15.74Z" fill="#777777"/>
    <path d="M8.48004 16.95H7.27002V18.16H8.48004V16.95Z" fill="black"/>
    <path d="M8.48004 19.37H7.27002V20.58H8.48004V19.37Z" fill="black"/>
    <path d="M8.48004 20.58H7.27002V21.79H8.48004V20.58Z" fill="black"/>
    <path d="M8.48004 21.79H7.27002V23H8.48004V21.79Z" fill="black"/>
    <path d="M8.48004 23H7.27002V24.21H8.48004V23Z" fill="black"/>
    <path d="M7.26996 15.74H6.05994V16.95H7.26996V15.74Z" fill="#777777"/>
    <path d="M7.26996 16.95H6.05994V18.16H7.26996V16.95Z" fill="black"/>
    <path d="M7.26996 19.37H6.05994V20.58H7.26996V19.37Z" fill="black"/>
    <path d="M7.26996 20.58H6.05994V21.79H7.26996V20.58Z" fill="black"/>
    <path d="M7.26996 21.79H6.05994V23H7.26996V21.79Z" fill="black"/>
    <path d="M7.26996 23H6.05994V24.21H7.26996V23Z" fill="black"/>
    <path d="M6.05994 15.74H4.84998V16.95H6.05994V15.74Z" fill="#777777"/>
    <path d="M6.05994 16.95H4.84998V18.16H6.05994V16.95Z" fill="black"/>
    <path d="M6.05994 19.37H4.84998V20.58H6.05994V19.37Z" fill="black"/>
    <path d="M6.05994 20.58H4.84998V21.79H6.05994V20.58Z" fill="black"/>
    <path d="M6.05994 21.79H4.84998V23H6.05994V21.79Z" fill="black"/>
    <path d="M6.05994 23H4.84998V24.21H6.05994V23Z" fill="black"/>
    <path d="M4.8399 15.74H3.62988V16.95H4.8399V15.74Z" fill="black"/>
    <path d="M4.8399 16.95H3.62988V18.16H4.8399V16.95Z" fill="black"/>
    <path d="M4.8399 19.37H3.62988V20.58H4.8399V19.37Z" fill="black"/>
    <path d="M4.8399 20.58H3.62988V21.79H4.8399V20.58Z" fill="black"/>
    <path d="M4.8399 21.79H3.62988V23H4.8399V21.79Z" fill="black"/>
    <path d="M4.8399 23H3.62988V24.21H4.8399V23Z" fill="black"/>
    <path d="M3.62994 15.74H2.41992V16.95H3.62994V15.74Z" fill="#777777"/>
    <path d="M3.62994 16.95H2.41992V18.16H3.62994V16.95Z" fill="black"/>
    <path d="M3.62994 19.37H2.41992V20.58H3.62994V19.37Z" fill="black"/>
    <path d="M3.62994 20.58H2.41992V21.79H3.62994V20.58Z" fill="black"/>
    <path d="M3.62994 21.79H2.41992V23H3.62994V21.79Z" fill="black"/>
    <path d="M3.62994 23H2.41992V24.21H3.62994V23Z" fill="black"/>
    <path d="M3.62994 24.22H2.41992V25.43H3.62994V24.22Z" fill="black"/>
    <path d="M4.8399 24.22H3.62988V25.43H4.8399V24.22Z" fill="black"/>
    <path d="M6.05994 24.22H4.84998V25.43H6.05994V24.22Z" fill="black"/>
    <path d="M7.26996 24.22H6.05994V25.43H7.26996V24.22Z" fill="black"/>
    <path d="M8.48004 24.22H7.27002V25.43H8.48004V24.22Z" fill="black"/>
    <path d="M9.68994 24.22H8.47998V25.43H9.68994V24.22Z" fill="black"/>
    <path d="M12.1099 14.53H10.8999V15.74H12.1099V14.53Z" fill="black"/>
    <path d="M13.3199 15.74H12.1099V16.95H13.3199V15.74Z" fill="black"/>
    <path d="M13.3199 16.95H12.1099V18.16H13.3199V16.95Z" fill="black"/>
    <path d="M13.3199 19.37H12.1099V20.58H13.3199V19.37Z" fill="black"/>
    <path d="M13.3199 20.58H12.1099V21.79H13.3199V20.58Z" fill="black"/>
    <path d="M13.3199 21.79H12.1099V23H13.3199V21.79Z" fill="black"/>
    <path d="M13.3199 23H12.1099V24.21H13.3199V23Z" fill="black"/>
    <path d="M14.53 21.79H13.3199V23H14.53V21.79Z" fill="black"/>
    <path d="M14.53 18.16H13.3199V19.37H14.53V18.16Z" fill="#636363"/>
    <path d="M15.74 16.95H14.53V18.16H15.74V16.95Z" fill="#636363"/>
    <path d="M15.74 15.74H14.53V16.95H15.74V15.74Z" fill="#636363"/>
    <path d="M15.74 14.53H14.53V15.74H15.74V14.53Z" fill="#636363"/>
    <path d="M15.74 13.32H14.53V14.53H15.74V13.32Z" fill="#8D8D8D"/>
    <path d="M15.74 12.11H14.53V13.32H15.74V12.11Z" fill="#8D8D8D"/>
    <path d="M14.53 16.95H13.3199V18.16H14.53V16.95Z" fill="#636363"/>
    <path d="M14.53 15.74H13.3199V16.95H14.53V15.74Z" fill="#636363"/>
    <path d="M14.53 13.32H13.3199V14.53H14.53V13.32Z" fill="#ECECEC"/>
    <path d="M14.53 13.32H13.3199V14.53H14.53V13.32Z" fill="#8D8D8D"/>
    <path d="M14.53 14.53H13.3199V15.74H14.53V14.53Z" fill="#8D8D8D"/>
    <path d="M14.53 12.11H13.3199V13.32H14.53V12.11Z" fill="#ECECEC"/>
    <path d="M14.53 10.9H13.3199V12.11H14.53V10.9Z" fill="black"/>
    <path d="M15.74 10.9H14.53V12.11H15.74V10.9Z" fill="#ECECEC"/>
    <path d="M16.95 10.9H15.74V12.11H16.95V10.9Z" fill="#ECECEC"/>
    <path d="M16.95 12.11H15.74V13.32H16.95V12.11Z" fill="#CFA710"/>
    <path d="M18.16 12.11H16.95V13.32H18.16V12.11Z" fill="#CFA710"/>
    <path d="M19.3699 12.11H18.1599V13.32H19.3699V12.11Z" fill="#CFA710"/>
    <path d="M20.5799 12.11H19.3699V13.32H20.5799V12.11Z" fill="#CFA710"/>
    <path d="M21.79 12.11H20.58V13.32H21.79V12.11Z" fill="#CFA710"/>
    <path d="M23.0099 12.11H21.7999V13.32H23.0099V12.11Z" fill="#CFA710"/>
    <path d="M24.22 12.11H23.01V13.32H24.22V12.11Z" fill="#CFA710"/>
    <path d="M25.4299 12.11H24.22V13.32H25.4299V12.11Z" fill="#CFA710"/>
    <path d="M26.64 12.11H25.4299V13.32H26.64V12.11Z" fill="#CFA710"/>
    <path d="M27.8499 12.11H26.6399V13.32H27.8499V12.11Z" fill="#CFA710"/>
    <path d="M29.0599 12.11H27.85V13.32H29.0599V12.11Z" fill="#CFA710"/>
    <path d="M30.27 12.11H29.0599V13.32H30.27V12.11Z" fill="#CFA710"/>
    <path d="M31.48 12.11H30.27V13.32H31.48V12.11Z" fill="#CFA710"/>
    <path d="M32.6899 12.11H31.48V13.32H32.6899V12.11Z" fill="#CFA710"/>
    <path d="M16.95 13.32H15.74V14.53H16.95V13.32Z" fill="black"/>
    <path d="M16.95 14.53H15.74V15.74H16.95V14.53Z" fill="#40FF29"/>
    <path d="M16.95 15.74H15.74V16.95H16.95V15.74Z" fill="#B4FF00"/>
    <path d="M16.95 16.95H15.74V18.16H16.95V16.95Z" fill="#40FF29"/>
    <path d="M15.74 18.16H14.53V19.37H15.74V18.16Z" fill="black"/>
    <path d="M18.16 13.32H16.95V14.53H18.16V13.32Z" fill="black"/>
    <path d="M19.3699 13.32H18.1599V14.53H19.3699V13.32Z" fill="black"/>
    <path d="M20.5799 13.32H19.3699V14.53H20.5799V13.32Z" fill="black"/>
    <path d="M21.79 13.32H20.58V14.53H21.79V13.32Z" fill="black"/>
    <path d="M23.0099 13.32H21.7999V14.53H23.0099V13.32Z" fill="black"/>
    <path d="M24.22 13.32H23.01V14.53H24.22V13.32Z" fill="black"/>
    <path d="M25.4299 13.32H24.22V14.53H25.4299V13.32Z" fill="black"/>
    <path d="M26.64 13.32H25.4299V14.53H26.64V13.32Z" fill="black"/>
    <path d="M27.8499 13.32H26.6399V14.53H27.8499V13.32Z" fill="black"/>
    <path d="M29.0599 13.32H27.85V14.53H29.0599V13.32Z" fill="black"/>
    <path d="M30.27 13.32H29.0599V14.53H30.27V13.32Z" fill="black"/>
    <path d="M31.48 13.32H30.27V14.53H31.48V13.32Z" fill="black"/>
    <path d="M32.6899 13.32H31.48V14.53H32.6899V13.32Z" fill="black"/>
    <path d="M18.16 10.9H16.95V12.11H18.16V10.9Z" fill="#ECECEC"/>
    <path d="M19.3699 10.9H18.1599V12.11H19.3699V10.9Z" fill="#ECECEC"/>
    <path d="M20.5799 10.9H19.3699V12.11H20.5799V10.9Z" fill="#ECECEC"/>
    <path d="M21.79 10.9H20.58V12.11H21.79V10.9Z" fill="#ECECEC"/>
    <path d="M23.0099 10.9H21.7999V12.11H23.0099V10.9Z" fill="#ECECEC"/>
    <path d="M24.22 10.9H23.01V12.11H24.22V10.9Z" fill="#ECECEC"/>
    <path d="M25.4299 10.9H24.22V12.11H25.4299V10.9Z" fill="#ECECEC"/>
    <path d="M26.64 10.9H25.4299V12.11H26.64V10.9Z" fill="#ECECEC"/>
    <path d="M27.8499 10.9H26.6399V12.11H27.8499V10.9Z" fill="#ECECEC"/>
    <path d="M29.0599 10.9H27.85V12.11H29.0599V10.9Z" fill="#ECECEC"/>
    <path d="M30.27 10.9H29.0599V12.11H30.27V10.9Z" fill="#ECECEC"/>
    <path d="M31.48 10.9H30.27V12.11H31.48V10.9Z" fill="#ECECEC"/>
    <path d="M32.6899 10.9H31.48V12.11H32.6899V10.9Z" fill="#ECECEC"/>
    <path d="M15.74 21.79H14.53V23H15.74V21.79Z" fill="black"/>
    <path d="M14.53 23H13.3199V24.21H14.53V23Z" fill="#514C4D"/>
    <path d="M15.74 23H14.53V24.21H15.74V23Z" fill="#514C4D"/>
    <path d="M14.53 24.22H13.3199V25.43H14.53V24.22Z" fill="#514C4D"/>
    <path d="M13.3199 24.22H12.1099V25.43H13.3199V24.22Z" fill="#514C4D"/>
    <path d="M13.3199 25.43H12.1099V26.64H13.3199V25.43Z" fill="#514C4D"/>
    <path d="M12.1099 25.43H10.8999V26.64H12.1099V25.43Z" fill="#514C4D"/>
    <path d="M10.9 25.43H9.68994V26.64H10.9V25.43Z" fill="#514C4D"/>
    <path d="M9.67993 25.43H8.46997V26.64H9.67993V25.43Z" fill="#514C4D"/>
    <path d="M8.47003 25.43H7.26001V26.64H8.47003V25.43Z" fill="#514C4D"/>
    <path d="M7.25995 25.43H6.04993V26.64H7.25995V25.43Z" fill="#514C4D"/>
    <path d="M6.04993 25.43H4.83997V26.64H6.04993V25.43Z" fill="#514C4D"/>
    <path d="M4.8399 25.43H3.62988V26.64H4.8399V25.43Z" fill="#514C4D"/>
    <path d="M3.62994 25.43H2.41992V26.64H3.62994V25.43Z" fill="#514C4D"/>
    <path d="M15.74 24.22H14.53V25.43H15.74V24.22Z" fill="#514C4D"/>
    <path d="M16.95 24.22H15.74V25.43H16.95V24.22Z" fill="#514C4D"/>
    <path d="M18.16 24.22H16.95V25.43H18.16V24.22Z" fill="#514C4D"/>
    <path d="M19.3699 24.22H18.1599V25.43H19.3699V24.22Z" fill="#514C4D"/>
    <path d="M20.5799 24.22H19.3699V25.43H20.5799V24.22Z" fill="#514C4D"/>
    <path d="M21.79 24.22H20.58V25.43H21.79V24.22Z" fill="#514C4D"/>
    <path d="M15.74 25.43H14.53V26.64H15.74V25.43Z" fill="#514C4D"/>
    <path d="M16.95 25.43H15.74V26.64H16.95V25.43Z" fill="#514C4D"/>
    <path d="M18.16 25.43H16.95V26.64H18.16V25.43Z" fill="#514C4D"/>
    <path d="M19.3699 25.43H18.1599V26.64H19.3699V25.43Z" fill="#514C4D"/>
    <path d="M20.5799 25.43H19.3699V26.64H20.5799V25.43Z" fill="#514C4D"/>
    <path d="M21.79 25.43H20.58V26.64H21.79V25.43Z" fill="#514C4D"/>
    <path d="M23.0099 25.43H21.7999V26.64H23.0099V25.43Z" fill="#514C4D"/>
    <path d="M24.22 25.43H23.01V26.64H24.22V25.43Z" fill="#514C4D"/>
    <path d="M25.4299 25.43H24.22V26.64H25.4299V25.43Z" fill="#514C4D"/>
    <path d="M26.64 25.43H25.4299V26.64H26.64V25.43Z" fill="#514C4D"/>
    <path d="M27.8499 25.43H26.6399V26.64H27.8499V25.43Z" fill="#514C4D"/>
    <path d="M29.0599 25.43H27.85V26.64H29.0599V25.43Z" fill="#514C4D"/>
    <path d="M30.27 25.43H29.0599V26.64H30.27V25.43Z" fill="#514C4D"/>
    <path d="M31.48 25.43H30.27V26.64H31.48V25.43Z" fill="#514C4D"/>
    <path d="M32.6899 25.43H31.48V26.64H32.6899V25.43Z" fill="#514C4D"/>
    <path d="M33.9 25.43H32.6899V26.64H33.9V25.43Z" fill="#514C4D"/>
    <path d="M35.1099 25.43H33.8999V26.64H35.1099V25.43Z" fill="#514C4D"/>
    <path d="M36.3199 25.43H35.1099V26.64H36.3199V25.43Z" fill="#514C4D"/>
    <path d="M37.53 25.43H36.3199V26.64H37.53V25.43Z" fill="#514C4D"/>
    <path d="M38.75 25.43H37.54V26.64H38.75V25.43Z" fill="#514C4D"/>
    <path d="M39.96 25.43H38.75V26.64H39.96V25.43Z" fill="#514C4D"/>
    <path d="M41.1699 25.43H39.96V26.64H41.1699V25.43Z" fill="#514C4D"/>
    <path d="M42.3799 25.43H41.1699V26.64H42.3799V25.43Z" fill="#514C4D"/>
    <path d="M43.5899 25.43H42.3799V26.64H43.5899V25.43Z" fill="#514C4D"/>
    <path d="M44.7999 25.43H43.59V26.64H44.7999V25.43Z" fill="#514C4D"/>
    <path d="M21.79 26.64H20.58V27.85H21.79V26.64Z" fill="#514C4D"/>
    <path d="M23.0099 26.64H21.7999V27.85H23.0099V26.64Z" fill="#514C4D"/>
    <path d="M24.22 26.64H23.01V27.85H24.22V26.64Z" fill="#514C4D"/>
    <path d="M25.4299 26.64H24.22V27.85H25.4299V26.64Z" fill="#514C4D"/>
    <path d="M26.64 26.64H25.4299V27.85H26.64V26.64Z" fill="#514C4D"/>
    <path d="M27.8499 26.64H26.6399V27.85H27.8499V26.64Z" fill="#514C4D"/>
    <path d="M29.0599 26.64H27.85V27.85H29.0599V26.64Z" fill="#514C4D"/>
    <path d="M30.27 26.64H29.0599V27.85H30.27V26.64Z" fill="#514C4D"/>
    <path d="M31.48 26.64H30.27V27.85H31.48V26.64Z" fill="#514C4D"/>
    <path d="M32.6899 26.64H31.48V27.85H32.6899V26.64Z" fill="#514C4D"/>
    <path d="M33.9 26.64H32.6899V27.85H33.9V26.64Z" fill="#514C4D"/>
    <path d="M35.1099 26.64H33.8999V27.85H35.1099V26.64Z" fill="#514C4D"/>
    <path d="M36.3199 26.64H35.1099V27.85H36.3199V26.64Z" fill="#514C4D"/>
    <path d="M37.53 26.64H36.3199V27.85H37.53V26.64Z" fill="#514C4D"/>
    <path d="M38.75 26.64H37.54V27.85H38.75V26.64Z" fill="#514C4D"/>
    <path d="M39.96 26.64H38.75V27.85H39.96V26.64Z" fill="#514C4D"/>
    <path d="M41.1699 26.64H39.96V27.85H41.1699V26.64Z" fill="#514C4D"/>
    <path d="M42.3799 26.64H41.1699V27.85H42.3799V26.64Z" fill="#514C4D"/>
    <path d="M43.5899 26.64H42.3799V27.85H43.5899V26.64Z" fill="#514C4D"/>
    <path d="M44.7999 26.64H43.59V27.85H44.7999V26.64Z" fill="#514C4D"/>
    <path d="M46.0099 25.43H44.7999V26.64H46.0099V25.43Z" fill="#514C4D"/>
    <path d="M47.22 25.43H46.01V26.64H47.22V25.43Z" fill="#514C4D"/>
    <path d="M48.4299 25.43H47.22V26.64H48.4299V25.43Z" fill="#514C4D"/>
    <path d="M49.64 25.43H48.4299V26.64H49.64V25.43Z" fill="#514C4D"/>
    <path d="M50.8499 25.43H49.6399V26.64H50.8499V25.43Z" fill="#514C4D"/>
    <path d="M44.7999 24.22H43.59V25.43H44.7999V24.22Z" fill="#514C4D"/>
    <path d="M46.0099 24.22H44.7999V25.43H46.0099V24.22Z" fill="#514C4D"/>
    <path d="M47.22 24.22H46.01V25.43H47.22V24.22Z" fill="#514C4D"/>
    <path d="M48.4299 24.22H47.22V25.43H48.4299V24.22Z" fill="#514C4D"/>
    <path d="M49.64 24.22H48.4299V25.43H49.64V24.22Z" fill="#514C4D"/>
    <path d="M50.8499 24.22H49.6399V25.43H50.8499V24.22Z" fill="#514C4D"/>
    <path d="M50.8499 23H49.6399V24.21H50.8499V23Z" fill="#514C4D"/>
    <path d="M52.0599 24.22H50.85V25.43H52.0599V24.22Z" fill="#514C4D"/>
    <path d="M53.27 24.22H52.0599V25.43H53.27V24.22Z" fill="#514C4D"/>
    <path d="M53.27 25.43H52.0599V26.64H53.27V25.43Z" fill="#514C4D"/>
    <path d="M54.48 25.43H53.27V26.64H54.48V25.43Z" fill="#514C4D"/>
    <path d="M55.7 25.43H54.49V26.64H55.7V25.43Z" fill="#514C4D"/>
    <path d="M56.91 25.43H55.7V26.64H56.91V25.43Z" fill="#514C4D"/>
    <path d="M58.1199 25.43H56.9099V26.64H58.1199V25.43Z" fill="#514C4D"/>
    <path d="M59.3299 25.43H58.1199V26.64H59.3299V25.43Z" fill="#514C4D"/>
    <path d="M60.54 25.43H59.33V26.64H60.54V25.43Z" fill="#514C4D"/>
    <path d="M61.75 25.43H60.54V26.64H61.75V25.43Z" fill="#514C4D"/>
    <path d="M62.96 25.43H61.75V26.64H62.96V25.43Z" fill="#514C4D"/>
    <path d="M52.0599 23H50.85V24.21H52.0599V23Z" fill="#514C4D"/>
    <path d="M16.95 23H15.74V24.21H16.95V23Z" fill="black"/>
    <path d="M18.16 23H16.95V24.21H18.16V23Z" fill="black"/>
    <path d="M19.3699 23H18.1599V24.21H19.3699V23Z" fill="black"/>
    <path d="M19.3699 21.79H18.1599V23H19.3699V21.79Z" fill="#636363"/>
    <path d="M18.16 21.79H16.95V23H18.16V21.79Z" fill="#636363"/>
    <path d="M16.95 21.79H15.74V23H16.95V21.79Z" fill="#424242"/>
    <path d="M16.95 20.58H15.74V21.79H16.95V20.58Z" fill="#424242"/>
    <path d="M15.74 20.58H14.53V21.79H15.74V20.58Z" fill="#424242"/>
    <path d="M14.53 20.58H13.3199V21.79H14.53V20.58Z" fill="black"/>
    <path d="M18.16 20.58H16.95V21.79H18.16V20.58Z" fill="#424242"/>
    <path d="M19.3699 20.58H18.1599V21.79H19.3699V20.58Z" fill="#424242"/>
    <path d="M20.5799 20.58H19.3699V21.79H20.5799V20.58Z" fill="#424242"/>
    <path d="M21.79 19.37H20.58V20.58H21.79V19.37Z" fill="black"/>
    <path d="M21.79 20.58H20.58V21.79H21.79V20.58Z" fill="#777777"/>
    <path d="M23.0099 21.79H21.7999V23H23.0099V21.79Z" fill="#ECECEC"/>
    <path d="M25.4299 20.58H24.22V21.79H25.4299V20.58Z" fill="#777777"/>
    <path d="M26.64 20.58H25.4299V21.79H26.64V20.58Z" fill="#ECECEC"/>
    <path d="M27.8499 21.79H26.6399V23H27.8499V21.79Z" fill="#636363"/>
    <path d="M25.4299 19.37H24.22V20.58H25.4299V19.37Z" fill="#BDBDBD"/>
    <path d="M26.64 19.37H25.4299V20.58H26.64V19.37Z" fill="#BDBDBD"/>
    <path d="M27.8499 19.37H26.6399V20.58H27.8499V19.37Z" fill="#BDBDBD"/>
    <path d="M25.4299 20.58H24.22V21.79H25.4299V20.58Z" fill="#ECECEC"/>
    <path d="M24.22 20.58H23.01V21.79H24.22V20.58Z" fill="#ECECEC"/>
    <path d="M20.5799 21.79H19.3699V23H20.5799V21.79Z" fill="#636363"/>
    <path d="M21.79 21.79H20.58V23H21.79V21.79Z" fill="#424242"/>
    <path d="M24.22 21.79H23.01V23H24.22V21.79Z" fill="black"/>
    <path d="M25.4299 21.79H24.22V23H25.4299V21.79Z" fill="black"/>
    <path d="M26.64 21.79H25.4299V23H26.64V21.79Z" fill="#BDBDBD"/>
    <path d="M29.0599 19.37H27.85V20.58H29.0599V19.37Z" fill="black"/>
    <path d="M27.8499 20.58H26.6399V21.79H27.8499V20.58Z" fill="black"/>
    <path d="M25.4299 19.37H24.22V20.58H25.4299V19.37Z" fill="black"/>
    <path d="M27.8499 20.58H26.6399V21.79H27.8499V20.58Z" fill="#424242"/>
    <path d="M26.64 19.37H25.4299V20.58H26.64V19.37Z" fill="black"/>
    <path d="M27.8499 19.37H26.6399V20.58H27.8499V19.37Z" fill="black"/>
    <path d="M20.5799 23H19.3699V24.21H20.5799V23Z" fill="black"/>
    <path d="M21.79 23H20.58V24.21H21.79V23Z" fill="black"/>
    <path d="M23.0099 23H21.7999V24.21H23.0099V23Z" fill="#636363"/>
    <path d="M24.22 23H23.01V24.21H24.22V23Z" fill="#636363"/>
    <path d="M25.4299 23H24.22V24.21H25.4299V23Z" fill="#636363"/>
    <path d="M26.64 23H25.4299V24.21H26.64V23Z" fill="black"/>
    <path d="M18.16 21.79H16.95V23H18.16V21.79Z" fill="#ECECEC"/>
    <path d="M21.79 20.58H20.58V21.79H21.79V20.58Z" fill="#ECECEC"/>
    <path d="M20.5799 20.58H19.3699V21.79H20.5799V20.58Z" fill="#ECECEC"/>
    <path d="M19.3699 20.58H18.1599V21.79H19.3699V20.58Z" fill="#ECECEC"/>
    <path d="M19.3699 21.79H18.1599V23H19.3699V21.79Z" fill="black"/>
    <path d="M20.5799 21.79H19.3699V23H20.5799V21.79Z" fill="black"/>
    <path d="M21.79 21.79H20.58V23H21.79V21.79Z" fill="#BDBDBD"/>
    <path d="M18.16 23H16.95V24.21H18.16V23Z" fill="#636363"/>
    <path d="M19.3699 23H18.1599V24.21H19.3699V23Z" fill="#636363"/>
    <path d="M20.5799 23H19.3699V24.21H20.5799V23Z" fill="#636363"/>
    <path d="M21.79 23H20.58V24.21H21.79V23Z" fill="black"/>
    <path d="M27.8499 23H26.6399V24.21H27.8499V23Z" fill="black"/>
    <path d="M29.0599 24.22H27.85V25.43H29.0599V24.22Z" fill="black"/>
    <path d="M27.8499 24.22H26.6399V25.43H27.8499V24.22Z" fill="black"/>
    <path d="M26.64 24.22H25.4299V25.43H26.64V24.22Z" fill="black"/>
    <path d="M25.4299 24.22H24.22V25.43H25.4299V24.22Z" fill="black"/>
    <path d="M24.22 24.22H23.01V25.43H24.22V24.22Z" fill="black"/>
    <path d="M23.0099 24.22H21.7999V25.43H23.0099V24.22Z" fill="black"/>
    <path d="M21.79 24.22H20.58V25.43H21.79V24.22Z" fill="black"/>
    <path d="M30.27 24.22H29.0599V25.43H30.27V24.22Z" fill="black"/>
    <path d="M31.48 24.22H30.27V25.43H31.48V24.22Z" fill="black"/>
    <path d="M32.6899 24.22H31.48V25.43H32.6899V24.22Z" fill="black"/>
    <path d="M12.1099 24.22H10.8999V25.43H12.1099V24.22Z" fill="black"/>
    <path d="M10.9 16.95H9.68994V18.16H10.9V16.95Z" fill="black"/>
    <path d="M10.9 19.37H9.68994V20.58H10.9V19.37Z" fill="black"/>
    <path d="M2.41992 18.16H1.20996V19.37H2.41992V18.16Z" fill="black"/>
    <path d="M12.1099 18.16H10.8999V19.37H12.1099V18.16Z" fill="black"/>
    <path d="M9.68994 18.16H8.47998V19.37H9.68994V18.16Z" fill="black"/>
    <path d="M8.48004 18.16H7.27002V19.37H8.48004V18.16Z" fill="black"/>
    <path d="M7.26996 18.16H6.05994V19.37H7.26996V18.16Z" fill="black"/>
    <path d="M6.05994 18.16H4.84998V19.37H6.05994V18.16Z" fill="black"/>
    <path d="M4.8399 18.16H3.62988V19.37H4.8399V18.16Z" fill="black"/>
    <path d="M3.62994 18.16H2.41992V19.37H3.62994V18.16Z" fill="black"/>
    <path d="M13.3199 18.16H12.1099V19.37H13.3199V18.16Z" fill="black"/>
    <path d="M10.9 18.16H9.68994V19.37H10.9V18.16Z" fill="black"/>
    <path d="M10.9 20.58H9.68994V21.79H10.9V20.58Z" fill="black"/>
    <path d="M10.9 21.79H9.68994V23H10.9V21.79Z" fill="black"/>
    <path d="M10.9 23H9.68994V24.21H10.9V23Z" fill="black"/>
    <path d="M10.9 14.53H9.68994V15.74H10.9V14.53Z" fill="black"/>
    <path d="M10.9 24.22H9.68994V25.43H10.9V24.22Z" fill="black"/>
    <path d="M24.22 6.04999H23.01V7.26001H24.22V6.04999Z" fill="#ECECEC"/>
    <path d="M23.0099 7.27002H21.7999V8.48004H23.0099V7.27002Z" fill="#ECECEC"/>
    <path d="M21.79 8.48004H20.58V9.69H21.79V8.48004Z" fill="#CFA710"/>
    <path d="M18.16 15.74H16.95V16.95H18.16V15.74Z" fill="#40FF29"/>
    <path d="M19.3699 15.74H18.1599V16.95H19.3699V15.74Z" fill="#40FF29"/>
    <path d="M18.16 16.95H16.95V18.16H18.16V16.95Z" fill="#B4FF00"/>
    <path d="M19.3699 16.95H18.1599V18.16H19.3699V16.95Z" fill="#B4FF00"/>
    <path d="M20.5799 16.95H19.3699V18.16H20.5799V16.95Z" fill="#B4FF00"/>
    <path d="M21.79 16.95H20.58V18.16H21.79V16.95Z" fill="#B4FF00"/>
    <path d="M20.5799 14.53H19.3699V15.74H20.5799V14.53Z" fill="black"/>
    <path d="M19.3699 14.53H18.1599V15.74H19.3699V14.53Z" fill="black"/>
    <path d="M18.16 14.53H16.95V15.74H18.16V14.53Z" fill="black"/>
    <path d="M21.79 14.53H20.58V15.74H21.79V14.53Z" fill="black"/>
    <path d="M20.5799 15.74H19.3699V16.95H20.5799V15.74Z" fill="#40FF29"/>
    <path d="M21.79 15.74H20.58V16.95H21.79V15.74Z" fill="#40FF29"/>
    <path d="M23.0099 14.53H21.7999V15.74H23.0099V14.53Z" fill="black"/>
    <path d="M23.0099 15.74H21.7999V16.95H23.0099V15.74Z" fill="#40FF29"/>
    <path d="M24.22 14.53H23.01V15.74H24.22V14.53Z" fill="black"/>
    <path d="M24.22 15.74H23.01V16.95H24.22V15.74Z" fill="#40FF29"/>
    <path d="M25.4299 14.53H24.22V15.74H25.4299V14.53Z" fill="black"/>
    <path d="M25.4299 15.74H24.22V16.95H25.4299V15.74Z" fill="#40FF29"/>
    <path d="M24.22 16.95H23.01V18.16H24.22V16.95Z" fill="#B4FF00"/>
    <path d="M23.0099 16.95H21.7999V18.16H23.0099V16.95Z" fill="#B4FF00"/>
    <path d="M23.0099 18.16H21.7999V19.37H23.0099V18.16Z" fill="#40FF29"/>
    <path d="M21.79 18.16H20.58V19.37H21.79V18.16Z" fill="#40FF29"/>
    <path d="M26.64 14.53H25.4299V15.74H26.64V14.53Z" fill="black"/>
    <path d="M26.64 15.74H25.4299V16.95H26.64V15.74Z" fill="#40FF29"/>
    <path d="M27.8499 14.53H26.6399V15.74H27.8499V14.53Z" fill="black"/>
    <path d="M27.8499 15.74H26.6399V16.95H27.8499V15.74Z" fill="#40FF29"/>
    <path d="M29.0599 14.53H27.85V15.74H29.0599V14.53Z" fill="black"/>
    <path d="M29.0599 15.74H27.85V16.95H29.0599V15.74Z" fill="#40FF29"/>
    <path d="M30.27 14.53H29.0599V15.74H30.27V14.53Z" fill="black"/>
    <path d="M30.27 15.74H29.0599V16.95H30.27V15.74Z" fill="#40FF29"/>
    <path d="M31.48 14.53H30.27V15.74H31.48V14.53Z" fill="black"/>
    <path d="M31.48 15.74H30.27V16.95H31.48V15.74Z" fill="#40FF29"/>
    <path d="M32.6899 14.53H31.48V15.74H32.6899V14.53Z" fill="black"/>
    <path d="M32.6899 15.74H31.48V16.95H32.6899V15.74Z" fill="black"/>
    <path d="M31.48 16.95H30.27V18.16H31.48V16.95Z" fill="#B4FF00"/>
    <path d="M32.6899 16.95H31.48V18.16H32.6899V16.95Z" fill="black"/>
    <path d="M31.48 18.16H30.27V19.37H31.48V18.16Z" fill="#40FF29"/>
    <path d="M29.0599 16.95H27.85V18.16H29.0599V16.95Z" fill="#B4FF00"/>
    <path d="M29.0599 18.16H27.85V19.37H29.0599V18.16Z" fill="#40FF29"/>
    <path d="M27.8499 16.95H26.6399V18.16H27.8499V16.95Z" fill="#B4FF00"/>
    <path d="M27.8499 18.16H26.6399V19.37H27.8499V18.16Z" fill="#40FF29"/>
    <path d="M26.64 16.95H25.4299V18.16H26.64V16.95Z" fill="#B4FF00"/>
    <path d="M26.64 18.16H25.4299V19.37H26.64V18.16Z" fill="#40FF29"/>
    <path d="M25.4299 16.95H24.22V18.16H25.4299V16.95Z" fill="#B4FF00"/>
    <path d="M25.4299 18.16H24.22V19.37H25.4299V18.16Z" fill="#40FF29"/>
    <path d="M24.22 18.16H23.01V19.37H24.22V18.16Z" fill="#40FF29"/>
    <path d="M24.22 19.37H23.01V20.58H24.22V19.37Z" fill="black"/>
    <path d="M23.0099 19.37H21.7999V20.58H23.0099V19.37Z" fill="black"/>
    <path d="M23.0099 20.58H21.7999V21.79H23.0099V20.58Z" fill="#424242"/>
    <path d="M20.5799 18.16H19.3699V19.37H20.5799V18.16Z" fill="#40FF29"/>
    <path d="M19.3699 18.16H18.1599V19.37H19.3699V18.16Z" fill="#40FF29"/>
    <path d="M18.16 18.16H16.95V19.37H18.16V18.16Z" fill="#40FF29"/>
    <path d="M16.95 18.16H15.74V19.37H16.95V18.16Z" fill="black"/>
    <path d="M19.3699 19.37H18.1599V20.58H19.3699V19.37Z" fill="black"/>
    <path d="M18.16 19.37H16.95V20.58H18.16V19.37Z" fill="black"/>
    <path d="M16.95 19.37H15.74V20.58H16.95V19.37Z" fill="#CFA710"/>
    <path d="M20.5799 19.37H19.3699V20.58H20.5799V19.37Z" fill="black"/>
    <path d="M32.6899 18.16H31.48V19.37H32.6899V18.16Z" fill="black"/>
    <path d="M31.48 19.37H30.27V20.58H31.48V19.37Z" fill="black"/>
    <path d="M29.0599 20.58H27.85V21.79H29.0599V20.58Z" fill="#424242"/>
    <path d="M29.0599 21.79H27.85V23H29.0599V21.79Z" fill="#636363"/>
    <path d="M29.0599 23H27.85V24.21H29.0599V23Z" fill="#636363"/>
    <path d="M27.8499 23H26.6399V24.21H27.8499V23Z" fill="#424242"/>
    <path d="M30.27 21.79H29.0599V23H30.27V21.79Z" fill="black"/>
    <path d="M30.27 23H29.0599V24.21H30.27V23Z" fill="#636363"/>
    <path d="M30.27 20.58H29.0599V21.79H30.27V20.58Z" fill="#424242"/>
    <path d="M31.48 21.79H30.27V23H31.48V21.79Z" fill="black"/>
    <path d="M31.48 23H30.27V24.21H31.48V23Z" fill="#636363"/>
    <path d="M31.48 20.58H30.27V21.79H31.48V20.58Z" fill="#424242"/>
    <path d="M32.6899 21.79H31.48V23H32.6899V21.79Z" fill="black"/>
    <path d="M32.6899 23H31.48V24.21H32.6899V23Z" fill="#636363"/>
    <path d="M32.6899 20.58H31.48V21.79H32.6899V20.58Z" fill="#424242"/>
    <path d="M32.6899 19.37H31.48V20.58H32.6899V19.37Z" fill="black"/>
    <path d="M21.79 9.69H20.58V10.9H21.79V9.69Z" fill="#ECECEC"/>
    <path d="M24.22 7.27002H23.01V8.48004H24.22V7.27002Z" fill="#ECECEC"/>
    <path d="M25.4299 7.27002H24.22V8.48004H25.4299V7.27002Z" fill="#ECECEC"/>
    <path d="M26.64 7.27002H25.4299V8.48004H26.64V7.27002Z" fill="#ECECEC"/>
    <path d="M26.64 8.48004H25.4299V9.69H26.64V8.48004Z" fill="#CFA710"/>
    <path d="M27.8499 9.69H26.6399V10.9H27.8499V9.69Z" fill="#ECECEC"/>
    <path d="M29.0599 9.69H27.85V10.9H29.0599V9.69Z" fill="#ECECEC"/>
    <path d="M29.0599 8.48004H27.85V9.69H29.0599V8.48004Z" fill="#CFA710"/>
    <path d="M29.0599 7.27002H27.85V8.48004H29.0599V7.27002Z" fill="#BDBDBD"/>
    <path d="M29.0599 6.04999H27.85V7.26001H29.0599V6.04999Z" fill="#BDBDBD"/>
    <path d="M30.27 9.69H29.0599V10.9H30.27V9.69Z" fill="#ECECEC"/>
    <path d="M30.27 8.48004H29.0599V9.69H30.27V8.48004Z" fill="#CFA710"/>
    <path d="M30.27 7.27002H29.0599V8.48004H30.27V7.27002Z" fill="#BDBDBD"/>
    <path d="M30.27 6.04999H29.0599V7.26001H30.27V6.04999Z" fill="#BDBDBD"/>
    <path d="M31.48 4.84003H30.27V6.04999H31.48V4.84003Z" fill="#BDBDBD"/>
    <path d="M25.4299 8.48004H24.22V9.69H25.4299V8.48004Z" fill="#CFA710"/>
    <path d="M24.22 8.48004H23.01V9.69H24.22V8.48004Z" fill="#CFA710"/>
    <path d="M23.0099 8.48004H21.7999V9.69H23.0099V8.48004Z" fill="#CFA710"/>
    <path d="M23.0099 4.84003H21.7999V6.04999H23.0099V4.84003Z" fill="#CFA710"/>
    <path d="M23.0099 6.04999H21.7999V7.26001H23.0099V6.04999Z" fill="#A48100"/>
    <path d="M24.22 4.84003H23.01V6.04999H24.22V4.84003Z" fill="#CFA710"/>
    <path d="M25.4299 4.84003H24.22V6.04999H25.4299V4.84003Z" fill="#CFA710"/>
    <path d="M26.64 4.84003H25.4299V6.04999H26.64V4.84003Z" fill="#CFA710"/>
    <path d="M27.8499 4.84003H26.6399V6.04999H27.8499V4.84003Z" fill="#CFA710"/>
    <path d="M23.0099 3.63H21.7999V4.84003H23.0099V3.63Z" fill="#CFA710"/>
    <path d="M21.79 4.84003H20.58V6.04999H21.79V4.84003Z" fill="#A48100"/>
    <path d="M21.79 3.63H20.58V4.84003H21.79V3.63Z" fill="#A48100"/>
    <path d="M18.15 1.21002H16.9399V2.42004H18.15V1.21002Z" fill="#CFA710"/>
    <path d="M18.15 0H16.9399V1.21002H18.15V0Z" fill="#CFA710"/>
    <path d="M20.5799 1.21002H19.3699V2.42004H20.5799V1.21002Z" fill="#CFA710"/>
    <path d="M25.4299 9.69H24.22V10.9H25.4299V9.69Z" fill="#ECECEC"/>
    <path d="M24.22 9.69H23.01V10.9H24.22V9.69Z" fill="#ECECEC"/>
    <path d="M23.0099 9.69H21.7999V10.9H23.0099V9.69Z" fill="#ECECEC"/>
    <path d="M16.95 19.37H15.74V20.58H16.95V19.37Z" fill="black"/>
    <path d="M15.74 19.37H14.53V20.58H15.74V19.37Z" fill="black"/>
    <path d="M14.53 19.37H13.3199V20.58H14.53V19.37Z" fill="black"/>
    <path d="M21.79 9.69H20.58V10.9H21.79V9.69Z" fill="#ECECEC"/>
    <path d="M25.4299 6.04999H24.22V7.26001H25.4299V6.04999Z" fill="#ECECEC"/>
    <path d="M26.64 6.04999H25.4299V7.26001H26.64V6.04999Z" fill="#ECECEC"/>
    <path d="M27.8499 6.04999H26.6399V7.26001H27.8499V6.04999Z" fill="#ECECEC"/>
    <path d="M29.0599 4.84003H27.85V6.04999H29.0599V4.84003Z" fill="#ECECEC"/>
    <path d="M30.27 4.84003H29.0599V6.04999H30.27V4.84003Z" fill="#BDBDBD"/>
    <path d="M31.48 3.63H30.27V4.84003H31.48V3.63Z" fill="#BDBDBD"/>
    <path d="M32.6899 3.63H31.48V4.84003H32.6899V3.63Z" fill="#BDBDBD"/>
    <path d="M32.6899 4.84003H31.48V6.04999H32.6899V4.84003Z" fill="#ECECEC"/>
    <path d="M31.48 6.04999H30.27V7.26001H31.48V6.04999Z" fill="#ECECEC"/>
    <path d="M32.6899 6.04999H31.48V7.26001H32.6899V6.04999Z" fill="#ECECEC"/>
    <path d="M31.48 7.27002H30.27V8.48004H31.48V7.27002Z" fill="#ECECEC"/>
    <path d="M32.6899 7.27002H31.48V8.48004H32.6899V7.27002Z" fill="#ECECEC"/>
    <path d="M31.48 8.48004H30.27V9.69H31.48V8.48004Z" fill="#CFA710"/>
    <path d="M32.6899 8.48004H31.48V9.69H32.6899V8.48004Z" fill="#CFA710"/>
    <path d="M31.48 9.69H30.27V10.9H31.48V9.69Z" fill="#ECECEC"/>
    <path d="M32.6899 9.69H31.48V10.9H32.6899V9.69Z" fill="#ECECEC"/>
    <path d="M25.4299 9.69H24.22V10.9H25.4299V9.69Z" fill="#ECECEC"/>
    <path d="M26.64 9.69H25.4299V10.9H26.64V9.69Z" fill="#ECECEC"/>
    <path d="M27.8499 8.48004H26.6399V9.69H27.8499V8.48004Z" fill="#CFA710"/>
    <path d="M27.8499 7.27002H26.6399V8.48004H27.8499V7.27002Z" fill="#BDBDBD"/>
    <path d="M30.27 14.53H29.0599V15.74H30.27V14.53Z" fill="black"/>
    <path d="M30.27 15.74H29.0599V16.95H30.27V15.74Z" fill="#40FF29"/>
    <path d="M30.27 16.95H29.0599V18.16H30.27V16.95Z" fill="#B4FF00"/>
    <path d="M30.27 18.16H29.0599V19.37H30.27V18.16Z" fill="#40FF29"/>
    <path d="M30.27 19.37H29.0599V20.58H30.27V19.37Z" fill="black"/>
    <path d="M54.48 9.69H53.27V10.9H54.48V9.69Z" fill="black"/>
    <path d="M54.48 8.48004H53.27V9.69H54.48V8.48004Z" fill="black"/>
    <path d="M54.48 6.04999H53.27V7.26001H54.48V6.04999Z" fill="black"/>
    <path d="M54.48 4.84003H53.27V6.04999H54.48V4.84003Z" fill="black"/>
    <path d="M54.48 3.63H53.27V4.84003H54.48V3.63Z" fill="black"/>
    <path d="M53.27 2.42004H52.0599V3.63H53.27V2.42004Z" fill="black"/>
    <path d="M52.0599 2.42004H50.85V3.63H52.0599V2.42004Z" fill="black"/>
    <path d="M50.8499 2.42004H49.6399V3.63H50.8499V2.42004Z" fill="black"/>
    <path d="M49.64 2.42004H48.4299V3.63H49.64V2.42004Z" fill="black"/>
    <path d="M48.4299 2.42004H47.22V3.63H48.4299V2.42004Z" fill="black"/>
    <path d="M47.22 3.63H46.01V4.84003H47.22V3.63Z" fill="black"/>
    <path d="M47.22 4.84003H46.01V6.04999H47.22V4.84003Z" fill="black"/>
    <path d="M47.22 6.04999H46.01V7.26001H47.22V6.04999Z" fill="black"/>
    <path d="M54.48 7.27002H53.27V8.48004H54.48V7.27002Z" fill="black"/>
    <path d="M47.22 7.27002H46.01V8.48004H47.22V7.27002Z" fill="#CFA710"/>
    <path d="M47.22 8.48004H46.01V9.69H47.22V8.48004Z" fill="#CFA710"/>
    <path d="M47.22 9.69H46.01V10.9H47.22V9.69Z" fill="#ECECEC"/>
    <path d="M48.4299 3.63H47.22V4.84003H48.4299V3.63Z" fill="#777777"/>
    <path d="M48.4299 4.84003H47.22V6.04999H48.4299V4.84003Z" fill="black"/>
    <path d="M48.4299 6.04999H47.22V7.26001H48.4299V6.04999Z" fill="black"/>
    <path d="M48.4299 7.27002H47.22V8.48004H48.4299V7.27002Z" fill="#CFA710"/>
    <path d="M48.4299 8.48004H47.22V9.69H48.4299V8.48004Z" fill="black"/>
    <path d="M48.4299 9.69H47.22V10.9H48.4299V9.69Z" fill="#ECECEC"/>
    <path d="M48.4299 8.48004H47.22V9.69H48.4299V8.48004Z" fill="#CFA710"/>
    <path d="M49.64 3.63H48.4299V4.84003H49.64V3.63Z" fill="#777777"/>
    <path d="M49.64 4.84003H48.4299V6.04999H49.64V4.84003Z" fill="black"/>
    <path d="M49.64 6.04999H48.4299V7.26001H49.64V6.04999Z" fill="black"/>
    <path d="M49.64 7.27002H48.4299V8.48004H49.64V7.27002Z" fill="#CFA710"/>
    <path d="M49.64 8.48004H48.4299V9.69H49.64V8.48004Z" fill="#CFA710"/>
    <path d="M49.64 9.69H48.4299V10.9H49.64V9.69Z" fill="#ECECEC"/>
    <path d="M50.8499 3.63H49.6399V4.84003H50.8499V3.63Z" fill="#777777"/>
    <path d="M50.8499 4.84003H49.6399V6.04999H50.8499V4.84003Z" fill="black"/>
    <path d="M50.8499 6.04999H49.6399V7.26001H50.8499V6.04999Z" fill="black"/>
    <path d="M50.8499 7.27002H49.6399V8.48004H50.8499V7.27002Z" fill="black"/>
    <path d="M50.8499 8.48004H49.6399V9.69H50.8499V8.48004Z" fill="#CFA710"/>
    <path d="M50.8499 9.69H49.6399V10.9H50.8499V9.69Z" fill="#CFA710"/>
    <path d="M52.0599 3.63H50.85V4.84003H52.0599V3.63Z" fill="black"/>
    <path d="M52.0599 4.84003H50.85V6.04999H52.0599V4.84003Z" fill="black"/>
    <path d="M52.0599 6.04999H50.85V7.26001H52.0599V6.04999Z" fill="black"/>
    <path d="M52.0599 7.27002H50.85V8.48004H52.0599V7.27002Z" fill="black"/>
    <path d="M52.0599 8.48004H50.85V9.69H52.0599V8.48004Z" fill="black"/>
    <path d="M52.0599 9.69H50.85V10.9H52.0599V9.69Z" fill="black"/>
    <path d="M53.27 3.63H52.0599V4.84003H53.27V3.63Z" fill="#777777"/>
    <path d="M53.27 4.84003H52.0599V6.04999H53.27V4.84003Z" fill="black"/>
    <path d="M53.27 6.04999H52.0599V7.26001H53.27V6.04999Z" fill="black"/>
    <path d="M53.27 7.27002H52.0599V8.48004H53.27V7.27002Z" fill="black"/>
    <path d="M53.27 8.48004H52.0599V9.69H53.27V8.48004Z" fill="black"/>
    <path d="M53.27 9.69H52.0599V10.9H53.27V9.69Z" fill="black"/>
    <path d="M53.27 10.9H52.0599V12.11H53.27V10.9Z" fill="black"/>
    <path d="M55.7 9.69H54.49V10.9H55.7V9.69Z" fill="#775D64"/>
    <path d="M55.7 8.48004H54.49V9.69H55.7V8.48004Z" fill="#775D64"/>
    <path d="M55.7 6.04999H54.49V7.26001H55.7V6.04999Z" fill="#775D64"/>
    <path d="M10.9 4.84003H9.68994V6.04999H10.9V4.84003Z" fill="#775D64"/>
    <path d="M55.7 4.84003H54.49V6.04999H55.7V4.84003Z" fill="#775D64"/>
    <path d="M10.9 3.63H9.68994V4.84003H10.9V3.63Z" fill="#775D64"/>
    <path d="M55.7 3.63H54.49V4.84003H55.7V3.63Z" fill="#775D64"/>
    <path d="M55.7 7.27002H54.49V8.48004H55.7V7.27002Z" fill="#775D64"/>
    <path d="M54.48 10.9H53.27V12.11H54.48V10.9Z" fill="#775D64"/>
    <path d="M55.7 10.9H54.49V12.11H55.7V10.9Z" fill="#775D64"/>
    <path d="M54.48 12.11H53.27V13.32H54.48V12.11Z" fill="#775D64"/>
    <path d="M53.27 14.53H52.0599V15.74H53.27V14.53Z" fill="#775D64"/>
    <path d="M53.27 13.32H52.0599V14.53H53.27V13.32Z" fill="#775D64"/>
    <path d="M53.27 12.11H52.0599V13.32H53.27V12.11Z" fill="#775D64"/>
    <path d="M54.48 13.32H53.27V14.53H54.48V13.32Z" fill="#775D64"/>
    <path d="M55.6899 13.32H54.48V14.53H55.6899V13.32Z" fill="#775D64"/>
    <path d="M56.91 13.32H55.7V14.53H56.91V13.32Z" fill="#775D64"/>
    <path d="M58.1199 13.32H56.9099V14.53H58.1199V13.32Z" fill="#775D64"/>
    <path d="M59.3299 13.32H58.1199V14.53H59.3299V13.32Z" fill="#775D64"/>
    <path d="M60.54 13.32H59.33V14.53H60.54V13.32Z" fill="#775D64"/>
    <path d="M61.75 13.32H60.54V14.53H61.75V13.32Z" fill="#775D64"/>
    <path d="M62.96 13.32H61.75V14.53H62.96V13.32Z" fill="#775D64"/>
    <path d="M64.1699 14.53H62.96V15.74H64.1699V14.53Z" fill="#775D64"/>
    <path d="M65.3799 15.74H64.1699V16.95H65.3799V15.74Z" fill="#775D64"/>
    <path d="M65.3799 16.95H64.1699V18.16H65.3799V16.95Z" fill="#775D64"/>
    <path d="M65.3799 18.16H64.1699V19.37H65.3799V18.16Z" fill="#775D64"/>
    <path d="M65.3799 19.37H64.1699V20.58H65.3799V19.37Z" fill="#775D64"/>
    <path d="M65.3799 20.58H64.1699V21.79H65.3799V20.58Z" fill="#775D64"/>
    <path d="M65.3799 21.79H64.1699V23H65.3799V21.79Z" fill="#775D64"/>
    <path d="M65.3799 23H64.1699V24.21H65.3799V23Z" fill="#775D64"/>
    <path d="M52.0599 10.9H50.85V12.11H52.0599V10.9Z" fill="black"/>
    <path d="M50.8499 10.9H49.6399V12.11H50.8499V10.9Z" fill="black"/>
    <path d="M49.64 10.9H48.4299V12.11H49.64V10.9Z" fill="#ECECEC"/>
    <path d="M48.4299 10.9H47.22V12.11H48.4299V10.9Z" fill="#ECECEC"/>
    <path d="M47.22 2.42004H46.01V3.63H47.22V2.42004Z" fill="black"/>
    <path d="M46.0099 3.63H44.7999V4.84003H46.0099V3.63Z" fill="black"/>
    <path d="M46.0099 4.84003H44.7999V6.04999H46.0099V4.84003Z" fill="black"/>
    <path d="M46.0099 6.04999H44.7999V7.26001H46.0099V6.04999Z" fill="black"/>
    <path d="M46.0099 7.27002H44.7999V8.48004H46.0099V7.27002Z" fill="#CFA710"/>
    <path d="M44.7999 7.27002H43.59V8.48004H44.7999V7.27002Z" fill="#CFA710"/>
    <path d="M46.0099 8.48004H44.7999V9.69H46.0099V8.48004Z" fill="#CFA710"/>
    <path d="M46.0099 9.69H44.7999V10.9H46.0099V9.69Z" fill="#ECECEC"/>
    <path d="M47.22 10.9H46.01V12.11H47.22V10.9Z" fill="#ECECEC"/>
    <path d="M64.1699 23H62.96V24.21H64.1699V23Z" fill="black"/>
    <path d="M64.1699 21.79H62.96V23H64.1699V21.79Z" fill="black"/>
    <path d="M64.1699 19.37H62.96V20.58H64.1699V19.37Z" fill="black"/>
    <path d="M64.1699 16.95H62.96V18.16H64.1699V16.95Z" fill="black"/>
    <path d="M64.1699 15.74H62.96V16.95H64.1699V15.74Z" fill="black"/>
    <path d="M62.96 14.53H61.75V15.74H62.96V14.53Z" fill="black"/>
    <path d="M61.75 14.53H60.54V15.74H61.75V14.53Z" fill="black"/>
    <path d="M60.54 14.53H59.33V15.74H60.54V14.53Z" fill="black"/>
    <path d="M59.3299 14.53H58.1199V15.74H59.3299V14.53Z" fill="black"/>
    <path d="M58.1199 14.53H56.9099V15.74H58.1199V14.53Z" fill="black"/>
    <path d="M56.91 14.53H55.7V15.74H56.91V14.53Z" fill="black"/>
    <path d="M54.48 15.74H53.27V16.95H54.48V15.74Z" fill="black"/>
    <path d="M54.48 16.95H53.27V18.16H54.48V16.95Z" fill="black"/>
    <path d="M54.48 19.37H53.27V20.58H54.48V19.37Z" fill="black"/>
    <path d="M64.1699 20.58H62.96V21.79H64.1699V20.58Z" fill="black"/>
    <path d="M54.48 20.58H53.27V21.79H54.48V20.58Z" fill="black"/>
    <path d="M54.48 21.79H53.27V23H54.48V21.79Z" fill="black"/>
    <path d="M54.48 23H53.27V24.21H54.48V23Z" fill="black"/>
    <path d="M56.91 15.74H55.7V16.95H56.91V15.74Z" fill="#777777"/>
    <path d="M55.7 15.74H54.49V16.95H55.7V15.74Z" fill="#777777"/>
    <path d="M56.91 16.95H55.7V18.16H56.91V16.95Z" fill="black"/>
    <path d="M56.91 19.37H55.7V20.58H56.91V19.37Z" fill="black"/>
    <path d="M56.91 20.58H55.7V21.79H56.91V20.58Z" fill="black"/>
    <path d="M56.91 21.79H55.7V23H56.91V21.79Z" fill="black"/>
    <path d="M56.91 23H55.7V24.21H56.91V23Z" fill="black"/>
    <path d="M58.1199 15.74H56.9099V16.95H58.1199V15.74Z" fill="#777777"/>
    <path d="M58.1199 16.95H56.9099V18.16H58.1199V16.95Z" fill="black"/>
    <path d="M58.1199 19.37H56.9099V20.58H58.1199V19.37Z" fill="black"/>
    <path d="M58.1199 20.58H56.9099V21.79H58.1199V20.58Z" fill="black"/>
    <path d="M58.1199 21.79H56.9099V23H58.1199V21.79Z" fill="black"/>
    <path d="M58.1199 23H56.9099V24.21H58.1199V23Z" fill="black"/>
    <path d="M59.3299 15.74H58.1199V16.95H59.3299V15.74Z" fill="#777777"/>
    <path d="M59.3299 16.95H58.1199V18.16H59.3299V16.95Z" fill="black"/>
    <path d="M59.3299 19.37H58.1199V20.58H59.3299V19.37Z" fill="black"/>
    <path d="M59.3299 20.58H58.1199V21.79H59.3299V20.58Z" fill="black"/>
    <path d="M59.3299 21.79H58.1199V23H59.3299V21.79Z" fill="black"/>
    <path d="M59.3299 23H58.1199V24.21H59.3299V23Z" fill="black"/>
    <path d="M60.54 15.74H59.33V16.95H60.54V15.74Z" fill="#777777"/>
    <path d="M60.54 16.95H59.33V18.16H60.54V16.95Z" fill="black"/>
    <path d="M60.54 19.37H59.33V20.58H60.54V19.37Z" fill="black"/>
    <path d="M60.54 20.58H59.33V21.79H60.54V20.58Z" fill="black"/>
    <path d="M60.54 21.79H59.33V23H60.54V21.79Z" fill="black"/>
    <path d="M60.54 23H59.33V24.21H60.54V23Z" fill="black"/>
    <path d="M61.75 15.74H60.54V16.95H61.75V15.74Z" fill="black"/>
    <path d="M61.75 16.95H60.54V18.16H61.75V16.95Z" fill="black"/>
    <path d="M61.75 19.37H60.54V20.58H61.75V19.37Z" fill="black"/>
    <path d="M61.75 20.58H60.54V21.79H61.75V20.58Z" fill="black"/>
    <path d="M61.75 21.79H60.54V23H61.75V21.79Z" fill="black"/>
    <path d="M61.75 23H60.54V24.21H61.75V23Z" fill="black"/>
    <path d="M62.96 15.74H61.75V16.95H62.96V15.74Z" fill="#777777"/>
    <path d="M62.96 16.95H61.75V18.16H62.96V16.95Z" fill="black"/>
    <path d="M62.96 19.37H61.75V20.58H62.96V19.37Z" fill="black"/>
    <path d="M62.96 20.58H61.75V21.79H62.96V20.58Z" fill="black"/>
    <path d="M62.96 21.79H61.75V23H62.96V21.79Z" fill="black"/>
    <path d="M62.96 23H61.75V24.21H62.96V23Z" fill="black"/>
    <path d="M62.96 24.22H61.75V25.43H62.96V24.22Z" fill="black"/>
    <path d="M61.75 24.22H60.54V25.43H61.75V24.22Z" fill="black"/>
    <path d="M60.54 24.22H59.33V25.43H60.54V24.22Z" fill="black"/>
    <path d="M59.3299 24.22H58.1199V25.43H59.3299V24.22Z" fill="black"/>
    <path d="M58.1199 24.22H56.9099V25.43H58.1199V24.22Z" fill="black"/>
    <path d="M56.91 24.22H55.7V25.43H56.91V24.22Z" fill="black"/>
    <path d="M54.48 14.53H53.27V15.74H54.48V14.53Z" fill="black"/>
    <path d="M53.27 15.74H52.0599V16.95H53.27V15.74Z" fill="black"/>
    <path d="M53.27 16.95H52.0599V18.16H53.27V16.95Z" fill="black"/>
    <path d="M53.27 19.37H52.0599V20.58H53.27V19.37Z" fill="black"/>
    <path d="M53.27 20.58H52.0599V21.79H53.27V20.58Z" fill="black"/>
    <path d="M53.27 21.79H52.0599V23H53.27V21.79Z" fill="black"/>
    <path d="M53.27 23H52.0599V24.21H53.27V23Z" fill="black"/>
    <path d="M52.0599 21.79H50.85V23H52.0599V21.79Z" fill="black"/>
    <path d="M52.0599 18.16H50.85V19.37H52.0599V18.16Z" fill="#636363"/>
    <path d="M50.8499 16.95H49.6399V18.16H50.8499V16.95Z" fill="#636363"/>
    <path d="M50.8499 15.74H49.6399V16.95H50.8499V15.74Z" fill="#636363"/>
    <path d="M50.8499 14.53H49.6399V15.74H50.8499V14.53Z" fill="#636363"/>
    <path d="M50.8499 13.32H49.6399V14.53H50.8499V13.32Z" fill="#8D8D8D"/>
    <path d="M50.8499 12.11H49.6399V13.32H50.8499V12.11Z" fill="#8D8D8D"/>
    <path d="M52.0599 16.95H50.85V18.16H52.0599V16.95Z" fill="#636363"/>
    <path d="M52.0599 15.74H50.85V16.95H52.0599V15.74Z" fill="#636363"/>
    <path d="M52.0599 13.32H50.85V14.53H52.0599V13.32Z" fill="#ECECEC"/>
    <path d="M52.0599 13.32H50.85V14.53H52.0599V13.32Z" fill="#8D8D8D"/>
    <path d="M52.0599 14.53H50.85V15.74H52.0599V14.53Z" fill="#8D8D8D"/>
    <path d="M52.0599 12.11H50.85V13.32H52.0599V12.11Z" fill="#ECECEC"/>
    <path d="M52.0599 10.9H50.85V12.11H52.0599V10.9Z" fill="black"/>
    <path d="M50.8499 10.9H49.6399V12.11H50.8499V10.9Z" fill="#ECECEC"/>
    <path d="M49.64 10.9H48.4299V12.11H49.64V10.9Z" fill="#ECECEC"/>
    <path d="M49.64 12.11H48.4299V13.32H49.64V12.11Z" fill="#CFA710"/>
    <path d="M48.4299 12.11H47.22V13.32H48.4299V12.11Z" fill="#CFA710"/>
    <path d="M47.22 12.11H46.01V13.32H47.22V12.11Z" fill="#CFA710"/>
    <path d="M46.0099 12.11H44.7999V13.32H46.0099V12.11Z" fill="#CFA710"/>
    <path d="M44.7999 12.11H43.59V13.32H44.7999V12.11Z" fill="#CFA710"/>
    <path d="M43.5899 12.11H42.3799V13.32H43.5899V12.11Z" fill="#CFA710"/>
    <path d="M42.3799 12.11H41.1699V13.32H42.3799V12.11Z" fill="#CFA710"/>
    <path d="M41.1699 12.11H39.96V13.32H41.1699V12.11Z" fill="#CFA710"/>
    <path d="M39.96 12.11H38.75V13.32H39.96V12.11Z" fill="#CFA710"/>
    <path d="M38.74 12.11H37.53V13.32H38.74V12.11Z" fill="#CFA710"/>
    <path d="M37.53 12.11H36.3199V13.32H37.53V12.11Z" fill="#CFA710"/>
    <path d="M36.3199 12.11H35.1099V13.32H36.3199V12.11Z" fill="#CFA710"/>
    <path d="M35.1099 12.11H33.8999V13.32H35.1099V12.11Z" fill="#CFA710"/>
    <path d="M33.9 12.11H32.6899V13.32H33.9V12.11Z" fill="#CFA710"/>
    <path d="M49.64 13.32H48.4299V14.53H49.64V13.32Z" fill="black"/>
    <path d="M49.64 14.53H48.4299V15.74H49.64V14.53Z" fill="#40FF29"/>
    <path d="M49.64 15.74H48.4299V16.95H49.64V15.74Z" fill="#B4FF00"/>
    <path d="M49.64 16.95H48.4299V18.16H49.64V16.95Z" fill="#40FF29"/>
    <path d="M50.8499 18.16H49.6399V19.37H50.8499V18.16Z" fill="black"/>
    <path d="M48.4299 13.32H47.22V14.53H48.4299V13.32Z" fill="black"/>
    <path d="M47.22 13.32H46.01V14.53H47.22V13.32Z" fill="black"/>
    <path d="M46.0099 13.32H44.7999V14.53H46.0099V13.32Z" fill="black"/>
    <path d="M44.7999 13.32H43.59V14.53H44.7999V13.32Z" fill="black"/>
    <path d="M43.5899 13.32H42.3799V14.53H43.5899V13.32Z" fill="black"/>
    <path d="M42.3799 13.32H41.1699V14.53H42.3799V13.32Z" fill="black"/>
    <path d="M41.1699 13.32H39.96V14.53H41.1699V13.32Z" fill="black"/>
    <path d="M39.96 13.32H38.75V14.53H39.96V13.32Z" fill="black"/>
    <path d="M38.74 13.32H37.53V14.53H38.74V13.32Z" fill="black"/>
    <path d="M37.53 13.32H36.3199V14.53H37.53V13.32Z" fill="black"/>
    <path d="M36.3199 13.32H35.1099V14.53H36.3199V13.32Z" fill="black"/>
    <path d="M35.1099 13.32H33.8999V14.53H35.1099V13.32Z" fill="black"/>
    <path d="M33.9 13.32H32.6899V14.53H33.9V13.32Z" fill="black"/>
    <path d="M48.4299 10.9H47.22V12.11H48.4299V10.9Z" fill="#ECECEC"/>
    <path d="M47.22 10.9H46.01V12.11H47.22V10.9Z" fill="#ECECEC"/>
    <path d="M46.0099 10.9H44.7999V12.11H46.0099V10.9Z" fill="#ECECEC"/>
    <path d="M44.7999 10.9H43.59V12.11H44.7999V10.9Z" fill="#ECECEC"/>
    <path d="M43.5899 10.9H42.3799V12.11H43.5899V10.9Z" fill="#ECECEC"/>
    <path d="M42.3799 10.9H41.1699V12.11H42.3799V10.9Z" fill="#ECECEC"/>
    <path d="M41.1699 10.9H39.96V12.11H41.1699V10.9Z" fill="#ECECEC"/>
    <path d="M39.96 10.9H38.75V12.11H39.96V10.9Z" fill="#ECECEC"/>
    <path d="M38.74 10.9H37.53V12.11H38.74V10.9Z" fill="#ECECEC"/>
    <path d="M37.53 10.9H36.3199V12.11H37.53V10.9Z" fill="#ECECEC"/>
    <path d="M36.3199 10.9H35.1099V12.11H36.3199V10.9Z" fill="#ECECEC"/>
    <path d="M35.1099 10.9H33.8999V12.11H35.1099V10.9Z" fill="#ECECEC"/>
    <path d="M33.9 10.9H32.6899V12.11H33.9V10.9Z" fill="#ECECEC"/>
    <path d="M50.8499 21.79H49.6399V23H50.8499V21.79Z" fill="black"/>
    <path d="M49.64 23H48.4299V24.21H49.64V23Z" fill="black"/>
    <path d="M48.4299 23H47.22V24.21H48.4299V23Z" fill="black"/>
    <path d="M47.22 23H46.01V24.21H47.22V23Z" fill="black"/>
    <path d="M47.22 21.79H46.01V23H47.22V21.79Z" fill="#636363"/>
    <path d="M48.4299 21.79H47.22V23H48.4299V21.79Z" fill="#636363"/>
    <path d="M49.64 21.79H48.4299V23H49.64V21.79Z" fill="#424242"/>
    <path d="M49.64 20.58H48.4299V21.79H49.64V20.58Z" fill="#424242"/>
    <path d="M50.8499 20.58H49.6399V21.79H50.8499V20.58Z" fill="#424242"/>
    <path d="M52.0599 20.58H50.85V21.79H52.0599V20.58Z" fill="black"/>
    <path d="M48.4299 20.58H47.22V21.79H48.4299V20.58Z" fill="#424242"/>
    <path d="M47.22 20.58H46.01V21.79H47.22V20.58Z" fill="#424242"/>
    <path d="M46.0099 20.58H44.7999V21.79H46.0099V20.58Z" fill="#424242"/>
    <path d="M44.7999 19.37H43.59V20.58H44.7999V19.37Z" fill="black"/>
    <path d="M44.7999 20.58H43.59V21.79H44.7999V20.58Z" fill="#777777"/>
    <path d="M43.5899 21.79H42.3799V23H43.5899V21.79Z" fill="#ECECEC"/>
    <path d="M41.1699 20.58H39.96V21.79H41.1699V20.58Z" fill="#777777"/>
    <path d="M39.96 20.58H38.75V21.79H39.96V20.58Z" fill="#ECECEC"/>
    <path d="M38.74 21.79H37.53V23H38.74V21.79Z" fill="#636363"/>
    <path d="M41.1699 19.37H39.96V20.58H41.1699V19.37Z" fill="#BDBDBD"/>
    <path d="M39.96 19.37H38.75V20.58H39.96V19.37Z" fill="#BDBDBD"/>
    <path d="M38.74 19.37H37.53V20.58H38.74V19.37Z" fill="#BDBDBD"/>
    <path d="M41.1699 20.58H39.96V21.79H41.1699V20.58Z" fill="#ECECEC"/>
    <path d="M42.3799 20.58H41.1699V21.79H42.3799V20.58Z" fill="#ECECEC"/>
    <path d="M46.0099 21.79H44.7999V23H46.0099V21.79Z" fill="#636363"/>
    <path d="M44.7999 21.79H43.59V23H44.7999V21.79Z" fill="#424242"/>
    <path d="M42.3799 21.79H41.1699V23H42.3799V21.79Z" fill="black"/>
    <path d="M41.1699 21.79H39.96V23H41.1699V21.79Z" fill="black"/>
    <path d="M39.96 21.79H38.75V23H39.96V21.79Z" fill="#BDBDBD"/>
    <path d="M37.53 19.37H36.3199V20.58H37.53V19.37Z" fill="black"/>
    <path d="M38.74 20.58H37.53V21.79H38.74V20.58Z" fill="black"/>
    <path d="M41.1699 19.37H39.96V20.58H41.1699V19.37Z" fill="black"/>
    <path d="M38.74 20.58H37.53V21.79H38.74V20.58Z" fill="#424242"/>
    <path d="M39.96 19.37H38.75V20.58H39.96V19.37Z" fill="black"/>
    <path d="M38.74 19.37H37.53V20.58H38.74V19.37Z" fill="black"/>
    <path d="M46.0099 23H44.7999V24.21H46.0099V23Z" fill="black"/>
    <path d="M44.7999 23H43.59V24.21H44.7999V23Z" fill="black"/>
    <path d="M43.5899 23H42.3799V24.21H43.5899V23Z" fill="#636363"/>
    <path d="M42.3799 23H41.1699V24.21H42.3799V23Z" fill="#636363"/>
    <path d="M41.1699 23H39.96V24.21H41.1699V23Z" fill="#636363"/>
    <path d="M48.4299 21.79H47.22V23H48.4299V21.79Z" fill="#ECECEC"/>
    <path d="M44.7999 20.58H43.59V21.79H44.7999V20.58Z" fill="#ECECEC"/>
    <path d="M46.0099 20.58H44.7999V21.79H46.0099V20.58Z" fill="#ECECEC"/>
    <path d="M47.22 20.58H46.01V21.79H47.22V20.58Z" fill="#ECECEC"/>
    <path d="M47.22 21.79H46.01V23H47.22V21.79Z" fill="black"/>
    <path d="M46.0099 21.79H44.7999V23H46.0099V21.79Z" fill="black"/>
    <path d="M44.7999 21.79H43.59V23H44.7999V21.79Z" fill="#BDBDBD"/>
    <path d="M48.4299 23H47.22V24.21H48.4299V23Z" fill="#636363"/>
    <path d="M47.22 23H46.01V24.21H47.22V23Z" fill="#636363"/>
    <path d="M46.0099 23H44.7999V24.21H46.0099V23Z" fill="#636363"/>
    <path d="M39.96 23H38.75V24.21H39.96V23Z" fill="black"/>
    <path d="M38.74 23H37.53V24.21H38.74V23Z" fill="black"/>
    <path d="M37.53 24.22H36.3199V25.43H37.53V24.22Z" fill="black"/>
    <path d="M38.74 24.22H37.53V25.43H38.74V24.22Z" fill="black"/>
    <path d="M39.96 24.22H38.75V25.43H39.96V24.22Z" fill="black"/>
    <path d="M41.1699 24.22H39.96V25.43H41.1699V24.22Z" fill="black"/>
    <path d="M42.3799 24.22H41.1699V25.43H42.3799V24.22Z" fill="black"/>
    <path d="M43.5899 24.22H42.3799V25.43H43.5899V24.22Z" fill="black"/>
    <path d="M44.7999 24.22H43.59V25.43H44.7999V24.22Z" fill="black"/>
    <path d="M36.3199 24.22H35.1099V25.43H36.3199V24.22Z" fill="black"/>
    <path d="M35.1099 24.22H33.8999V25.43H35.1099V24.22Z" fill="black"/>
    <path d="M33.9 24.22H32.6899V25.43H33.9V24.22Z" fill="black"/>
    <path d="M54.48 24.22H53.27V25.43H54.48V24.22Z" fill="black"/>
    <path d="M55.7 16.95H54.49V18.16H55.7V16.95Z" fill="black"/>
    <path d="M55.7 19.37H54.49V20.58H55.7V19.37Z" fill="black"/>
    <path d="M64.1699 18.16H62.96V19.37H64.1699V18.16Z" fill="black"/>
    <path d="M54.48 18.16H53.27V19.37H54.48V18.16Z" fill="black"/>
    <path d="M56.91 18.16H55.7V19.37H56.91V18.16Z" fill="black"/>
    <path d="M58.1199 18.16H56.9099V19.37H58.1199V18.16Z" fill="black"/>
    <path d="M59.3299 18.16H58.1199V19.37H59.3299V18.16Z" fill="black"/>
    <path d="M60.54 18.16H59.33V19.37H60.54V18.16Z" fill="black"/>
    <path d="M61.75 18.16H60.54V19.37H61.75V18.16Z" fill="black"/>
    <path d="M62.96 18.16H61.75V19.37H62.96V18.16Z" fill="black"/>
    <path d="M53.27 18.16H52.0599V19.37H53.27V18.16Z" fill="black"/>
    <path d="M55.7 18.16H54.49V19.37H55.7V18.16Z" fill="black"/>
    <path d="M55.7 20.58H54.49V21.79H55.7V20.58Z" fill="black"/>
    <path d="M55.7 21.79H54.49V23H55.7V21.79Z" fill="black"/>
    <path d="M55.7 23H54.49V24.21H55.7V23Z" fill="black"/>
    <path d="M55.7 14.53H54.49V15.74H55.7V14.53Z" fill="black"/>
    <path d="M55.7 24.22H54.49V25.43H55.7V24.22Z" fill="black"/>
    <path d="M42.3799 6.04999H41.1699V7.26001H42.3799V6.04999Z" fill="#ECECEC"/>
    <path d="M43.5899 7.27002H42.3799V8.48004H43.5899V7.27002Z" fill="#ECECEC"/>
    <path d="M44.7999 8.48004H43.59V9.69H44.7999V8.48004Z" fill="#CFA710"/>
    <path d="M48.4299 15.74H47.22V16.95H48.4299V15.74Z" fill="#40FF29"/>
    <path d="M47.22 15.74H46.01V16.95H47.22V15.74Z" fill="#40FF29"/>
    <path d="M48.4299 16.95H47.22V18.16H48.4299V16.95Z" fill="#B4FF00"/>
    <path d="M47.22 16.95H46.01V18.16H47.22V16.95Z" fill="#B4FF00"/>
    <path d="M46.0099 16.95H44.7999V18.16H46.0099V16.95Z" fill="#B4FF00"/>
    <path d="M44.7999 16.95H43.59V18.16H44.7999V16.95Z" fill="#B4FF00"/>
    <path d="M46.0099 14.53H44.7999V15.74H46.0099V14.53Z" fill="black"/>
    <path d="M47.22 14.53H46.01V15.74H47.22V14.53Z" fill="black"/>
    <path d="M48.4299 14.53H47.22V15.74H48.4299V14.53Z" fill="black"/>
    <path d="M44.7999 14.53H43.59V15.74H44.7999V14.53Z" fill="black"/>
    <path d="M46.0099 15.74H44.7999V16.95H46.0099V15.74Z" fill="#40FF29"/>
    <path d="M44.7999 15.74H43.59V16.95H44.7999V15.74Z" fill="#40FF29"/>
    <path d="M43.5899 14.53H42.3799V15.74H43.5899V14.53Z" fill="black"/>
    <path d="M43.5899 15.74H42.3799V16.95H43.5899V15.74Z" fill="#40FF29"/>
    <path d="M42.3799 14.53H41.1699V15.74H42.3799V14.53Z" fill="black"/>
    <path d="M42.3799 15.74H41.1699V16.95H42.3799V15.74Z" fill="#40FF29"/>
    <path d="M41.1699 14.53H39.96V15.74H41.1699V14.53Z" fill="black"/>
    <path d="M41.1699 15.74H39.96V16.95H41.1699V15.74Z" fill="#40FF29"/>
    <path d="M42.3799 16.95H41.1699V18.16H42.3799V16.95Z" fill="#B4FF00"/>
    <path d="M43.5899 16.95H42.3799V18.16H43.5899V16.95Z" fill="#B4FF00"/>
    <path d="M43.5899 18.16H42.3799V19.37H43.5899V18.16Z" fill="#40FF29"/>
    <path d="M44.7999 18.16H43.59V19.37H44.7999V18.16Z" fill="#40FF29"/>
    <path d="M39.96 14.53H38.75V15.74H39.96V14.53Z" fill="black"/>
    <path d="M39.96 15.74H38.75V16.95H39.96V15.74Z" fill="#40FF29"/>
    <path d="M38.74 14.53H37.53V15.74H38.74V14.53Z" fill="black"/>
    <path d="M38.74 15.74H37.53V16.95H38.74V15.74Z" fill="#40FF29"/>
    <path d="M37.53 14.53H36.3199V15.74H37.53V14.53Z" fill="black"/>
    <path d="M37.53 15.74H36.3199V16.95H37.53V15.74Z" fill="#40FF29"/>
    <path d="M36.3199 14.53H35.1099V15.74H36.3199V14.53Z" fill="black"/>
    <path d="M36.3199 15.74H35.1099V16.95H36.3199V15.74Z" fill="#40FF29"/>
    <path d="M35.1099 14.53H33.8999V15.74H35.1099V14.53Z" fill="black"/>
    <path d="M35.1099 15.74H33.8999V16.95H35.1099V15.74Z" fill="#40FF29"/>
    <path d="M33.9 14.53H32.6899V15.74H33.9V14.53Z" fill="black"/>
    <path d="M33.9 15.74H32.6899V16.95H33.9V15.74Z" fill="black"/>
    <path d="M35.1099 16.95H33.8999V18.16H35.1099V16.95Z" fill="#B4FF00"/>
    <path d="M33.9 16.95H32.6899V18.16H33.9V16.95Z" fill="black"/>
    <path d="M35.1099 18.16H33.8999V19.37H35.1099V18.16Z" fill="#40FF29"/>
    <path d="M37.53 16.95H36.3199V18.16H37.53V16.95Z" fill="#B4FF00"/>
    <path d="M37.53 18.16H36.3199V19.37H37.53V18.16Z" fill="#40FF29"/>
    <path d="M38.74 16.95H37.53V18.16H38.74V16.95Z" fill="#B4FF00"/>
    <path d="M38.74 18.16H37.53V19.37H38.74V18.16Z" fill="#40FF29"/>
    <path d="M39.96 16.95H38.75V18.16H39.96V16.95Z" fill="#B4FF00"/>
    <path d="M39.96 18.16H38.75V19.37H39.96V18.16Z" fill="#40FF29"/>
    <path d="M41.1699 16.95H39.96V18.16H41.1699V16.95Z" fill="#B4FF00"/>
    <path d="M41.1699 18.16H39.96V19.37H41.1699V18.16Z" fill="#40FF29"/>
    <path d="M42.3799 18.16H41.1699V19.37H42.3799V18.16Z" fill="#40FF29"/>
    <path d="M42.3799 19.37H41.1699V20.58H42.3799V19.37Z" fill="black"/>
    <path d="M43.5899 19.37H42.3799V20.58H43.5899V19.37Z" fill="black"/>
    <path d="M43.5899 20.58H42.3799V21.79H43.5899V20.58Z" fill="#424242"/>
    <path d="M46.0099 18.16H44.7999V19.37H46.0099V18.16Z" fill="#40FF29"/>
    <path d="M47.22 18.16H46.01V19.37H47.22V18.16Z" fill="#40FF29"/>
    <path d="M48.4299 18.16H47.22V19.37H48.4299V18.16Z" fill="#40FF29"/>
    <path d="M49.64 18.16H48.4299V19.37H49.64V18.16Z" fill="black"/>
    <path d="M47.22 19.37H46.01V20.58H47.22V19.37Z" fill="black"/>
    <path d="M48.4299 19.37H47.22V20.58H48.4299V19.37Z" fill="black"/>
    <path d="M49.64 19.37H48.4299V20.58H49.64V19.37Z" fill="#CFA710"/>
    <path d="M46.0099 19.37H44.7999V20.58H46.0099V19.37Z" fill="black"/>
    <path d="M33.9 18.16H32.6899V19.37H33.9V18.16Z" fill="black"/>
    <path d="M35.1099 19.37H33.8999V20.58H35.1099V19.37Z" fill="black"/>
    <path d="M37.53 20.58H36.3199V21.79H37.53V20.58Z" fill="#424242"/>
    <path d="M37.53 21.79H36.3199V23H37.53V21.79Z" fill="#636363"/>
    <path d="M37.53 23H36.3199V24.21H37.53V23Z" fill="#636363"/>
    <path d="M38.75 23H37.54V24.21H38.75V23Z" fill="#424242"/>
    <path d="M36.3199 21.79H35.1099V23H36.3199V21.79Z" fill="black"/>
    <path d="M36.3199 23H35.1099V24.21H36.3199V23Z" fill="#636363"/>
    <path d="M36.3199 20.58H35.1099V21.79H36.3199V20.58Z" fill="#424242"/>
    <path d="M35.1099 21.79H33.8999V23H35.1099V21.79Z" fill="black"/>
    <path d="M35.1099 23H33.8999V24.21H35.1099V23Z" fill="#636363"/>
    <path d="M35.1099 20.58H33.8999V21.79H35.1099V20.58Z" fill="#424242"/>
    <path d="M33.9 21.79H32.6899V23H33.9V21.79Z" fill="black"/>
    <path d="M33.9 23H32.6899V24.21H33.9V23Z" fill="#636363"/>
    <path d="M33.9 20.58H32.6899V21.79H33.9V20.58Z" fill="#424242"/>
    <path d="M33.9 19.37H32.6899V20.58H33.9V19.37Z" fill="black"/>
    <path d="M44.7999 9.69H43.59V10.9H44.7999V9.69Z" fill="#ECECEC"/>
    <path d="M42.3799 7.27002H41.1699V8.48004H42.3799V7.27002Z" fill="#ECECEC"/>
    <path d="M41.1699 7.27002H39.96V8.48004H41.1699V7.27002Z" fill="#ECECEC"/>
    <path d="M39.96 7.27002H38.75V8.48004H39.96V7.27002Z" fill="#ECECEC"/>
    <path d="M39.96 8.48004H38.75V9.69H39.96V8.48004Z" fill="#CFA710"/>
    <path d="M38.74 9.69H37.53V10.9H38.74V9.69Z" fill="#ECECEC"/>
    <path d="M37.53 9.69H36.3199V10.9H37.53V9.69Z" fill="#ECECEC"/>
    <path d="M37.53 8.48004H36.3199V9.69H37.53V8.48004Z" fill="#CFA710"/>
    <path d="M37.53 7.27002H36.3199V8.48004H37.53V7.27002Z" fill="#BDBDBD"/>
    <path d="M37.53 6.04999H36.3199V7.26001H37.53V6.04999Z" fill="#BDBDBD"/>
    <path d="M36.3199 9.69H35.1099V10.9H36.3199V9.69Z" fill="#ECECEC"/>
    <path d="M36.3199 8.48004H35.1099V9.69H36.3199V8.48004Z" fill="#CFA710"/>
    <path d="M36.3199 7.27002H35.1099V8.48004H36.3199V7.27002Z" fill="#BDBDBD"/>
    <path d="M36.3199 6.04999H35.1099V7.26001H36.3199V6.04999Z" fill="#BDBDBD"/>
    <path d="M35.1099 4.84003H33.8999V6.04999H35.1099V4.84003Z" fill="#BDBDBD"/>
    <path d="M41.1699 8.48004H39.96V9.69H41.1699V8.48004Z" fill="#CFA710"/>
    <path d="M42.3799 8.48004H41.1699V9.69H42.3799V8.48004Z" fill="#CFA710"/>
    <path d="M43.5899 8.48004H42.3799V9.69H43.5899V8.48004Z" fill="#CFA710"/>
    <path d="M43.5899 4.84003H42.3799V6.04999H43.5899V4.84003Z" fill="#CFA710"/>
    <path d="M43.5899 6.04999H42.3799V7.26001H43.5899V6.04999Z" fill="#A48100"/>
    <path d="M42.3799 4.84003H41.1699V6.04999H42.3799V4.84003Z" fill="#CFA710"/>
    <path d="M41.1699 4.84003H39.96V6.04999H41.1699V4.84003Z" fill="#CFA710"/>
    <path d="M39.96 4.84003H38.75V6.04999H39.96V4.84003Z" fill="#CFA710"/>
    <path d="M38.74 4.84003H37.53V6.04999H38.74V4.84003Z" fill="#CFA710"/>
    <path d="M43.5899 3.63H42.3799V4.84003H43.5899V3.63Z" fill="#CFA710"/>
    <path d="M44.7999 4.84003H43.59V6.04999H44.7999V4.84003Z" fill="#A48100"/>
    <path d="M44.7999 3.63H43.59V4.84003H44.7999V3.63Z" fill="#A48100"/>
    <path d="M48.4299 1.21002H47.22V2.42004H48.4299V1.21002Z" fill="#CFA710"/>
    <path d="M48.4299 0H47.22V1.21002H48.4299V0Z" fill="#CFA710"/>
    <path d="M46.0099 1.21002H44.7999V2.42004H46.0099V1.21002Z" fill="#A48100"/>
    <path d="M47.22 1.21002H46.01V2.42004H47.22V1.21002Z" fill="#A48100"/>
    <path d="M44.7999 1.21002H43.59V2.42004H44.7999V1.21002Z" fill="#A48100"/>
    <path d="M43.5899 1.21002H42.3799V2.42004H43.5899V1.21002Z" fill="#CFA710"/>
    <path d="M42.3799 1.21002H41.1699V2.42004H42.3799V1.21002Z" fill="#CFA710"/>
    <path d="M41.1699 1.21002H39.96V2.42004H41.1699V1.21002Z" fill="#CFA710"/>
    <path d="M39.96 1.21002H38.75V2.42004H39.96V1.21002Z" fill="#CFA710"/>
    <path d="M38.75 1.21002H37.54V2.42004H38.75V1.21002Z" fill="#CFA710"/>
    <path d="M37.54 1.21002H36.33V2.42004H37.54V1.21002Z" fill="#CFA710"/>
    <path d="M36.3199 1.21002H35.1099V2.42004H36.3199V1.21002Z" fill="#CFA710"/>
    <path d="M35.1099 1.21002H33.8999V2.42004H35.1099V1.21002Z" fill="#CFA710"/>
    <path d="M33.9 1.21002H32.6899V2.42004H33.9V1.21002Z" fill="#CFA710"/>
    <path d="M32.6899 1.21002H31.48V2.42004H32.6899V1.21002Z" fill="#CFA710"/>
    <path d="M31.48 1.21002H30.27V2.42004H31.48V1.21002Z" fill="#CFA710"/>
    <path d="M30.27 1.21002H29.0599V2.42004H30.27V1.21002Z" fill="#CFA710"/>
    <path d="M29.0599 1.21002H27.85V2.42004H29.0599V1.21002Z" fill="#CFA710"/>
    <path d="M27.8399 1.21002H26.6299V2.42004H27.8399V1.21002Z" fill="#CFA710"/>
    <path d="M26.6299 1.21002H25.4199V2.42004H26.6299V1.21002Z" fill="#CFA710"/>
    <path d="M25.4199 1.21002H24.21V2.42004H25.4199V1.21002Z" fill="#CFA710"/>
    <path d="M24.21 1.21002H23V2.42004H24.21V1.21002Z" fill="#CFA710"/>
    <path d="M22.99 1.21002H21.78V2.42004H22.99V1.21002Z" fill="#CFA710"/>
    <path d="M21.78 1.21002H20.5699V2.42004H21.78V1.21002Z" fill="#A48100"/>
    <path d="M20.5699 1.21002H19.3599V2.42004H20.5699V1.21002Z" fill="#A48100"/>
    <path d="M19.3599 1.21002H18.1499V2.42004H19.3599V1.21002Z" fill="#A48100"/>
    <path d="M41.1699 9.69H39.96V10.9H41.1699V9.69Z" fill="#ECECEC"/>
    <path d="M42.3799 9.69H41.1699V10.9H42.3799V9.69Z" fill="#ECECEC"/>
    <path d="M43.5899 9.69H42.3799V10.9H43.5899V9.69Z" fill="#ECECEC"/>
    <path d="M49.64 19.37H48.4299V20.58H49.64V19.37Z" fill="black"/>
    <path d="M50.8499 19.37H49.6399V20.58H50.8499V19.37Z" fill="black"/>
    <path d="M52.0599 19.37H50.85V20.58H52.0599V19.37Z" fill="black"/>
    <path d="M44.7999 9.69H43.59V10.9H44.7999V9.69Z" fill="#ECECEC"/>
    <path d="M41.1699 6.04999H39.96V7.26001H41.1699V6.04999Z" fill="#ECECEC"/>
    <path d="M39.96 6.04999H38.75V7.26001H39.96V6.04999Z" fill="#ECECEC"/>
    <path d="M38.74 6.04999H37.53V7.26001H38.74V6.04999Z" fill="#ECECEC"/>
    <path d="M37.53 4.84003H36.3199V6.04999H37.53V4.84003Z" fill="#ECECEC"/>
    <path d="M24.22 3.63H23.01V4.84003H24.22V3.63Z" fill="#CFA710"/>
    <path d="M25.4299 3.63H24.22V4.84003H25.4299V3.63Z" fill="#CFA710"/>
    <path d="M26.64 3.63H25.4299V4.84003H26.64V3.63Z" fill="#CFA710"/>
    <path d="M27.8499 3.63H26.6399V4.84003H27.8499V3.63Z" fill="#CFA710"/>
    <path d="M29.0599 3.63H27.85V4.84003H29.0599V3.63Z" fill="#CFA710"/>
    <path d="M30.27 3.63H29.0599V4.84003H30.27V3.63Z" fill="#ECECEC"/>
    <path d="M42.3799 3.63H41.1699V4.84003H42.3799V3.63Z" fill="#CFA710"/>
    <path d="M41.1699 3.63H39.96V4.84003H41.1699V3.63Z" fill="#CFA710"/>
    <path d="M39.96 3.63H38.75V4.84003H39.96V3.63Z" fill="#CFA710"/>
    <path d="M38.74 3.63H37.53V4.84003H38.74V3.63Z" fill="#CFA710"/>
    <path d="M37.53 3.63H36.3199V4.84003H37.53V3.63Z" fill="#CFA710"/>
    <path d="M36.3199 3.63H35.1099V4.84003H36.3199V3.63Z" fill="#ECECEC"/>
    <path d="M36.3199 4.84003H35.1099V6.04999H36.3199V4.84003Z" fill="#BDBDBD"/>
    <path d="M35.1099 3.63H33.8999V4.84003H35.1099V3.63Z" fill="#BDBDBD"/>
    <path d="M33.9 3.63H32.6899V4.84003H33.9V3.63Z" fill="#BDBDBD"/>
    <path d="M31.48 2.42004H30.27V3.63H31.48V2.42004Z" fill="#ECECEC"/>
    <path d="M32.6899 2.42004H31.48V3.63H32.6899V2.42004Z" fill="#ECECEC"/>
    <path d="M35.1099 2.42004H33.8999V3.63H35.1099V2.42004Z" fill="#ECECEC"/>
    <path d="M33.9 2.42004H32.6899V3.63H33.9V2.42004Z" fill="#ECECEC"/>
    <path d="M33.9 4.84003H32.6899V6.04999H33.9V4.84003Z" fill="#ECECEC"/>
    <path d="M35.1099 6.04999H33.8999V7.26001H35.1099V6.04999Z" fill="#ECECEC"/>
    <path d="M33.9 6.04999H32.6899V7.26001H33.9V6.04999Z" fill="#ECECEC"/>
    <path d="M35.1099 7.27002H33.8999V8.48004H35.1099V7.27002Z" fill="#ECECEC"/>
    <path d="M33.9 7.27002H32.6899V8.48004H33.9V7.27002Z" fill="#ECECEC"/>
    <path d="M35.1099 8.48004H33.8999V9.69H35.1099V8.48004Z" fill="#CFA710"/>
    <path d="M33.9 8.48004H32.6899V9.69H33.9V8.48004Z" fill="#CFA710"/>
    <path d="M35.1099 9.69H33.8999V10.9H35.1099V9.69Z" fill="#ECECEC"/>
    <path d="M33.9 9.69H32.6899V10.9H33.9V9.69Z" fill="#ECECEC"/>
    <path d="M41.1699 9.69H39.96V10.9H41.1699V9.69Z" fill="#ECECEC"/>
    <path d="M39.96 9.69H38.75V10.9H39.96V9.69Z" fill="#ECECEC"/>
    <path d="M38.74 8.48004H37.53V9.69H38.74V8.48004Z" fill="#CFA710"/>
    <path d="M38.74 7.27002H37.53V8.48004H38.74V7.27002Z" fill="#BDBDBD"/>
    <path d="M36.3199 14.53H35.1099V15.74H36.3199V14.53Z" fill="black"/>
    <path d="M36.3199 15.74H35.1099V16.95H36.3199V15.74Z" fill="#40FF29"/>
    <path d="M36.3199 16.95H35.1099V18.16H36.3199V16.95Z" fill="#B4FF00"/>
    <path d="M36.3199 18.16H35.1099V19.37H36.3199V18.16Z" fill="#40FF29"/>
    <path d="M36.3199 19.37H35.1099V20.58H36.3199V19.37Z" fill="black"/>
</svg>