<svg shape-rendering="crispEdges" width="60" height="115" viewBox="0 0 60 115" fill="none" xmlns="http://www.w3.org/2000/svg">
    <path d="M28.63 0H26.43V2.2H28.63V0Z" fill="#050403"/>
    <path d="M30.83 0H28.63V2.2H30.83V0Z" fill="#050403"/>
    <path d="M33.04 0H30.84V2.2H33.04V0Z" fill="#050403"/>
    <path d="M22.02 2.20001H19.82V4.40001H22.02V2.20001Z" fill="#050403"/>
    <path d="M24.23 2.20001H22.03V4.40001H24.23V2.20001Z" fill="#050403"/>
    <path d="M26.43 2.20001H24.23V4.40001H26.43V2.20001Z" fill="#050403"/>
    <path d="M28.63 2.20001H26.43V4.40001H28.63V2.20001Z" fill="#CEEF1F"/>
    <path d="M30.83 2.20001H28.63V4.40001H30.83V2.20001Z" fill="#CEEF1F"/>
    <path d="M33.04 2.20001H30.84V4.40001H33.04V2.20001Z" fill="#CEEF1F"/>
    <path d="M35.24 2.20001H33.04V4.40001H35.24V2.20001Z" fill="#050403"/>
    <path d="M37.44 2.20001H35.24V4.40001H37.44V2.20001Z" fill="#050403"/>
    <path d="M39.64 2.20001H37.44V4.40001H39.64V2.20001Z" fill="#050403"/>
    <path d="M15.42 4.40997H13.22V6.60997H15.42V4.40997Z" fill="#050403"/>
    <path d="M17.62 4.40997H15.42V6.60997H17.62V4.40997Z" fill="#050403"/>
    <path d="M19.82 4.40997H17.62V6.60997H19.82V4.40997Z" fill="#050403"/>
    <path d="M22.02 4.40997H19.82V6.60997H22.02V4.40997Z" fill="#CEEF1F"/>
    <path d="M24.23 4.40997H22.03V6.60997H24.23V4.40997Z" fill="#CEEF1F"/>
    <path d="M26.43 4.40997H24.23V6.60997H26.43V4.40997Z" fill="#CEEF1F"/>
    <path d="M28.63 4.40997H26.43V6.60997H28.63V4.40997Z" fill="#B7B71D"/>
    <path d="M30.83 4.40997H28.63V6.60997H30.83V4.40997Z" fill="#B7B71D"/>
    <path d="M33.04 4.40997H30.84V6.60997H33.04V4.40997Z" fill="#B7B71D"/>
    <path d="M35.24 4.40997H33.04V6.60997H35.24V4.40997Z" fill="#CEEF1F"/>
    <path d="M37.44 4.40997H35.24V6.60997H37.44V4.40997Z" fill="#CEEF1F"/>
    <path d="M39.64 4.40997H37.44V6.60997H39.64V4.40997Z" fill="#CEEF1F"/>
    <path d="M41.85 4.40997H39.65V6.60997H41.85V4.40997Z" fill="#050403"/>
    <path d="M44.05 4.40997H41.85V6.60997H44.05V4.40997Z" fill="#050403"/>
    <path d="M46.25 4.40997H44.05V6.60997H46.25V4.40997Z" fill="#050403"/>
    <path d="M6.61 6.60999H4.41V8.80999H6.61V6.60999Z" fill="#050403"/>
    <path d="M8.80999 6.60999H6.60999V8.80999H8.80999V6.60999Z" fill="#050403"/>
    <path d="M11.01 6.60999H8.81V8.80999H11.01V6.60999Z" fill="#050403"/>
    <path d="M13.21 6.60999H11.01V8.80999H13.21V6.60999Z" fill="#050403"/>
    <path d="M15.42 6.60999H13.22V8.80999H15.42V6.60999Z" fill="#CEEF1F"/>
    <path d="M17.62 6.60999H15.42V8.80999H17.62V6.60999Z" fill="#CEEF1F"/>
    <path d="M19.82 6.60999H17.62V8.80999H19.82V6.60999Z" fill="#CEEF1F"/>
    <path d="M22.02 6.60999H19.82V8.80999H22.02V6.60999Z" fill="#CEEF1F"/>
    <path d="M24.23 6.60999H22.03V8.80999H24.23V6.60999Z" fill="#CEEF1F"/>
    <path d="M26.43 6.60999H24.23V8.80999H26.43V6.60999Z" fill="#B7B71D"/>
    <path d="M28.63 6.60999H26.43V8.80999H28.63V6.60999Z" fill="#050403"/>
    <path d="M30.83 6.60999H28.63V8.80999H30.83V6.60999Z" fill="#CEEF1F"/>
    <path d="M33.04 6.60999H30.84V8.80999H33.04V6.60999Z" fill="#050403"/>
    <path d="M35.24 6.60999H33.04V8.80999H35.24V6.60999Z" fill="#B7B71D"/>
    <path d="M37.44 6.60999H35.24V8.80999H37.44V6.60999Z" fill="#CEEF1F"/>
    <path d="M39.64 6.60999H37.44V8.80999H39.64V6.60999Z" fill="#CEEF1F"/>
    <path d="M41.85 6.60999H39.65V8.80999H41.85V6.60999Z" fill="#CEEF1F"/>
    <path d="M44.05 6.60999H41.85V8.80999H44.05V6.60999Z" fill="#CEEF1F"/>
    <path d="M46.25 6.60999H44.05V8.80999H46.25V6.60999Z" fill="#CEEF1F"/>
    <path d="M48.46 6.60999H46.26V8.80999H48.46V6.60999Z" fill="#050403"/>
    <path d="M50.66 6.60999H48.46V8.80999H50.66V6.60999Z" fill="#050403"/>
    <path d="M52.86 6.60999H50.66V8.80999H52.86V6.60999Z" fill="#050403"/>
    <path d="M55.06 6.60999H52.86V8.80999H55.06V6.60999Z" fill="#050403"/>
    <path d="M2.2 8.81H0V11.01H2.2V8.81Z" fill="#050403"/>
    <path d="M4.40001 8.81H2.20001V11.01H4.40001V8.81Z" fill="#050403"/>
    <path d="M6.61 8.81H4.41V11.01H6.61V8.81Z" fill="#CEEF1F"/>
    <path d="M8.80999 8.81H6.60999V11.01H8.80999V8.81Z" fill="#CEEF1F"/>
    <path d="M11.01 8.81H8.81V11.01H11.01V8.81Z" fill="#CEEF1F"/>
    <path d="M13.21 8.81H11.01V11.01H13.21V8.81Z" fill="#CEEF1F"/>
    <path d="M15.42 8.81H13.22V11.01H15.42V8.81Z" fill="#CEEF1F"/>
    <path d="M17.62 8.81H15.42V11.01H17.62V8.81Z" fill="#CEEF1F"/>
    <path d="M19.82 8.81H17.62V11.01H19.82V8.81Z" fill="#CEEF1F"/>
    <path d="M22.02 8.81H19.82V11.01H22.02V8.81Z" fill="#B7B71D"/>
    <path d="M24.23 8.81H22.03V11.01H24.23V8.81Z" fill="#B7B71D"/>
    <path d="M26.43 8.81H24.23V11.01H26.43V8.81Z" fill="#050403"/>
    <path d="M28.63 8.81H26.43V11.01H28.63V8.81Z" fill="#B7B71D"/>
    <path d="M30.83 8.81H28.63V11.01H30.83V8.81Z" fill="#CEEF1F"/>
    <path d="M33.04 8.81H30.84V11.01H33.04V8.81Z" fill="#B7B71D"/>
    <path d="M35.24 8.81H33.04V11.01H35.24V8.81Z" fill="#050403"/>
    <path d="M37.44 8.81H35.24V11.01H37.44V8.81Z" fill="#B7B71D"/>
    <path d="M39.64 8.81H37.44V11.01H39.64V8.81Z" fill="#B7B71D"/>
    <path d="M41.85 8.81H39.65V11.01H41.85V8.81Z" fill="#CEEF1F"/>
    <path d="M44.05 8.81H41.85V11.01H44.05V8.81Z" fill="#CEEF1F"/>
    <path d="M46.25 8.81H44.05V11.01H46.25V8.81Z" fill="#CEEF1F"/>
    <path d="M48.46 8.81H46.26V11.01H48.46V8.81Z" fill="#CEEF1F"/>
    <path d="M50.66 8.81H48.46V11.01H50.66V8.81Z" fill="#CEEF1F"/>
    <path d="M52.86 8.81H50.66V11.01H52.86V8.81Z" fill="#CEEF1F"/>
    <path d="M55.06 8.81H52.86V11.01H55.06V8.81Z" fill="#CEEF1F"/>
    <path d="M57.27 8.81H55.07V11.01H57.27V8.81Z" fill="#050403"/>
    <path d="M59.47 8.81H57.27V11.01H59.47V8.81Z" fill="#050403"/>
    <path d="M2.2 11.01H0V13.21H2.2V11.01Z" fill="#050403"/>
    <path d="M4.40001 11.01H2.20001V13.21H4.40001V11.01Z" fill="#CEEF1F"/>
    <path d="M6.61 11.01H4.41V13.21H6.61V11.01Z" fill="#CEEF1F"/>
    <path d="M8.80999 11.01H6.60999V13.21H8.80999V11.01Z" fill="#CEEF1F"/>
    <path d="M11.01 11.01H8.81V13.21H11.01V11.01Z" fill="#CEEF1F"/>
    <path d="M13.21 11.01H11.01V13.21H13.21V11.01Z" fill="#CEEF1F"/>
    <path d="M15.42 11.01H13.22V13.21H15.42V11.01Z" fill="#CEEF1F"/>
    <path d="M17.62 11.01H15.42V13.21H17.62V11.01Z" fill="#B7B71D"/>
    <path d="M19.82 11.01H17.62V13.21H19.82V11.01Z" fill="#B7B71D"/>
    <path d="M22.02 11.01H19.82V13.21H22.02V11.01Z" fill="#D6B6D5"/>
    <path d="M24.23 11.01H22.03V13.21H24.23V11.01Z" fill="#050403"/>
    <path d="M26.43 11.01H24.23V13.21H26.43V11.01Z" fill="#050403"/>
    <path d="M28.63 11.01H26.43V13.21H28.63V11.01Z" fill="#CEEF1F"/>
    <path d="M30.83 11.01H28.63V13.21H30.83V11.01Z" fill="#CEEF1F"/>
    <path d="M33.04 11.01H30.84V13.21H33.04V11.01Z" fill="#CEEF1F"/>
    <path d="M35.24 11.01H33.04V13.21H35.24V11.01Z" fill="#050403"/>
    <path d="M37.44 11.01H35.24V13.21H37.44V11.01Z" fill="#050403"/>
    <path d="M39.64 11.01H37.44V13.21H39.64V11.01Z" fill="#D6B6D5"/>
    <path d="M41.85 11.01H39.65V13.21H41.85V11.01Z" fill="#B7B71D"/>
    <path d="M44.05 11.01H41.85V13.21H44.05V11.01Z" fill="#B7B71D"/>
    <path d="M46.25 11.01H44.05V13.21H46.25V11.01Z" fill="#CEEF1F"/>
    <path d="M48.46 11.01H46.26V13.21H48.46V11.01Z" fill="#CEEF1F"/>
    <path d="M50.66 11.01H48.46V13.21H50.66V11.01Z" fill="#CEEF1F"/>
    <path d="M52.86 11.01H50.66V13.21H52.86V11.01Z" fill="#CEEF1F"/>
    <path d="M55.06 11.01H52.86V13.21H55.06V11.01Z" fill="#CEEF1F"/>
    <path d="M57.27 11.01H55.07V13.21H57.27V11.01Z" fill="#CEEF1F"/>
    <path d="M59.47 11.01H57.27V13.21H59.47V11.01Z" fill="#050403"/>
    <path d="M2.2 13.22H0V15.42H2.2V13.22Z" fill="#050403"/>
    <path d="M4.40001 13.22H2.20001V15.42H4.40001V13.22Z" fill="#CEEF1F"/>
    <path d="M6.61 13.22H4.41V15.42H6.61V13.22Z" fill="#CEEF1F"/>
    <path d="M8.80999 13.22H6.60999V15.42H8.80999V13.22Z" fill="#CEEF1F"/>
    <path d="M11.01 13.22H8.81V15.42H11.01V13.22Z" fill="#CEEF1F"/>
    <path d="M13.21 13.22H11.01V15.42H13.21V13.22Z" fill="#B7B71D"/>
    <path d="M15.42 13.22H13.22V15.42H15.42V13.22Z" fill="#B7B71D"/>
    <path d="M17.62 13.22H15.42V15.42H17.62V13.22Z" fill="#D6B6D5"/>
    <path d="M19.82 13.22H17.62V15.42H19.82V13.22Z" fill="#D6B6D5"/>
    <path d="M22.02 13.22H19.82V15.42H22.02V13.22Z" fill="#050403"/>
    <path d="M26.43 13.22H24.23V15.42H26.43V13.22Z" fill="#050403"/>
    <path d="M28.63 13.22H26.43V15.42H28.63V13.22Z" fill="#CEEF1F"/>
    <path d="M30.83 13.22H28.63V15.42H30.83V13.22Z" fill="#CEEF1F"/>
    <path d="M33.04 13.22H30.84V15.42H33.04V13.22Z" fill="#CEEF1F"/>
    <path d="M35.24 13.22H33.04V15.42H35.24V13.22Z" fill="#050403"/>
    <path d="M39.64 13.22H37.44V15.42H39.64V13.22Z" fill="#050403"/>
    <path d="M41.85 13.22H39.65V15.42H41.85V13.22Z" fill="#D6B6D5"/>
    <path d="M44.05 13.22H41.85V15.42H44.05V13.22Z" fill="#D6B6D5"/>
    <path d="M46.25 13.22H44.05V15.42H46.25V13.22Z" fill="#B7B71D"/>
    <path d="M48.46 13.22H46.26V15.42H48.46V13.22Z" fill="#B7B71D"/>
    <path d="M50.66 13.22H48.46V15.42H50.66V13.22Z" fill="#CEEF1F"/>
    <path d="M52.86 13.22H50.66V15.42H52.86V13.22Z" fill="#CEEF1F"/>
    <path d="M55.06 13.22H52.86V15.42H55.06V13.22Z" fill="#CEEF1F"/>
    <path d="M57.27 13.22H55.07V15.42H57.27V13.22Z" fill="#CEEF1F"/>
    <path d="M59.47 13.22H57.27V15.42H59.47V13.22Z" fill="#050403"/>
    <path d="M2.2 15.42H0V17.62H2.2V15.42Z" fill="#050403"/>
    <path d="M4.40001 15.42H2.20001V17.62H4.40001V15.42Z" fill="#CEEF1F"/>
    <path d="M6.61 15.42H4.41V17.62H6.61V15.42Z" fill="#B7B71D"/>
    <path d="M8.80999 15.42H6.60999V17.62H8.80999V15.42Z" fill="#B7B71D"/>
    <path d="M11.01 15.42H8.81V17.62H11.01V15.42Z" fill="#B7B71D"/>
    <path d="M13.21 15.42H11.01V17.62H13.21V15.42Z" fill="#D6B6D5"/>
    <path d="M15.42 15.42H13.22V17.62H15.42V15.42Z" fill="#D6B6D5"/>
    <path d="M17.62 15.42H15.42V17.62H17.62V15.42Z" fill="#050403"/>
    <path d="M19.82 15.42H17.62V17.62H19.82V15.42Z" fill="#050403"/>
    <path d="M26.43 15.42H24.23V17.62H26.43V15.42Z" fill="#050403"/>
    <path d="M28.63 15.42H26.43V17.62H28.63V15.42Z" fill="#CEEF1F"/>
    <path d="M30.83 15.42H28.63V17.62H30.83V15.42Z" fill="#CEEF1F"/>
    <path d="M33.04 15.42H30.84V17.62H33.04V15.42Z" fill="#CEEF1F"/>
    <path d="M35.24 15.42H33.04V17.62H35.24V15.42Z" fill="#050403"/>
    <path d="M41.85 15.42H39.65V17.62H41.85V15.42Z" fill="#050403"/>
    <path d="M44.05 15.42H41.85V17.62H44.05V15.42Z" fill="#050403"/>
    <path d="M46.25 15.42H44.05V17.62H46.25V15.42Z" fill="#D6B6D5"/>
    <path d="M48.46 15.42H46.26V17.62H48.46V15.42Z" fill="#D6B6D5"/>
    <path d="M50.66 15.42H48.46V17.62H50.66V15.42Z" fill="#B7B71D"/>
    <path d="M52.86 15.42H50.66V17.62H52.86V15.42Z" fill="#B7B71D"/>
    <path d="M55.06 15.42H52.86V17.62H55.06V15.42Z" fill="#B7B71D"/>
    <path d="M57.27 15.42H55.07V17.62H57.27V15.42Z" fill="#CEEF1F"/>
    <path d="M59.47 15.42H57.27V17.62H59.47V15.42Z" fill="#050403"/>
    <path d="M2.2 17.62H0V19.82H2.2V17.62Z" fill="#050403"/>
    <path d="M4.40001 17.62H2.20001V19.82H4.40001V17.62Z" fill="#CEEF1F"/>
    <path d="M6.61 17.62H4.41V19.82H6.61V17.62Z" fill="#050403"/>
    <path d="M8.80999 17.62H6.60999V19.82H8.80999V17.62Z" fill="#B7B71D"/>
    <path d="M11.01 17.62H8.81V19.82H11.01V17.62Z" fill="#B7B71D"/>
    <path d="M13.21 17.62H11.01V19.82H13.21V17.62Z" fill="#050403"/>
    <path d="M15.42 17.62H13.22V19.82H15.42V17.62Z" fill="#050403"/>
    <path d="M24.23 17.62H22.03V19.82H24.23V17.62Z" fill="#050403"/>
    <path d="M26.43 17.62H24.23V19.82H26.43V17.62Z" fill="#B7B71D"/>
    <path d="M28.63 17.62H26.43V19.82H28.63V17.62Z" fill="#CEEF1F"/>
    <path d="M30.83 17.62H28.63V19.82H30.83V17.62Z" fill="#CEEF1F"/>
    <path d="M33.04 17.62H30.84V19.82H33.04V17.62Z" fill="#CEEF1F"/>
    <path d="M35.24 17.62H33.04V19.82H35.24V17.62Z" fill="#B7B71D"/>
    <path d="M37.44 17.62H35.24V19.82H37.44V17.62Z" fill="#050403"/>
    <path d="M46.25 17.62H44.05V19.82H46.25V17.62Z" fill="#050403"/>
    <path d="M48.46 17.62H46.26V19.82H48.46V17.62Z" fill="#050403"/>
    <path d="M50.66 17.62H48.46V19.82H50.66V17.62Z" fill="#B7B71D"/>
    <path d="M52.86 17.62H50.66V19.82H52.86V17.62Z" fill="#B7B71D"/>
    <path d="M55.06 17.62H52.86V19.82H55.06V17.62Z" fill="#050403"/>
    <path d="M57.27 17.62H55.07V19.82H57.27V17.62Z" fill="#CEEF1F"/>
    <path d="M59.47 17.62H57.27V19.82H59.47V17.62Z" fill="#050403"/>
    <path d="M2.2 19.82H0V22.02H2.2V19.82Z" fill="#050403"/>
    <path d="M4.40001 19.82H2.20001V22.02H4.40001V19.82Z" fill="#CEEF1F"/>
    <path d="M6.61 19.82H4.41V22.02H6.61V19.82Z" fill="#050403"/>
    <path d="M8.80999 19.82H6.60999V22.02H8.80999V19.82Z" fill="#050403"/>
    <path d="M11.01 19.82H8.81V22.02H11.01V19.82Z" fill="#050403"/>
    <path d="M24.23 19.82H22.03V22.02H24.23V19.82Z" fill="#050403"/>
    <path d="M26.43 19.82H24.23V22.02H26.43V19.82Z" fill="#CEEF1F"/>
    <path d="M28.63 19.82H26.43V22.02H28.63V19.82Z" fill="#CEEF1F"/>
    <path d="M30.83 19.82H28.63V22.02H30.83V19.82Z" fill="#CEEF1F"/>
    <path d="M33.04 19.82H30.84V22.02H33.04V19.82Z" fill="#CEEF1F"/>
    <path d="M35.24 19.82H33.04V22.02H35.24V19.82Z" fill="#CEEF1F"/>
    <path d="M37.44 19.82H35.24V22.02H37.44V19.82Z" fill="#050403"/>
    <path d="M50.66 19.82H48.46V22.02H50.66V19.82Z" fill="#050403"/>
    <path d="M52.86 19.82H50.66V22.02H52.86V19.82Z" fill="#050403"/>
    <path d="M55.06 19.82H52.86V22.02H55.06V19.82Z" fill="#050403"/>
    <path d="M57.27 19.82H55.07V22.02H57.27V19.82Z" fill="#CEEF1F"/>
    <path d="M59.47 19.82H57.27V22.02H59.47V19.82Z" fill="#050403"/>
    <path d="M2.2 22.03H0V24.23H2.2V22.03Z" fill="#050403"/>
    <path d="M4.40001 22.03H2.20001V24.23H4.40001V22.03Z" fill="#050403"/>
    <path d="M6.61 22.03H4.41V24.23H6.61V22.03Z" fill="#050403"/>
    <path d="M24.23 22.03H22.03V24.23H24.23V22.03Z" fill="#050403"/>
    <path d="M26.43 22.03H24.23V24.23H26.43V22.03Z" fill="#CEEF1F"/>
    <path d="M28.63 22.03H26.43V24.23H28.63V22.03Z" fill="#27FFAE"/>
    <path d="M30.83 22.03H28.63V24.23H30.83V22.03Z" fill="#27FFAE"/>
    <path d="M33.04 22.03H30.84V24.23H33.04V22.03Z" fill="#27FFAE"/>
    <path d="M35.24 22.03H33.04V24.23H35.24V22.03Z" fill="#CEEF1F"/>
    <path d="M37.44 22.03H35.24V24.23H37.44V22.03Z" fill="#050403"/>
    <path d="M55.06 22.03H52.86V24.23H55.06V22.03Z" fill="#050403"/>
    <path d="M57.27 22.03H55.07V24.23H57.27V22.03Z" fill="#050403"/>
    <path d="M59.47 22.03H57.27V24.23H59.47V22.03Z" fill="#050403"/>
    <path d="M24.23 24.23H22.03V26.43H24.23V24.23Z" fill="#050403"/>
    <path d="M26.43 24.23H24.23V26.43H26.43V24.23Z" fill="#CEEF1F"/>
    <path d="M28.63 24.23H26.43V26.43H28.63V24.23Z" fill="#27FFAE"/>
    <path d="M30.83 24.23H28.63V26.43H30.83V24.23Z" fill="#27FFAE"/>
    <path d="M33.04 24.23H30.84V26.43H33.04V24.23Z" fill="#27FFAE"/>
    <path d="M35.24 24.23H33.04V26.43H35.24V24.23Z" fill="#CEEF1F"/>
    <path d="M37.44 24.23H35.24V26.43H37.44V24.23Z" fill="#050403"/>
    <path d="M4.40001 26.43H2.20001V28.63H4.40001V26.43Z" fill="#050403"/>
    <path d="M6.61 26.43H4.41V28.63H6.61V26.43Z" fill="#050403"/>
    <path d="M8.80999 26.43H6.60999V28.63H8.80999V26.43Z" fill="#050403"/>
    <path d="M11.01 26.43H8.81V28.63H11.01V26.43Z" fill="#050403"/>
    <path d="M13.21 26.43H11.01V28.63H13.21V26.43Z" fill="#050403"/>
    <path d="M22.02 26.43H19.82V28.63H22.02V26.43Z" fill="#050403"/>
    <path d="M24.23 26.43H22.03V28.63H24.23V26.43Z" fill="#3C2833"/>
    <path d="M26.43 26.43H24.23V28.63H26.43V26.43Z" fill="#CEEF1F"/>
    <path d="M28.63 26.43H26.43V28.63H28.63V26.43Z" fill="#CEEF1F"/>
    <path d="M30.83 26.43H28.63V28.63H30.83V26.43Z" fill="#CEEF1F"/>
    <path d="M33.04 26.43H30.84V28.63H33.04V26.43Z" fill="#CEEF1F"/>
    <path d="M35.24 26.43H33.04V28.63H35.24V26.43Z" fill="#CEEF1F"/>
    <path d="M37.44 26.43H35.24V28.63H37.44V26.43Z" fill="#3C2833"/>
    <path d="M39.64 26.43H37.44V28.63H39.64V26.43Z" fill="#050403"/>
    <path d="M48.46 26.43H46.26V28.63H48.46V26.43Z" fill="#050403"/>
    <path d="M50.66 26.43H48.46V28.63H50.66V26.43Z" fill="#050403"/>
    <path d="M52.86 26.43H50.66V28.63H52.86V26.43Z" fill="#050403"/>
    <path d="M55.06 26.43H52.86V28.63H55.06V26.43Z" fill="#050403"/>
    <path d="M57.27 26.43H55.07V28.63H57.27V26.43Z" fill="#050403"/>
    <path d="M2.2 28.63H0V30.83H2.2V28.63Z" fill="#050403"/>
    <path d="M4.40001 28.63H2.20001V30.83H4.40001V28.63Z" fill="#3C2833"/>
    <path d="M6.61 28.63H4.41V30.83H6.61V28.63Z" fill="#3C2833"/>
    <path d="M8.80999 28.63H6.60999V30.83H8.80999V28.63Z" fill="#3C2833"/>
    <path d="M11.01 28.63H8.81V30.83H11.01V28.63Z" fill="#3C2833"/>
    <path d="M13.21 28.63H11.01V30.83H13.21V28.63Z" fill="#3C2833"/>
    <path d="M15.42 28.63H13.22V30.83H15.42V28.63Z" fill="#050403"/>
    <path d="M22.02 28.63H19.82V30.83H22.02V28.63Z" fill="#050403"/>
    <path d="M24.23 28.63H22.03V30.83H24.23V28.63Z" fill="#3C2833"/>
    <path d="M26.43 28.63H24.23V30.83H26.43V28.63Z" fill="#CEEF1F"/>
    <path d="M28.63 28.63H26.43V30.83H28.63V28.63Z" fill="#CEEF1F"/>
    <path d="M30.83 28.63H28.63V30.83H30.83V28.63Z" fill="#CEEF1F"/>
    <path d="M33.04 28.63H30.84V30.83H33.04V28.63Z" fill="#CEEF1F"/>
    <path d="M35.24 28.63H33.04V30.83H35.24V28.63Z" fill="#CEEF1F"/>
    <path d="M37.44 28.63H35.24V30.83H37.44V28.63Z" fill="#3C2833"/>
    <path d="M39.64 28.63H37.44V30.83H39.64V28.63Z" fill="#050403"/>
    <path d="M46.25 28.63H44.05V30.83H46.25V28.63Z" fill="#050403"/>
    <path d="M48.46 28.63H46.26V30.83H48.46V28.63Z" fill="#3C2833"/>
    <path d="M50.66 28.63H48.46V30.83H50.66V28.63Z" fill="#3C2833"/>
    <path d="M52.86 28.63H50.66V30.83H52.86V28.63Z" fill="#3C2833"/>
    <path d="M55.06 28.63H52.86V30.83H55.06V28.63Z" fill="#3C2833"/>
    <path d="M57.27 28.63H55.07V30.83H57.27V28.63Z" fill="#3C2833"/>
    <path d="M59.47 28.63H57.27V30.83H59.47V28.63Z" fill="#050403"/>
    <path d="M2.2 30.84H0V33.04H2.2V30.84Z" fill="#050403"/>
    <path d="M4.40001 30.84H2.20001V33.04H4.40001V30.84Z" fill="#62464D"/>
    <path d="M6.61 30.84H4.41V33.04H6.61V30.84Z" fill="#62464D"/>
    <path d="M8.80999 30.84H6.60999V33.04H8.80999V30.84Z" fill="#62464D"/>
    <path d="M11.01 30.84H8.81V33.04H11.01V30.84Z" fill="#62464D"/>
    <path d="M13.21 30.84H11.01V33.04H13.21V30.84Z" fill="#62464D"/>
    <path d="M15.42 30.84H13.22V33.04H15.42V30.84Z" fill="#050403"/>
    <path d="M17.62 30.84H15.42V33.04H17.62V30.84Z" fill="#050403"/>
    <path d="M19.82 30.84H17.62V33.04H19.82V30.84Z" fill="#050403"/>
    <path d="M22.02 30.84H19.82V33.04H22.02V30.84Z" fill="#050403"/>
    <path d="M24.23 30.84H22.03V33.04H24.23V30.84Z" fill="#050403"/>
    <path d="M26.43 30.84H24.23V33.04H26.43V30.84Z" fill="#CEEF1F"/>
    <path d="M28.63 30.84H26.43V33.04H28.63V30.84Z" fill="#615A21"/>
    <path d="M30.83 30.84H28.63V33.04H30.83V30.84Z" fill="#050403"/>
    <path d="M33.04 30.84H30.84V33.04H33.04V30.84Z" fill="#615A21"/>
    <path d="M35.24 30.84H33.04V33.04H35.24V30.84Z" fill="#CEEF1F"/>
    <path d="M37.44 30.84H35.24V33.04H37.44V30.84Z" fill="#050403"/>
    <path d="M39.64 30.84H37.44V33.04H39.64V30.84Z" fill="#050403"/>
    <path d="M41.85 30.84H39.65V33.04H41.85V30.84Z" fill="#050403"/>
    <path d="M44.05 30.84H41.85V33.04H44.05V30.84Z" fill="#050403"/>
    <path d="M46.25 30.84H44.05V33.04H46.25V30.84Z" fill="#050403"/>
    <path d="M48.46 30.84H46.26V33.04H48.46V30.84Z" fill="#62464D"/>
    <path d="M50.66 30.84H48.46V33.04H50.66V30.84Z" fill="#62464D"/>
    <path d="M52.86 30.84H50.66V33.04H52.86V30.84Z" fill="#62464D"/>
    <path d="M55.06 30.84H52.86V33.04H55.06V30.84Z" fill="#62464D"/>
    <path d="M57.27 30.84H55.07V33.04H57.27V30.84Z" fill="#62464D"/>
    <path d="M59.47 30.84H57.27V33.04H59.47V30.84Z" fill="#050403"/>
    <path d="M2.2 33.04H0V35.24H2.2V33.04Z" fill="#050403"/>
    <path d="M4.40001 33.04H2.20001V35.24H4.40001V33.04Z" fill="#806666"/>
    <path d="M6.61 33.04H4.41V35.24H6.61V33.04Z" fill="#806666"/>
    <path d="M8.80999 33.04H6.60999V35.24H8.80999V33.04Z" fill="#806666"/>
    <path d="M11.01 33.04H8.81V35.24H11.01V33.04Z" fill="#806666"/>
    <path d="M13.21 33.04H11.01V35.24H13.21V33.04Z" fill="#806666"/>
    <path d="M15.42 33.04H13.22V35.24H15.42V33.04Z" fill="#050403"/>
    <path d="M17.62 33.04H15.42V35.24H17.62V33.04Z" fill="#3C2833"/>
    <path d="M19.82 33.04H17.62V35.24H19.82V33.04Z" fill="#3C2833"/>
    <path d="M22.02 33.04H19.82V35.24H22.02V33.04Z" fill="#3C2833"/>
    <path d="M24.23 33.04H22.03V35.24H24.23V33.04Z" fill="#050403"/>
    <path d="M26.43 33.04H24.23V35.24H26.43V33.04Z" fill="#CEEF1F"/>
    <path d="M28.63 33.04H26.43V35.24H28.63V33.04Z" fill="#CEEF1F"/>
    <path d="M30.83 33.04H28.63V35.24H30.83V33.04Z" fill="#CEEF1F"/>
    <path d="M33.04 33.04H30.84V35.24H33.04V33.04Z" fill="#CEEF1F"/>
    <path d="M35.24 33.04H33.04V35.24H35.24V33.04Z" fill="#CEEF1F"/>
    <path d="M37.44 33.04H35.24V35.24H37.44V33.04Z" fill="#050403"/>
    <path d="M39.64 33.04H37.44V35.24H39.64V33.04Z" fill="#3C2833"/>
    <path d="M41.85 33.04H39.65V35.24H41.85V33.04Z" fill="#3C2833"/>
    <path d="M44.05 33.04H41.85V35.24H44.05V33.04Z" fill="#3C2833"/>
    <path d="M46.25 33.04H44.05V35.24H46.25V33.04Z" fill="#050403"/>
    <path d="M48.46 33.04H46.26V35.24H48.46V33.04Z" fill="#806666"/>
    <path d="M50.66 33.04H48.46V35.24H50.66V33.04Z" fill="#806666"/>
    <path d="M52.86 33.04H50.66V35.24H52.86V33.04Z" fill="#806666"/>
    <path d="M55.06 33.04H52.86V35.24H55.06V33.04Z" fill="#806666"/>
    <path d="M57.27 33.04H55.07V35.24H57.27V33.04Z" fill="#806666"/>
    <path d="M59.47 33.04H57.27V35.24H59.47V33.04Z" fill="#050403"/>
    <path d="M2.2 35.24H0V37.44H2.2V35.24Z" fill="#050403"/>
    <path d="M4.40001 35.24H2.20001V37.44H4.40001V35.24Z" fill="#806666"/>
    <path d="M6.61 35.24H4.41V37.44H6.61V35.24Z" fill="#806666"/>
    <path d="M8.80999 35.24H6.60999V37.44H8.80999V35.24Z" fill="#806666"/>
    <path d="M11.01 35.24H8.81V37.44H11.01V35.24Z" fill="#806666"/>
    <path d="M13.21 35.24H11.01V37.44H13.21V35.24Z" fill="#806666"/>
    <path d="M15.42 35.24H13.22V37.44H15.42V35.24Z" fill="#050403"/>
    <path d="M17.62 35.24H15.42V37.44H17.62V35.24Z" fill="#050403"/>
    <path d="M19.82 35.24H17.62V37.44H19.82V35.24Z" fill="#050403"/>
    <path d="M22.02 35.24H19.82V37.44H22.02V35.24Z" fill="#050403"/>
    <path d="M24.23 35.24H22.03V37.44H24.23V35.24Z" fill="#050403"/>
    <path d="M26.43 35.24H24.23V37.44H26.43V35.24Z" fill="#CEEF1F"/>
    <path d="M28.63 35.24H26.43V37.44H28.63V35.24Z" fill="#615A21"/>
    <path d="M30.83 35.24H28.63V37.44H30.83V35.24Z" fill="#050403"/>
    <path d="M33.04 35.24H30.84V37.44H33.04V35.24Z" fill="#615A21"/>
    <path d="M35.24 35.24H33.04V37.44H35.24V35.24Z" fill="#CEEF1F"/>
    <path d="M37.44 35.24H35.24V37.44H37.44V35.24Z" fill="#050403"/>
    <path d="M39.64 35.24H37.44V37.44H39.64V35.24Z" fill="#050403"/>
    <path d="M41.85 35.24H39.65V37.44H41.85V35.24Z" fill="#050403"/>
    <path d="M44.05 35.24H41.85V37.44H44.05V35.24Z" fill="#050403"/>
    <path d="M46.25 35.24H44.05V37.44H46.25V35.24Z" fill="#050403"/>
    <path d="M48.46 35.24H46.26V37.44H48.46V35.24Z" fill="#806666"/>
    <path d="M50.66 35.24H48.46V37.44H50.66V35.24Z" fill="#806666"/>
    <path d="M52.86 35.24H50.66V37.44H52.86V35.24Z" fill="#806666"/>
    <path d="M55.06 35.24H52.86V37.44H55.06V35.24Z" fill="#806666"/>
    <path d="M57.27 35.24H55.07V37.44H57.27V35.24Z" fill="#806666"/>
    <path d="M59.47 35.24H57.27V37.44H59.47V35.24Z" fill="#050403"/>
    <path d="M2.2 37.44H0V39.64H2.2V37.44Z" fill="#050403"/>
    <path d="M4.40001 37.44H2.20001V39.64H4.40001V37.44Z" fill="#62464D"/>
    <path d="M6.61 37.44H4.41V39.64H6.61V37.44Z" fill="#62464D"/>
    <path d="M8.80999 37.44H6.60999V39.64H8.80999V37.44Z" fill="#62464D"/>
    <path d="M11.01 37.44H8.81V39.64H11.01V37.44Z" fill="#62464D"/>
    <path d="M13.21 37.44H11.01V39.64H13.21V37.44Z" fill="#62464D"/>
    <path d="M15.42 37.44H13.22V39.64H15.42V37.44Z" fill="#050403"/>
    <path d="M17.62 37.44H15.42V39.64H17.62V37.44Z" fill="#3C2833"/>
    <path d="M19.82 37.44H17.62V39.64H19.82V37.44Z" fill="#3C2833"/>
    <path d="M22.02 37.44H19.82V39.64H22.02V37.44Z" fill="#050403"/>
    <path d="M24.23 37.44H22.03V39.64H24.23V37.44Z" fill="#050403"/>
    <path d="M26.43 37.44H24.23V39.64H26.43V37.44Z" fill="#CEEF1F"/>
    <path d="M28.63 37.44H26.43V39.64H28.63V37.44Z" fill="#CEEF1F"/>
    <path d="M30.83 37.44H28.63V39.64H30.83V37.44Z" fill="#CEEF1F"/>
    <path d="M33.04 37.44H30.84V39.64H33.04V37.44Z" fill="#CEEF1F"/>
    <path d="M35.24 37.44H33.04V39.64H35.24V37.44Z" fill="#CEEF1F"/>
    <path d="M37.44 37.44H35.24V39.64H37.44V37.44Z" fill="#050403"/>
    <path d="M39.64 37.44H37.44V39.64H39.64V37.44Z" fill="#050403"/>
    <path d="M41.85 37.44H39.65V39.64H41.85V37.44Z" fill="#3C2833"/>
    <path d="M44.05 37.44H41.85V39.64H44.05V37.44Z" fill="#3C2833"/>
    <path d="M46.25 37.44H44.05V39.64H46.25V37.44Z" fill="#050403"/>
    <path d="M48.46 37.44H46.26V39.64H48.46V37.44Z" fill="#62464D"/>
    <path d="M50.66 37.44H48.46V39.64H50.66V37.44Z" fill="#62464D"/>
    <path d="M52.86 37.44H50.66V39.64H52.86V37.44Z" fill="#62464D"/>
    <path d="M55.06 37.44H52.86V39.64H55.06V37.44Z" fill="#62464D"/>
    <path d="M57.27 37.44H55.07V39.64H57.27V37.44Z" fill="#62464D"/>
    <path d="M59.47 37.44H57.27V39.64H59.47V37.44Z" fill="#050403"/>
    <path d="M2.2 39.65H0V41.85H2.2V39.65Z" fill="#050403"/>
    <path d="M4.40001 39.65H2.20001V41.85H4.40001V39.65Z" fill="#3C2833"/>
    <path d="M6.61 39.65H4.41V41.85H6.61V39.65Z" fill="#3C2833"/>
    <path d="M8.80999 39.65H6.60999V41.85H8.80999V39.65Z" fill="#3C2833"/>
    <path d="M11.01 39.65H8.81V41.85H11.01V39.65Z" fill="#3C2833"/>
    <path d="M13.21 39.65H11.01V41.85H13.21V39.65Z" fill="#3C2833"/>
    <path d="M15.42 39.65H13.22V41.85H15.42V39.65Z" fill="#050403"/>
    <path d="M17.62 39.65H15.42V41.85H17.62V39.65Z" fill="#050403"/>
    <path d="M19.82 39.65H17.62V41.85H19.82V39.65Z" fill="#3C2833"/>
    <path d="M22.02 39.65H19.82V41.85H22.02V39.65Z" fill="#3C2833"/>
    <path d="M24.23 39.65H22.03V41.85H24.23V39.65Z" fill="#050403"/>
    <path d="M26.43 39.65H24.23V41.85H26.43V39.65Z" fill="#CEEF1F"/>
    <path d="M28.63 39.65H26.43V41.85H28.63V39.65Z" fill="#CEEF1F"/>
    <path d="M30.83 39.65H28.63V41.85H30.83V39.65Z" fill="#CEEF1F"/>
    <path d="M33.04 39.65H30.84V41.85H33.04V39.65Z" fill="#CEEF1F"/>
    <path d="M35.24 39.65H33.04V41.85H35.24V39.65Z" fill="#CEEF1F"/>
    <path d="M37.44 39.65H35.24V41.85H37.44V39.65Z" fill="#050403"/>
    <path d="M39.64 39.65H37.44V41.85H39.64V39.65Z" fill="#3C2833"/>
    <path d="M41.85 39.65H39.65V41.85H41.85V39.65Z" fill="#3C2833"/>
    <path d="M44.05 39.65H41.85V41.85H44.05V39.65Z" fill="#050403"/>
    <path d="M46.25 39.65H44.05V41.85H46.25V39.65Z" fill="#050403"/>
    <path d="M48.46 39.65H46.26V41.85H48.46V39.65Z" fill="#3C2833"/>
    <path d="M50.66 39.65H48.46V41.85H50.66V39.65Z" fill="#3C2833"/>
    <path d="M52.86 39.65H50.66V41.85H52.86V39.65Z" fill="#3C2833"/>
    <path d="M55.06 39.65H52.86V41.85H55.06V39.65Z" fill="#3C2833"/>
    <path d="M57.27 39.65H55.07V41.85H57.27V39.65Z" fill="#3C2833"/>
    <path d="M59.47 39.65H57.27V41.85H59.47V39.65Z" fill="#050403"/>
    <path d="M2.2 41.85H0V44.05H2.2V41.85Z" fill="#050403"/>
    <path d="M4.40001 41.85H2.20001V44.05H4.40001V41.85Z" fill="#3C2833"/>
    <path d="M6.61 41.85H4.41V44.05H6.61V41.85Z" fill="#3C2833"/>
    <path d="M8.80999 41.85H6.60999V44.05H8.80999V41.85Z" fill="#3C2833"/>
    <path d="M11.01 41.85H8.81V44.05H11.01V41.85Z" fill="#3C2833"/>
    <path d="M13.21 41.85H11.01V44.05H13.21V41.85Z" fill="#3C2833"/>
    <path d="M15.42 41.85H13.22V44.05H15.42V41.85Z" fill="#050403"/>
    <path d="M19.82 41.85H17.62V44.05H19.82V41.85Z" fill="#050403"/>
    <path d="M22.02 41.85H19.82V44.05H22.02V41.85Z" fill="#050403"/>
    <path d="M24.23 41.85H22.03V44.05H24.23V41.85Z" fill="#CEEF1F"/>
    <path d="M26.43 41.85H24.23V44.05H26.43V41.85Z" fill="#CEEF1F"/>
    <path d="M28.63 41.85H26.43V44.05H28.63V41.85Z" fill="#2D291B"/>
    <path d="M30.83 41.85H28.63V44.05H30.83V41.85Z" fill="#2D291B"/>
    <path d="M33.04 41.85H30.84V44.05H33.04V41.85Z" fill="#2D291B"/>
    <path d="M35.24 41.85H33.04V44.05H35.24V41.85Z" fill="#CEEF1F"/>
    <path d="M37.44 41.85H35.24V44.05H37.44V41.85Z" fill="#CEEF1F"/>
    <path d="M39.64 41.85H37.44V44.05H39.64V41.85Z" fill="#050403"/>
    <path d="M41.85 41.85H39.65V44.05H41.85V41.85Z" fill="#050403"/>
    <path d="M46.25 41.85H44.05V44.05H46.25V41.85Z" fill="#050403"/>
    <path d="M48.46 41.85H46.26V44.05H48.46V41.85Z" fill="#3C2833"/>
    <path d="M50.66 41.85H48.46V44.05H50.66V41.85Z" fill="#3C2833"/>
    <path d="M52.86 41.85H50.66V44.05H52.86V41.85Z" fill="#3C2833"/>
    <path d="M55.06 41.85H52.86V44.05H55.06V41.85Z" fill="#3C2833"/>
    <path d="M57.27 41.85H55.07V44.05H57.27V41.85Z" fill="#3C2833"/>
    <path d="M59.47 41.85H57.27V44.05H59.47V41.85Z" fill="#050403"/>
    <path d="M4.40001 44.05H2.20001V46.25H4.40001V44.05Z" fill="#050403"/>
    <path d="M6.61 44.05H4.41V46.25H6.61V44.05Z" fill="#050403"/>
    <path d="M8.80999 44.05H6.60999V46.25H8.80999V44.05Z" fill="#050403"/>
    <path d="M11.01 44.05H8.81V46.25H11.01V44.05Z" fill="#050403"/>
    <path d="M13.21 44.05H11.01V46.25H13.21V44.05Z" fill="#050403"/>
    <path d="M19.82 44.05H17.62V46.25H19.82V44.05Z" fill="#050403"/>
    <path d="M22.02 44.05H19.82V46.25H22.02V44.05Z" fill="#050403"/>
    <path d="M24.23 44.05H22.03V46.25H24.23V44.05Z" fill="#CEEF1F"/>
    <path d="M26.43 44.05H24.23V46.25H26.43V44.05Z" fill="#2D291B"/>
    <path d="M28.63 44.05H26.43V46.25H28.63V44.05Z" fill="#615A21"/>
    <path d="M30.83 44.05H28.63V46.25H30.83V44.05Z" fill="#615A21"/>
    <path d="M33.04 44.05H30.84V46.25H33.04V44.05Z" fill="#615A21"/>
    <path d="M35.24 44.05H33.04V46.25H35.24V44.05Z" fill="#2D291B"/>
    <path d="M37.44 44.05H35.24V46.25H37.44V44.05Z" fill="#CEEF1F"/>
    <path d="M39.64 44.05H37.44V46.25H39.64V44.05Z" fill="#050403"/>
    <path d="M41.85 44.05H39.65V46.25H41.85V44.05Z" fill="#050403"/>
    <path d="M48.46 44.05H46.26V46.25H48.46V44.05Z" fill="#050403"/>
    <path d="M50.66 44.05H48.46V46.25H50.66V44.05Z" fill="#050403"/>
    <path d="M52.86 44.05H50.66V46.25H52.86V44.05Z" fill="#050403"/>
    <path d="M55.06 44.05H52.86V46.25H55.06V44.05Z" fill="#050403"/>
    <path d="M57.27 44.05H55.07V46.25H57.27V44.05Z" fill="#050403"/>
    <path d="M19.82 46.26H17.62V48.46H19.82V46.26Z" fill="#050403"/>
    <path d="M22.02 46.26H19.82V48.46H22.02V46.26Z" fill="#CEEF1F"/>
    <path d="M24.23 46.26H22.03V48.46H24.23V46.26Z" fill="#CEEF1F"/>
    <path d="M26.43 46.26H24.23V48.46H26.43V46.26Z" fill="#050403"/>
    <path d="M28.63 46.26H26.43V48.46H28.63V46.26Z" fill="#050403"/>
    <path d="M30.83 46.26H28.63V48.46H30.83V46.26Z" fill="#050403"/>
    <path d="M33.04 46.26H30.84V48.46H33.04V46.26Z" fill="#050403"/>
    <path d="M35.24 46.26H33.04V48.46H35.24V46.26Z" fill="#050403"/>
    <path d="M37.44 46.26H35.24V48.46H37.44V46.26Z" fill="#CEEF1F"/>
    <path d="M39.64 46.26H37.44V48.46H39.64V46.26Z" fill="#CEEF1F"/>
    <path d="M41.85 46.26H39.65V48.46H41.85V46.26Z" fill="#050403"/>
    <path d="M17.62 48.46H15.42V50.66H17.62V48.46Z" fill="#050403"/>
    <path d="M19.82 48.46H17.62V50.66H19.82V48.46Z" fill="#62485B"/>
    <path d="M22.02 48.46H19.82V50.66H22.02V48.46Z" fill="#CEEF1F"/>
    <path d="M24.23 48.46H22.03V50.66H24.23V48.46Z" fill="#2D291B"/>
    <path d="M26.43 48.46H24.23V50.66H26.43V48.46Z" fill="#050403"/>
    <path d="M28.63 48.46H26.43V50.66H28.63V48.46Z" fill="#050403"/>
    <path d="M30.83 48.46H28.63V50.66H30.83V48.46Z" fill="#050403"/>
    <path d="M33.04 48.46H30.84V50.66H33.04V48.46Z" fill="#050403"/>
    <path d="M35.24 48.46H33.04V50.66H35.24V48.46Z" fill="#050403"/>
    <path d="M37.44 48.46H35.24V50.66H37.44V48.46Z" fill="#2D291B"/>
    <path d="M39.64 48.46H37.44V50.66H39.64V48.46Z" fill="#CEEF1F"/>
    <path d="M41.85 48.46H39.65V50.66H41.85V48.46Z" fill="#62485B"/>
    <path d="M44.05 48.46H41.85V50.66H44.05V48.46Z" fill="#050403"/>
    <path d="M11.01 50.66H8.81V52.86H11.01V50.66Z" fill="#050403"/>
    <path d="M13.21 50.66H11.01V52.86H13.21V50.66Z" fill="#050403"/>
    <path d="M15.42 50.66H13.22V52.86H15.42V50.66Z" fill="#050403"/>
    <path d="M17.62 50.66H15.42V52.86H17.62V50.66Z" fill="#62485B"/>
    <path d="M19.82 50.66H17.62V52.86H19.82V50.66Z" fill="#62485B"/>
    <path d="M22.02 50.66H19.82V52.86H22.02V50.66Z" fill="#CEEF1F"/>
    <path d="M24.23 50.66H22.03V52.86H24.23V50.66Z" fill="#050403"/>
    <path d="M26.43 50.66H24.23V52.86H26.43V50.66Z" fill="#050403"/>
    <path d="M28.63 50.66H26.43V52.86H28.63V50.66Z" fill="#050403"/>
    <path d="M30.83 50.66H28.63V52.86H30.83V50.66Z" fill="#050403"/>
    <path d="M33.04 50.66H30.84V52.86H33.04V50.66Z" fill="#050403"/>
    <path d="M35.24 50.66H33.04V52.86H35.24V50.66Z" fill="#050403"/>
    <path d="M37.44 50.66H35.24V52.86H37.44V50.66Z" fill="#050403"/>
    <path d="M39.64 50.66H37.44V52.86H39.64V50.66Z" fill="#CEEF1F"/>
    <path d="M41.85 50.66H39.65V52.86H41.85V50.66Z" fill="#62485B"/>
    <path d="M44.05 50.66H41.85V52.86H44.05V50.66Z" fill="#62485B"/>
    <path d="M46.25 50.66H44.05V52.86H46.25V50.66Z" fill="#050403"/>
    <path d="M48.46 50.66H46.26V52.86H48.46V50.66Z" fill="#050403"/>
    <path d="M50.66 50.66H48.46V52.86H50.66V50.66Z" fill="#050403"/>
    <path d="M8.80999 52.86H6.60999V55.06H8.80999V52.86Z" fill="#050403"/>
    <path d="M11.01 52.86H8.81V55.06H11.01V52.86Z" fill="#62485B"/>
    <path d="M13.21 52.86H11.01V55.06H13.21V52.86Z" fill="#62485B"/>
    <path d="M15.42 52.86H13.22V55.06H15.42V52.86Z" fill="#62485B"/>
    <path d="M17.62 52.86H15.42V55.06H17.62V52.86Z" fill="#CEEF1F"/>
    <path d="M19.82 52.86H17.62V55.06H19.82V52.86Z" fill="#CEEF1F"/>
    <path d="M22.02 52.86H19.82V55.06H22.02V52.86Z" fill="#2D291B"/>
    <path d="M24.23 52.86H22.03V55.06H24.23V52.86Z" fill="#050403"/>
    <path d="M26.43 52.86H24.23V55.06H26.43V52.86Z" fill="#050403"/>
    <path d="M28.63 52.86H26.43V55.06H28.63V52.86Z" fill="#050403"/>
    <path d="M30.83 52.86H28.63V55.06H30.83V52.86Z" fill="#050403"/>
    <path d="M33.04 52.86H30.84V55.06H33.04V52.86Z" fill="#050403"/>
    <path d="M35.24 52.86H33.04V55.06H35.24V52.86Z" fill="#050403"/>
    <path d="M37.44 52.86H35.24V55.06H37.44V52.86Z" fill="#050403"/>
    <path d="M39.64 52.86H37.44V55.06H39.64V52.86Z" fill="#2D291B"/>
    <path d="M41.85 52.86H39.65V55.06H41.85V52.86Z" fill="#CEEF1F"/>
    <path d="M44.05 52.86H41.85V55.06H44.05V52.86Z" fill="#CEEF1F"/>
    <path d="M46.25 52.86H44.05V55.06H46.25V52.86Z" fill="#62485B"/>
    <path d="M48.46 52.86H46.26V55.06H48.46V52.86Z" fill="#62485B"/>
    <path d="M50.66 52.86H48.46V55.06H50.66V52.86Z" fill="#62485B"/>
    <path d="M52.86 52.86H50.66V55.06H52.86V52.86Z" fill="#050403"/>
    <path d="M6.61 55.07H4.41V57.27H6.61V55.07Z" fill="#050403"/>
    <path d="M8.80999 55.07H6.60999V57.27H8.80999V55.07Z" fill="#62485B"/>
    <path d="M11.01 55.07H8.81V57.27H11.01V55.07Z" fill="#CEEF1F"/>
    <path d="M13.21 55.07H11.01V57.27H13.21V55.07Z" fill="#CEEF1F"/>
    <path d="M15.42 55.07H13.22V57.27H15.42V55.07Z" fill="#CEEF1F"/>
    <path d="M17.62 55.07H15.42V57.27H17.62V55.07Z" fill="#050403"/>
    <path d="M19.82 55.07H17.62V57.27H19.82V55.07Z" fill="#CEEF1F"/>
    <path d="M22.02 55.07H19.82V57.27H22.02V55.07Z" fill="#2D291B"/>
    <path d="M24.23 55.07H22.03V57.27H24.23V55.07Z" fill="#CEEF1F"/>
    <path d="M26.43 55.07H24.23V57.27H26.43V55.07Z" fill="#050403"/>
    <path d="M28.63 55.07H26.43V57.27H28.63V55.07Z" fill="#050403"/>
    <path d="M30.83 55.07H28.63V57.27H30.83V55.07Z" fill="#050403"/>
    <path d="M33.04 55.07H30.84V57.27H33.04V55.07Z" fill="#050403"/>
    <path d="M35.24 55.07H33.04V57.27H35.24V55.07Z" fill="#050403"/>
    <path d="M37.44 55.07H35.24V57.27H37.44V55.07Z" fill="#CEEF1F"/>
    <path d="M39.64 55.07H37.44V57.27H39.64V55.07Z" fill="#2D291B"/>
    <path d="M41.85 55.07H39.65V57.27H41.85V55.07Z" fill="#CEEF1F"/>
    <path d="M44.05 55.07H41.85V57.27H44.05V55.07Z" fill="#050403"/>
    <path d="M46.25 55.07H44.05V57.27H46.25V55.07Z" fill="#CEEF1F"/>
    <path d="M48.46 55.07H46.26V57.27H48.46V55.07Z" fill="#CEEF1F"/>
    <path d="M50.66 55.07H48.46V57.27H50.66V55.07Z" fill="#CEEF1F"/>
    <path d="M52.86 55.07H50.66V57.27H52.86V55.07Z" fill="#62485B"/>
    <path d="M55.06 55.07H52.86V57.27H55.06V55.07Z" fill="#050403"/>
    <path d="M6.61 57.27H4.41V59.47H6.61V57.27Z" fill="#050403"/>
    <path d="M8.80999 57.27H6.60999V59.47H8.80999V57.27Z" fill="#B7B71D"/>
    <path d="M11.01 57.27H8.81V59.47H11.01V57.27Z" fill="#CEEF1F"/>
    <path d="M13.21 57.27H11.01V59.47H13.21V57.27Z" fill="#CEEF1F"/>
    <path d="M15.42 57.27H13.22V59.47H15.42V57.27Z" fill="#CEEF1F"/>
    <path d="M17.62 57.27H15.42V59.47H17.62V57.27Z" fill="#CEEF1F"/>
    <path d="M19.82 57.27H17.62V59.47H19.82V57.27Z" fill="#CEEF1F"/>
    <path d="M22.02 57.27H19.82V59.47H22.02V57.27Z" fill="#2D291B"/>
    <path d="M24.23 57.27H22.03V59.47H24.23V57.27Z" fill="#CEEF1F"/>
    <path d="M26.43 57.27H24.23V59.47H26.43V57.27Z" fill="#050403"/>
    <path d="M28.63 57.27H26.43V59.47H28.63V57.27Z" fill="#050403"/>
    <path d="M30.83 57.27H28.63V59.47H30.83V57.27Z" fill="#050403"/>
    <path d="M33.04 57.27H30.84V59.47H33.04V57.27Z" fill="#050403"/>
    <path d="M35.24 57.27H33.04V59.47H35.24V57.27Z" fill="#050403"/>
    <path d="M37.44 57.27H35.24V59.47H37.44V57.27Z" fill="#CEEF1F"/>
    <path d="M39.64 57.27H37.44V59.47H39.64V57.27Z" fill="#2D291B"/>
    <path d="M41.85 57.27H39.65V59.47H41.85V57.27Z" fill="#CEEF1F"/>
    <path d="M44.05 57.27H41.85V59.47H44.05V57.27Z" fill="#CEEF1F"/>
    <path d="M46.25 57.27H44.05V59.47H46.25V57.27Z" fill="#CEEF1F"/>
    <path d="M48.46 57.27H46.26V59.47H48.46V57.27Z" fill="#CEEF1F"/>
    <path d="M50.66 57.27H48.46V59.47H50.66V57.27Z" fill="#CEEF1F"/>
    <path d="M52.86 57.27H50.66V59.47H52.86V57.27Z" fill="#B7B71D"/>
    <path d="M55.06 57.27H52.86V59.47H55.06V57.27Z" fill="#050403"/>
    <path d="M6.61 59.47H4.41V61.67H6.61V59.47Z" fill="#050403"/>
    <path d="M8.80999 59.47H6.60999V61.67H8.80999V59.47Z" fill="#B7B71D"/>
    <path d="M11.01 59.47H8.81V61.67H11.01V59.47Z" fill="#CEEF1F"/>
    <path d="M13.21 59.47H11.01V61.67H13.21V59.47Z" fill="#CEEF1F"/>
    <path d="M15.42 59.47H13.22V61.67H15.42V59.47Z" fill="#CEEF1F"/>
    <path d="M17.62 59.47H15.42V61.67H17.62V59.47Z" fill="#050403"/>
    <path d="M19.82 59.47H17.62V61.67H19.82V59.47Z" fill="#CEEF1F"/>
    <path d="M22.02 59.47H19.82V61.67H22.02V59.47Z" fill="#2D291B"/>
    <path d="M24.23 59.47H22.03V61.67H24.23V59.47Z" fill="#CEEF1F"/>
    <path d="M26.43 59.47H24.23V61.67H26.43V59.47Z" fill="#050403"/>
    <path d="M28.63 59.47H26.43V61.67H28.63V59.47Z" fill="#050403"/>
    <path d="M30.83 59.47H28.63V61.67H30.83V59.47Z" fill="#050403"/>
    <path d="M33.04 59.47H30.84V61.67H33.04V59.47Z" fill="#050403"/>
    <path d="M35.24 59.47H33.04V61.67H35.24V59.47Z" fill="#050403"/>
    <path d="M37.44 59.47H35.24V61.67H37.44V59.47Z" fill="#CEEF1F"/>
    <path d="M39.64 59.47H37.44V61.67H39.64V59.47Z" fill="#2D291B"/>
    <path d="M41.85 59.47H39.65V61.67H41.85V59.47Z" fill="#CEEF1F"/>
    <path d="M44.05 59.47H41.85V61.67H44.05V59.47Z" fill="#050403"/>
    <path d="M46.25 59.47H44.05V61.67H46.25V59.47Z" fill="#CEEF1F"/>
    <path d="M48.46 59.47H46.26V61.67H48.46V59.47Z" fill="#CEEF1F"/>
    <path d="M50.66 59.47H48.46V61.67H50.66V59.47Z" fill="#CEEF1F"/>
    <path d="M52.86 59.47H50.66V61.67H52.86V59.47Z" fill="#B7B71D"/>
    <path d="M55.06 59.47H52.86V61.67H55.06V59.47Z" fill="#050403"/>
    <path d="M6.61 61.67H4.41V63.87H6.61V61.67Z" fill="#050403"/>
    <path d="M8.80999 61.67H6.60999V63.87H8.80999V61.67Z" fill="#B7B71D"/>
    <path d="M11.01 61.67H8.81V63.87H11.01V61.67Z" fill="#CEEF1F"/>
    <path d="M13.21 61.67H11.01V63.87H13.21V61.67Z" fill="#CEEF1F"/>
    <path d="M15.42 61.67H13.22V63.87H15.42V61.67Z" fill="#CEEF1F"/>
    <path d="M17.62 61.67H15.42V63.87H17.62V61.67Z" fill="#CEEF1F"/>
    <path d="M19.82 61.67H17.62V63.87H19.82V61.67Z" fill="#CEEF1F"/>
    <path d="M22.02 61.67H19.82V63.87H22.02V61.67Z" fill="#2D291B"/>
    <path d="M24.23 61.67H22.03V63.87H24.23V61.67Z" fill="#CEEF1F"/>
    <path d="M26.43 61.67H24.23V63.87H26.43V61.67Z" fill="#050403"/>
    <path d="M28.63 61.67H26.43V63.87H28.63V61.67Z" fill="#050403"/>
    <path d="M30.83 61.67H28.63V63.87H30.83V61.67Z" fill="#050403"/>
    <path d="M33.04 61.67H30.84V63.87H33.04V61.67Z" fill="#050403"/>
    <path d="M35.24 61.67H33.04V63.87H35.24V61.67Z" fill="#050403"/>
    <path d="M37.44 61.67H35.24V63.87H37.44V61.67Z" fill="#CEEF1F"/>
    <path d="M39.64 61.67H37.44V63.87H39.64V61.67Z" fill="#2D291B"/>
    <path d="M41.85 61.67H39.65V63.87H41.85V61.67Z" fill="#CEEF1F"/>
    <path d="M44.05 61.67H41.85V63.87H44.05V61.67Z" fill="#CEEF1F"/>
    <path d="M46.25 61.67H44.05V63.87H46.25V61.67Z" fill="#CEEF1F"/>
    <path d="M48.46 61.67H46.26V63.87H48.46V61.67Z" fill="#CEEF1F"/>
    <path d="M50.66 61.67H48.46V63.87H50.66V61.67Z" fill="#CEEF1F"/>
    <path d="M52.86 61.67H50.66V63.87H52.86V61.67Z" fill="#B7B71D"/>
    <path d="M55.06 61.67H52.86V63.87H55.06V61.67Z" fill="#050403"/>
    <path d="M6.61 63.88H4.41V66.08H6.61V63.88Z" fill="#050403"/>
    <path d="M8.80999 63.88H6.60999V66.08H8.80999V63.88Z" fill="#27FFAE"/>
    <path d="M11.01 63.88H8.81V66.08H11.01V63.88Z" fill="#27FFAE"/>
    <path d="M13.21 63.88H11.01V66.08H13.21V63.88Z" fill="#CEEF1F"/>
    <path d="M15.42 63.88H13.22V66.08H15.42V63.88Z" fill="#CEEF1F"/>
    <path d="M17.62 63.88H15.42V66.08H17.62V63.88Z" fill="#050403"/>
    <path d="M19.82 63.88H17.62V66.08H19.82V63.88Z" fill="#CEEF1F"/>
    <path d="M22.02 63.88H19.82V66.08H22.02V63.88Z" fill="#2D291B"/>
    <path d="M24.23 63.88H22.03V66.08H24.23V63.88Z" fill="#CEEF1F"/>
    <path d="M26.43 63.88H24.23V66.08H26.43V63.88Z" fill="#CEEF1F"/>
    <path d="M28.63 63.88H26.43V66.08H28.63V63.88Z" fill="#050403"/>
    <path d="M30.83 63.88H28.63V66.08H30.83V63.88Z" fill="#050403"/>
    <path d="M33.04 63.88H30.84V66.08H33.04V63.88Z" fill="#050403"/>
    <path d="M35.24 63.88H33.04V66.08H35.24V63.88Z" fill="#CEEF1F"/>
    <path d="M37.44 63.88H35.24V66.08H37.44V63.88Z" fill="#CEEF1F"/>
    <path d="M39.64 63.88H37.44V66.08H39.64V63.88Z" fill="#2D291B"/>
    <path d="M41.85 63.88H39.65V66.08H41.85V63.88Z" fill="#CEEF1F"/>
    <path d="M44.05 63.88H41.85V66.08H44.05V63.88Z" fill="#050403"/>
    <path d="M46.25 63.88H44.05V66.08H46.25V63.88Z" fill="#CEEF1F"/>
    <path d="M48.46 63.88H46.26V66.08H48.46V63.88Z" fill="#CEEF1F"/>
    <path d="M50.66 63.88H48.46V66.08H50.66V63.88Z" fill="#27FFAE"/>
    <path d="M52.86 63.88H50.66V66.08H52.86V63.88Z" fill="#27FFAE"/>
    <path d="M55.06 63.88H52.86V66.08H55.06V63.88Z" fill="#050403"/>
    <path d="M6.61 66.08H4.41V68.28H6.61V66.08Z" fill="#050403"/>
    <path d="M8.80999 66.08H6.60999V68.28H8.80999V66.08Z" fill="#27FFAE"/>
    <path d="M11.01 66.08H8.81V68.28H11.01V66.08Z" fill="#27FFAE"/>
    <path d="M13.21 66.08H11.01V68.28H13.21V66.08Z" fill="#27FFAE"/>
    <path d="M15.42 66.08H13.22V68.28H15.42V66.08Z" fill="#CEEF1F"/>
    <path d="M17.62 66.08H15.42V68.28H17.62V66.08Z" fill="#CEEF1F"/>
    <path d="M19.82 66.08H17.62V68.28H19.82V66.08Z" fill="#CEEF1F"/>
    <path d="M22.02 66.08H19.82V68.28H22.02V66.08Z" fill="#2D291B"/>
    <path d="M24.23 66.08H22.03V68.28H24.23V66.08Z" fill="#CEEF1F"/>
    <path d="M26.43 66.08H24.23V68.28H26.43V66.08Z" fill="#CEEF1F"/>
    <path d="M28.63 66.08H26.43V68.28H28.63V66.08Z" fill="#CEEF1F"/>
    <path d="M30.83 66.08H28.63V68.28H30.83V66.08Z" fill="#CEEF1F"/>
    <path d="M33.04 66.08H30.84V68.28H33.04V66.08Z" fill="#CEEF1F"/>
    <path d="M35.24 66.08H33.04V68.28H35.24V66.08Z" fill="#CEEF1F"/>
    <path d="M37.44 66.08H35.24V68.28H37.44V66.08Z" fill="#CEEF1F"/>
    <path d="M39.64 66.08H37.44V68.28H39.64V66.08Z" fill="#2D291B"/>
    <path d="M41.85 66.08H39.65V68.28H41.85V66.08Z" fill="#CEEF1F"/>
    <path d="M44.05 66.08H41.85V68.28H44.05V66.08Z" fill="#CEEF1F"/>
    <path d="M46.25 66.08H44.05V68.28H46.25V66.08Z" fill="#CEEF1F"/>
    <path d="M48.46 66.08H46.26V68.28H48.46V66.08Z" fill="#27FFAE"/>
    <path d="M50.66 66.08H48.46V68.28H50.66V66.08Z" fill="#27FFAE"/>
    <path d="M52.86 66.08H50.66V68.28H52.86V66.08Z" fill="#27FFAE"/>
    <path d="M55.06 66.08H52.86V68.28H55.06V66.08Z" fill="#050403"/>
    <path d="M6.61 68.28H4.41V70.48H6.61V68.28Z" fill="#050403"/>
    <path d="M8.80999 68.28H6.60999V70.48H8.80999V68.28Z" fill="#B7B71D"/>
    <path d="M11.01 68.28H8.81V70.48H11.01V68.28Z" fill="#27FFAE"/>
    <path d="M13.21 68.28H11.01V70.48H13.21V68.28Z" fill="#27FFAE"/>
    <path d="M15.42 68.28H13.22V70.48H15.42V68.28Z" fill="#CEEF1F"/>
    <path d="M17.62 68.28H15.42V70.48H17.62V68.28Z" fill="#CEEF1F"/>
    <path d="M19.82 68.28H17.62V70.48H19.82V68.28Z" fill="#CEEF1F"/>
    <path d="M22.02 68.28H19.82V70.48H22.02V68.28Z" fill="#2D291B"/>
    <path d="M24.23 68.28H22.03V70.48H24.23V68.28Z" fill="#CEEF1F"/>
    <path d="M26.43 68.28H24.23V70.48H26.43V68.28Z" fill="#CEEF1F"/>
    <path d="M28.63 68.28H26.43V70.48H28.63V68.28Z" fill="#2D291B"/>
    <path d="M30.83 68.28H28.63V70.48H30.83V68.28Z" fill="#2D291B"/>
    <path d="M33.04 68.28H30.84V70.48H33.04V68.28Z" fill="#2D291B"/>
    <path d="M35.24 68.28H33.04V70.48H35.24V68.28Z" fill="#CEEF1F"/>
    <path d="M37.44 68.28H35.24V70.48H37.44V68.28Z" fill="#CEEF1F"/>
    <path d="M39.64 68.28H37.44V70.48H39.64V68.28Z" fill="#2D291B"/>
    <path d="M41.85 68.28H39.65V70.48H41.85V68.28Z" fill="#CEEF1F"/>
    <path d="M44.05 68.28H41.85V70.48H44.05V68.28Z" fill="#CEEF1F"/>
    <path d="M46.25 68.28H44.05V70.48H46.25V68.28Z" fill="#CEEF1F"/>
    <path d="M48.46 68.28H46.26V70.48H48.46V68.28Z" fill="#27FFAE"/>
    <path d="M50.66 68.28H48.46V70.48H50.66V68.28Z" fill="#27FFAE"/>
    <path d="M52.86 68.28H50.66V70.48H52.86V68.28Z" fill="#B7B71D"/>
    <path d="M55.06 68.28H52.86V70.48H55.06V68.28Z" fill="#050403"/>
    <path d="M6.61 70.48H4.41V72.68H6.61V70.48Z" fill="#050403"/>
    <path d="M8.80999 70.48H6.60999V72.68H8.80999V70.48Z" fill="#050403"/>
    <path d="M11.01 70.48H8.81V72.68H11.01V70.48Z" fill="#B7B71D"/>
    <path d="M13.21 70.48H11.01V72.68H13.21V70.48Z" fill="#27FFAE"/>
    <path d="M15.42 70.48H13.22V72.68H15.42V70.48Z" fill="#CEEF1F"/>
    <path d="M17.62 70.48H15.42V72.68H17.62V70.48Z" fill="#CEEF1F"/>
    <path d="M19.82 70.48H17.62V72.68H19.82V70.48Z" fill="#CEEF1F"/>
    <path d="M22.02 70.48H19.82V72.68H22.02V70.48Z" fill="#2D291B"/>
    <path d="M24.23 70.48H22.03V72.68H24.23V70.48Z" fill="#CEEF1F"/>
    <path d="M26.43 70.48H24.23V72.68H26.43V70.48Z" fill="#CEEF1F"/>
    <path d="M28.63 70.48H26.43V72.68H28.63V70.48Z" fill="#2D291B"/>
    <path d="M30.83 70.48H28.63V72.68H30.83V70.48Z" fill="#CEEF1F"/>
    <path d="M33.04 70.48H30.84V72.68H33.04V70.48Z" fill="#2D291B"/>
    <path d="M35.24 70.48H33.04V72.68H35.24V70.48Z" fill="#CEEF1F"/>
    <path d="M37.44 70.48H35.24V72.68H37.44V70.48Z" fill="#CEEF1F"/>
    <path d="M39.64 70.48H37.44V72.68H39.64V70.48Z" fill="#2D291B"/>
    <path d="M41.85 70.48H39.65V72.68H41.85V70.48Z" fill="#CEEF1F"/>
    <path d="M44.05 70.48H41.85V72.68H44.05V70.48Z" fill="#CEEF1F"/>
    <path d="M46.25 70.48H44.05V72.68H46.25V70.48Z" fill="#CEEF1F"/>
    <path d="M48.46 70.48H46.26V72.68H48.46V70.48Z" fill="#27FFAE"/>
    <path d="M50.66 70.48H48.46V72.68H50.66V70.48Z" fill="#B7B71D"/>
    <path d="M52.86 70.48H50.66V72.68H52.86V70.48Z" fill="#050403"/>
    <path d="M55.06 70.48H52.86V72.68H55.06V70.48Z" fill="#050403"/>
    <path d="M6.61 72.69H4.41V74.89H6.61V72.69Z" fill="#050403"/>
    <path d="M8.80999 72.69H6.60999V74.89H8.80999V72.69Z" fill="#62485B"/>
    <path d="M11.01 72.69H8.81V74.89H11.01V72.69Z" fill="#050403"/>
    <path d="M13.21 72.69H11.01V74.89H13.21V72.69Z" fill="#B7B71D"/>
    <path d="M15.42 72.69H13.22V74.89H15.42V72.69Z" fill="#050403"/>
    <path d="M17.62 72.69H15.42V74.89H17.62V72.69Z" fill="#CEEF1F"/>
    <path d="M19.82 72.69H17.62V74.89H19.82V72.69Z" fill="#CEEF1F"/>
    <path d="M22.02 72.69H19.82V74.89H22.02V72.69Z" fill="#2D291B"/>
    <path d="M24.23 72.69H22.03V74.89H24.23V72.69Z" fill="#CEEF1F"/>
    <path d="M26.43 72.69H24.23V74.89H26.43V72.69Z" fill="#2D291B"/>
    <path d="M28.63 72.69H26.43V74.89H28.63V72.69Z" fill="#CEEF1F"/>
    <path d="M30.83 72.69H28.63V74.89H30.83V72.69Z" fill="#CEEF1F"/>
    <path d="M33.04 72.69H30.84V74.89H33.04V72.69Z" fill="#CEEF1F"/>
    <path d="M35.24 72.69H33.04V74.89H35.24V72.69Z" fill="#2D291B"/>
    <path d="M37.44 72.69H35.24V74.89H37.44V72.69Z" fill="#CEEF1F"/>
    <path d="M39.64 72.69H37.44V74.89H39.64V72.69Z" fill="#2D291B"/>
    <path d="M41.85 72.69H39.65V74.89H41.85V72.69Z" fill="#CEEF1F"/>
    <path d="M44.05 72.69H41.85V74.89H44.05V72.69Z" fill="#CEEF1F"/>
    <path d="M46.25 72.69H44.05V74.89H46.25V72.69Z" fill="#050403"/>
    <path d="M48.46 72.69H46.26V74.89H48.46V72.69Z" fill="#B7B71D"/>
    <path d="M50.66 72.69H48.46V74.89H50.66V72.69Z" fill="#050403"/>
    <path d="M52.86 72.69H50.66V74.89H52.86V72.69Z" fill="#62485B"/>
    <path d="M55.06 72.69H52.86V74.89H55.06V72.69Z" fill="#050403"/>
    <path d="M6.61 74.89H4.41V77.09H6.61V74.89Z" fill="#050403"/>
    <path d="M8.80999 74.89H6.60999V77.09H8.80999V74.89Z" fill="#62485B"/>
    <path d="M11.01 74.89H8.81V77.09H11.01V74.89Z" fill="#62485B"/>
    <path d="M13.21 74.89H11.01V77.09H13.21V74.89Z" fill="#050403"/>
    <path d="M15.42 74.89H13.22V77.09H15.42V74.89Z" fill="#B7B71D"/>
    <path d="M17.62 74.89H15.42V77.09H17.62V74.89Z" fill="#050403"/>
    <path d="M19.82 74.89H17.62V77.09H19.82V74.89Z" fill="#CEEF1F"/>
    <path d="M22.02 74.89H19.82V77.09H22.02V74.89Z" fill="#B7B71D"/>
    <path d="M24.23 74.89H22.03V77.09H24.23V74.89Z" fill="#CEEF1F"/>
    <path d="M26.43 74.89H24.23V77.09H26.43V74.89Z" fill="#2D291B"/>
    <path d="M28.63 74.89H26.43V77.09H28.63V74.89Z" fill="#CEEF1F"/>
    <path d="M30.83 74.89H28.63V77.09H30.83V74.89Z" fill="#CEEF1F"/>
    <path d="M33.04 74.89H30.84V77.09H33.04V74.89Z" fill="#CEEF1F"/>
    <path d="M35.24 74.89H33.04V77.09H35.24V74.89Z" fill="#2D291B"/>
    <path d="M37.44 74.89H35.24V77.09H37.44V74.89Z" fill="#CEEF1F"/>
    <path d="M39.64 74.89H37.44V77.09H39.64V74.89Z" fill="#B7B71D"/>
    <path d="M41.85 74.89H39.65V77.09H41.85V74.89Z" fill="#CEEF1F"/>
    <path d="M44.05 74.89H41.85V77.09H44.05V74.89Z" fill="#050403"/>
    <path d="M46.25 74.89H44.05V77.09H46.25V74.89Z" fill="#B7B71D"/>
    <path d="M48.46 74.89H46.26V77.09H48.46V74.89Z" fill="#050403"/>
    <path d="M50.66 74.89H48.46V77.09H50.66V74.89Z" fill="#62485B"/>
    <path d="M52.86 74.89H50.66V77.09H52.86V74.89Z" fill="#62485B"/>
    <path d="M55.06 74.89H52.86V77.09H55.06V74.89Z" fill="#050403"/>
    <path d="M8.80999 77.09H6.60999V79.29H8.80999V77.09Z" fill="#050403"/>
    <path d="M11.01 77.09H8.81V79.29H11.01V77.09Z" fill="#62485B"/>
    <path d="M13.21 77.09H11.01V79.29H13.21V77.09Z" fill="#62485B"/>
    <path d="M15.42 77.09H13.22V79.29H15.42V77.09Z" fill="#B7B71D"/>
    <path d="M17.62 77.09H15.42V79.29H17.62V77.09Z" fill="#050403"/>
    <path d="M19.82 77.09H17.62V79.29H19.82V77.09Z" fill="#CEEF1F"/>
    <path d="M22.02 77.09H19.82V79.29H22.02V77.09Z" fill="#B7B71D"/>
    <path d="M24.23 77.09H22.03V79.29H24.23V77.09Z" fill="#CEEF1F"/>
    <path d="M26.43 77.09H24.23V79.29H26.43V77.09Z" fill="#2D291B"/>
    <path d="M28.63 77.09H26.43V79.29H28.63V77.09Z" fill="#CEEF1F"/>
    <path d="M30.83 77.09H28.63V79.29H30.83V77.09Z" fill="#CEEF1F"/>
    <path d="M33.04 77.09H30.84V79.29H33.04V77.09Z" fill="#CEEF1F"/>
    <path d="M35.24 77.09H33.04V79.29H35.24V77.09Z" fill="#2D291B"/>
    <path d="M37.44 77.09H35.24V79.29H37.44V77.09Z" fill="#CEEF1F"/>
    <path d="M39.64 77.09H37.44V79.29H39.64V77.09Z" fill="#B7B71D"/>
    <path d="M41.85 77.09H39.65V79.29H41.85V77.09Z" fill="#CEEF1F"/>
    <path d="M44.05 77.09H41.85V79.29H44.05V77.09Z" fill="#050403"/>
    <path d="M46.25 77.09H44.05V79.29H46.25V77.09Z" fill="#B7B71D"/>
    <path d="M48.46 77.09H46.26V79.29H48.46V77.09Z" fill="#62485B"/>
    <path d="M50.66 77.09H48.46V79.29H50.66V77.09Z" fill="#62485B"/>
    <path d="M52.86 77.09H50.66V79.29H52.86V77.09Z" fill="#050403"/>
    <path d="M11.01 79.29H8.81V81.49H11.01V79.29Z" fill="#050403"/>
    <path d="M13.21 79.29H11.01V81.49H13.21V79.29Z" fill="#62485B"/>
    <path d="M15.42 79.29H13.22V81.49H15.42V79.29Z" fill="#050403"/>
    <path d="M17.62 79.29H15.42V81.49H17.62V79.29Z" fill="#050403"/>
    <path d="M19.82 79.29H17.62V81.49H19.82V79.29Z" fill="#B7B71D"/>
    <path d="M22.02 79.29H19.82V81.49H22.02V79.29Z" fill="#B7B71D"/>
    <path d="M24.23 79.29H22.03V81.49H24.23V79.29Z" fill="#CEEF1F"/>
    <path d="M26.43 79.29H24.23V81.49H26.43V79.29Z" fill="#2D291B"/>
    <path d="M28.63 79.29H26.43V81.49H28.63V79.29Z" fill="#CEEF1F"/>
    <path d="M30.83 79.29H28.63V81.49H30.83V79.29Z" fill="#CEEF1F"/>
    <path d="M33.04 79.29H30.84V81.49H33.04V79.29Z" fill="#CEEF1F"/>
    <path d="M35.24 79.29H33.04V81.49H35.24V79.29Z" fill="#2D291B"/>
    <path d="M37.44 79.29H35.24V81.49H37.44V79.29Z" fill="#CEEF1F"/>
    <path d="M39.64 79.29H37.44V81.49H39.64V79.29Z" fill="#B7B71D"/>
    <path d="M41.85 79.29H39.65V81.49H41.85V79.29Z" fill="#B7B71D"/>
    <path d="M44.05 79.29H41.85V81.49H44.05V79.29Z" fill="#050403"/>
    <path d="M46.25 79.29H44.05V81.49H46.25V79.29Z" fill="#050403"/>
    <path d="M48.46 79.29H46.26V81.49H48.46V79.29Z" fill="#62485B"/>
    <path d="M50.66 79.29H48.46V81.49H50.66V79.29Z" fill="#050403"/>
    <path d="M13.21 81.5H11.01V83.7H13.21V81.5Z" fill="#050403"/>
    <path d="M15.42 81.5H13.22V83.7H15.42V81.5Z" fill="#62485B"/>
    <path d="M17.62 81.5H15.42V83.7H17.62V81.5Z" fill="#050403"/>
    <path d="M19.82 81.5H17.62V83.7H19.82V81.5Z" fill="#B7B71D"/>
    <path d="M22.02 81.5H19.82V83.7H22.02V81.5Z" fill="#B7B71D"/>
    <path d="M24.23 81.5H22.03V83.7H24.23V81.5Z" fill="#CEEF1F"/>
    <path d="M26.43 81.5H24.23V83.7H26.43V81.5Z" fill="#CEEF1F"/>
    <path d="M28.63 81.5H26.43V83.7H28.63V81.5Z" fill="#2D291B"/>
    <path d="M30.83 81.5H28.63V83.7H30.83V81.5Z" fill="#CEEF1F"/>
    <path d="M33.04 81.5H30.84V83.7H33.04V81.5Z" fill="#2D291B"/>
    <path d="M35.24 81.5H33.04V83.7H35.24V81.5Z" fill="#CEEF1F"/>
    <path d="M37.44 81.5H35.24V83.7H37.44V81.5Z" fill="#CEEF1F"/>
    <path d="M39.64 81.5H37.44V83.7H39.64V81.5Z" fill="#B7B71D"/>
    <path d="M41.85 81.5H39.65V83.7H41.85V81.5Z" fill="#B7B71D"/>
    <path d="M44.05 81.5H41.85V83.7H44.05V81.5Z" fill="#050403"/>
    <path d="M46.25 81.5H44.05V83.7H46.25V81.5Z" fill="#62485B"/>
    <path d="M48.46 81.5H46.26V83.7H48.46V81.5Z" fill="#050403"/>
    <path d="M15.42 83.7H13.22V85.9H15.42V83.7Z" fill="#050403"/>
    <path d="M17.62 83.7H15.42V85.9H17.62V83.7Z" fill="#050403"/>
    <path d="M19.82 83.7H17.62V85.9H19.82V83.7Z" fill="#B7B71D"/>
    <path d="M22.02 83.7H19.82V85.9H22.02V83.7Z" fill="#B7B71D"/>
    <path d="M24.23 83.7H22.03V85.9H24.23V83.7Z" fill="#CEEF1F"/>
    <path d="M26.43 83.7H24.23V85.9H26.43V83.7Z" fill="#CEEF1F"/>
    <path d="M28.63 83.7H26.43V85.9H28.63V83.7Z" fill="#2D291B"/>
    <path d="M30.83 83.7H28.63V85.9H30.83V83.7Z" fill="#CEEF1F"/>
    <path d="M33.04 83.7H30.84V85.9H33.04V83.7Z" fill="#2D291B"/>
    <path d="M35.24 83.7H33.04V85.9H35.24V83.7Z" fill="#CEEF1F"/>
    <path d="M37.44 83.7H35.24V85.9H37.44V83.7Z" fill="#CEEF1F"/>
    <path d="M39.64 83.7H37.44V85.9H39.64V83.7Z" fill="#B7B71D"/>
    <path d="M41.85 83.7H39.65V85.9H41.85V83.7Z" fill="#B7B71D"/>
    <path d="M44.05 83.7H41.85V85.9H44.05V83.7Z" fill="#050403"/>
    <path d="M46.25 83.7H44.05V85.9H46.25V83.7Z" fill="#050403"/>
    <path d="M6.61 85.9H4.41V88.1H6.61V85.9Z" fill="#050403"/>
    <path d="M8.80999 85.9H6.60999V88.1H8.80999V85.9Z" fill="#050403"/>
    <path d="M11.01 85.9H8.81V88.1H11.01V85.9Z" fill="#050403"/>
    <path d="M13.21 85.9H11.01V88.1H13.21V85.9Z" fill="#050403"/>
    <path d="M15.42 85.9H13.22V88.1H15.42V85.9Z" fill="#050403"/>
    <path d="M17.62 85.9H15.42V88.1H17.62V85.9Z" fill="#050403"/>
    <path d="M19.82 85.9H17.62V88.1H19.82V85.9Z" fill="#B7B71D"/>
    <path d="M22.02 85.9H19.82V88.1H22.02V85.9Z" fill="#B7B71D"/>
    <path d="M24.23 85.9H22.03V88.1H24.23V85.9Z" fill="#CEEF1F"/>
    <path d="M26.43 85.9H24.23V88.1H26.43V85.9Z" fill="#CEEF1F"/>
    <path d="M28.63 85.9H26.43V88.1H28.63V85.9Z" fill="#2D291B"/>
    <path d="M30.83 85.9H28.63V88.1H30.83V85.9Z" fill="#CEEF1F"/>
    <path d="M33.04 85.9H30.84V88.1H33.04V85.9Z" fill="#2D291B"/>
    <path d="M35.24 85.9H33.04V88.1H35.24V85.9Z" fill="#CEEF1F"/>
    <path d="M37.44 85.9H35.24V88.1H37.44V85.9Z" fill="#CEEF1F"/>
    <path d="M39.64 85.9H37.44V88.1H39.64V85.9Z" fill="#B7B71D"/>
    <path d="M41.85 85.9H39.65V88.1H41.85V85.9Z" fill="#B7B71D"/>
    <path d="M44.05 85.9H41.85V88.1H44.05V85.9Z" fill="#050403"/>
    <path d="M46.25 85.9H44.05V88.1H46.25V85.9Z" fill="#050403"/>
    <path d="M48.46 85.9H46.26V88.1H48.46V85.9Z" fill="#050403"/>
    <path d="M50.66 85.9H48.46V88.1H50.66V85.9Z" fill="#050403"/>
    <path d="M52.86 85.9H50.66V88.1H52.86V85.9Z" fill="#050403"/>
    <path d="M55.06 85.9H52.86V88.1H55.06V85.9Z" fill="#050403"/>
    <path d="M4.40001 88.11H2.20001V90.31H4.40001V88.11Z" fill="#050403"/>
    <path d="M6.61 88.11H4.41V90.31H6.61V88.11Z" fill="#3C2833"/>
    <path d="M8.80999 88.11H6.60999V90.31H8.80999V88.11Z" fill="#3C2833"/>
    <path d="M11.01 88.11H8.81V90.31H11.01V88.11Z" fill="#3C2833"/>
    <path d="M13.21 88.11H11.01V90.31H13.21V88.11Z" fill="#050403"/>
    <path d="M15.42 88.11H13.22V90.31H15.42V88.11Z" fill="#050403"/>
    <path d="M17.62 88.11H15.42V90.31H17.62V88.11Z" fill="#050403"/>
    <path d="M19.82 88.11H17.62V90.31H19.82V88.11Z" fill="#050403"/>
    <path d="M22.02 88.11H19.82V90.31H22.02V88.11Z" fill="#B7B71D"/>
    <path d="M24.23 88.11H22.03V90.31H24.23V88.11Z" fill="#B7B71D"/>
    <path d="M26.43 88.11H24.23V90.31H26.43V88.11Z" fill="#CEEF1F"/>
    <path d="M28.63 88.11H26.43V90.31H28.63V88.11Z" fill="#2D291B"/>
    <path d="M30.83 88.11H28.63V90.31H30.83V88.11Z" fill="#CEEF1F"/>
    <path d="M33.04 88.11H30.84V90.31H33.04V88.11Z" fill="#2D291B"/>
    <path d="M35.24 88.11H33.04V90.31H35.24V88.11Z" fill="#CEEF1F"/>
    <path d="M37.44 88.11H35.24V90.31H37.44V88.11Z" fill="#B7B71D"/>
    <path d="M39.64 88.11H37.44V90.31H39.64V88.11Z" fill="#B7B71D"/>
    <path d="M41.85 88.11H39.65V90.31H41.85V88.11Z" fill="#050403"/>
    <path d="M44.05 88.11H41.85V90.31H44.05V88.11Z" fill="#050403"/>
    <path d="M46.25 88.11H44.05V90.31H46.25V88.11Z" fill="#050403"/>
    <path d="M48.46 88.11H46.26V90.31H48.46V88.11Z" fill="#050403"/>
    <path d="M50.66 88.11H48.46V90.31H50.66V88.11Z" fill="#3C2833"/>
    <path d="M52.86 88.11H50.66V90.31H52.86V88.11Z" fill="#3C2833"/>
    <path d="M55.06 88.11H52.86V90.31H55.06V88.11Z" fill="#3C2833"/>
    <path d="M57.27 88.11H55.07V90.31H57.27V88.11Z" fill="#050403"/>
    <path d="M2.2 90.31H0V92.51H2.2V90.31Z" fill="#050403"/>
    <path d="M4.40001 90.31H2.20001V92.51H4.40001V90.31Z" fill="#3C2833"/>
    <path d="M6.61 90.31H4.41V92.51H6.61V90.31Z" fill="#62464D"/>
    <path d="M8.80999 90.31H6.60999V92.51H8.80999V90.31Z" fill="#62464D"/>
    <path d="M11.01 90.31H8.81V92.51H11.01V90.31Z" fill="#62464D"/>
    <path d="M13.21 90.31H11.01V92.51H13.21V90.31Z" fill="#3C2833"/>
    <path d="M15.42 90.31H13.22V92.51H15.42V90.31Z" fill="#050403"/>
    <path d="M17.62 90.31H15.42V92.51H17.62V90.31Z" fill="#050403"/>
    <path d="M19.82 90.31H17.62V92.51H19.82V90.31Z" fill="#050403"/>
    <path d="M22.02 90.31H19.82V92.51H22.02V90.31Z" fill="#050403"/>
    <path d="M24.23 90.31H22.03V92.51H24.23V90.31Z" fill="#B7B71D"/>
    <path d="M26.43 90.31H24.23V92.51H26.43V90.31Z" fill="#B7B71D"/>
    <path d="M28.63 90.31H26.43V92.51H28.63V90.31Z" fill="#CEEF1F"/>
    <path d="M30.83 90.31H28.63V92.51H30.83V90.31Z" fill="#2D291B"/>
    <path d="M33.04 90.31H30.84V92.51H33.04V90.31Z" fill="#CEEF1F"/>
    <path d="M35.24 90.31H33.04V92.51H35.24V90.31Z" fill="#B7B71D"/>
    <path d="M37.44 90.31H35.24V92.51H37.44V90.31Z" fill="#B7B71D"/>
    <path d="M39.64 90.31H37.44V92.51H39.64V90.31Z" fill="#050403"/>
    <path d="M41.85 90.31H39.65V92.51H41.85V90.31Z" fill="#050403"/>
    <path d="M44.05 90.31H41.85V92.51H44.05V90.31Z" fill="#050403"/>
    <path d="M46.25 90.31H44.05V92.51H46.25V90.31Z" fill="#050403"/>
    <path d="M48.46 90.31H46.26V92.51H48.46V90.31Z" fill="#3C2833"/>
    <path d="M50.66 90.31H48.46V92.51H50.66V90.31Z" fill="#62464D"/>
    <path d="M52.86 90.31H50.66V92.51H52.86V90.31Z" fill="#62464D"/>
    <path d="M55.06 90.31H52.86V92.51H55.06V90.31Z" fill="#62464D"/>
    <path d="M57.27 90.31H55.07V92.51H57.27V90.31Z" fill="#3C2833"/>
    <path d="M59.47 90.31H57.27V92.51H59.47V90.31Z" fill="#050403"/>
    <path d="M2.2 92.51H0V94.71H2.2V92.51Z" fill="#050403"/>
    <path d="M4.40001 92.51H2.20001V94.71H4.40001V92.51Z" fill="#806666"/>
    <path d="M6.61 92.51H4.41V94.71H6.61V92.51Z" fill="#806666"/>
    <path d="M8.80999 92.51H6.60999V94.71H8.80999V92.51Z" fill="#806666"/>
    <path d="M11.01 92.51H8.81V94.71H11.01V92.51Z" fill="#806666"/>
    <path d="M13.21 92.51H11.01V94.71H13.21V92.51Z" fill="#806666"/>
    <path d="M15.42 92.51H13.22V94.71H15.42V92.51Z" fill="#050403"/>
    <path d="M17.62 92.51H15.42V94.71H17.62V92.51Z" fill="#3C2833"/>
    <path d="M19.82 92.51H17.62V94.71H19.82V92.51Z" fill="#3C2833"/>
    <path d="M22.02 92.51H19.82V94.71H22.02V92.51Z" fill="#3C2833"/>
    <path d="M24.23 92.51H22.03V94.71H24.23V92.51Z" fill="#050403"/>
    <path d="M26.43 92.51H24.23V94.71H26.43V92.51Z" fill="#B7B71D"/>
    <path d="M28.63 92.51H26.43V94.71H28.63V92.51Z" fill="#B7B71D"/>
    <path d="M30.83 92.51H28.63V94.71H30.83V92.51Z" fill="#B7B71D"/>
    <path d="M33.04 92.51H30.84V94.71H33.04V92.51Z" fill="#B7B71D"/>
    <path d="M35.24 92.51H33.04V94.71H35.24V92.51Z" fill="#B7B71D"/>
    <path d="M37.44 92.51H35.24V94.71H37.44V92.51Z" fill="#050403"/>
    <path d="M39.64 92.51H37.44V94.71H39.64V92.51Z" fill="#3C2833"/>
    <path d="M41.85 92.51H39.65V94.71H41.85V92.51Z" fill="#3C2833"/>
    <path d="M44.05 92.51H41.85V94.71H44.05V92.51Z" fill="#3C2833"/>
    <path d="M46.25 92.51H44.05V94.71H46.25V92.51Z" fill="#050403"/>
    <path d="M48.46 92.51H46.26V94.71H48.46V92.51Z" fill="#806666"/>
    <path d="M50.66 92.51H48.46V94.71H50.66V92.51Z" fill="#806666"/>
    <path d="M52.86 92.51H50.66V94.71H52.86V92.51Z" fill="#806666"/>
    <path d="M55.06 92.51H52.86V94.71H55.06V92.51Z" fill="#806666"/>
    <path d="M57.27 92.51H55.07V94.71H57.27V92.51Z" fill="#806666"/>
    <path d="M59.47 92.51H57.27V94.71H59.47V92.51Z" fill="#050403"/>
    <path d="M2.2 94.71H0V96.91H2.2V94.71Z" fill="#050403"/>
    <path d="M4.40001 94.71H2.20001V96.91H4.40001V94.71Z" fill="#806666"/>
    <path d="M6.61 94.71H4.41V96.91H6.61V94.71Z" fill="#806666"/>
    <path d="M8.80999 94.71H6.60999V96.91H8.80999V94.71Z" fill="#806666"/>
    <path d="M11.01 94.71H8.81V96.91H11.01V94.71Z" fill="#806666"/>
    <path d="M13.21 94.71H11.01V96.91H13.21V94.71Z" fill="#806666"/>
    <path d="M15.42 94.71H13.22V96.91H15.42V94.71Z" fill="#050403"/>
    <path d="M17.62 94.71H15.42V96.91H17.62V94.71Z" fill="#050403"/>
    <path d="M19.82 94.71H17.62V96.91H19.82V94.71Z" fill="#050403"/>
    <path d="M22.02 94.71H19.82V96.91H22.02V94.71Z" fill="#050403"/>
    <path d="M24.23 94.71H22.03V96.91H24.23V94.71Z" fill="#050403"/>
    <path d="M26.43 94.71H24.23V96.91H26.43V94.71Z" fill="#050403"/>
    <path d="M28.63 94.71H26.43V96.91H28.63V94.71Z" fill="#B7B71D"/>
    <path d="M30.83 94.71H28.63V96.91H30.83V94.71Z" fill="#B7B71D"/>
    <path d="M33.04 94.71H30.84V96.91H33.04V94.71Z" fill="#B7B71D"/>
    <path d="M35.24 94.71H33.04V96.91H35.24V94.71Z" fill="#050403"/>
    <path d="M37.44 94.71H35.24V96.91H37.44V94.71Z" fill="#050403"/>
    <path d="M39.64 94.71H37.44V96.91H39.64V94.71Z" fill="#050403"/>
    <path d="M41.85 94.71H39.65V96.91H41.85V94.71Z" fill="#050403"/>
    <path d="M44.05 94.71H41.85V96.91H44.05V94.71Z" fill="#050403"/>
    <path d="M46.25 94.71H44.05V96.91H46.25V94.71Z" fill="#050403"/>
    <path d="M48.46 94.71H46.26V96.91H48.46V94.71Z" fill="#806666"/>
    <path d="M50.66 94.71H48.46V96.91H50.66V94.71Z" fill="#806666"/>
    <path d="M52.86 94.71H50.66V96.91H52.86V94.71Z" fill="#806666"/>
    <path d="M55.06 94.71H52.86V96.91H55.06V94.71Z" fill="#806666"/>
    <path d="M57.27 94.71H55.07V96.91H57.27V94.71Z" fill="#806666"/>
    <path d="M59.47 94.71H57.27V96.91H59.47V94.71Z" fill="#050403"/>
    <path d="M2.2 96.92H0V99.12H2.2V96.92Z" fill="#050403"/>
    <path d="M4.40001 96.92H2.20001V99.12H4.40001V96.92Z" fill="#62464D"/>
    <path d="M6.61 96.92H4.41V99.12H6.61V96.92Z" fill="#62464D"/>
    <path d="M8.80999 96.92H6.60999V99.12H8.80999V96.92Z" fill="#62464D"/>
    <path d="M11.01 96.92H8.81V99.12H11.01V96.92Z" fill="#62464D"/>
    <path d="M13.21 96.92H11.01V99.12H13.21V96.92Z" fill="#62464D"/>
    <path d="M15.42 96.92H13.22V99.12H15.42V96.92Z" fill="#050403"/>
    <path d="M17.62 96.92H15.42V99.12H17.62V96.92Z" fill="#050403"/>
    <path d="M19.82 96.92H17.62V99.12H19.82V96.92Z" fill="#050403"/>
    <path d="M22.02 96.92H19.82V99.12H22.02V96.92Z" fill="#3C2833"/>
    <path d="M24.23 96.92H22.03V99.12H24.23V96.92Z" fill="#050403"/>
    <path d="M26.43 96.92H24.23V99.12H26.43V96.92Z" fill="#050403"/>
    <path d="M28.63 96.92H26.43V99.12H28.63V96.92Z" fill="#B7B71D"/>
    <path d="M30.83 96.92H28.63V99.12H30.83V96.92Z" fill="#B7B71D"/>
    <path d="M33.04 96.92H30.84V99.12H33.04V96.92Z" fill="#B7B71D"/>
    <path d="M35.24 96.92H33.04V99.12H35.24V96.92Z" fill="#050403"/>
    <path d="M37.44 96.92H35.24V99.12H37.44V96.92Z" fill="#050403"/>
    <path d="M39.64 96.92H37.44V99.12H39.64V96.92Z" fill="#3C2833"/>
    <path d="M41.85 96.92H39.65V99.12H41.85V96.92Z" fill="#050403"/>
    <path d="M44.05 96.92H41.85V99.12H44.05V96.92Z" fill="#050403"/>
    <path d="M46.25 96.92H44.05V99.12H46.25V96.92Z" fill="#050403"/>
    <path d="M48.46 96.92H46.26V99.12H48.46V96.92Z" fill="#62464D"/>
    <path d="M50.66 96.92H48.46V99.12H50.66V96.92Z" fill="#62464D"/>
    <path d="M52.86 96.92H50.66V99.12H52.86V96.92Z" fill="#62464D"/>
    <path d="M55.06 96.92H52.86V99.12H55.06V96.92Z" fill="#62464D"/>
    <path d="M57.27 96.92H55.07V99.12H57.27V96.92Z" fill="#62464D"/>
    <path d="M59.47 96.92H57.27V99.12H59.47V96.92Z" fill="#050403"/>
    <path d="M2.2 99.12H0V101.32H2.2V99.12Z" fill="#050403"/>
    <path d="M4.40001 99.12H2.20001V101.32H4.40001V99.12Z" fill="#62464D"/>
    <path d="M6.61 99.12H4.41V101.32H6.61V99.12Z" fill="#62464D"/>
    <path d="M8.80999 99.12H6.60999V101.32H8.80999V99.12Z" fill="#62464D"/>
    <path d="M11.01 99.12H8.81V101.32H11.01V99.12Z" fill="#62464D"/>
    <path d="M13.21 99.12H11.01V101.32H13.21V99.12Z" fill="#62464D"/>
    <path d="M15.42 99.12H13.22V101.32H15.42V99.12Z" fill="#050403"/>
    <path d="M17.62 99.12H15.42V101.32H17.62V99.12Z" fill="#3C2833"/>
    <path d="M19.82 99.12H17.62V101.32H19.82V99.12Z" fill="#3C2833"/>
    <path d="M22.02 99.12H19.82V101.32H22.02V99.12Z" fill="#050403"/>
    <path d="M24.23 99.12H22.03V101.32H24.23V99.12Z" fill="#050403"/>
    <path d="M26.43 99.12H24.23V101.32H26.43V99.12Z" fill="#050403"/>
    <path d="M28.63 99.12H26.43V101.32H28.63V99.12Z" fill="#050403"/>
    <path d="M30.83 99.12H28.63V101.32H30.83V99.12Z" fill="#050403"/>
    <path d="M33.04 99.12H30.84V101.32H33.04V99.12Z" fill="#050403"/>
    <path d="M35.24 99.12H33.04V101.32H35.24V99.12Z" fill="#050403"/>
    <path d="M37.44 99.12H35.24V101.32H37.44V99.12Z" fill="#050403"/>
    <path d="M39.64 99.12H37.44V101.32H39.64V99.12Z" fill="#050403"/>
    <path d="M41.85 99.12H39.65V101.32H41.85V99.12Z" fill="#3C2833"/>
    <path d="M44.05 99.12H41.85V101.32H44.05V99.12Z" fill="#3C2833"/>
    <path d="M46.25 99.12H44.05V101.32H46.25V99.12Z" fill="#050403"/>
    <path d="M48.46 99.12H46.26V101.32H48.46V99.12Z" fill="#62464D"/>
    <path d="M50.66 99.12H48.46V101.32H50.66V99.12Z" fill="#62464D"/>
    <path d="M52.86 99.12H50.66V101.32H52.86V99.12Z" fill="#62464D"/>
    <path d="M55.06 99.12H52.86V101.32H55.06V99.12Z" fill="#62464D"/>
    <path d="M57.27 99.12H55.07V101.32H57.27V99.12Z" fill="#62464D"/>
    <path d="M59.47 99.12H57.27V101.32H59.47V99.12Z" fill="#050403"/>
    <path d="M2.2 101.32H0V103.52H2.2V101.32Z" fill="#050403"/>
    <path d="M4.40001 101.32H2.20001V103.52H4.40001V101.32Z" fill="#3C2833"/>
    <path d="M6.61 101.32H4.41V103.52H6.61V101.32Z" fill="#3C2833"/>
    <path d="M8.80999 101.32H6.60999V103.52H8.80999V101.32Z" fill="#3C2833"/>
    <path d="M11.01 101.32H8.81V103.52H11.01V101.32Z" fill="#3C2833"/>
    <path d="M13.21 101.32H11.01V103.52H13.21V101.32Z" fill="#3C2833"/>
    <path d="M15.42 101.32H13.22V103.52H15.42V101.32Z" fill="#050403"/>
    <path d="M17.62 101.32H15.42V103.52H17.62V101.32Z" fill="#050403"/>
    <path d="M19.82 101.32H17.62V103.52H19.82V101.32Z" fill="#CEEF1F"/>
    <path d="M22.02 101.32H19.82V103.52H22.02V101.32Z" fill="#CEEF1F"/>
    <path d="M24.23 101.32H22.03V103.52H24.23V101.32Z" fill="#050403"/>
    <path d="M26.43 101.32H24.23V103.52H26.43V101.32Z" fill="#CEEF1F"/>
    <path d="M28.63 101.32H26.43V103.52H28.63V101.32Z" fill="#CEEF1F"/>
    <path d="M30.83 101.32H28.63V103.52H30.83V101.32Z" fill="#CEEF1F"/>
    <path d="M33.04 101.32H30.84V103.52H33.04V101.32Z" fill="#CEEF1F"/>
    <path d="M35.24 101.32H33.04V103.52H35.24V101.32Z" fill="#CEEF1F"/>
    <path d="M37.44 101.32H35.24V103.52H37.44V101.32Z" fill="#050403"/>
    <path d="M39.64 101.32H37.44V103.52H39.64V101.32Z" fill="#CEEF1F"/>
    <path d="M41.85 101.32H39.65V103.52H41.85V101.32Z" fill="#CEEF1F"/>
    <path d="M44.05 101.32H41.85V103.52H44.05V101.32Z" fill="#050403"/>
    <path d="M46.25 101.32H44.05V103.52H46.25V101.32Z" fill="#050403"/>
    <path d="M48.46 101.32H46.26V103.52H48.46V101.32Z" fill="#3C2833"/>
    <path d="M50.66 101.32H48.46V103.52H50.66V101.32Z" fill="#3C2833"/>
    <path d="M52.86 101.32H50.66V103.52H52.86V101.32Z" fill="#3C2833"/>
    <path d="M55.06 101.32H52.86V103.52H55.06V101.32Z" fill="#3C2833"/>
    <path d="M57.27 101.32H55.07V103.52H57.27V101.32Z" fill="#3C2833"/>
    <path d="M59.47 101.32H57.27V103.52H59.47V101.32Z" fill="#050403"/>
    <path d="M2.2 103.52H0V105.72H2.2V103.52Z" fill="#050403"/>
    <path d="M4.40001 103.52H2.20001V105.72H4.40001V103.52Z" fill="#3C2833"/>
    <path d="M6.61 103.52H4.41V105.72H6.61V103.52Z" fill="#3C2833"/>
    <path d="M8.80999 103.52H6.60999V105.72H8.80999V103.52Z" fill="#3C2833"/>
    <path d="M11.01 103.52H8.81V105.72H11.01V103.52Z" fill="#3C2833"/>
    <path d="M13.21 103.52H11.01V105.72H13.21V103.52Z" fill="#3C2833"/>
    <path d="M15.42 103.52H13.22V105.72H15.42V103.52Z" fill="#CEEF1F"/>
    <path d="M17.62 103.52H15.42V105.72H17.62V103.52Z" fill="#050403"/>
    <path d="M19.82 103.52H17.62V105.72H19.82V103.52Z" fill="#CEEF1F"/>
    <path d="M22.02 103.52H19.82V105.72H22.02V103.52Z" fill="#B7B71D"/>
    <path d="M24.23 103.52H22.03V105.72H24.23V103.52Z" fill="#B7B71D"/>
    <path d="M26.43 103.52H24.23V105.72H26.43V103.52Z" fill="#B7B71D"/>
    <path d="M28.63 103.52H26.43V105.72H28.63V103.52Z" fill="#B7B71D"/>
    <path d="M30.83 103.52H28.63V105.72H30.83V103.52Z" fill="#B7B71D"/>
    <path d="M33.04 103.52H30.84V105.72H33.04V103.52Z" fill="#B7B71D"/>
    <path d="M35.24 103.52H33.04V105.72H35.24V103.52Z" fill="#B7B71D"/>
    <path d="M37.44 103.52H35.24V105.72H37.44V103.52Z" fill="#B7B71D"/>
    <path d="M39.64 103.52H37.44V105.72H39.64V103.52Z" fill="#B7B71D"/>
    <path d="M41.85 103.52H39.65V105.72H41.85V103.52Z" fill="#CEEF1F"/>
    <path d="M44.05 103.52H41.85V105.72H44.05V103.52Z" fill="#050403"/>
    <path d="M46.25 103.52H44.05V105.72H46.25V103.52Z" fill="#CEEF1F"/>
    <path d="M48.46 103.52H46.26V105.72H48.46V103.52Z" fill="#3C2833"/>
    <path d="M50.66 103.52H48.46V105.72H50.66V103.52Z" fill="#3C2833"/>
    <path d="M52.86 103.52H50.66V105.72H52.86V103.52Z" fill="#3C2833"/>
    <path d="M55.06 103.52H52.86V105.72H55.06V103.52Z" fill="#3C2833"/>
    <path d="M57.27 103.52H55.07V105.72H57.27V103.52Z" fill="#3C2833"/>
    <path d="M59.47 103.52H57.27V105.72H59.47V103.52Z" fill="#050403"/>
    <path d="M4.40001 105.73H2.20001V107.93H4.40001V105.73Z" fill="#050403"/>
    <path d="M6.61 105.73H4.41V107.93H6.61V105.73Z" fill="#050403"/>
    <path d="M8.80999 105.73H6.60999V107.93H8.80999V105.73Z" fill="#050403"/>
    <path d="M11.01 105.73H8.81V107.93H11.01V105.73Z" fill="#050403"/>
    <path d="M13.21 105.73H11.01V107.93H13.21V105.73Z" fill="#050403"/>
    <path d="M15.42 105.73H13.22V107.93H15.42V105.73Z" fill="#CEEF1F"/>
    <path d="M17.62 105.73H15.42V107.93H17.62V105.73Z" fill="#050403"/>
    <path d="M19.82 105.73H17.62V107.93H19.82V105.73Z" fill="#CEEF1F"/>
    <path d="M22.02 105.73H19.82V107.93H22.02V105.73Z" fill="#CEEF1F"/>
    <path d="M24.23 105.73H22.03V107.93H24.23V105.73Z" fill="#CEEF1F"/>
    <path d="M26.43 105.73H24.23V107.93H26.43V105.73Z" fill="#CEEF1F"/>
    <path d="M28.63 105.73H26.43V107.93H28.63V105.73Z" fill="#CEEF1F"/>
    <path d="M30.83 105.73H28.63V107.93H30.83V105.73Z" fill="#CEEF1F"/>
    <path d="M33.04 105.73H30.84V107.93H33.04V105.73Z" fill="#CEEF1F"/>
    <path d="M35.24 105.73H33.04V107.93H35.24V105.73Z" fill="#CEEF1F"/>
    <path d="M37.44 105.73H35.24V107.93H37.44V105.73Z" fill="#CEEF1F"/>
    <path d="M39.64 105.73H37.44V107.93H39.64V105.73Z" fill="#CEEF1F"/>
    <path d="M41.85 105.73H39.65V107.93H41.85V105.73Z" fill="#CEEF1F"/>
    <path d="M44.05 105.73H41.85V107.93H44.05V105.73Z" fill="#050403"/>
    <path d="M46.25 105.73H44.05V107.93H46.25V105.73Z" fill="#CEEF1F"/>
    <path d="M48.46 105.73H46.26V107.93H48.46V105.73Z" fill="#050403"/>
    <path d="M50.66 105.73H48.46V107.93H50.66V105.73Z" fill="#050403"/>
    <path d="M52.86 105.73H50.66V107.93H52.86V105.73Z" fill="#050403"/>
    <path d="M55.06 105.73H52.86V107.93H55.06V105.73Z" fill="#050403"/>
    <path d="M57.27 105.73H55.07V107.93H57.27V105.73Z" fill="#050403"/>
    <path d="M13.21 107.93H11.01V110.13H13.21V107.93Z" fill="#050403"/>
    <path d="M15.42 107.93H13.22V110.13H15.42V107.93Z" fill="#CEEF1F"/>
    <path d="M17.62 107.93H15.42V110.13H17.62V107.93Z" fill="#050403"/>
    <path d="M19.82 107.93H17.62V110.13H19.82V107.93Z" fill="#CEEF1F"/>
    <path d="M22.02 107.93H19.82V110.13H22.02V107.93Z" fill="#B7B71D"/>
    <path d="M24.23 107.93H22.03V110.13H24.23V107.93Z" fill="#B7B71D"/>
    <path d="M26.43 107.93H24.23V110.13H26.43V107.93Z" fill="#B7B71D"/>
    <path d="M28.63 107.93H26.43V110.13H28.63V107.93Z" fill="#B7B71D"/>
    <path d="M30.83 107.93H28.63V110.13H30.83V107.93Z" fill="#B7B71D"/>
    <path d="M33.04 107.93H30.84V110.13H33.04V107.93Z" fill="#B7B71D"/>
    <path d="M35.24 107.93H33.04V110.13H35.24V107.93Z" fill="#B7B71D"/>
    <path d="M37.44 107.93H35.24V110.13H37.44V107.93Z" fill="#B7B71D"/>
    <path d="M39.64 107.93H37.44V110.13H39.64V107.93Z" fill="#B7B71D"/>
    <path d="M41.85 107.93H39.65V110.13H41.85V107.93Z" fill="#CEEF1F"/>
    <path d="M44.05 107.93H41.85V110.13H44.05V107.93Z" fill="#050403"/>
    <path d="M46.25 107.93H44.05V110.13H46.25V107.93Z" fill="#CEEF1F"/>
    <path d="M48.46 107.93H46.26V110.13H48.46V107.93Z" fill="#050403"/>
    <path d="M13.21 110.13H11.01V112.33H13.21V110.13Z" fill="#050403"/>
    <path d="M15.42 110.13H13.22V112.33H15.42V110.13Z" fill="#CEEF1F"/>
    <path d="M17.62 110.13H15.42V112.33H17.62V110.13Z" fill="#050403"/>
    <path d="M19.82 110.13H17.62V112.33H19.82V110.13Z" fill="#050403"/>
    <path d="M22.02 110.13H19.82V112.33H22.02V110.13Z" fill="#050403"/>
    <path d="M24.23 110.13H22.03V112.33H24.23V110.13Z" fill="#050403"/>
    <path d="M26.43 110.13H24.23V112.33H26.43V110.13Z" fill="#050403"/>
    <path d="M28.63 110.13H26.43V112.33H28.63V110.13Z" fill="#050403"/>
    <path d="M30.83 110.13H28.63V112.33H30.83V110.13Z" fill="#050403"/>
    <path d="M33.04 110.13H30.84V112.33H33.04V110.13Z" fill="#050403"/>
    <path d="M35.24 110.13H33.04V112.33H35.24V110.13Z" fill="#050403"/>
    <path d="M37.44 110.13H35.24V112.33H37.44V110.13Z" fill="#050403"/>
    <path d="M39.64 110.13H37.44V112.33H39.64V110.13Z" fill="#050403"/>
    <path d="M41.85 110.13H39.65V112.33H41.85V110.13Z" fill="#050403"/>
    <path d="M44.05 110.13H41.85V112.33H44.05V110.13Z" fill="#050403"/>
    <path d="M46.25 110.13H44.05V112.33H46.25V110.13Z" fill="#CEEF1F"/>
    <path d="M48.46 110.13H46.26V112.33H48.46V110.13Z" fill="#050403"/>
    <path d="M13.21 112.33H11.01V114.53H13.21V112.33Z" fill="#050403"/>
    <path d="M15.42 112.33H13.22V114.53H15.42V112.33Z" fill="#050403"/>
    <path d="M46.25 112.33H44.05V114.53H46.25V112.33Z" fill="#050403"/>
    <path d="M48.46 112.33H46.26V114.53H48.46V112.33Z" fill="#050403"/>
</svg>